<?xml version="1.0" encoding="utf-8"?>
<!-- Generator: Adobe Illustrator 18.1.1, SVG Export Plug-In . SVG Version: 6.00 Build 0)  -->
<svg version="1.1" id="Layer_1" xmlns="http://www.w3.org/2000/svg" xmlns:xlink="http://www.w3.org/1999/xlink" x="0px" y="0px"
	 viewBox="0 0 766 500" enable-background="new 0 0 766 500" xml:space="preserve">
<path opacity="0.2" fill="#FE6716" d="M155.1,258.6c-2.9-5-1.5-11.4,1.8-15.9c3.9-5.3,10.6-7.6,17-8.1c5.2,0,10.9,0.1,15.2,3.4
	c7,5,9.3,15.6,4.7,23c-2.8,5.1-8.1,8.1-11.4,12.8c-1.3,3.7,0.3,7.8-0.2,11.6c-1.4,0.6-2.9,1.1-4.3,1.5c-1.7-5-3.5-10.2-2.4-15.5
	c0.9-4.8,4.1-8.8,5.7-13.3c1.9-5.3-0.1-11.8-5-14.8c-3.9-2-8.5-1.5-12.2,0.8c2.7,3.7,7.1,7.4,5.6,12.6
	C168.5,263.5,158.3,264.1,155.1,258.6z"/>
<path opacity="0.2" fill="#FE6716" d="M174.5,302.3c-0.2-4.6,3.4-9.3,8.1-9.5c5.1-0.4,10.1,4.2,9.6,9.4c0.1,4.9-4.6,9.3-9.5,8.6
	C178.2,310.7,174.6,306.6,174.5,302.3z"/>
<path opacity="0.2" fill="#FE6716" d="M223.6,82.6c2.8-3.5,7.2-5.3,11.5-5.8c5.6-0.3,10.6,4.6,10.4,10.2c-0.4,3.7-2.8,6.7-3.7,10.2
	c-0.3,2.3,0.5,4.5,0.9,6.7c-0.9,0.3-1.8,0.7-2.7,1.1c-1.5-2.8-3.1-5.7-2.8-9c-0.1-4.2,1.6-9.8-2.6-12.6c-2.4-2.3-5.5-0.3-7.9,0.8
	c2.1,2.3,5.8,4.6,4.9,8.3c-1.3,2.6-4.6,2.6-7,2C220.7,91.7,220.8,86,223.6,82.6z"/>
<path opacity="0.2" fill="#FE6716" d="M243,107.9c2.4-1.4,6.2-1,7.4,1.7c1.4,2.3-0.2,4.8-0.7,7.2c-2.6-0.5-6.3,0.8-8-1.6
	C241.1,112.9,240.5,109.4,243,107.9z"/>
<path opacity="0.2" fill="#FE6716" d="M162.2,171.8c2.8-3.4,7.2-5.3,11.5-5.8c5.6-0.3,10.6,4.6,10.3,10.2c-0.4,3.7-2.8,6.7-3.7,10.2
	c-0.3,2.3,0.5,4.5,0.9,6.7c-0.9,0.4-1.8,0.7-2.7,1.1c-1.5-2.8-3.2-5.7-2.8-9c-0.1-4.2,1.6-9.8-2.6-12.6c-2.4-2.3-5.5-0.3-7.9,0.8
	c2.1,2.3,5.8,4.6,4.9,8.3c-1.3,2.6-4.6,2.6-7,2C159.3,181,159.4,175.2,162.2,171.8z"/>
<path opacity="0.2" fill="#FE6716" d="M181.6,197.2c2.4-1.4,6.2-1,7.4,1.7c1.4,2.3-0.2,4.8-0.7,7.2c-2.6-0.5-6.3,0.8-8-1.6
	C179.7,202.1,179.1,198.7,181.6,197.2z"/>
<path opacity="0.2" fill="#FE6716" d="M403.8,21.7c2.8-3.4,7.2-5.3,11.5-5.7c5.6-0.3,10.6,4.6,10.4,10.2c-0.4,3.7-2.8,6.7-3.7,10.2
	c-0.3,2.3,0.5,4.5,0.9,6.7c-0.9,0.3-1.8,0.7-2.7,1.1c-1.5-2.8-3.1-5.7-2.8-9c-0.1-4.2,1.6-9.8-2.6-12.6c-2.4-2.3-5.5-0.3-7.9,0.8
	c2.1,2.4,5.8,4.6,4.9,8.3c-1.3,2.6-4.6,2.6-7,2C400.9,30.9,401,25.2,403.8,21.7z"/>
<path opacity="0.2" fill="#FE6716" d="M423.2,47.1c2.4-1.3,6.2-1,7.4,1.7c1.4,2.3-0.2,4.8-0.7,7.2c-2.6-0.5-6.3,0.8-8-1.6
	C421.3,52,420.7,48.6,423.2,47.1z"/>
<path opacity="0.2" fill="#FE6716" d="M193.3,106.4c4.3-0.6,8.9,1.8,10.6,5.8c1.5,4.2,0.6,9.7-3.4,12.2c-4.7,3.3-12.1,1.9-14.6-3.4
	C182.2,115.4,186.6,106.9,193.3,106.4z"/>
<path opacity="0.2" fill="#FE6716" d="M203.7,129.8c1.9,0.1,4.4-0.9,5.9,0.7c4.5,4.4,8,10.2,8.6,16.5c0.6,4.8-0.3,9.6,0.8,14.3
	c2,6,8.3,11.4,14.9,9.6c3.9-0.5,6.5-3.6,8.4-6.8c-4.4-2-10.6-3.5-11.6-9.2c-1.8-6.7,5.9-12.8,12.1-10c8.7,3.8,9.8,15.9,5.5,23.4
	c-4.6,7.2-12.2,12.5-20.5,14.6c-11.8,2.9-24.6-7.8-23.5-19.9c-0.2-6.7,4-12.4,5.2-18.8C208.2,139.1,204.4,135,203.7,129.8z"/>
<path opacity="0.2" fill="#FE6716" d="M203.5,209.5c4.6-3.6,10.7-4.8,16.5-4.7c5.9,0.4,12.3,1.2,17.1,5.1c7.8,6,9.7,18.1,4,26.2
	c-3.9,6.3-11.2,8.8-16.6,13.5c-2.5,3.7-2.1,8.6-2.9,12.9c-1.4,0.5-2.8,1-4.1,1.5c-3.9-7.6-2.5-17.1,2.7-23.7
	c2.8-3.9,6.9-7.4,7.4-12.5c0.7-4.9-0.2-10.8-4.8-13.5c-3.6-2.4-8.1-2.1-12.1-1.1c1.4,4.6,5.3,9.1,3.7,14.1
	c-1.2,4.6-6.7,7.2-11.1,5.6c-4.5-1.4-7.1-6.3-6.6-10.8C197.1,217.1,199.7,212.5,203.5,209.5z"/>
<path opacity="0.2" fill="#FE6716" d="M215.3,271.2c6.3-2.5,14.7,2.6,13.5,9.8c0.6,7.3-8.2,11.8-14.3,8.5
	C207.1,286.3,207.7,273.8,215.3,271.2z"/>
<path opacity="0.2" fill="#FE6716" d="M206.3,303.9c3.8-4.4,10.3-5.2,15.6-3.5c6.3,1.9,10.7,7.5,13.3,13.3
	c1.8,4.9,3.5,10.3,1.8,15.5c-2.4,8.3-11.6,14-20.1,12.1c-5.8-0.9-10.3-5-15.9-6.5c-4,0-7.2,2.9-11.1,3.7c-1-1.1-2-2.3-2.9-3.6
	c4.1-3.2,8.5-6.7,13.8-7.4c4.9-0.8,9.6,0.9,14.5,1c5.6,0,11.1-4.1,12.3-9.6c0.6-4.3-1.4-8.5-4.8-11.2c-2.5,3.8-4.6,9.2-10,9.5
	C206.1,318.1,202.1,308.7,206.3,303.9z"/>
<path opacity="0.2" fill="#FE6716" d="M171.6,336.8c4.2-1.7,9.9,0.1,11.7,4.5c2.1,4.7-0.6,10.9-5.6,12.1c-4.6,1.8-10.3-1.3-11.3-6.1
	C164.8,343,167.5,338.3,171.6,336.8z"/>
<path opacity="0.2" fill="#FE6716" d="M187.6,374.9c1.8-4,5.6-7,9.6-8.5c5.3-1.7,11.5,1.8,12.6,7.2c0.6,3.6-1,7.2-0.9,10.8
	c0.3,2.3,1.7,4.2,2.6,6.3c-0.8,0.6-1.5,1.1-2.3,1.7c-2.1-2.3-4.5-4.7-5-8c-1.2-4.1-0.9-9.9-5.7-11.5c-2.9-1.6-5.4,1.1-7.5,2.8
	c2.6,1.7,6.8,3,6.8,6.8c-0.6,2.8-3.8,3.7-6.3,3.7C187.1,384.5,185.7,378.9,187.6,374.9z"/>
<path opacity="0.2" fill="#FE6716" d="M212.8,394.5c2-1.9,5.7-2.6,7.6-0.2c2,1.8,1.1,4.7,1.2,7.1c-2.6,0.2-5.8,2.4-8.2,0.5
	C212.2,399.8,210.7,396.6,212.8,394.5z"/>
<path opacity="0.2" fill="#FE6716" d="M453.8,344.7c3.8-4.4,10.3-5.2,15.6-3.5c6.3,1.9,10.7,7.5,13.3,13.3
	c1.8,4.9,3.5,10.3,1.8,15.5c-2.4,8.3-11.6,14-20.1,12.1c-5.8-0.9-10.3-5-15.9-6.5c-4,0-7.2,2.9-11.1,3.7c-1-1.1-2-2.3-2.9-3.6
	c4.1-3.2,8.5-6.7,13.8-7.4c4.9-0.8,9.6,0.9,14.5,1c5.6,0,11.1-4.1,12.3-9.6c0.6-4.3-1.4-8.5-4.8-11.2c-2.5,3.8-4.6,9.2-10,9.5
	C453.7,358.9,449.7,349.5,453.8,344.7z"/>
<path opacity="0.2" fill="#FE6716" d="M329,361.6c9.8-6.3,22.5-10.2,33.9-6.1c14.8,5.1,23.8,22.3,19.8,37.4c-1.8,8-6.2,15-9,22.6
	c-2.1,5.3,1.3,10.4,3.8,14.9c1.2,2.5,3.6,5.3,2.3,8.2c-1.2,3.2-5.8,4.3-8,1.5c-6.3-7.4-11.8-16.4-12.1-26.4
	c-0.8-8.4,2.6-16.7,0.5-25c-2.8-8.2-9.6-16.3-18.9-16.8c-5.9,0-12.2,1.9-16.1,6.5c-1.5,1.6-0.6,4-0.7,5.9c3.9,1.4,8,2.6,11.2,5.2
	c4.4,3.9,6.3,10.6,3.9,16.1c-2.3,5.4-8.3,8.8-14.1,8.6c-5.7-0.3-10.5-4.4-13.2-9.2c-2.8-5.9-3.9-12.7-2.5-19.1
	C311.8,375,320.3,367.1,329,361.6z"/>
<path opacity="0.2" fill="#FE6716" d="M246,425.1c-3.8-9.4,3.8-20,12.9-22.5c6.8-2.1,13.9,3.3,15.5,9.8c1.2,4.4-0.4,9,0.2,13.5
	c0.8,2.9,3.1,5.1,4.8,7.5c-0.4,0.7-1.3,2-1.7,2.7c-2.9-1.9-6-3.7-7.9-6.7c-2.4-4.1-2.3-9.1-4.6-13.2c-1.9-3-5.5-5.4-9.1-4.6
	c-2.3,0.9-4.1,2.6-6,4.1c0.2,0.6,0.6,1.7,0.9,2.2c2.3,0.8,4.8,1.2,6.8,2.7c1.7,2.5,2.5,6.6-0.6,8.4
	C253.4,432.6,247.4,429.5,246,425.1z"/>
<path opacity="0.2" fill="#FE6716" d="M419.1,377.5c4.2-1.7,9.9,0.1,11.7,4.5c2.1,4.7-0.6,10.9-5.6,12.1c-4.6,1.8-10.3-1.3-11.3-6.1
	C412.4,383.8,415.1,379.1,419.1,377.5z"/>
<path opacity="0.2" fill="#FE6716" d="M284.8,436c4.3-2.5,11,1.9,9.4,7c-0.2,5.8-9,7.8-11.8,2.9C280,442.7,281.1,437.8,284.8,436z"
	/>
<path opacity="0.2" fill="#FE6716" d="M455.8,409.6c1.8-4,5.6-7,9.6-8.5c5.3-1.7,11.5,1.8,12.6,7.2c0.6,3.6-1,7.2-0.9,10.8
	c0.3,2.3,1.7,4.2,2.6,6.3c-0.8,0.6-1.5,1.1-2.3,1.7c-2.1-2.3-4.5-4.7-5-8c-1.2-4.1-0.9-9.9-5.7-11.5c-2.9-1.6-5.4,1.1-7.5,2.8
	c2.6,1.7,6.8,3,6.8,6.8c-0.6,2.8-3.8,3.7-6.3,3.7C455.4,419.2,454,413.6,455.8,409.6z"/>
<path opacity="0.2" fill="#FE6716" d="M317,444.9c3.5-3.1,9.6,0.9,8,5.3c-0.7,3.3-5,4.4-7.8,3.1C314.8,451.3,313.9,446.7,317,444.9z
	"/>
<path opacity="0.2" fill="#FE6716" d="M326.7,454.8c0.7-0.3,2-1,2.7-1.3c2.4,2.1,5.3,4.1,6.3,7.3c1.5,3.7,2.1,8.9,6.6,10.2
	c3.3,1.3,5.8-1.6,7.9-3.7c-2.8-1.6-7.8-2.1-7.9-6.2c0.4-4.6,7-6.2,9.4-2.3c5.1,6.2,0.4,15.2-5.9,18.4c-4.7,3-11.4,0.9-13.8-4
	c-1.9-4-0.5-8.5-1.4-12.7C329.7,458.4,328,456.6,326.7,454.8z"/>
<path opacity="0.2" fill="#FE6716" d="M481.1,429.2c2-1.9,5.7-2.6,7.6-0.2c2,1.8,1.1,4.7,1.2,7.1c-2.6,0.2-5.8,2.4-8.2,0.5
	C480.4,434.4,479,431.2,481.1,429.2z"/>
<path opacity="0.2" fill="#FE6716" d="M444.9,447.5c4-1.7,9.1-0.6,11.7,2.9c2.6,3.7,3,9.2-0.1,12.7c-3.7,4.4-11.2,5-15,0.4
	C436.4,459,438.4,449.6,444.9,447.5z"/>
<path opacity="0.2" fill="#FE6716" d="M386.3,451.7c7.9-2.9,17.5,1.8,19.7,10c3.3,8.3-2.2,18.6-11.1,20.1
	c-8.5,2.9-17.7-3.6-19.8-11.8C373.7,462.3,378.6,453.8,386.3,451.7z"/>
<path opacity="0.2" fill="#FE6716" d="M507.6,381.5c-3.8-9.4,3.8-20,12.9-22.5c6.8-2.1,13.9,3.3,15.5,9.8c1.2,4.4-0.4,9,0.2,13.5
	c0.8,2.9,3.1,5.1,4.8,7.5c-0.4,0.7-1.3,2-1.7,2.7c-2.9-1.9-6-3.7-7.9-6.7c-2.4-4.1-2.3-9.1-4.6-13.2c-1.9-3-5.5-5.4-9.1-4.6
	c-2.3,0.9-4.1,2.6-6,4.1c0.2,0.6,0.6,1.7,0.9,2.2c2.3,0.8,4.8,1.2,6.8,2.7c1.7,2.5,2.5,6.6-0.6,8.4C515,389.1,509,385.9,507.6,381.5
	z"/>
<path opacity="0.2" fill="#FE6716" d="M546.4,392.5c4.3-2.5,11,1.9,9.4,7c-0.2,5.8-9,7.8-11.8,2.9
	C541.6,399.2,542.8,394.3,546.4,392.5z"/>
<path opacity="0.2" fill="#FE6716" d="M542.8,318.2c3.5-3.1,9.6,0.9,8,5.3c-0.7,3.3-5,4.4-7.8,3.1
	C540.6,324.6,539.7,320,542.8,318.2z"/>
<path opacity="0.2" fill="#FE6716" d="M552.4,328c0.7-0.3,2-1,2.7-1.3c2.4,2.1,5.3,4.1,6.3,7.3c1.5,3.7,2.1,8.9,6.6,10.2
	c3.3,1.3,5.8-1.6,7.9-3.7c-2.8-1.6-7.8-2.1-7.9-6.2c0.4-4.6,7-6.2,9.4-2.3c5.1,6.2,0.4,15.2-5.9,18.4c-4.7,3-11.4,0.9-13.8-4
	c-1.9-4-0.5-8.5-1.4-12.7C555.5,331.7,553.8,329.9,552.4,328z"/>
<path opacity="0.2" fill="#FE6716" d="M505.3,304.1c-3.4-4.3-1.8-11.2,2.8-14c5.6-3.6,12.9-2.8,18.8-0.4c8.7,3.3,10.2,17.3,2.2,22.3
	c-3,2.1-6.5,3.2-9.3,5.4c-1.9,2.2-2.1,5.3-2.9,8c-0.7,0.2-2.2,0.7-2.9,1c-0.5-3.3-1.3-6.8,0.1-9.9c2.1-6.2,10-9.4,9.6-16.5
	c-0.1-5.2-5.8-8.8-10.6-6.9c0.8,2.5,1.9,5,2,7.7C514.6,305.1,508.3,306.8,505.3,304.1z"/>
<path opacity="0.2" fill="#FE6716" d="M509.2,332.4c2.7-2.5,7.5-2.6,9.8,0.5c3.5,3.9,0.6,11.1-4.9,10.8
	C508.3,344.6,504.8,336,509.2,332.4z"/>
<path opacity="0.2" fill="#FE6716" d="M480.9,44.5c4.7-3.2,11.3-2.4,15.9,0.5c5.6,3.4,8.5,10,9.4,16.3c0.5,5.2,0.8,10.9-2.2,15.4
	c-4.5,7.4-14.8,10.6-22.5,6.6c-5.3-2.4-8.7-7.4-13.7-10.3c-3.8-1-7.7,1-11.6,0.7c-0.7-1.4-1.3-2.8-1.9-4.2c4.8-2.1,9.9-4.3,15.3-3.6
	c4.9,0.5,9.1,3.4,13.7,4.6c5.4,1.5,11.8-1.1,14.3-6.2c1.7-4,0.8-8.6-1.8-12.1c-3.4,3-6.8,7.7-12,6.7
	C477.2,58.2,475.7,48.1,480.9,44.5z"/>
<path opacity="0.2" fill="#FE6716" d="M363.6,49.1c11.1-3.6,24.4-4.1,34.4,2.8c13,8.7,17.3,27.7,9.6,41.2
	c-3.8,7.3-9.8,12.9-14.5,19.5c-3.4,4.6-1.4,10.4-0.1,15.4c0.5,2.7,2.1,6,0.1,8.5c-2,2.8-6.7,2.6-8.1-0.6c-4.2-8.8-7.2-18.9-5-28.6
	c1.3-8.3,6.8-15.5,6.9-24.1c-0.6-8.7-5.1-18.2-13.9-21.1c-5.7-1.5-12.3-1.3-17.2,2.2c-1.8,1.2-1.5,3.7-2.2,5.5
	c3.4,2.4,7.1,4.5,9.5,7.9c3.3,4.8,3.4,11.9-0.3,16.6c-3.6,4.7-10.3,6.3-15.9,4.7c-5.5-1.7-9.1-6.9-10.4-12.3
	c-1.2-6.4-0.6-13.3,2.4-19.2C343.5,57.7,353.7,52.2,363.6,49.1z"/>
<path opacity="0.2" fill="#FE6716" d="M259.5,69.2c-1.3-10.1,8.8-18.4,18.2-18.5c7.1-0.3,12.6,6.7,12.4,13.5
	c0.1,4.6-2.6,8.6-3.2,13.1c0,3,1.6,5.7,2.7,8.5c-0.6,0.5-1.7,1.6-2.3,2.2c-2.3-2.5-4.9-5.1-5.9-8.5c-1.3-4.5,0.1-9.4-1.1-13.9
	c-1-3.4-3.9-6.6-7.6-6.8c-2.4,0.3-4.6,1.5-6.9,2.4c0.1,0.6,0.2,1.8,0.3,2.4c2,1.3,4.3,2.4,5.9,4.4c1,2.9,0.7,7-2.7,8
	C264.7,78.3,259.7,73.8,259.5,69.2z"/>
<path opacity="0.2" fill="#FE6716" d="M439,67.4c4.5-0.6,9.5,2.6,10.1,7.3c0.8,5-3.3,10.4-8.6,10.3c-4.9,0.5-9.6-3.8-9.3-8.8
	C430.9,71.7,434.7,67.8,439,67.4z"/>
<path opacity="0.2" fill="#FE6716" d="M294.2,89.7c4.8-1.3,10.2,4.7,7.3,9.2c-1.7,5.5-10.7,5.3-12.2-0.2
	C287.8,94.9,290.2,90.5,294.2,89.7z"/>
<path opacity="0.2" fill="#FE6716" d="M466.3,107.7c2.8-3.5,7.2-5.3,11.5-5.8c5.6-0.3,10.6,4.6,10.3,10.2c-0.4,3.7-2.8,6.7-3.7,10.2
	c-0.3,2.3,0.5,4.5,0.9,6.7c-0.9,0.4-1.8,0.7-2.7,1.1c-1.5-2.8-3.2-5.7-2.8-9c-0.1-4.2,1.6-9.8-2.6-12.6c-2.4-2.3-5.5-0.3-7.9,0.8
	c2.1,2.3,5.8,4.6,4.9,8.3c-1.3,2.6-4.6,2.6-7,2C463.4,116.9,463.5,111.2,466.3,107.7z"/>
<path opacity="0.2" fill="#FE6716" d="M323.1,106.5c4.2-2.1,9,3.3,6.4,7.2c-1.6,3-5.9,3-8.3,1C319.3,112.2,319.6,107.4,323.1,106.5z
	"/>
<path opacity="0.2" fill="#FE6716" d="M329.9,118.5c0.7-0.2,2.2-0.4,2.9-0.6c1.8,2.6,4,5.3,4.2,8.7c0.5,4-0.2,9.1,3.8,11.6
	c2.8,2.1,6.1-0.1,8.6-1.5c-2.2-2.3-7-4.1-6.1-8c1.5-4.4,8.3-4.2,9.7,0.2c3.3,7.3-3.5,14.8-10.4,16.3c-5.3,1.7-11.2-2-12.4-7.4
	c-0.9-4.3,1.6-8.4,1.9-12.6C331.9,122.8,330.7,120.6,329.9,118.5z"/>
<path opacity="0.2" fill="#FE6716" d="M273.6,145.1c-2.2-5,1.1-11.3,6.3-12.8c6.3-2.1,13.1,0.6,18.2,4.4c7.5,5.4,5.4,19.4-3.6,22.1
	c-3.4,1.2-7.1,1.4-10.4,2.9c-2.4,1.7-3.4,4.6-4.8,7c-0.8,0.1-2.3,0.1-3.1,0.2c0.3-3.3,0.5-6.9,2.6-9.6c3.6-5.4,12-6.5,13.5-13.5
	c1.3-5.1-3.3-10-8.5-9.4c0.1,2.7,0.6,5.4,0,8C282.4,148.5,275.9,148.6,273.6,145.1z"/>
<path opacity="0.2" fill="#FE6716" d="M485.7,133.1c2.4-1.3,6.2-1,7.4,1.7c1.4,2.3-0.2,4.9-0.7,7.2c-2.6-0.5-6.3,0.8-8-1.6
	C483.8,138,483.2,134.6,485.7,133.1z"/>
<path opacity="0.2" fill="#FE6716" d="M418.5,101.8c2.8-3.5,7.2-5.3,11.5-5.8c5.6-0.3,10.6,4.6,10.4,10.2c-0.4,3.7-2.8,6.7-3.7,10.2
	c-0.3,2.3,0.5,4.5,0.9,6.7c-0.9,0.3-1.8,0.7-2.7,1.1c-1.5-2.8-3.1-5.7-2.8-9c-0.1-4.2,1.6-9.8-2.6-12.6c-2.4-2.3-5.5-0.3-7.9,0.8
	c2.1,2.3,5.8,4.7,4.9,8.3c-1.3,2.6-4.6,2.6-7,2C415.6,111,415.7,105.2,418.5,101.8z"/>
<path opacity="0.2" fill="#FE6716" d="M437.9,127.2c2.4-1.3,6.2-1,7.4,1.7c1.4,2.3-0.2,4.8-0.7,7.2c-2.6-0.5-6.3,0.8-8-1.6
	C436,132.1,435.4,128.7,437.9,127.2z"/>
<path opacity="0.2" fill="#FE6716" d="M415.7,201.8c2.8-3.4,7.2-5.3,11.5-5.8c5.6-0.3,10.6,4.6,10.4,10.2c-0.4,3.7-2.8,6.7-3.7,10.2
	c-0.3,2.3,0.5,4.5,0.9,6.7c-0.9,0.3-1.8,0.7-2.7,1.1c-1.5-2.8-3.1-5.7-2.8-9c-0.1-4.2,1.6-9.8-2.6-12.6c-2.4-2.3-5.5-0.3-7.9,0.8
	c2.1,2.3,5.8,4.6,4.9,8.3c-1.3,2.6-4.6,2.6-7,2C412.8,211,412.9,205.3,415.7,201.8z"/>
<path opacity="0.2" fill="#FE6716" d="M435.1,227.2c2.4-1.4,6.2-1,7.4,1.7c1.4,2.3-0.2,4.8-0.7,7.2c-2.6-0.5-6.3,0.8-8-1.6
	C433.2,232.2,432.6,228.7,435.1,227.2z"/>
<path opacity="0.2" fill="#FE6716" d="M446,141.6c4.3-0.6,8.9,1.8,10.6,5.8c1.5,4.2,0.6,9.7-3.4,12.2c-4.7,3.3-12.1,2-14.6-3.4
	C434.9,150.6,439.3,142,446,141.6z"/>
<path opacity="0.2" fill="#FE6716" d="M399,148.6c8.4-0.8,16.5,6.2,16.5,14.7c1.1,8.9-6.9,17.4-15.8,16.7c-9,0.6-16.2-8-16.2-16.5
	C384.2,155.7,391,148.7,399,148.6z"/>
<path opacity="0.2" fill="#FE6716" d="M317.4,160.9c7.6-3.4,16.9-4.7,24.7-1.1c8.6,4,13,15.1,9,23.8c-2.3,5.9-7.8,9.6-12.2,13.8
	c-4.1,3.9-2.1,10-2.4,15c-1.6,0.1-3.3,0.2-4.9,0.3c-1.3-4.9-3.1-10.1-1.8-15.2c1.1-5.6,4.8-10.1,6.8-15.3
	c2.9-7.5-3.4-17.7-11.9-16.6c-2.5-0.3-4.2,1.8-5.8,3.3c3.1,3.3,7.3,7.2,5.6,12.2c-1.6,6.8-12.1,7.8-15.4,1.9
	C304.4,175,309.5,164.5,317.4,160.9z"/>
<path opacity="0.2" fill="#FE6716" d="M456.3,164.9c1.9,0.1,4.4-0.9,5.9,0.7c4.5,4.4,8,10.2,8.6,16.5c0.6,4.8-0.3,9.6,0.8,14.3
	c2,6,8.3,11.4,15,9.6c3.9-0.5,6.5-3.6,8.4-6.8c-4.4-2-10.6-3.5-11.5-9.2c-1.8-6.7,5.9-12.8,12.1-10c8.7,3.8,9.8,15.9,5.5,23.4
	c-4.6,7.2-12.2,12.5-20.5,14.6c-11.8,2.9-24.6-7.8-23.5-19.9c-0.2-6.7,4-12.4,5.2-18.8C460.9,174.3,457,170.2,456.3,164.9z"/>
<path opacity="0.2" fill="#FE6716" d="M270.1,173.6c3.3-1.7,7.9-0.6,9.3,3c2.4,4.6-2.3,10.9-7.5,9.2
	C266.1,185.1,265,175.9,270.1,173.6z"/>
<path opacity="0.2" fill="#FE6716" d="M248.2,250.3c-2.2-5,1.1-11.3,6.3-12.8c6.3-2.1,13.2,0.6,18.2,4.4c7.5,5.4,5.4,19.4-3.6,22.1
	c-3.4,1.2-7.1,1.4-10.4,2.9c-2.4,1.7-3.4,4.6-4.8,7c-0.8,0.1-2.3,0.1-3.1,0.2c0.3-3.3,0.5-6.9,2.6-9.6c3.6-5.4,12-6.5,13.5-13.5
	c1.3-5.1-3.3-10-8.5-9.4c0.1,2.7,0.6,5.4,0,8C256.9,253.6,250.4,253.7,248.2,250.3z"/>
<path opacity="0.2" fill="#FE6716" d="M244.7,278.7c3.3-1.7,7.9-0.6,9.3,3c2.4,4.6-2.3,10.9-7.5,9.2
	C240.7,290.2,239.6,281,244.7,278.7z"/>
<path opacity="0.2" fill="#FE6716" d="M309,32.8c-2.2-5,1.1-11.3,6.3-12.8c6.3-2.1,13.1,0.6,18.2,4.4c7.5,5.4,5.4,19.4-3.6,22.1
	c-3.4,1.2-7.1,1.4-10.4,2.9c-2.4,1.7-3.4,4.6-4.8,7c-0.8,0-2.3,0.1-3.1,0.2c0.3-3.3,0.5-6.9,2.6-9.6c3.6-5.4,12-6.5,13.5-13.5
	c1.3-5.1-3.3-10-8.5-9.4c0.1,2.6,0.6,5.4,0,8C317.7,36.1,311.2,36.2,309,32.8z"/>
<path opacity="0.2" fill="#FE6716" d="M305.5,61.2c3.3-1.7,7.9-0.6,9.3,3c2.3,4.6-2.3,10.9-7.5,9.2
	C301.5,72.8,300.4,63.6,305.5,61.2z"/>
<path opacity="0.2" fill="#FE6716" d="M392.2,207.8c5.1-1.5,11.4-0.3,14.2,4.7c4.5,6.5-0.5,16.4-8.2,17.2c-6.2,1.3-12.4-4-13-10.2
	C384.5,214.7,387.7,209.7,392.2,207.8z"/>
<path opacity="0.2" fill="#FE6716" d="M336.9,219.6c2.3-0.1,4.6,0.5,6.4,2c4.7,4,4.2,12.9-1.6,15.6c-3.9,1.5-9,1.2-12-2.1
	c-2.3-2.5-2.1-6.3-1.5-9.4C329.2,221.9,333.2,219.6,336.9,219.6z"/>
<path opacity="0.2" fill="#FE6716" d="M292.2,227.8c2.5-0.6,5.6-0.6,7.4,1.4c2.3,2,2.2,5.4,1.3,8.1c-2.1,4.3-9.6,4.9-11.6,0.2
	C287.2,234.2,288.9,229.6,292.2,227.8z"/>
<path opacity="0.2" fill="#FE6716" d="M397.5,239.9c0.9-2.4,4-1.6,5.9-2.1c1.4,6.3,3.6,12.8,2,19.2c-1.1,5.8-4.5,10.7-7,15.9
	c-3.1,6.4-1.3,14.8,4.3,19.2c3.6,2.7,8.7,3.6,13,2.2c1.3-0.7,3.2-2,2.4-3.8c-2.1-3.7-6.4-6.6-6-11.3c-0.6-6.9,7.8-12.6,13.9-9.3
	c4.7,2.1,7.1,7.4,7.1,12.3c0,8.1-5.5,15.6-12.8,18.7c-11.1,4.9-25.9,5.8-35.2-3.1c-6.4-6.1-7.8-16.1-5-24.3c3-8.1,11-12.3,16.3-18.7
	C398.6,250.2,396.4,244.8,397.5,239.9z"/>
<path opacity="0.2" fill="#FE6716" d="M456.2,244.7c4.6-3.6,10.7-4.8,16.5-4.7c5.9,0.4,12.3,1.2,17,5.1c7.8,6,9.7,18.1,4,26.2
	c-3.9,6.3-11.2,8.8-16.6,13.5c-2.5,3.7-2.1,8.6-2.9,12.9c-1.4,0.5-2.8,1-4.1,1.5c-3.9-7.6-2.5-17.1,2.7-23.7
	c2.8-3.9,6.9-7.4,7.4-12.5c0.7-4.9-0.2-10.8-4.8-13.5c-3.6-2.4-8.1-2.1-12.1-1.1c1.5,4.6,5.3,9.1,3.7,14.1
	c-1.2,4.6-6.7,7.2-11.1,5.6c-4.5-1.4-7.1-6.3-6.6-10.8C449.8,252.3,452.4,247.7,456.2,244.7z"/>
<path opacity="0.2" fill="#FE6716" d="M298.9,244.8c0.8-0.2,2.2-0.5,3-0.6c1.7,2.8,3.6,5.6,4,9c0.5,4.7-1.5,9.3-1.5,14
	c0.5,3.2,2.6,6.4,5.8,7.5c3.1,1,6.1-0.6,8.9-1.6c-2.4-3.1-7.6-6-6.1-10.5c1.3-5.3,10-5.2,11.7-0.3c1.4,4.2,1.3,9.5-1.9,12.9
	c-5.2,5.6-13.6,8.3-21,5.9c-5.3-2.1-8.4-8.3-7.7-13.9c0.3-4.9,4.4-8.2,6-12.6C300.7,251.4,299.4,248.1,298.9,244.8z"/>
<path opacity="0.2" fill="#FE6716" d="M348.1,271.7c6.5-1.2,13.4,3.9,14,10.5c0.4,5.2-3,10.6-7.9,12.3c-3.7,0.8-8,0.8-11.1-1.6
	c-4.5-3.3-5.9-9.9-3.5-14.9C341.3,274.7,344.6,272.4,348.1,271.7z"/>
<path opacity="0.2" fill="#FE6716" d="M320.2,304.6c5-1.1,8-5.8,12.6-7.8c1.8-0.3,3.4,1,4.4,2.4c0.2,2.5-1.9,4.3-3.4,6
	c-3.1,3.2-6.2,6.6-10.4,8.5c-6.2,2.7-13.1,2.1-19.5,3.9c-5.6,1.7-10.2,6.2-12.1,11.7c-1.8,5.3,1.1,11,4.9,14.8
	c1.5,1.7,3.9,1.4,6,1.8c0.8-4.7,1.1-10.3,5.4-13.3c4.6-3.7,12-1.8,14.9,3.2c2.4,4.1,1.8,9.8-1.4,13.3c-6.2,7.3-17.6,8.4-25.9,4
	c-6.5-3.5-11.9-9-15.8-15.2c-4.7-7.2-5.1-16.9-1-24.4c4.5-7.9,13.7-12.6,22.7-11.7C308,302,313.9,305,320.2,304.6z"/>
<path opacity="0.2" fill="#FE6716" d="M468,306.4c6.3-2.5,14.7,2.6,13.5,9.8c0.6,7.3-8.2,11.8-14.3,8.5
	C459.7,321.5,460.4,309,468,306.4z"/>
<path opacity="0.2" fill="#FE6716" d="M506.6,218.5c4.2-2.1,9,3.3,6.4,7.2c-1.6,3.1-5.9,3-8.3,1
	C502.8,224.2,503.2,219.5,506.6,218.5z"/>
<path opacity="0.2" fill="#FE6716" d="M513.4,230.5c0.7-0.2,2.2-0.4,2.9-0.6c1.8,2.6,4,5.3,4.2,8.6c0.5,4-0.2,9.1,3.8,11.6
	c2.8,2.1,6.1-0.1,8.6-1.5c-2.2-2.3-7-4.1-6.1-8c1.5-4.4,8.3-4.2,9.7,0.2c3.3,7.3-3.5,14.8-10.4,16.3c-5.3,1.7-11.2-2-12.4-7.4
	c-0.9-4.4,1.6-8.4,1.9-12.6C515.4,234.8,514.2,232.7,513.4,230.5z"/>
<path opacity="0.2" fill="#FE6716" d="M529.6,102.4c-2.2-5,1.1-11.3,6.3-12.8c6.3-2.1,13.2,0.6,18.2,4.4c7.5,5.4,5.4,19.4-3.6,22.1
	c-3.4,1.2-7.1,1.4-10.4,2.9c-2.4,1.7-3.4,4.6-4.8,7c-0.8,0.1-2.3,0.1-3.1,0.2c0.3-3.3,0.5-6.9,2.6-9.6c3.6-5.4,12-6.5,13.5-13.5
	c1.3-5.1-3.3-10-8.5-9.4c0.1,2.7,0.6,5.4,0,8C538.4,105.7,531.9,105.8,529.6,102.4z"/>
<path opacity="0.2" fill="#FE6716" d="M557.6,148.2c7.6-3.4,16.9-4.7,24.7-1.1c8.6,3.9,13,15.1,9,23.8c-2.3,5.9-7.8,9.6-12.2,13.8
	c-4.1,3.8-2.1,10-2.4,15c-1.6,0.1-3.3,0.2-4.9,0.3c-1.3-4.9-3.1-10.1-1.8-15.2c1.1-5.6,4.8-10.1,6.8-15.3c3-7.5-3.4-17.7-11.9-16.6
	c-2.5-0.3-4.2,1.8-5.8,3.3c3,3.3,7.3,7.2,5.6,12.2c-1.6,6.8-12.1,7.8-15.4,1.9C544.6,162.2,549.7,151.7,557.6,148.2z"/>
<path opacity="0.2" fill="#FE6716" d="M526.1,130.8c3.3-1.7,7.9-0.6,9.3,3c2.4,4.6-2.3,10.9-7.5,9.2
	C522.1,142.3,521,133.1,526.1,130.8z"/>
<path opacity="0.2" fill="#FE6716" d="M577.1,206.9c2.3-0.1,4.6,0.5,6.4,2c4.7,4,4.2,12.9-1.5,15.6c-3.9,1.5-9,1.2-12-2.1
	c-2.3-2.5-2.1-6.3-1.5-9.4C569.4,209.1,573.4,206.9,577.1,206.9z"/>
<path opacity="0.2" fill="#FE6716" d="M510.8,145.8c2.5-0.6,5.6-0.6,7.4,1.4c2.3,2,2.2,5.4,1.3,8.1c-2.1,4.3-9.6,4.9-11.6,0.2
	C505.8,152.2,507.5,147.6,510.8,145.8z"/>
<path opacity="0.2" fill="#FE6716" d="M517.5,162.9c0.8-0.1,2.2-0.5,3-0.6c1.7,2.8,3.6,5.6,4,9c0.5,4.7-1.5,9.3-1.5,14
	c0.5,3.2,2.6,6.4,5.8,7.5c3.1,1,6.1-0.7,8.9-1.6c-2.4-3.1-7.6-6-6.1-10.5c1.3-5.3,10-5.2,11.7-0.3c1.4,4.2,1.3,9.5-1.9,12.9
	c-5.2,5.6-13.6,8.3-21,5.9c-5.3-2.1-8.4-8.3-7.7-13.9c0.3-4.9,4.4-8.2,6-12.6C519.2,169.4,518,166.1,517.5,162.9z"/>
<path opacity="0.2" fill="#FE6716" d="M594.9,261.2c6.5-1.2,13.4,3.9,14,10.5c0.4,5.2-3,10.5-7.9,12.3c-3.7,0.8-8,0.8-11.1-1.6
	c-4.5-3.3-5.9-9.9-3.5-14.9C588.1,264.3,591.3,261.9,594.9,261.2z"/>
<path opacity="0.2" fill="#FE6716" d="M578.8,251.1c5-1.1,8-5.8,12.6-7.8c1.8-0.3,3.4,1,4.4,2.4c0.2,2.5-1.9,4.3-3.4,6
	c-3.1,3.2-6.2,6.6-10.4,8.5c-6.2,2.7-13.1,2.1-19.5,3.9c-5.6,1.7-10.2,6.2-12.1,11.7c-1.8,5.3,1.1,11,4.9,14.8
	c1.5,1.7,3.9,1.4,6,1.8c0.8-4.7,1.1-10.3,5.5-13.3c4.6-3.7,12-1.8,14.9,3.2c2.4,4.1,1.8,9.8-1.4,13.3c-6.2,7.3-17.7,8.4-25.9,4
	c-6.5-3.5-11.8-9-15.8-15.2c-4.7-7.2-5.1-16.9-1-24.4c4.5-7.9,13.7-12.6,22.7-11.7C566.6,248.5,572.5,251.5,578.8,251.1z"/>
<path opacity="0.2" fill="#FE6716" d="M381.6,309.7c2.5-0.6,5.6-0.6,7.4,1.4c2.3,2,2.2,5.4,1.3,8.1c-2.1,4.3-9.6,4.9-11.6,0.2
	C376.5,316.1,378.2,311.5,381.6,309.7z"/>
<path opacity="0.2" fill="#FE6716" d="M388.2,326.7c0.8-0.2,2.2-0.5,3-0.6c1.7,2.8,3.6,5.6,4,9c0.5,4.7-1.5,9.3-1.5,14
	c0.5,3.2,2.6,6.4,5.8,7.5c3.1,1,6.1-0.6,8.9-1.6c-2.4-3.1-7.6-6-6.1-10.5c1.3-5.3,10-5.2,11.7-0.3c1.4,4.2,1.3,9.5-1.9,12.9
	c-5.2,5.6-13.6,8.3-21,5.9c-5.3-2.2-8.4-8.3-7.7-13.9c0.3-4.9,4.4-8.2,6-12.5C390,333.2,388.8,330,388.2,326.7z"/>
<path opacity="0.2" fill="#FE6716" d="M247.6,318.1c2.5-0.6,5.6-0.6,7.4,1.4c2.3,2,2.2,5.4,1.3,8.1c-2.1,4.3-9.6,4.9-11.6,0.2
	C242.5,324.5,244.2,319.9,247.6,318.1z"/>
<path opacity="0.2" fill="#FE6716" d="M254.2,335.1c0.8-0.1,2.2-0.5,3-0.6c1.7,2.8,3.6,5.6,4,9c0.5,4.7-1.5,9.3-1.5,14
	c0.5,3.2,2.6,6.4,5.8,7.5c3.1,1,6.1-0.7,8.9-1.6c-2.4-3.1-7.6-6-6.1-10.5c1.3-5.3,10-5.2,11.7-0.3c1.5,4.2,1.3,9.5-1.9,12.9
	c-5.2,5.6-13.6,8.3-21,5.9c-5.3-2.1-8.4-8.3-7.7-13.9c0.3-4.8,4.4-8.2,6-12.5C256,341.6,254.8,338.4,254.2,335.1z"/>
</svg>
