<?xml version="1.0" encoding="utf-8"?>
<!-- Generator: Adobe Illustrator 18.1.1, SVG Export Plug-In . SVG Version: 6.00 Build 0)  -->
<svg version="1.1" id="Layer_1" xmlns="http://www.w3.org/2000/svg" xmlns:xlink="http://www.w3.org/1999/xlink" x="0px" y="0px"
	 viewBox="0 0 100 100" enable-background="new 0 0 100 100" xml:space="preserve">
<g opacity="0.1">
	<path fill="#FFDE17" d="M52.3,104.3c0.1-1.5,0.2-2.9,0.3-4.3c0.3-4.9,0.7-9.8,1-14.7c0.3-5.3,0.7-10.5,1-15.8
		c0.2-4.2,0.4-8.5,0.6-12.7c0.1-1.6,0.2-3.2,0.2-4.8c0-0.4-0.2-1-0.5-1.3c-1.9-1.9-2.8-4.2-2.6-6.9c0.2-2.3-0.3-4.4-1.2-6.5
		c-0.5-1.2-1-2.3-1.4-3.5c-0.2-0.5-0.3-1-0.4-1.5c-0.1-0.5,0.1-0.9,0.6-1.1c0.5-0.2,0.9,0,1.3,0.3c0.2,0.3,0.4,0.6,0.6,0.9
		c0.8,1.5,1.5,3.1,2.2,4.6c0.2,0.4,0.5,0.8,0.8,1.1c0.2,0.2,0.5,0.3,0.7,0.4c0.1-0.3,0.2-0.5,0.2-0.8c-0.1-1.4-0.3-2.8-0.5-4.2
		c-0.3-2.2-0.7-4.4-1-6.6c-0.1-0.9,0.2-1.3,0.9-1.5c0.9-0.3,1.5,0,1.7,1c0.4,2.3,0.9,4.5,1.3,6.8c0.2,1.1,0.4,2.1,0.6,3.2
		c0,0.1,0.2,0.3,0.3,0.4c0.1-0.1,0.4-0.3,0.4-0.4c0.1-1.5,0.1-2.9,0.1-4.4c0-2.3,0-4.7,0.1-7c0-0.6,0.2-1.1,0.8-1.4
		c0.7-0.3,1.5,0,1.7,0.8c0.2,0.6,0.3,1.3,0.4,2c0.1,2.7,0.2,5.5,0.3,8.2c0,0.5,0,1,0.1,1.5c0,0.2,0.2,0.3,0.3,0.5
		c0.1-0.1,0.4-0.3,0.4-0.4c0.3-1.8,0.6-3.5,0.8-5.3c0.2-1.2,0.2-2.4,0.3-3.5c0.1-0.9,0.7-1.6,1.4-1.6c0.8,0,1.6,0.7,1.6,1.6
		c0,1.4,0,2.8-0.1,4.3c-0.2,2.7-0.5,5.5-0.7,8.2c-0.1,0.8,0.2,1.7,0.3,2.5c0,0.2,0.3,0.3,0.4,0.5c0.1-0.1,0.3-0.3,0.4-0.4
		c0.4-0.9,0.8-1.8,1.2-2.7c0.4-1,1-1.9,2-2.5c0.4-0.3,1-0.5,1.5-0.5c1-0.1,1.6,0.7,1.3,1.6c-0.2,0.6-0.5,1.2-0.8,1.7
		c-1.4,2.1-2.4,4.3-3,6.7c-0.2,0.8-0.6,1.6-0.9,2.3c-0.5,1.2-1.5,2-2.6,2.6c-0.8,0.5-1.2,1.1-1.2,2.1c-0.1,7.2-0.2,14.5-0.2,21.7
		c0,5.1,0.1,10.3,0.2,15.4c0.1,4.4,0.2,8.8,0.3,13.3c0,0.1,0,0.3,0,0.4C61.3,104.3,56.8,104.3,52.3,104.3z"/>
	<path fill="#FFDE17" d="M40.2,104.3c-3.7,0-7.4,0-11.1,0c0.1-0.9,0.1-1.8,0.2-2.7c0.3-5.2,0.7-10.4,1-15.6
		c0.3-5.1,0.6-10.1,0.9-15.2c0.2-3.8,0.3-7.5,0.5-11.3c0-0.7-0.1-1.3-0.7-1.9c-1.5-1.6-2-3.6-1.9-5.8c0.1-1.6-0.2-3-0.8-4.5
		c-0.6-1.4-1.1-2.9-1.6-4.4c-0.1-0.4-0.1-0.8-0.1-1.1c0-0.2,0.2-0.6,0.4-0.7c0.3-0.1,0.7,0,0.9,0.2c0.3,0.2,0.5,0.5,0.6,0.8
		c0.5,1.1,0.9,2.2,1.4,3.3c0.3,0.8,0.9,1.5,1.5,2.1c0.1,0,0.1,0,0.2-0.1c0-0.8,0-1.6-0.1-2.4c-0.3-1.9-0.6-3.8-0.9-5.8
		c-0.1-0.7-0.1-1.4,0-2c0.1-0.6,0.6-1,1.1-1c0.5,0,0.9,0.3,1,1c0.5,2.8,1,5.5,1.5,8.3c0,0.1,0,0.2,0,0.2c0.1,0.1,0.2,0.3,0.3,0.4
		c0.1-0.1,0.3-0.3,0.3-0.4c0.1-0.4,0.1-0.8,0.1-1.2c0-2.6-0.1-5.1-0.1-7.7c0-0.3,0-0.7,0.1-1c0.1-0.6,0.5-0.9,1.1-1
		c0.6-0.1,1,0.2,1.2,0.7c0.2,0.7,0.5,1.5,0.5,2.3c0.1,2.5,0.1,5.1,0.2,7.6c0,0.2,0.2,0.4,0.2,0.6c0.1-0.2,0.4-0.3,0.4-0.5
		c0.3-2.1,0.6-4.2,0.8-6.2c0.1-0.4,0.1-0.9,0.1-1.3c0.1-0.6,0.5-1.1,1-1.2c0.7-0.1,1.3,0.3,1.4,1c0.1,0.8,0.2,1.6,0.1,2.3
		c-0.2,2.5-0.5,5-0.7,7.4c-0.1,0.9-0.1,1.9,0,2.8c0,0.4,0.4,0.7,0.6,1c0.2-0.3,0.5-0.5,0.7-0.9c0.3-0.7,0.6-1.5,0.9-2.3
		c0.6-1.4,1.8-1.9,3.2-2.1c0.6-0.1,1.1,0.5,0.9,1.1c-0.1,0.4-0.2,0.7-0.4,1c-0.1,0.3-0.3,0.6-0.5,0.8c-1.1,1.5-1.8,3.2-2.1,5.1
		c-0.3,1.7-1.2,3-2.6,4c0,0-0.1,0.1-0.1,0.1c-1.2,0.7-1.7,1.6-1.7,3.1c0,6.5-0.1,13-0.2,19.5c0,4.2,0.1,8.4,0.1,12.6
		c0.1,3.5,0.1,7,0.2,10.6C40.2,104,40.2,104.1,40.2,104.3z"/>
	<path fill="#FFDE17" d="M75.4,59.7c0-0.6,0.2-1.2,0.1-1.8c-0.5-2.2-1-4.3-1.5-6.5c-0.2-1.1-0.4-2.2-0.5-3.3c-0.1-0.7,0.4-1.3,1-1.4
		c0.5-0.1,1.1,0.4,1.3,1.1c0.6,2.1,1.1,4.2,1.7,6.3c0.1,0.2,0.3,0.4,0.4,0.6c0.1-0.3,0.2-0.5,0.2-0.8c-0.3-2.2-0.6-4.5-0.8-6.7
		c-0.1-0.5,0-1.1,0-1.6c0.1-0.5,0.3-1,0.9-1c0.6,0,0.9,0.4,1,0.9c0.3,1.3,0.5,2.6,0.7,4c0.2,1.5,0.5,3,0.7,4.4
		c0,0.2,0.2,0.4,0.3,0.6c0.1,0,0.2,0,0.3-0.1c0-0.7,0-1.5,0-2.2c0-1.8,0.1-3.7,0.1-5.5c0-0.9,0.3-1.3,0.9-1.3c0.6,0,1,0.5,1,1.3
		c0,1.8-0.1,3.6-0.1,5.4c0,1.1,0.1,2.2,0.1,3.2c0.1,0,0.2,0,0.3,0.1c0.2-0.3,0.5-0.6,0.6-0.9c0.3-1.1,0.6-2.1,0.9-3.2
		c0.2-0.5,0.3-1.1,0.5-1.6c0.1-0.4,0.4-0.6,0.8-0.5c0.3,0.1,0.5,0.4,0.6,0.7c0.1,0.5,0,1-0.1,1.5c-0.3,1.6-0.7,3.1-0.9,4.7
		c-0.1,1.1,0,2.2,0.2,3.2c0.3,1.8,0,3.5-1,5c-0.3,0.4-0.4,0.9-0.3,1.4c1.6,8.8,3.9,17.5,6.1,26.2c1,4.1,2.1,8.1,3.2,12.3
		c-0.2,0-0.4,0-0.6,0c-3,0-6,0-8.9,0c-0.5,0-0.6-0.2-0.7-0.6c-1.8-10.5-3.6-21.1-5.4-31.6c-0.3-1.6-0.6-3.1-0.9-4.6
		c-0.1-0.4-0.2-0.7-0.7-0.9c-1.8-0.6-2.7-2-3.3-3.6c-0.7-1.6-1.5-3.1-2.7-4.5c-0.4-0.4-0.7-1-0.9-1.5c-0.3-0.5-0.1-1,0.4-1.2
		c0.4-0.1,1-0.3,1.3-0.1c0.6,0.3,1.2,0.7,1.6,1.2c0.5,0.6,0.9,1.4,1.3,2.1c0.2,0.3,0.3,0.5,0.5,0.8C75.2,59.8,75.3,59.7,75.4,59.7z"
		/>
	<path fill="#FFDE17" d="M17.8,65.3c0.7-2.2,1.4-4.3,2.1-6.4c0.2-0.5,0.3-0.9,0.5-1.4c0.2-0.5,0.6-0.8,1.1-0.7
		c0.5,0.1,0.8,0.5,0.8,1c0,0.4-0.1,0.8-0.2,1.2c-0.6,2-1.2,3.9-1.8,5.9c-0.2,0.6-0.2,1.1-0.4,1.9c0.8-0.4,1.3-0.9,1.7-1.5
		c0.5-0.9,1-1.8,1.6-2.7c0.2-0.3,0.4-0.6,0.7-0.8c0.3-0.1,0.7-0.1,0.9,0c0.2,0.1,0.3,0.5,0.2,0.8c-0.2,0.7-0.5,1.5-0.8,2.2
		c-0.3,0.6-0.6,1.1-0.9,1.6c-1.1,1.6-1.8,3.3-1.9,5.2c-0.2,1.7-1,3-2.3,4.1c-0.5,0.4-0.7,0.8-0.8,1.5c-0.6,5.1-1.2,10.3-1.7,15.4
		c-0.4,3.8-0.7,7.6-1.1,11.3c0,0.1,0,0.1-0.1,0.2c-3.1,0-6.3,0-9.5,0c0.3-1.2,0.5-2.3,0.8-3.4C8.1,94,9.4,87,10.4,80
		c0.1-1,0.2-2.1,0.4-3.1c0.1-0.6-0.1-1-0.4-1.4c-0.3-0.3-0.6-0.7-0.9-1c-1.1-0.9-1.5-2.2-1.5-3.5c0-1.7-0.4-3.3-1.1-4.8
		c-0.2-0.5-0.4-1-0.5-1.5c-0.2-0.9,0.5-1.5,1.3-1.2c1.2,0.4,2,1.1,2.3,2.3c0.2,0.8,0.3,1.6,0.5,2.3c0.1,0.2,0.3,0.4,0.4,0.5
		c0.2-0.2,0.4-0.3,0.5-0.5c0.2-1.1,0.5-2.3,0.6-3.4c0.2-2.1,0.3-4.2,0.5-6.3c0-0.5,0.2-1,0.3-1.5c0.2-0.6,0.8-1,1.3-0.9
		c0.5,0.1,0.9,0.6,0.8,1.2c-0.1,2-0.2,4-0.3,6.1c0,0.3,0,0.7,0,1c0,0.1,0.1,0.2,0.2,0.4c0.1-0.1,0.3-0.2,0.3-0.4
		c0.2-1.2,0.4-2.5,0.6-3.7c0.3-1.5,0.6-2.9,0.9-4.3c0-0.2,0.1-0.5,0.3-0.6c0.2-0.4,0.5-0.7,1-0.6c0.5,0.1,0.8,0.5,0.8,1
		c0,0.8-0.1,1.6-0.2,2.4c-0.3,2-0.7,4-1,6C17.4,64.7,17.2,65.1,17.8,65.3z"/>
	<path fill="#FFDE17" d="M78,14.4c0.7-0.3,1.4-0.7,2.2-0.8c1.8-0.3,3.3,0.4,4.3,1.9c1,1.5,1,3.1,0.2,4.7c-0.7,1.3-1.9,2.3-3.3,2.8
		c-1.5,0.6-3,1-4.5,1.5c-1.5,0.5-3,1-4.5,1.5c-0.4-2.8-2.1-5.3-2.9-8.1c-0.5-1.8-0.6-3.5,0.1-5.3c0.7-1.7,2.5-2.8,4.4-2.7
		c1.8,0.1,3.3,1.4,3.8,3.2C77.9,13.7,77.9,14.1,78,14.4z"/>
	<path fill="#FFDE17" d="M36.7,14.2c0.5-1.6,1.5-2.6,3.1-2.9c1.9-0.4,3.9,1.1,4.3,3c0.3,1.8-0.2,3.4-1.1,4.9c-0.4,0.7-1,1.4-1.4,2.1
		c-0.8,1.2-1.6,2.5-2.5,3.7c-1.6-1.6-4-2.4-6-3.8c-1.4-1-2.5-2.1-2.9-3.8c-0.5-1.6,0.1-3.2,1.5-4.1c1.4-0.9,3.3-0.8,4.5,0.3
		C36.3,13.8,36.5,14,36.7,14.2z"/>
	<path fill="#FFDE17" d="M17.7,41.3c-1.8-1.1-3.9-1.4-5.9-2.2c-1.6-0.6-3-1.4-3.9-2.9c-0.9-1.6-0.6-3.4,0.6-4.5
		c1.3-1.2,3-1.3,4.6-0.2c0.1,0,0.1,0.1,0.2,0.2c0-0.3,0.1-0.5,0.1-0.7c0.4-1.7,1.8-2.9,3.5-2.9c1.7,0,3.2,1.3,3.6,3.1
		c0.3,1.3,0.1,2.6-0.4,3.8c-0.4,1.1-1,2.2-1.4,3.4C18.4,39.3,18.1,40.3,17.7,41.3z"/>
	<path fill="#FFDE17" d="M91.8,35.3c0.6,0.1,1.3,0,1.7,0.3c0.8,0.4,0.9,1.4,0.3,2.1c-0.6,0.7-1.3,1-2.1,1.2
		c-0.7,0.2-1.4,0.3-2.2,0.5c-0.3-1.1-0.6-2.2-0.8-3.3c-0.1-0.5,0.1-1.1,0.3-1.5c0.3-0.6,0.9-0.8,1.6-0.7
		C91.4,34.2,91.8,34.7,91.8,35.3z"/>
</g>
</svg>
