<?xml version="1.0" encoding="utf-8"?>
<!-- Generator: Adobe Illustrator 18.1.1, SVG Export Plug-In . SVG Version: 6.00 Build 0)  -->
<svg version="1.1" id="Layer_1" xmlns="http://www.w3.org/2000/svg" xmlns:xlink="http://www.w3.org/1999/xlink" x="0px" y="0px"
	 viewBox="0 0 100 100" enable-background="new 0 0 100 100" xml:space="preserve">
<g opacity="0.12">
	<path fill="#00A14B" d="M38.1,60.8c-0.3-0.2-0.7-0.3-1-0.6c-0.8-0.9-1.4-1.8-2.2-2.7c-0.4-0.5-0.4-1-0.2-1.5c0.4-1,0.8-2.1,1.2-3.1
		c0.2-0.6,0.7-0.9,1.3-1c1-0.1,2-0.3,3.1-0.5c0.8-0.1,1.4,0.1,1.9,0.7c0.6,0.8,1.3,1.6,1.9,2.4c0.4,0.5,0.5,1.1,0.2,1.7
		c-0.4,1-0.8,2.1-1.3,3.1c-0.2,0.4-0.6,0.8-0.9,0.9C40.9,60.5,39.6,60.6,38.1,60.8z"/>
	<path fill="#00A14B" d="M53.6,42.7c-0.2-0.1-0.7-0.3-0.9-0.6c-0.8-0.9-1.5-1.8-2.2-2.7c-0.3-0.4-0.4-0.9-0.2-1.5
		c0.4-1.1,0.8-2.1,1.2-3.1c0.2-0.6,0.7-0.8,1.2-0.9c1.1-0.2,2.1-0.4,3.2-0.4c0.4,0,1,0.2,1.3,0.5c0.8,0.8,1.5,1.8,2.2,2.7
		c0.3,0.4,0.4,0.9,0.2,1.5c-0.4,1-0.8,2-1.2,3c-0.2,0.6-0.6,0.9-1.2,1C56,42.3,54.9,42.5,53.6,42.7z"/>
	<path fill="#00A14B" d="M57.8,53.1c-0.2-0.1-0.7-0.3-1-0.6c-0.7-0.8-1.3-1.6-1.9-2.4c-0.3-0.4-0.4-0.9-0.2-1.5
		c0.4-0.9,0.7-1.9,1.1-2.8c0.2-0.5,0.6-0.8,1.1-0.9c1-0.2,2-0.3,3.1-0.4c0.6-0.1,1,0.1,1.4,0.5c0.6,0.8,1.3,1.6,1.9,2.4
		c0.3,0.4,0.4,0.9,0.2,1.4c-0.4,1-0.7,2-1.2,3c-0.2,0.3-0.6,0.7-1,0.8C60.3,52.8,59.2,52.9,57.8,53.1z"/>
	<path fill="#00A14B" d="M50.5,61.1c-0.3-0.2-0.7-0.3-1-0.6c-0.7-0.8-1.3-1.6-1.9-2.4c-0.3-0.4-0.4-0.9-0.2-1.4
		c0.4-1,0.8-1.9,1.1-2.9c0.2-0.5,0.6-0.8,1.1-0.9c1-0.2,2-0.3,3-0.5c0.6-0.1,1.1,0.1,1.5,0.6c0.6,0.7,1.2,1.5,1.8,2.2
		c0.4,0.5,0.5,1,0.2,1.6c-0.4,0.9-0.7,1.8-1.1,2.7c-0.2,0.5-0.6,0.9-1.2,1C52.8,60.7,51.7,60.9,50.5,61.1z"/>
	<path fill="#00A14B" d="M28.2,66.7c-0.3-0.2-0.7-0.3-1-0.7c-0.6-0.7-1.2-1.5-1.8-2.2c-0.4-0.5-0.5-1-0.2-1.6c0.3-0.9,0.7-1.7,1-2.6
		c0.2-0.6,0.7-0.9,1.3-1c0.9-0.1,1.8-0.3,2.8-0.4c0.6-0.1,1.1,0.1,1.5,0.6c0.6,0.8,1.2,1.5,1.8,2.3c0.4,0.5,0.4,1,0.2,1.5
		c-0.3,0.9-0.7,1.8-1.1,2.7c-0.2,0.4-0.6,0.8-1,0.9C30.6,66.4,29.5,66.5,28.2,66.7z"/>
	<path fill="#00A14B" d="M59.7,74.5c0.3,0.2,0.7,0.3,1,0.6c0.7,0.7,1.2,1.5,1.8,2.3c0.4,0.5,0.4,1,0.2,1.5c-0.3,0.9-0.7,1.8-1,2.7
		c-0.2,0.6-0.6,0.9-1.2,1c-0.9,0.1-1.8,0.3-2.8,0.4c-0.6,0.1-1.1-0.1-1.5-0.5c-0.6-0.8-1.2-1.5-1.8-2.3c-0.4-0.5-0.4-1-0.2-1.5
		c0.3-0.9,0.7-1.8,1.1-2.7c0.2-0.4,0.6-0.8,1-0.9C57.3,74.8,58.4,74.7,59.7,74.5z"/>
	<path fill="#00A14B" d="M44.7,32.1c0.2,0.1,0.7,0.3,1,0.6c0.7,0.7,1.2,1.5,1.8,2.3c0.4,0.5,0.4,1,0.2,1.5c-0.3,0.9-0.7,1.8-1.1,2.6
		c-0.2,0.5-0.6,0.9-1.2,0.9c-1,0.1-1.9,0.3-2.9,0.4c-0.6,0.1-1-0.1-1.4-0.6c-0.6-0.7-1.2-1.5-1.8-2.2c-0.4-0.5-0.4-1-0.2-1.6
		c0.3-0.8,0.7-1.7,1-2.5c0.2-0.6,0.7-1,1.4-1.1C42.6,32.4,43.5,32.3,44.7,32.1z"/>
	<path fill="#00A14B" d="M67.6,35.8c0.3,0.2,0.7,0.3,1,0.6c0.6,0.7,1.2,1.5,1.8,2.3c0.4,0.5,0.4,1,0.2,1.5c-0.3,0.9-0.7,1.7-1,2.6
		c-0.2,0.6-0.6,0.9-1.2,1c-0.9,0.1-1.8,0.2-2.7,0.4c-0.6,0.1-1.1-0.1-1.5-0.5c-0.6-0.7-1.2-1.5-1.8-2.2c-0.4-0.5-0.4-1-0.2-1.5
		c0.4-0.9,0.7-1.8,1.1-2.7c0.2-0.4,0.6-0.7,0.9-0.8C65.2,36.1,66.3,36,67.6,35.8z"/>
	<path fill="#00A14B" d="M51.6,46.4c-0.1,0.3-0.1,0.5-0.2,0.8c-0.3,0.8-0.6,1.6-0.9,2.4c-0.2,0.6-0.7,1-1.3,1
		c-0.9,0.1-1.8,0.3-2.8,0.4c-0.4,0-1-0.2-1.3-0.5c-0.7-0.7-1.3-1.5-1.9-2.3c-0.3-0.4-0.4-0.9-0.2-1.4c0.3-0.9,0.7-1.8,1-2.6
		c0.2-0.5,0.6-0.8,1.1-0.9c0.9-0.2,1.9-0.3,2.8-0.4c0.6-0.1,1.1,0.1,1.4,0.6c0.6,0.7,1.1,1.4,1.7,2.1C51.3,45.8,51.4,46.1,51.6,46.4
		z"/>
	<path fill="#00A14B" d="M36,73.9c-0.2-0.1-0.7-0.3-1-0.6c-0.6-0.7-1.1-1.4-1.7-2.1c-0.3-0.4-0.4-0.9-0.2-1.5c0.3-0.8,0.6-1.6,1-2.4
		c0.2-0.5,0.6-0.9,1.2-0.9c0.8-0.1,1.6-0.2,2.5-0.4c0.7-0.1,1.2,0.1,1.6,0.7c0.5,0.6,1,1.3,1.5,1.9c0.4,0.5,0.4,1,0.2,1.5
		c-0.3,0.9-0.6,1.7-1,2.5c-0.2,0.3-0.6,0.7-0.9,0.8C38.2,73.7,37.2,73.8,36,73.9z"/>
	<path fill="#00A14B" d="M49.7,31.1c-0.3-0.2-0.7-0.4-1-0.7c-0.6-0.6-1-1.3-1.6-1.9c-0.4-0.5-0.4-1-0.2-1.5c0.3-0.8,0.6-1.6,0.9-2.4
		c0.2-0.6,0.6-0.9,1.2-1c0.8-0.1,1.7-0.2,2.5-0.4c0.6-0.1,1.1,0.1,1.4,0.6c0.5,0.7,1.1,1.3,1.6,2c0.4,0.5,0.4,1,0.2,1.6
		c-0.3,0.8-0.6,1.5-0.9,2.3c-0.2,0.6-0.7,0.9-1.3,1C51.7,30.8,50.8,30.9,49.7,31.1z"/>
	<path fill="#00A14B" d="M34.8,48.9c-0.3-0.2-0.7-0.3-1-0.7c-0.6-0.6-1.1-1.3-1.6-2c-0.4-0.5-0.4-1-0.2-1.5c0.3-0.8,0.6-1.6,0.9-2.4
		c0.2-0.5,0.6-0.9,1.2-0.9c0.9-0.1,1.8-0.3,2.6-0.4c0.5-0.1,1,0.2,1.3,0.6c0.5,0.7,1.1,1.4,1.6,2.1c0.3,0.4,0.4,0.9,0.2,1.5
		c-0.3,0.8-0.6,1.7-1,2.4c-0.2,0.4-0.6,0.8-1,0.9C37,48.7,36,48.8,34.8,48.9z"/>
	<path fill="#00A14B" d="M62.5,63.8c-0.3-0.2-0.7-0.3-1-0.6c-0.6-0.6-1.1-1.3-1.6-2c-0.4-0.5-0.4-1-0.2-1.5c0.3-0.8,0.6-1.6,0.9-2.3
		c0.2-0.6,0.7-0.9,1.3-1c0.7-0.1,1.5-0.2,2.2-0.3c0.7-0.1,1.3,0.1,1.8,0.7c0.4,0.6,0.9,1.2,1.4,1.8c0.4,0.5,0.5,1.1,0.3,1.7
		c-0.3,0.8-0.6,1.5-0.9,2.3c-0.2,0.6-0.7,0.9-1.3,1C64.4,63.5,63.5,63.7,62.5,63.8z"/>
	<path fill="#00A14B" d="M41.5,79.6c-0.2,0.5-0.4,1-0.6,1.5c-0.9,2.3-0.7,2.1-3.2,2.5c-0.3,0-0.5,0.1-0.8,0.1
		c-0.7,0.1-1.3-0.1-1.8-0.7c-0.4-0.6-0.9-1.2-1.4-1.8c-0.3-0.4-0.4-0.9-0.2-1.5c0.3-0.8,0.6-1.5,0.9-2.3c0.2-0.5,0.6-0.8,1.1-0.9
		c0.8-0.1,1.6-0.2,2.5-0.4c0.6-0.1,1,0.1,1.4,0.5c0.5,0.7,1.1,1.3,1.6,2C41.3,79,41.4,79.3,41.5,79.6z"/>
	<path fill="#00A14B" d="M66.1,75c-0.3-0.2-0.7-0.3-1-0.6c-0.6-0.6-1.1-1.3-1.6-1.9c-0.4-0.5-0.4-1-0.2-1.5c0.3-0.8,0.5-1.6,0.9-2.3
		c0.2-0.4,0.6-0.7,1-0.8c0.9-0.2,1.8-0.4,2.7-0.4c0.4,0,0.9,0.3,1.2,0.6c0.6,0.6,1.1,1.3,1.6,1.9c0.3,0.4,0.4,0.9,0.2,1.4
		c-0.3,0.8-0.6,1.6-0.9,2.3c-0.2,0.4-0.6,0.8-1,0.9C68.2,74.8,67.2,74.8,66.1,75z"/>
	<path fill="#00A14B" d="M66,28.7c-0.2,0.6-0.5,1.1-0.6,1.6c-0.4,1.6-1.3,2.1-2.9,2.3c-1.5,0.2-2.4-0.2-3.4-1.4
		c-0.9-1.2-1.2-2.2-0.5-3.6c0.9-2,0.9-1.9,3-2.3c1.5-0.3,2.5,0.1,3.3,1.4c0.2,0.3,0.5,0.6,0.7,0.9C65.8,28,65.9,28.3,66,28.7z"/>
	<path fill="#00A14B" d="M69.5,55.2c-0.3-0.2-0.7-0.3-1-0.6c-0.6-0.6-1.1-1.3-1.6-2c-0.3-0.4-0.4-0.9-0.2-1.4
		c0.3-0.8,0.6-1.5,0.9-2.3c0.2-0.5,0.6-0.8,1.2-0.9c0.8-0.1,1.6-0.2,2.4-0.4c0.6-0.1,1,0.1,1.4,0.6c0.5,0.6,1,1.3,1.6,2
		c0.3,0.4,0.4,0.9,0.2,1.5c-0.3,0.8-0.6,1.5-0.9,2.3c-0.2,0.5-0.6,0.8-1.2,0.9C71.4,54.9,70.6,55,69.5,55.2z"/>
	<path fill="#00A14B" d="M31,38.7c-0.2-0.1-0.7-0.3-1-0.6c-0.5-0.6-1-1.2-1.5-1.8c-0.4-0.5-0.5-1-0.2-1.6c0.3-0.7,0.6-1.4,0.8-2.1
		c0.2-0.6,0.7-0.9,1.3-1c0.7-0.1,1.4-0.2,2.2-0.3c0.6-0.1,1.1,0.1,1.4,0.5c0.5,0.6,1,1.3,1.5,1.9c0.3,0.4,0.4,0.9,0.2,1.5
		c-0.3,0.7-0.6,1.4-0.9,2.1c-0.2,0.6-0.6,0.9-1.2,1C32.8,38.4,32,38.5,31,38.7z"/>
	<path fill="#00A14B" d="M28,69.5c0.2,0.1,0.7,0.3,1,0.6c0.5,0.5,0.9,1.2,1.4,1.8c0.4,0.5,0.4,1,0.2,1.6c-0.3,0.7-0.5,1.4-0.8,2
		c-0.2,0.6-0.6,0.9-1.3,1c-0.7,0.1-1.4,0.2-2.1,0.3c-0.7,0.1-1.2-0.1-1.6-0.6c-0.4-0.6-0.9-1.1-1.3-1.6c-0.4-0.5-0.5-1.1-0.2-1.7
		c0.3-0.7,0.5-1.3,0.8-2c0.2-0.6,0.6-0.9,1.3-1C26.2,69.8,27,69.7,28,69.5z"/>
	<path fill="#00A14B" d="M70.8,78c0.2,0.1,0.7,0.3,1,0.6c0.5,0.5,0.9,1.2,1.4,1.8c0.4,0.5,0.5,1,0.2,1.5c-0.3,0.7-0.6,1.4-0.9,2.2
		c-0.2,0.5-0.6,0.9-1.2,0.9c-0.7,0.1-1.4,0.2-2.1,0.3c-0.6,0.1-1.2-0.1-1.6-0.6c-0.4-0.6-0.9-1.2-1.4-1.7c-0.4-0.5-0.5-1-0.2-1.6
		c0.3-0.7,0.5-1.4,0.8-2.1c0.2-0.4,0.6-0.8,1-0.9C68.8,78.2,69.7,78.1,70.8,78z"/>
	<path fill="#00A14B" d="M56.8,64.4c0.3,0.2,0.7,0.3,1,0.6c0.5,0.6,1,1.2,1.5,1.8c0.3,0.4,0.4,0.9,0.2,1.5c-0.3,0.7-0.6,1.4-0.8,2.2
		c-0.2,0.5-0.6,0.8-1.2,0.9c-0.7,0.1-1.5,0.2-2.2,0.3c-0.6,0.1-1.1-0.1-1.5-0.6c-0.5-0.6-0.9-1.2-1.4-1.8c-0.4-0.5-0.4-1-0.2-1.5
		c0.3-0.7,0.5-1.4,0.8-2.1c0.2-0.5,0.6-0.9,1.2-0.9C55,64.7,55.8,64.6,56.8,64.4z"/>
	<path fill="#00A14B" d="M21.9,50.1c0.3,0.1,0.7,0.3,1,0.6c0.5,0.6,1,1.2,1.5,1.8c0.3,0.4,0.4,0.9,0.2,1.5c-0.3,0.7-0.6,1.4-0.8,2.1
		c-0.2,0.6-0.6,0.9-1.2,1c-0.7,0.1-1.5,0.2-2.2,0.3c-0.6,0.1-1-0.1-1.4-0.6c-0.5-0.6-1-1.2-1.4-1.8c-0.3-0.4-0.4-0.9-0.2-1.5
		c0.3-0.7,0.6-1.4,0.8-2.1c0.2-0.5,0.6-0.9,1.2-1C20.1,50.4,20.9,50.3,21.9,50.1z"/>
	<path fill="#00A14B" d="M23.2,64.6c-0.3,0.7-0.6,1.3-0.8,2c-0.3,1.1-0.9,1.6-2,1.6c-0.6,0-1.1,0.2-1.6,0.2c-0.5,0.1-1-0.1-1.3-0.5
		c-0.5-0.6-1.1-1.2-1.4-1.9c-0.2-0.4-0.3-0.9-0.2-1.3c0.2-0.7,0.5-1.4,0.8-2.2c0.2-0.5,0.6-0.8,1.2-0.9c0.7-0.1,1.5-0.3,2.2-0.3
		c0.4,0,1,0.2,1.3,0.4c0.6,0.6,1.1,1.3,1.6,1.9C23,64,23,64.3,23.2,64.6z"/>
	<path fill="#00A14B" d="M43.6,89.5c-0.4,1-0.8,2-1.3,2.9c-0.4,0.6-3.4,1.1-3.9,0.6c-0.8-0.7-1.5-1.6-2-2.5
		c-0.4-0.7,0.7-3.5,1.5-3.8c0.6-0.2,1.3-0.2,2-0.4c1.1-0.3,1.8,0.1,2.4,1c0.3,0.4,0.6,0.7,0.9,1.1C43.3,88.8,43.4,89.1,43.6,89.5z"
		/>
	<path fill="#00A14B" d="M50.9,74.7c-0.4,0.9-0.8,1.9-1.3,2.8c-0.1,0.3-0.6,0.4-0.9,0.5c-0.7,0.2-1.4,0.2-2.1,0.3
		c-0.6,0.1-1-0.1-1.4-0.5c-0.5-0.6-1-1.1-1.4-1.8c-0.2-0.4-0.3-1-0.2-1.4c0.2-0.7,0.5-1.4,0.8-2c0.2-0.5,0.6-0.8,1.2-0.9
		c0.7-0.1,1.4-0.3,2.1-0.3c0.4,0,1,0.1,1.3,0.4c0.6,0.6,1.1,1.3,1.6,1.9C50.8,74,50.8,74.3,50.9,74.7z"/>
	<path fill="#00A14B" d="M44.8,68.2c-0.2-0.1-0.7-0.3-0.9-0.5c-0.5-0.6-1-1.2-1.5-1.8c-0.3-0.4-0.4-0.9-0.2-1.4
		c0.3-0.7,0.5-1.3,0.8-2c0.2-0.5,0.6-0.9,1.2-1c0.7-0.1,1.4-0.2,2.1-0.3c0.6-0.1,1.1,0.1,1.5,0.6c0.4,0.5,0.8,1.1,1.3,1.6
		c0.3,0.4,0.4,0.9,0.2,1.4c-0.3,0.7-0.5,1.4-0.8,2c-0.2,0.5-0.6,0.8-1.1,0.9C46.5,67.9,45.7,68.1,44.8,68.2z"/>
	<path fill="#00A14B" d="M75.8,59.4c0.3,0.2,0.7,0.3,1,0.6c0.5,0.5,0.9,1.1,1.3,1.7c0.3,0.4,0.4,0.9,0.2,1.5
		c-0.2,0.6-0.5,1.3-0.7,1.9c-0.2,0.5-0.6,0.9-1.2,0.9c-0.7,0.1-1.3,0.2-2,0.3c-0.6,0.1-1-0.1-1.4-0.5c-0.4-0.5-0.9-1.1-1.3-1.6
		c-0.4-0.5-0.4-1-0.2-1.5c0.2-0.6,0.4-1.3,0.7-1.8c0.2-0.4,0.6-0.8,1-0.9C74,59.6,74.8,59.5,75.8,59.4z"/>
	<path fill="#00A14B" d="M43.4,26c-0.3,0.7-0.6,1.6-1.1,2.5c-0.4,0.6-3.3,1.1-3.8,0.6c-0.7-0.7-1.4-1.5-1.9-2.4
		c-0.4-0.6,0.7-3.4,1.4-3.6c1-0.3,2.1-0.4,3.1-0.4C41.8,22.7,43.5,25,43.4,26z"/>
	<path fill="#00A14B" d="M75.3,46.6c-0.3-0.2-0.7-0.4-1-0.7c-0.5-0.5-0.8-1-1.2-1.5c-0.4-0.4-0.4-0.9-0.2-1.5
		c0.2-0.6,0.5-1.3,0.7-1.9c0.2-0.5,0.6-0.8,1.1-0.9c0.7-0.1,1.4-0.2,2.1-0.3c0.6-0.1,1,0.1,1.4,0.6c0.4,0.5,0.8,1,1.2,1.5
		c0.4,0.5,0.5,1,0.2,1.6c-0.2,0.6-0.5,1.2-0.7,1.8c-0.2,0.5-0.6,0.9-1.1,0.9C77,46.3,76.3,46.4,75.3,46.6z"/>
	<path fill="#00A14B" d="M71.8,35.4c-0.2-0.1-0.7-0.3-0.9-0.6c-0.5-0.5-1-1.1-1.3-1.7c-0.2-0.4-0.3-1-0.2-1.4
		c0.1-0.7,0.5-1.3,0.7-1.9c0.2-0.5,0.6-0.8,1.2-0.9c0.6-0.1,1.3-0.2,1.9-0.3c0.6-0.1,1.1,0.1,1.4,0.5c0.4,0.5,0.9,1.1,1.3,1.6
		c0.3,0.4,0.4,0.9,0.2,1.4c-0.2,0.6-0.4,1.3-0.8,1.9c-0.2,0.4-0.6,0.8-1,0.9C73.5,35.2,72.7,35.3,71.8,35.4z"/>
	<path fill="#00A14B" d="M80.3,56.7c-0.3-0.2-0.7-0.3-1-0.6c-0.5-0.5-0.8-1-1.2-1.5c-0.4-0.5-0.5-1-0.2-1.6c0.2-0.6,0.5-1.2,0.7-1.8
		c0.2-0.6,0.6-0.9,1.2-1c0.6-0.1,1.3-0.2,1.9-0.3c0.6-0.1,1,0.1,1.4,0.6c0.4,0.5,0.8,1,1.2,1.5c0.4,0.5,0.4,1,0.2,1.6
		c-0.2,0.6-0.4,1.2-0.7,1.8c-0.2,0.4-0.6,0.8-1,0.9C82,56.5,81.3,56.6,80.3,56.7z"/>
	<path fill="#00A14B" d="M29.2,55.6c-1,0-3-2-2.8-2.9c0.2-1,0.5-2,1.1-2.8c0.7-0.8,1.9-0.6,2.8-0.7c0.9-0.1,2.8,1.9,2.6,2.9
		c-0.2,1-0.5,2-1.1,2.8C31.2,55.7,30,55.3,29.2,55.6z"/>
	<path fill="#00A14B" d="M85.7,47.7c-1.1,0-3-1.9-2.8-2.9c0.2-1,0.5-2,1.1-2.8c0.6-0.9,1.9-0.6,2.8-0.7c0.9-0.1,2.8,1.9,2.6,2.9
		c-0.2,1-0.5,2-1.1,2.8C87.8,47.8,86.5,47.4,85.7,47.7z"/>
	<path fill="#00A14B" d="M48.5,87.9c-1,0-2.9-2-2.8-2.9c0.2-1,0.5-2,1.1-2.8c0.6-0.9,1.9-0.6,2.8-0.7c0.9-0.1,2.8,2,2.6,2.9
		c-0.2,1-0.5,2-1.1,2.8C50.5,88,49.3,87.6,48.5,87.9z"/>
	<path fill="#00A14B" d="M69.1,25.1c-0.9,0-2.8-2-2.6-3c0.2-0.9,0.5-2,1.1-2.7c0.7-0.8,1.9-0.6,2.9-0.7c0.9-0.1,2.8,2,2.6,3
		c-0.2,0.9-0.5,2.1-1.1,2.7c-0.7,0.6-1.8,0.6-2.8,0.9C69.1,25.2,69.1,25.1,69.1,25.1z"/>
	<path fill="#00A14B" d="M58.1,22.3c-0.2-0.1-0.6-0.2-0.9-0.4c-0.5-0.6-1-1.2-1.4-1.8c-0.2-0.3-0.2-0.8-0.1-1.2
		c0.1-0.6,0.4-1.2,0.7-1.8c0.2-0.5,0.6-0.8,1.2-0.9c0.6-0.1,1.2-0.2,1.8-0.3c0.6-0.1,1,0.1,1.4,0.5c0.4,0.5,0.8,1,1.2,1.5
		c0.3,0.4,0.4,0.9,0.2,1.4c-0.2,0.6-0.4,1.2-0.7,1.8c-0.2,0.4-0.6,0.7-1,0.9C59.7,22.1,59,22.2,58.1,22.3z"/>
	<path fill="#00A14B" d="M24.7,47.2c-1,0-2.9-2-2.7-2.9c0.2-0.9,0.5-2,1.1-2.7c0.7-0.9,1.9-0.6,2.8-0.7c0.9-0.1,2.8,1.9,2.6,2.9
		c-0.2,1-0.5,2-1.1,2.8C26.8,47.3,25.6,46.9,24.7,47.2z"/>
	<path fill="#00A14B" d="M51.1,17.4c-0.3,0.6-0.6,1.5-1.1,2.3c-0.1,0.2-0.5,0.4-0.8,0.4c-0.6,0.1-1.2,0.3-1.9,0.3
		c-0.4,0-0.8-0.2-1.1-0.4c-0.1,0-0.2-0.2-0.3-0.3c-1.7-2.2-1.6-1.7-0.5-4.4c0.1-0.3,0.5-0.7,0.8-0.7c0.8-0.2,1.6-0.3,2.5-0.4
		c0.1,0,0.1,0,0.2,0C49.6,14.4,51,16.3,51.1,17.4z"/>
	<path fill="#00A14B" d="M28.6,82.2c1.1,0,2.9,1.8,2.7,2.8c-0.1,0.9-0.5,1.9-1,2.6c-0.6,0.8-1.8,0.6-2.7,0.7
		c-0.9,0.1-2.7-1.8-2.6-2.8c0.2-0.9,0.5-1.9,1-2.6C26.7,82.1,27.9,82.4,28.6,82.2z"/>
	<path fill="#00A14B" d="M65.9,89.1c-0.4,0.9-0.7,1.7-1.2,2.5c-0.2,0.3-0.6,0.4-1,0.5c-0.4,0.1-0.8,0.1-1.2,0.2
		c-0.8,0.2-1.4-0.1-1.9-0.7c-1.4-1.8-1.4-1.6-0.6-3.8c0.3-0.8,0.8-1.2,1.6-1.3c2.2-0.3,2-0.5,3.5,1.5C65.5,88.3,65.7,88.7,65.9,89.1
		z"/>
	<path fill="#00A14B" d="M20.9,37.5c-1,0-2.6-1.7-2.6-2.7c0-1.9,1.4-3.2,3.6-3.2c0.9,0,2.6,1.8,2.5,2.7c-0.1,0.9-0.5,1.8-1,2.5
		C22.8,37.6,21.6,37.2,20.9,37.5z"/>
	<path fill="#00A14B" d="M77.7,76.2c-0.9,0-2.5-1.7-2.5-2.7c0-1.8,1.4-3.1,3.6-3.2c0.9,0,2.5,1.7,2.5,2.7
		C81.2,74.9,79.9,76.1,77.7,76.2z"/>
	<path fill="#00A14B" d="M83.9,66.2c-1,0-2.8-1.7-2.6-2.7c0.2-0.9,0.5-1.8,1-2.5c0.6-0.8,1.7-0.6,2.6-0.7c0.8-0.1,2.6,1.7,2.4,2.6
		c-0.1,0.9-0.5,1.8-1,2.5C85.8,66.3,84.6,65.9,83.9,66.2z"/>
	<path fill="#00A14B" d="M43.7,11.6c-0.9,0-2.4-1.7-2.4-2.6c0-1.8,1.4-3,3.5-3c0.9,0,2.4,1.6,2.4,2.6C47.1,10.4,45.7,11.6,43.7,11.6
		z"/>
	<path fill="#00A14B" d="M15.1,46.7c-0.9,0-2.4-1.6-2.4-2.6c0-1.8,1.3-3,3.3-3c0.9,0,2.4,1.6,2.4,2.6C18.4,45.6,17.2,46.7,15.1,46.7
		z"/>
	<path fill="#00A14B" d="M20,81.4c-0.9,0-2.3-1.5-2.4-2.5c0-1.7,1.4-3,3.3-3c0.9,0,2.3,1.6,2.3,2.5C23.3,80.2,22,81.4,20,81.4z"/>
	<path fill="#00A14B" d="M80.6,38.2c-0.9,0-2.3-1.5-2.3-2.5c0-1.7,1.3-2.9,3.2-2.9c0.9,0,2.3,1.5,2.3,2.5
		C83.8,37,82.5,38.2,80.6,38.2z"/>
	<path fill="#00A14B" d="M28.2,28.2c-0.9,0-2.3-1.5-2.3-2.5c0-1.7,1.3-2.9,3.2-2.9c0.9,0,2.3,1.5,2.3,2.5
		C31.4,27.1,30.2,28.2,28.2,28.2z"/>
	<path fill="#00A14B" d="M53.3,8.8c0-1.8,1.3-2.9,3.2-2.8c0.9,0,2.2,1.5,2.3,2.5c0,1.7-1.3,2.9-3.2,2.9C54.7,11.4,53.3,9.8,53.3,8.8
		z"/>
	<path fill="#00A14B" d="M39.7,17.1c0,1.6-1.3,2.8-3.1,2.8c-0.9,0-2.3-1.5-2.2-2.4c0-1.6,1.3-2.7,3.1-2.8
		C38.3,14.6,39.7,16.1,39.7,17.1z"/>
	<path fill="#00A14B" d="M15.2,54.8c0,1.6-1.1,2.6-2.9,2.7c-0.9,0-2.2-1.4-2.2-2.3c0-1.6,1.2-2.7,3-2.7
		C13.9,52.5,15.2,53.9,15.2,54.8z"/>
	<path fill="#00A14B" d="M10.2,67.7c-0.9,0-2.1-1.3-2.2-2.3c0-1.6,1.2-2.6,2.9-2.7c0.9,0,2.1,1.4,2.2,2.3
		C13.1,66.7,11.9,67.7,10.2,67.7z"/>
	<path fill="#00A14B" d="M18.9,27.5c-0.8,0-2.2-1.4-2.2-2.3c0-1.6,1.2-2.7,2.9-2.6c0.9,0,2.2,1.4,2.1,2.4
		C21.8,26.5,20.7,27.5,18.9,27.5z"/>
	<path fill="#00A14B" d="M89.1,31.7c0.9,0,2.1,1.2,2.2,2.2c0.1,1.5-1,2.5-2.7,2.6c-0.9,0-2.1-1.3-2.2-2.2
		C86.3,32.8,87.4,31.8,89.1,31.7z"/>
	<path fill="#00A14B" d="M82.4,26.4c0,1.5-1,2.5-2.7,2.5c-0.9,0-2.2-1.3-2.2-2.3c0-1.5,1.1-2.5,2.8-2.5
		C81.2,24.1,82.4,25.4,82.4,26.4z"/>
	<path fill="#00A14B" d="M26.4,19.1c-0.9,0-2.1-1.3-2.1-2.2c0-1.5,1.1-2.5,2.8-2.5c0.8,0,2.1,1.3,2.1,2.2
		C29.3,18.1,28.1,19.1,26.4,19.1z"/>
	<path fill="#00A14B" d="M12.8,32c0.9,0,2.1,1.3,2.1,2.2c0,1.5-1.1,2.5-2.8,2.5c-0.9,0-2.1-1.4-2.1-2.3C10,32.9,11.1,32,12.8,32z"/>
	<path fill="#00A14B" d="M89,72.3c0,1.5-1.1,2.5-2.8,2.5c-0.9,0-2.1-1.3-2.1-2.3c0-1.5,1.1-2.5,2.8-2.5C87.8,70.1,89,71.4,89,72.3z"
		/>
	<path fill="#00A14B" d="M94.4,63.4c0,1.5-1.1,2.5-2.7,2.5c-0.9,0-2.1-1.3-2.1-2.2c0-1.5,1.1-2.5,2.7-2.5
		C93.2,61.2,94.4,62.4,94.4,63.4z"/>
	<path fill="#00A14B" d="M90.6,56c-0.9,0-2.1-1.2-2.1-2.1c-0.1-1.5,1-2.5,2.7-2.5c0.9,0,2.1,1.2,2.1,2.2C93.3,55,92.2,56,90.6,56z"
		/>
	<path fill="#00A14B" d="M54.9,93.9c-0.9,0-2.1-1.1-2.1-2.1c-0.1-1.4,0.9-2.4,2.5-2.4c0.9,0,2,1.1,2.1,2.1
		C57.4,92.9,56.4,93.8,54.9,93.9z"/>
	<path fill="#00A14B" d="M77.5,14.7c0.9,0,2.1,1.1,2.1,2.1c0,1.4-0.9,2.3-2.5,2.4c-0.9,0-2-1.1-2-2.1C75,15.7,75.9,14.8,77.5,14.7z"
		/>
	<path fill="#00A14B" d="M64.6,11.6c0-1.3,1-2.3,2.4-2.2c0.9,0,1.9,1.1,1.9,2c0,1.3-1,2.3-2.4,2.2C65.7,13.6,64.6,12.5,64.6,11.6z"
		/>
	<path fill="#00A14B" d="M34.1,11.9c-0.8,0-1.9-1.1-2-2c0-1.3,1-2.2,2.4-2.2c0.9,0,1.9,1.1,1.9,2C36.5,11,35.5,11.9,34.1,11.9z"/>
	<path fill="#00A14B" d="M7.3,46.8c-0.9,0-1.9-1.1-1.9-2c0-1.3,1-2.2,2.4-2.2c0.9,0,1.9,1.1,1.9,2C9.6,45.9,8.7,46.8,7.3,46.8z"/>
	<path fill="#00A14B" d="M13.4,72.9c0.9,0,1.9,1,1.9,2c0,1.3-0.8,2.2-2.3,2.2c-0.9,0-2-1.1-2-2C11,73.8,12,72.9,13.4,72.9z"/>
	<path fill="#00A14B" d="M8,56.4c0,1.3-0.9,2.1-2.2,2.1c-0.8,0-1.9-1.1-1.9-1.9c0-1.2,0.9-2.1,2.2-2.1C7,54.5,8,55.5,8,56.4z"/>
	<path fill="#00A14B" d="M19.5,19.1c-0.9,0-1.9-0.9-1.9-1.8c0-1.1,0.8-1.9,2-2c0.9,0,1.8,0.8,1.8,1.8C21.4,18.4,20.7,19.1,19.5,19.1
		z"/>
	<path fill="#00A14B" d="M94.3,42.2c0.9,0,1.8,0.8,1.8,1.8c0,1.1-0.8,1.9-2,1.9c-0.8,0-1.8-0.9-1.8-1.8C92.3,43,93.1,42.2,94.3,42.2
		z"/>
	<path fill="#00A14B" d="M11.6,27.7c-0.8,0-1.6-0.8-1.6-1.7c0-1,0.8-1.7,1.8-1.7c0.8,0,1.6,0.8,1.6,1.7C13.3,27,12.6,27.7,11.6,27.7
		z"/>
	<path fill="#00A14B" d="M88.2,24.3c0,1-0.7,1.7-1.7,1.7c-0.8,0-1.6-0.8-1.6-1.7c0-1,0.7-1.7,1.7-1.7C87.4,22.6,88.2,23.4,88.2,24.3
		z"/>
	<path fill="#00A14B" d="M77.2,81.5c0-0.8,0.6-1.5,1.4-1.5c0.8,0,1.5,0.6,1.5,1.4c0,0.9-0.6,1.5-1.5,1.5
		C77.8,83,77.2,82.4,77.2,81.5z"/>
	<path fill="#00A14B" d="M47.5,94c-0.8,0-1.5-0.7-1.5-1.5c0-0.8,0.7-1.5,1.5-1.5c0.8,0,1.5,0.7,1.5,1.5C49,93.3,48.3,94,47.5,94z"/>
	<path fill="#00A14B" d="M7.6,37.4c0,0.7-0.6,1.3-1.4,1.3c-0.8,0-1.4-0.6-1.4-1.4c0-0.7,0.7-1.4,1.4-1.3C7,36,7.6,36.6,7.6,37.4z"/>
</g>
</svg>
