<?xml version="1.0" encoding="utf-8"?>
<!-- Generator: Adobe Illustrator 18.1.1, SVG Export Plug-In . SVG Version: 6.00 Build 0)  -->
<svg version="1.1" id="Layer_1" xmlns="http://www.w3.org/2000/svg" xmlns:xlink="http://www.w3.org/1999/xlink" x="0px" y="0px"
	 viewBox="0 0 361.4 100" enable-background="new 0 0 361.4 100" xml:space="preserve">
<g>
	<path fill="#414042" d="M106.4,46.3l9.9-14.2c0.2-0.3,0.4-0.6,0.6-0.7l0.3-0.3V31c-0.1,0-0.2,0-0.4,0c-0.2,0-0.5,0.1-0.8,0.1h-6.2
		v3.1h-3.2v-6.1h15.2v2.4l-9.9,14.2c-0.2,0.3-0.4,0.5-0.6,0.7l-0.3,0.3v0.1l0.4-0.1c0.2,0,0.5,0,0.8,0h6.6v-3.2h3.2v6.2h-15.7V46.3z
		"/>
	<path fill="#414042" d="M126.9,30.9h-2.5v-2.9h8.8v2.9h-2.5v10c0,1.2,0.3,2.2,0.7,2.9c0.7,1.2,2.1,1.8,3.9,1.8s3.1-0.6,3.9-1.9
		c0.5-0.8,0.7-1.8,0.7-2.9v-9.9h-2.5v-2.9h8.7v2.9h-2.5v10c0,2-0.6,3.9-1.5,5.2c-1.5,2-4.1,2.9-6.8,2.9c-2.9,0-5.4-1-6.8-2.9
		c-1.1-1.4-1.5-3.1-1.5-5.2V30.9z"/>
	<path fill="#414042" d="M148.5,46.3l9.9-14.2c0.2-0.3,0.4-0.6,0.6-0.7l0.3-0.3V31c-0.1,0-0.2,0-0.4,0c-0.2,0-0.5,0.1-0.8,0.1h-6.2
		v3.1h-3.2v-6.1h15.2v2.4L154,44.7c-0.2,0.3-0.4,0.5-0.6,0.7l-0.3,0.3v0.1l0.4-0.1c0.2,0,0.5,0,0.8,0h6.6v-3.2h3.2v6.2h-15.7V46.3z"
		/>
	<path fill="#414042" d="M169,30.9h-2.5v-2.9h8.8v2.9h-2.5v10c0,1.2,0.3,2.2,0.7,2.9c0.7,1.2,2.1,1.8,3.9,1.8c1.7,0,3.1-0.6,3.9-1.9
		c0.5-0.8,0.7-1.8,0.7-2.9v-9.9h-2.5v-2.9h8.7v2.9h-2.5v10c0,2-0.6,3.9-1.5,5.2c-1.5,2-4.1,2.9-6.8,2.9c-2.9,0-5.4-1-6.8-2.9
		c-1.1-1.4-1.5-3.1-1.5-5.2V30.9z"/>
	<path fill="#414042" d="M196.7,45.8h1.9l6.2-17.8h4.3l6.2,17.8h1.9v2.8h-7.7v-2.8h2l-1.3-3.9h-6.5l-1.3,3.9h2v2.8h-7.7V45.8z
		 M209.3,39l-1.9-5.8l-0.3-1.3c0-0.2-0.1-0.4-0.1-0.5h-0.1l-0.1,0.5c-0.1,0.3-0.1,0.7-0.3,1.3l-2,5.8H209.3z"/>
	<path fill="#414042" d="M219,45.8h2.5V30.9H219v-2.9h6.3l8.7,13.3c0.2,0.3,0.4,0.8,0.5,1.1l0.2,0.6h0.1l-0.1-0.7
		c0-0.4-0.1-0.9-0.1-1.2V30.9h-2.6v-2.9h8.8v2.9h-2.5v17.7h-3.8l-8.7-13.2c-0.2-0.3-0.4-0.8-0.5-1.1l-0.2-0.6h-0.1l0.1,0.7
		c0,0.4,0.1,0.9,0.1,1.2v10.2h2.6v2.8H219V45.8z"/>
	<path fill="#414042" d="M243.5,45.8h2.5V30.9h-2.5v-2.9h8.9c1.7,0,2.9,0.1,4.3,0.5c4,1.2,6.7,4.8,6.7,9.8c0,4.9-2.4,8.4-6.4,9.7
		c-1.4,0.5-2.8,0.6-4.6,0.6h-8.9V45.8z M252.3,45.6c1.3,0,2.3-0.1,3.4-0.5c2.3-1,3.8-3.3,3.8-6.7c0-3.5-1.5-5.9-4-6.8
		c-1-0.4-2-0.5-3.2-0.5h-2.5v14.5H252.3z"/>
	<path fill="#414042" d="M273.5,46.3l9.9-14.2c0.2-0.3,0.4-0.6,0.6-0.7l0.3-0.3V31c-0.1,0-0.2,0-0.4,0c-0.2,0-0.5,0.1-0.8,0.1h-6.2
		v3.1h-3.2v-6.1h15.2v2.4l-9.9,14.2c-0.2,0.3-0.4,0.5-0.6,0.7l-0.3,0.3v0.1l0.4-0.1c0.2,0,0.5,0,0.8,0h6.6v-3.2h3.2v6.2h-15.7V46.3z
		"/>
	<path fill="#414042" d="M291,45.8h1.9l6.2-17.8h4.3l6.2,17.8h1.9v2.8h-7.7v-2.8h2l-1.3-3.9h-6.5l-1.3,3.9h2v2.8H291V45.8z
		 M303.5,39l-1.9-5.8l-0.3-1.3c0-0.2-0.1-0.4-0.1-0.5h-0.1l-0.1,0.5c-0.1,0.3-0.1,0.7-0.3,1.3l-2,5.8H303.5z"/>
	<path fill="#414042" d="M313.3,46.3l9.9-14.2c0.2-0.3,0.4-0.6,0.6-0.7l0.3-0.3V31c-0.1,0-0.2,0-0.4,0c-0.2,0-0.5,0.1-0.8,0.1h-6.2
		v3.1h-3.2v-6.1h15.2v2.4l-9.9,14.2c-0.2,0.3-0.4,0.5-0.6,0.7l-0.3,0.3v0.1l0.4-0.1c0.2,0,0.5,0,0.8,0h6.6v-3.2h3.2v6.2h-15.7V46.3z
		"/>
	<path fill="#414042" d="M330.7,45.8h1.9l6.2-17.8h4.3l6.2,17.8h1.9v2.8h-7.7v-2.8h2l-1.3-3.9h-6.5l-1.3,3.9h2v2.8h-7.7V45.8z
		 M343.3,39l-1.9-5.8l-0.3-1.3c0-0.2-0.1-0.4-0.1-0.5h-0.1l-0.1,0.5c-0.1,0.3-0.1,0.7-0.3,1.3l-2,5.8H343.3z"/>
	<path fill="#414042" d="M106,71.5h1.8V59.8H106v-1.2h6.4c0.9,0,1.7,0.1,2.4,0.4c1.4,0.6,2.3,2,2.3,3.8c0,1.9-1,3.4-2.6,4
		c-0.7,0.2-1.3,0.3-2.1,0.3h-3.2v4.4h1.8v1.2H106V71.5z M112.3,65.9c0.7,0,1.2-0.1,1.7-0.3c1-0.4,1.7-1.4,1.7-2.8
		c0-1.3-0.5-2.2-1.5-2.7c-0.5-0.2-1.2-0.3-1.9-0.3h-3v6.1H112.3z"/>
	<path fill="#414042" d="M119.9,63.7h-1.8v-1.1h3.2v6.1c0,1.6,0.2,3,2.2,3c2.3,0,3.7-2.1,3.7-4.3v-3.7h-1.8v-1.1h3.2v8.5
		c0,0.3,0.1,0.4,0.4,0.4h1.1v1.1h-1.7c-0.9,0-1.2-0.3-1.2-1.1V71c0-0.2,0-0.4,0-0.5v-0.2h0c-0.3,0.7-1.5,2.6-4,2.6
		c-2.3,0-3.3-1.3-3.3-3.9V63.7z"/>
	<path fill="#414042" d="M133,75.5V64.2c0-0.3-0.1-0.4-0.4-0.4h-1.4v-1.1h1.9c0.9,0,1.2,0.4,1.2,1.1v0.1c0,0.2,0,0.4,0,0.5l0,0.2h0
		c0.2-0.4,0.4-0.7,0.7-1c0.5-0.5,1.4-1,2.8-1c2.7,0,4.4,2.2,4.4,5.3c0,3.2-1.9,5.3-4.5,5.3c-1.2,0-2-0.5-2.6-1
		c-0.3-0.3-0.6-0.6-0.8-1h0l0,0.2c0,0.2,0,0.4,0,0.6v3.8h1.7v1.1h-4.8v-1.1H133z M137.5,71.7c1.8,0,3.3-1.5,3.3-4c0-2.5-1.3-4-3.2-4
		c-1.7,0-3.2,1.2-3.2,4.1C134.3,69.7,135.5,71.7,137.5,71.7z"/>
	<path fill="#414042" d="M145.5,75.5V64.2c0-0.3-0.1-0.4-0.4-0.4h-1.4v-1.1h1.9c0.9,0,1.2,0.4,1.2,1.1v0.1c0,0.2,0,0.4,0,0.5l0,0.2
		h0c0.2-0.4,0.4-0.7,0.7-1c0.5-0.5,1.4-1,2.8-1c2.7,0,4.4,2.2,4.4,5.3c0,3.2-1.9,5.3-4.5,5.3c-1.2,0-2-0.5-2.6-1
		c-0.3-0.3-0.6-0.6-0.8-1h0l0,0.2c0,0.2,0,0.4,0,0.6v3.8h1.7v1.1h-4.8v-1.1H145.5z M150,71.7c1.8,0,3.3-1.5,3.3-4c0-2.5-1.3-4-3.2-4
		c-1.7,0-3.2,1.2-3.2,4.1C146.8,69.7,147.9,71.7,150,71.7z"/>
	<path fill="#414042" d="M161.5,62.4c2.8,0,4.2,2.1,4.2,4.6c0,0.1,0,0.3,0,0.4l0,0.2h-7.7c0.1,2.6,1.8,4,3.9,4
		c0.9,0,1.7-0.3,2.2-0.6c0.3-0.2,0.6-0.4,0.8-0.6l0.6,1c-0.3,0.3-0.6,0.5-1,0.7c-0.6,0.4-1.6,0.7-2.7,0.7c-3,0-5.3-2.2-5.3-5.3
		C156.5,64.3,158.8,62.4,161.5,62.4z M164.3,66.6c-0.1-2.1-1.4-3.1-2.8-3.1c-1.7,0-3.1,1.1-3.5,3.1H164.3z"/>
	<path fill="#414042" d="M168.8,63.7H167v-1.1h1.8v-2.8h1.3v2.8h2.5v1.1h-2.5v5.2c0,2.3,1.5,2.7,2.3,2.7c0.2,0,0.3,0,0.3,0
		c0.1,0,0.1,0,0.1,0v1.2c-0.1,0-0.1,0-0.2,0c-0.1,0-0.2,0-0.4,0c-1.2,0-3.5-0.4-3.5-3.7V63.7z"/>
	<path fill="#414042" d="M179.5,71.5h1.8V59.8h-1.8v-1.2h6.4c0.9,0,1.7,0.1,2.4,0.4c1.4,0.6,2.3,2,2.3,3.8c0,1.9-1,3.4-2.6,4
		c-0.7,0.2-1.3,0.3-2.1,0.3h-3.2v4.4h1.8v1.2h-5.1V71.5z M185.8,65.9c0.7,0,1.2-0.1,1.7-0.3c1-0.4,1.7-1.4,1.7-2.8
		c0-1.3-0.5-2.2-1.5-2.7c-0.5-0.2-1.2-0.3-1.9-0.3h-3v6.1H185.8z"/>
	<path fill="#414042" d="M197.9,66.5h0.7v-0.4c0-1.9-1-2.5-2.4-2.5c-0.9,0-1.6,0.2-2.1,0.5c-0.3,0.1-0.6,0.3-0.8,0.5l-0.6-1
		c0.3-0.2,0.6-0.4,1-0.6c0.6-0.3,1.5-0.6,2.7-0.6c2.5,0,3.7,1.3,3.7,3.8v5c0,0.3,0.1,0.4,0.4,0.4h1.1v1.1h-1.6
		c-0.9,0-1.2-0.4-1.2-1.1v-0.2c0-0.2,0-0.4,0-0.6c0-0.1,0-0.1,0-0.2h0c-0.2,0.4-0.4,0.8-0.8,1.1c-0.5,0.6-1.4,1.2-2.7,1.2
		c-1.7,0-3.4-0.9-3.4-3C191.9,66.6,196.2,66.5,197.9,66.5z M195.4,71.8c2,0,3.2-2,3.2-3.8v-0.5H198c-0.8,0-4.7-0.1-4.7,2.2
		C193.3,70.8,194,71.8,195.4,71.8z"/>
	<path fill="#414042" d="M203,71.5h1.6v-7.4c0-0.3-0.1-0.4-0.4-0.4h-1.4v-1.1h1.9c0.9,0,1.2,0.3,1.2,1.1v0.7c0,0.2,0,0.4,0,0.5
		c0,0.1,0,0.2,0,0.2h0c0.5-1.5,1.6-2.7,3.2-2.7c0.1,0,0.3,0,0.4,0l0.2,0v1.3c-0.1,0-0.1,0-0.2,0c-0.1,0-0.2,0-0.4,0
		c-2.3,0-3.2,2.5-3.2,4.5v3.1h1.6v1.1H203V71.5z"/>
	<path fill="#414042" d="M211,71.5h1.6v-7.4c0-0.3-0.1-0.4-0.4-0.4h-1.4v-1.1h1.9c0.9,0,1.2,0.3,1.2,1.1v0.7c0,0.2,0,0.4,0,0.5
		c0,0.1,0,0.2,0,0.2h0c0.5-1.5,1.6-2.7,3.2-2.7c0.1,0,0.3,0,0.4,0l0.2,0v1.3c-0.1,0-0.1,0-0.2,0c-0.1,0-0.2,0-0.4,0
		c-2.3,0-3.2,2.5-3.2,4.5v3.1h1.6v1.1H211V71.5z"/>
	<path fill="#414042" d="M224.2,62.4c2.9,0,5.3,2.3,5.3,5.2c0,3-2.4,5.3-5.3,5.3c-2.9,0-5.3-2.3-5.3-5.3
		C218.9,64.6,221.3,62.4,224.2,62.4z M224.2,71.7c2.2,0,3.9-1.8,3.9-4.1c0-2.3-1.8-4-3.9-4c-2.1,0-3.9,1.7-3.9,4
		C220.3,69.9,222,71.7,224.2,71.7z"/>
	<path fill="#414042" d="M232.6,63.7h-1.8v-1.1h1.8v-2.8h1.3v2.8h2.5v1.1h-2.5v5.2c0,2.3,1.5,2.7,2.3,2.7c0.2,0,0.3,0,0.3,0
		c0.1,0,0.1,0,0.1,0v1.2c-0.1,0-0.1,0-0.2,0c-0.1,0-0.2,0-0.4,0c-1.2,0-3.5-0.4-3.5-3.7V63.7z"/>
	<path fill="#414042" d="M242.4,71.5h1.4l4.7-12.9h1.5l4.7,12.9h1.4v1.2h-4.5v-1.2h1.6l-1.3-3.6h-5.5l-1.3,3.6h1.6v1.2h-4.5V71.5z
		 M251.7,66.7l-2.1-5.8c-0.1-0.2-0.1-0.5-0.2-0.6l-0.1-0.3h-0.1c0,0.1,0,0.2,0,0.3c-0.1,0.2-0.1,0.4-0.2,0.6l-2.1,5.8H251.7z"/>
	<path fill="#414042" d="M258.2,59.7h-1.8v-1.1h3.2v5c0,0.2,0,0.4,0,0.6l0,0.2h0c0.2-0.4,0.4-0.7,0.8-1c0.5-0.5,1.4-1,2.7-1
		c2.7,0,4.4,2.2,4.4,5.3c0,3.2-1.9,5.3-4.5,5.3c-1.2,0-2-0.5-2.6-1c-0.3-0.3-0.6-0.6-0.8-1h0l0,0.2c0,0.2,0,0.4,0,0.6v1h-1.3V59.7z
		 M262.7,71.7c1.8,0,3.3-1.5,3.3-4c0-2.5-1.3-4-3.2-4c-1.7,0-3.3,1.2-3.3,4.1C259.5,69.7,260.6,71.7,262.7,71.7z"/>
	<path fill="#414042" d="M275.2,66.5h0.7v-0.4c0-1.9-1-2.5-2.4-2.5c-0.9,0-1.6,0.2-2.1,0.5c-0.3,0.1-0.6,0.3-0.8,0.5l-0.6-1
		c0.3-0.2,0.6-0.4,1-0.6c0.6-0.3,1.5-0.6,2.7-0.6c2.5,0,3.7,1.3,3.7,3.8v5c0,0.3,0.1,0.4,0.4,0.4h1.1v1.1h-1.6
		c-0.9,0-1.2-0.4-1.2-1.1v-0.2c0-0.2,0-0.4,0-0.6c0-0.1,0-0.1,0-0.2h0c-0.2,0.4-0.4,0.8-0.8,1.1c-0.5,0.6-1.4,1.2-2.7,1.2
		c-1.7,0-3.4-0.9-3.4-3C269.1,66.6,273.5,66.5,275.2,66.5z M272.7,71.8c2,0,3.2-2,3.2-3.8v-0.5h-0.6c-0.8,0-4.7-0.1-4.7,2.2
		C270.5,70.8,271.3,71.8,272.7,71.8z"/>
	<path fill="#414042" d="M280.2,69.5h1.2v0.7c0,1,1.5,1.5,2.6,1.5c1.3,0,2.4-0.5,2.4-1.6c0-1.2-1.3-1.6-2.7-2.1
		c-1.5-0.6-3.1-1.2-3.1-3c0-1.8,1.8-2.7,3.5-2.7c1.4,0,3.3,0.6,3.3,2v1.2h-1.2v-0.7c0-0.7-1-1.2-2.1-1.2c-1.1,0-2.1,0.5-2.1,1.5
		c0,1.1,1.2,1.6,2.5,2c1.6,0.5,3.3,1.2,3.3,3c0,1.7-1.6,2.8-3.8,2.8c-1.9,0-3.8-0.9-3.8-2.4V69.5z"/>
	<path fill="#414042" d="M289.6,69.5h1.2v0.7c0,1,1.5,1.5,2.6,1.5c1.3,0,2.4-0.5,2.4-1.6c0-1.2-1.3-1.6-2.7-2.1
		c-1.5-0.6-3.1-1.2-3.1-3c0-1.8,1.8-2.7,3.5-2.7c1.4,0,3.3,0.6,3.3,2v1.2h-1.2v-0.7c0-0.7-1-1.2-2.1-1.2c-1.1,0-2.1,0.5-2.1,1.5
		c0,1.1,1.2,1.6,2.5,2c1.6,0.5,3.3,1.2,3.3,3c0,1.7-1.6,2.8-3.8,2.8c-1.9,0-3.8-0.9-3.8-2.4V69.5z"/>
	<path fill="#414042" d="M304.9,66.5h0.7v-0.4c0-1.9-1-2.5-2.4-2.5c-0.9,0-1.6,0.2-2.1,0.5c-0.3,0.1-0.6,0.3-0.8,0.5l-0.6-1
		c0.3-0.2,0.6-0.4,1-0.6c0.6-0.3,1.5-0.6,2.7-0.6c2.5,0,3.7,1.3,3.7,3.8v5c0,0.3,0.1,0.4,0.4,0.4h1.1v1.1h-1.6
		c-0.9,0-1.2-0.4-1.2-1.1v-0.2c0-0.2,0-0.4,0-0.6c0-0.1,0-0.1,0-0.2h0c-0.2,0.4-0.4,0.8-0.8,1.1c-0.5,0.6-1.4,1.2-2.7,1.2
		c-1.7,0-3.4-0.9-3.4-3C298.8,66.6,303.2,66.5,304.9,66.5z M302.4,71.8c2,0,3.2-2,3.2-3.8v-0.5H305c-0.8,0-4.7-0.1-4.7,2.2
		C300.2,70.8,301,71.8,302.4,71.8z"/>
	<path fill="#414042" d="M314.5,62.4c1.2,0,2,0.5,2.5,1c0.3,0.3,0.6,0.6,0.7,1h0c0-0.1,0-0.1,0-0.2c0-0.1,0-0.3,0-0.6v-3.8h-1.8
		v-1.1h3.2v12.5c0,0.3,0.1,0.4,0.4,0.4h1.1v1.1H319c-0.9,0-1.2-0.4-1.2-1.1v-0.2c0-0.2,0-0.3,0-0.5l0-0.2h0
		c-0.2,0.4-0.4,0.7-0.8,1.1c-0.6,0.5-1.4,1.1-2.8,1.1c-2.7,0-4.4-2.2-4.4-5.3C309.9,64.4,311.8,62.4,314.5,62.4z M314.5,71.7
		c1.7,0,3.3-1.2,3.3-4c0-2.1-1-4-3.2-4c-1.8,0-3.3,1.5-3.3,4C311.3,70.1,312.6,71.7,314.5,71.7z"/>
	<path fill="#414042" d="M327.5,62.4c2.9,0,5.3,2.3,5.3,5.2c0,3-2.4,5.3-5.3,5.3c-2.9,0-5.3-2.3-5.3-5.3
		C322.2,64.6,324.6,62.4,327.5,62.4z M327.5,71.7c2.2,0,3.9-1.8,3.9-4.1c0-2.3-1.8-4-3.9-4c-2.1,0-3.9,1.7-3.9,4
		C323.6,69.9,325.4,71.7,327.5,71.7z"/>
	<path fill="#414042" d="M334.8,71.5h1.6v-7.4c0-0.3-0.1-0.4-0.4-0.4h-1.4v-1.1h1.9c0.9,0,1.2,0.3,1.2,1.1v0.7c0,0.2,0,0.4,0,0.5
		c0,0.1,0,0.2,0,0.2h0c0.5-1.5,1.6-2.7,3.2-2.7c0.1,0,0.3,0,0.4,0l0.2,0v1.3c-0.1,0-0.1,0-0.2,0c-0.1,0-0.2,0-0.4,0
		c-2.3,0-3.2,2.5-3.2,4.5v3.1h1.6v1.1h-4.5V71.5z"/>
	<path fill="#414042" d="M342.6,69.5h1.2v0.7c0,1,1.5,1.5,2.6,1.5c1.3,0,2.4-0.5,2.4-1.6c0-1.2-1.3-1.6-2.7-2.1
		c-1.5-0.6-3.1-1.2-3.1-3c0-1.8,1.8-2.7,3.5-2.7c1.4,0,3.3,0.6,3.3,2v1.2h-1.2v-0.7c0-0.7-1-1.2-2.1-1.2c-1.1,0-2.1,0.5-2.1,1.5
		c0,1.1,1.2,1.6,2.5,2c1.6,0.5,3.3,1.2,3.3,3c0,1.7-1.6,2.8-3.8,2.8c-1.9,0-3.8-0.9-3.8-2.4V69.5z"/>
</g>
<g>
	<g>
		<defs>
			<circle id="SVGID_9_" cx="52" cy="49" r="40.2"/>
		</defs>
		<clipPath id="SVGID_1_">
			<use xlink:href="#SVGID_9_"  overflow="visible"/>
		</clipPath>
		<g clip-path="url(#SVGID_1_)">
			<path fill="#FFFFFF" d="M123.2,129.8c-9.2-4.8-18.7-8.8-28.5-12.1c-2.7-0.9-5.2-1.9-7.9-2.8c-3.1-1-6.2-1.9-9.1-3.2
				c-0.9-0.4-1.8-0.6-2.7-0.8c1.8-1.3,3.3-2.8,5-4.2c-0.1,0.8-0.5,1.5-0.3,2.3c0.2,0.6,1.1,0.6,1.4,0.1c1.1-1.3,1.4-3.1,2.4-4.5
				c0.8-1.3,1.4-2.8,2-4.3c0.2,0,0.4,0,0.6,0c0.8-1.6,1.4-3.4,1.6-5.2c0.5,0.2,0.9,0.3,1.4-0.1c-0.3-2.3-1.2-4.5-1.9-6.7
				c0.8,0.6,1.5,1.3,2.4,1.8c0.5,0.3,1.2-0.1,0.9-0.7c-0.8-3-2.3-5.8-3.4-8.7c-0.7-1.8-1.8-3.4-2.4-5.3c-0.3-0.9-0.8-1.8-1.2-2.7
				c1.6,0.8,3,2,4.5,2.9c0.7,0.4,1.4,0.6,2,1c-0.6-0.8-1.2-1.6-2-2.2c-1.5-1.1-3.1-2-4.6-3.2c0-0.7,0.1-1.4,0.2-2.1
				c0.4-0.2,0.7-0.4,0.9-0.7c1.1,0.7,2.3,1.2,3.5,1.8c1.5,0.8,3.2,1.2,4.6,2.2c-2.4-2.5-5.7-3.6-8.6-5.2c-0.3-0.2-1.1-0.5-0.6-0.9
				c0.8,0,1.6,0.1,2.5,0.2c0.4-0.1,1.2,0.3,1.1-0.4c-0.8-0.7-2-0.8-2.8-1.4c0-0.3,0-0.5,0-0.8c0.2-0.1,0.5-0.3,0.7-0.4
				c0.2,0,0.6-0.1,0.7-0.1c1.7,0.7,3.4,1.3,5.2,1.9c1.5,0.5,3.1,0.5,4.4,1.3c-0.7-0.8-1.5-1.4-2.5-2c-1.3-0.8-2.9-1.1-4.3-1.6
				c-1.2-0.4-2.4-0.9-3.6-1.3c1.1,0.1,2.2-0.1,3.3-0.1c0.4,0.1,0.7-0.5,0.3-0.7c-0.7-0.6-1.6-0.8-2.4-1.1c0.2-0.5,0.4-1,0.6-1.4
				c1.5,0.5,3,0.9,4.5,1.5c1.7,0.6,3.7,0.8,5.3,1.7c-0.9-0.9-2-1.6-3.1-2.2c-1.9-0.9-4.1-1.3-6.1-2c0.2-0.5,0.3-1,0.5-1.5
				c0.9,0.2,1.7,0.2,2.6,0.1c0.2-0.6-0.3-0.9-0.8-1c0.2-0.5,0-1.4,0.8-1.4c1.8,0.5,3.6,0.8,5.3,1.3c-1.5-1.7-3.9-1.8-5.9-2.4
				c0.1-0.5,0.1-1,0.2-1.5c0.5-0.2,1-0.4,1.6-0.3c1.8,0.8,3.9,0.8,5.7,1.5c-0.9-0.7-1.7-1.3-2.7-1.8c-1-0.5-2.1-0.7-3.1-1
				c0-0.5-0.2-1.1,0-1.6c0.7-0.3,1.5-0.2,2.2-0.4l0.3-0.1l0.1-0.3c-0.6-0.7-1.7-0.5-2.4-1c-0.1-0.5-0.2-1-0.3-1.5l0.4-0.3
				c-0.1-0.3-0.3-0.6-0.5-0.8c-0.1-0.6-0.1-1.2-0.2-1.8c1.7,0.3,3.4,0.6,5,0.9c1.4,0.4,2.8,0.4,4.1,1.1c-1-0.7-2-1.5-3.2-1.9
				c-2-0.6-4.1-1-6.3-1.2c0-0.1,0.1-0.4,0.1-0.6c0.8-0.2,1.7-0.2,2.6-0.3c0.8-0.2,1.6-0.4,2.3-0.7c0.4-0.2,0.3-0.9-0.2-0.9
				c-1.4-0.4-3-0.5-4.4-1.1c0.1-0.3,0.3-0.5,0.4-0.8c0.2,0,0.5,0.1,0.7,0.1c0.3-0.6-0.5-1-0.8-1.3c1.7,0.7,3.5,1.2,5.3,1.6
				c2.6,0.6,5.2,1.3,7.8,1.7c-1.4-0.9-2.9-1.5-4.5-1.9c-2.8-0.7-5.7-1.3-8.5-2.1c1.1,0.1,2.1-0.6,3.2-0.9c0.5-0.2,1-0.2,1.4-0.6
				c0.1-0.5-0.6-0.5-1-0.7c-1.5-0.2-2.9-0.5-4.3-1.1c0.9,0,1.9,0.1,2.8-0.1c0.4-1.1-1.4-1-2-1.1c0-0.2-0.1-0.6-0.1-0.9
				c0.2,0,0.7,0.1,1,0.1c0.4,0.1,1.4,0.2,1.2-0.5c-0.5-0.8-1.6-0.8-2.4-0.9c0-0.2-0.1-0.6-0.1-0.8c0.3-0.1,0.7-0.2,1-0.3
				c0.5-0.2,1.3-0.2,1.1-0.9c-1.2-0.1-2.5,0-3.7,0l0-0.2c2.5,0,5.1,0.1,7.6,0.3c1.6,0.2,3.1,0.1,4.7,0.5c-1.1-0.6-2.2-1.3-3.5-1.5
				c-2-0.4-4-0.5-6-0.3c1.4-0.7,2.6-1.7,3.9-2.5c0.2-0.8-0.8-0.4-1.2-0.3c-1.6,0.5-3.3,0.6-5,0.8c1-0.2,2.1-0.3,3.1-0.7
				c0.3-0.1,1.1-0.4,0.6-0.8c-1-0.3-2.1,0-3.1-0.1c-0.4-0.1-0.8-0.2-1.2-0.4c0.6-0.3,1.2-0.4,1.9-0.5c0.4-0.1,1.1,0.1,1-0.6
				c-0.3-0.4-0.9-0.4-1.3-0.5c-0.8-0.3-1.8-0.5-2.3-1.3c0.3-0.4,1-0.4,1.5-0.5c0.5-0.1,1.2,0,1.2-0.7c3.4-0.4,6.7-1.1,10.1-1.1
				c-3.8-1-7.6,0-11.4,0.4l0.3-0.4c1.2-0.5,2.4-0.9,3.4-1.7c0-0.1,0-0.4,0.1-0.5c-1.6,0-3.2,0.7-4.8,0.7l0.3-0.4
				c1.1-0.4,2.2-0.7,3.2-1.2c-0.1-0.1-0.2-0.3-0.3-0.4c-1.6-0.1-3.2,0.4-4.8,0.3c1.6-0.6,3.4-0.7,5-1.5c-0.1-0.4-0.2-0.5-0.6-0.6
				c-1.4-0.1-2.7,0-4.1,0.1c-0.1-0.4-0.3-0.8-0.4-1.2l-0.4,0c1.3-0.6,2.7-0.7,4-0.9c3.4-0.5,6.8-1.1,10.2-1.1
				C97.7,6.8,94,7.2,90.4,7.9c0.3-0.3,0.6-0.6,0.9-1c-0.1-0.1-0.4-0.2-0.5-0.2c-1.5,0.1-3,0.8-4.5,0.9c0-0.1-0.1-0.2-0.1-0.2
				c0-0.2,0.1-0.5,0.1-0.7c1.3-0.6,2.5-1.5,3.8-2.3c0.3-0.2,0.5-0.5,0.6-0.9c-0.5-0.1-1-0.1-1.4,0c-1.6,0.5-3.3,1-4.9,1.5
				c0-0.2,0.1-0.5,0.1-0.6c1.6-0.9,3.3-1.6,5-2.5l0.1-0.4c-2.7,0.3-5.3,1.4-8,2l0-0.5c0.5-0.4,1.1-0.7,1.6-1
				c-0.1-0.1-0.2-0.2-0.2-0.3l-0.7-0.2c1.4-0.6,2.8-1.5,4.2-2.1c1.9-0.8,3.7-2,5.7-2.6C90.6-3,89-2.6,87.5-2.2
				C86.2-1.8,85-1,83.7-0.8c0.2-0.5,0.4-0.9,0.5-1.4c-0.2-0.1-0.6-0.2-0.8-0.3c0,0.1-0.1,0.4-0.1,0.5L84-2l-0.1,0.4
				c-0.3,0-0.8,0.1-1,0.1l0.5-0.3C83.2-1.9,83-2,82.9-2.1c-0.2,0.4-0.6,0.5-0.9,0.8c-1.4,0.9-2.8,1.9-4.4,2.4c0.5-1,1.6-1.6,2.4-2.4
				c-0.3-0.1-0.5,0-0.7,0.1c-1.5,0.8-3.1,1.6-4.8,2.1c0.9-1.5,2.4-2.6,4-3.5c0.3-0.2,0.7-0.4,0.8-0.7c-1.1,0.3-2.1,1.1-3.1,1.6
				c-1.1,0.4-2,1.1-3,1.5c1.6-1.5,3.2-2.9,4.7-4.5c1.5-1.5,2.7-3.2,4-4.8c-1.3,1.2-2.8,2.2-4,3.5c-1.9,2-4,3.8-6,5.8
				c-0.1-0.2-0.3-0.5-0.4-0.7c0.7-1.8,1.2-3.7,1.9-5.6l-0.1-0.3l-0.4-0.1c-0.7,1.2-1.7,2.2-2.6,3.2c0.3-1.2,1.1-2.3,1-3.5
				c-1.3,1.1-1.9,2.7-3.2,3.8c-0.1-0.1-0.2-0.4-0.3-0.5c-1,0.3-1.2,1.8-2.3,1.8c1.1-1.6,2.2-3.3,3.1-5.1c1-1.8,1.8-3.8,1.8-5.9
				c-0.4,1.5-1.3,2.7-2,4c-1,2-2,4-3.1,6c0.2-1.5,0.8-2.9,0.8-4.4l-0.4,0.1c-0.6,0.9-1,1.9-1.7,2.8c-0.1-0.1-0.3-0.3-0.4-0.4L63.7-5
				c0-0.4-0.1-0.5-0.4-0.3l-0.2,0c0.1-0.3,0.2-0.6,0.3-1c0.1,0.2,0.3,0.6,0.6,0.3c0-0.4,0-0.9-0.2-1.3c-0.7,0.8-1,1.9-1.7,2.7
				c-1.1,0.3-1.7,1.3-2.5,2c-0.1-0.8,0.6-1.6,0.2-2.3c1.9-2.6,3.7-5.3,4.8-8.4c-1,1.6-2.6,2.8-3.6,4.4c-1.4,1.9-2.7,3.9-3.7,6.1
				C57-4.5,57.5-6.5,58.5-8c0.3-0.4,0.7-0.8,0.6-1.4c-0.5,0.1-0.8,0.6-1,1c-0.8,1.4-1.7,2.8-2.4,4.3l-0.2-0.2l-0.2-0.1l0.1-0.2
				c0-0.6,0.1-1.3-0.1-1.9c-0.3,0.1-0.5,0.3-0.6,0.6c-0.6,1.3-1.1,2.6-1.5,3.9c-0.5-0.6-0.1-1.8-1-2c-0.7,0.8-0.8,1.9-1.3,2.8
				c-0.4-0.9,0-1.8,0.2-2.7c1.1-3.4,2.7-6.5,3.6-10c-1.5,2.9-3.2,5.8-4.1,8.9c-0.1,0.8-0.9,1.3-0.8,2.1c-0.7-1.8-1.4-3.6-1.7-5.5
				c-0.1,0-0.2,0.1-0.3,0.2c0,2.3,0,4.7-0.2,7c-0.6-0.7-1.2-1.4-1.6-2.3C46-3.8,46-4.3,45.5-4.4c0,1.2,0.5,2.3,0.5,3.5
				c-0.5-0.8-1.2-1.6-1.5-2.5c-1.1-2.9-1.4-6.1-1.4-9.2c-0.3,2.4-0.5,5,0.1,7.4c0.4,1.7,1.2,3.1,1.8,4.7c-1.6-0.7-3.2-1.6-4.1-3.2
				c-0.4-0.4-0.6-1.2-1.3-1c0.6,2.1,1.5,4,2.4,6C41.2,1,40.4,0.9,40,0.2c-1.3-2.1-2.7-4.3-4.1-6.4c1,1.9,1.5,3.9,2.3,5.8
				c-0.4-0.4-0.8-1.6-1.4-0.9c0.3,1.5,0.9,2.8,1.1,4.3c-0.6-0.3-1.1-1-1.9-0.8l-0.1,0.2c0.3,1.2,0.9,2.2,1.2,3.3
				c-0.6,0-1.2-0.1-1.7-0.4c-0.3-1.2-0.7-2.4-1.1-3.5c-0.5-1.7-1.3-3.2-1.6-4.9c0.1,2.1,0,4.2,0.6,6.3c-0.2-0.4-0.4-1.2-1-0.9l0,0.3
				c0.5,1.7,0.8,3.4,1.2,5.1c-0.6-0.4-1-1.5-1.8-1.2c0,1.3,1,2.5,0.9,3.8c-0.6-0.4-1.2-0.6-1.8-1c-0.6-1.9-0.9-3.9-1.7-5.8
				c-0.4-0.7-0.4-1.6-0.7-2.3c-0.1,0.4-0.1,0.8-0.1,1.2l0.2,0c0,1.9,0.1,3.8,0.6,5.6C29,7.6,28.9,7.3,28.7,7l-0.3,0.4
				c0.1,1.3,0.7,2.6,0.8,3.9l0.2,0c0,0.2,0.1,0.5,0.1,0.7c-0.1-0.5-1.1-0.9-1-0.1c0.4,1.2,0.9,2.5,1.2,3.7c-0.5-0.2-1-0.5-1.6-0.4
				c-1.6-2.6-2.2-5.5-3.5-8.2c0.4,1.3,0.5,2.6,0.8,3.9c0.5,2,1.4,3.8,2.5,5.5c-1.7-0.4-3.6-0.9-4.5-2.5c0.1,0.9,0.9,1.4,1.5,1.9
				c-0.2,0-0.7,0-0.9,0L24,16.1c0.5,0.9,1.4,1.6,2,2.5c0.2,0.1,0.4,0.2,0.6,0.3c-1.1,0-2.1-0.5-3.2-0.4c0,0.1,0,0.4,0,0.5
				c1,0.8,2,1.6,3.1,2.3c0,0.4-0.7,0.4-1,0.6c-2.3-1.4-4.5-3.3-5.9-5.6l-0.1,0c1,2.5,2.9,4.6,5.3,5.8c0,0.1,0,0.4,0,0.5
				c-0.7-0.3-1.4-1-2.2-0.7l-0.1,0.4c0.6,0.7,1.3,1.4,2,2c0.4,0.3,0.9,0.6,0.9,1.1c-3.1-1.2-5.4-3.7-6.9-6.5c0.6,1.4,0.9,3.1,2,4.2
				c1.3,1.5,3.1,2.2,4.7,3.3c0.3,0.1,0.6,0.7,0.1,0.9c-2.3,1.1-5.1,1.2-7.6,0.6c-0.4-0.1-1-0.1-0.9,0.4c0.5,0.4,1.1,0.5,1.7,0.8
				c1.3,0.5,2.3,1.3,3.5,2c-0.3,0.1-0.7,0.3-1,0.3c-0.1,0.1-0.3,0.3-0.4,0.4c-0.5,0.2-0.9,0.4-1.4,0.4c-3,0.2-6,0.3-8.9-0.7
				c2.5,2.1,6,1.7,9,1.6c-0.9,0.5-1.9,0.8-2.9,1.1c-1.3,0.4-2.8,0.2-4.2,0.3c-0.2,0.8,0.8,0.8,1.3,1.1c-0.5,0-1-0.1-1.5-0.3
				c-2.6-1-5.4-1.1-7.9-2.2c1.3,1.3,3,2,4.8,2.3c0.5,1.6,2.2,2.4,3.6,3.2c-2.5,0-5.3-0.1-7.1-2c0.5,0.9,1.4,1.5,2.2,2.1
				c-0.3,0.1-1.1,0.1-0.7,0.6c1.5,0.3,2.9,0.8,4.4,1c-1.1,0.8-2.5,0.4-3.6,1.1c-2.8-0.1-5.6-0.6-8.5-0.9c3,1.3,6.3,1.5,9.5,1.5
				c-1,0.4-2.1,0.5-3.2,0.4c-0.4,0-0.9-0.2-1.3,0.1c0,0.5,0.5,0.7,0.9,0.9c0.7,0.4,1.5,0.5,2.3,0.6c-0.6,0.1-1.1,0.1-1.7,0
				c-2.1-0.3-4.4-0.2-6.3-1.1c1.1,1.4,3,1.5,4.6,1.6c-0.4,0.2-1.3,0.4-0.8,1c0.7,0.3,1.4,0.2,2.1,0.2c-0.5,0.2-1,0.1-1.5,0.1
				c-0.4,0-0.7,0.4-1.1,0.4c-2.5,0.3-5.1,0.2-7.6-0.4c1.8,1.1,4,1.2,6.1,1.1c-0.1,0.2-0.3,0.5-0.4,0.7c1.3,0.6,2.9,0.5,4.3,0.6
				c-2.9,1.2-6.4,1.2-9.2-0.1c1.1,1.4,3,1.8,4.8,1.7c0.5,0.1,1.2-0.2,1.6,0.3c-0.6,0.3-1.2,0.6-1.8,0.7C0,50.6-0.1,50.9-0.2,51l0,0
				l-0.1,0.1c-1.8,0.1-3.7,0.4-5.6,0.2c-0.7-0.3-1.7-1.1-2.3-0.2c-0.3,0-0.6,0-0.9,0c0.4,0.2,0.8,0.3,1.2,0.5
				c0.1,0.2,0.3,0.5,0.4,0.6c1.6,1.3,3.7,1.6,5.6,1.3c-0.8,0.5-1.6,1-2.4,1.5c-0.2,0.1-0.4,0.4-0.5,0.6c-0.9,0.2-1.8,0.3-2.7,0.4
				c-0.5,0.1-1.2,0-1.6,0.5c1.4,0.5,2.8,0.8,4.2,1.1c0.7,0.2,1.6,0.1,2.3,0.6c-0.8,0.5-1.5,1.2-2.5,1.3l0,0.3
				c-0.1,0-0.4-0.1-0.5-0.2l-0.1,0.4c-0.1,0-0.3,0-0.5,0c0,0.7-1.3,0.6-1,1.3c1.1,0.4,2.4-0.1,3.6,0.5c-0.1,0.3-0.2,0.7-0.5,0.9
				c-1.1,1-2.6,1.2-4,1.6c-0.3,0-0.7,0.5-0.4,0.7c1.3,0.6,2.8,0.4,4.3,0.4l-0.1,0.4c-1.6,1.1-3.6,1.5-5.4,2.3
				c-0.5,0.2-0.5,0.9,0,1.1c1.4,0.4,2.8-0.2,4.2-0.4C-6.4,70.2-8,71-8.9,72.5c0.2,0.8,1.2,0.2,1.7,0c-0.5,0.5-1,1-1.4,1.5
				c0.2,0.2,0.3,0.4,0.5,0.6c0.2-0.3,0.4-0.5,0.7-0.8c-0.1,0.4-0.2,0.9-0.1,1.3l0.1,0.2c-0.3-0.2-0.6-0.6-0.9-0.9
				c-0.1,0-0.4,0.1-0.5,0.1l0-0.3c-1.4-0.9-1.9-2.7-3.1-3.8c-1.2-1.1-2.5-2.1-4.1-2.6c0.5-1.9,1-3.8,2.1-5.4c0.2-0.5,0.9-1,0.5-1.5
				c-0.7,0.2-1.2,0.9-1.9,1.3c0.5-2.5,2.1-4.6,3.1-7c0-0.1,0-0.4,0-0.5l-0.3-0.2c-0.7,0.5-1.3,1.3-2,1.9c-0.5-0.9,0-2-0.5-2.8
				c0.6-1.4,1.5-2.7,2.4-3.9c0.2-0.4-0.5-0.5-0.6-0.2c-0.5,0.8-1,1.6-1.8,2.1c-0.6-0.9-1.8-0.5-2.7-0.7c0.2-0.8,0.7-1.5,0.7-2.3
				c0.2-0.4,1.2-1,0.7-1.4c-1,0.3-1.5,1.4-2.3,2.1c-0.3-0.8-0.3-1.7-0.3-2.5c1-1.3,2.2-2.4,3.4-3.5c0.3-0.3,0.7-0.5,0.6-1
				c-0.4,0.1-0.8,0.2-1.2,0.4c-1.6,1-3,2.2-4.4,3.4"/>
			<g>
				<path fill="#010102" d="M54.9-13.9c-0.9,3.4-2.5,6.6-3.6,10c-0.2,0.9-0.7,1.8-0.2,2.7c0.5-0.9,0.6-2,1.3-2.8
					c0.9,0.2,0.4,1.4,1,2c0.4-1.3,0.9-2.7,1.5-3.9c0.1-0.3,0.4-0.5,0.6-0.6c0.2,0.6,0.1,1.3,0.1,1.9l-0.1,0.2
					c-0.1,0-0.2,0.1-0.3,0.1c0-0.5,0.1-1.1,0.1-1.6c-0.8,1.7-1.3,3.4-1.7,5.2c0,0.3-0.2,1-0.6,0.6c-0.6-0.8-0.4-1.9-0.6-2.8
					c-0.5,1.1-0.6,2.3-1.3,3.3c-0.7,0.2-0.5-1.1-0.7-1.5c-0.1-0.1-0.4-0.2-0.5-0.3c-0.6-1.4-0.8-3-1.4-4.4c-0.1,2,0,3.9-0.1,5.9
					c-0.9-0.2-1.3-1-1.8-1.6c0.1,0.7,0.7,1.3,0.5,2c-0.2,0-0.6,0-0.8,0.1c-0.3,0.2-0.7,0.4-1.1,0.2c-1.7-0.7-3.2-1.9-4.3-3.3
					c0.4,1.2,0.9,2.4,1.6,3.5c0.2,0.4,0.5,0.7,0.4,1.2c-0.5,0.4-1.1,0-1.6,0c0.2,0.5,0.5,1,0.5,1.5c-0.2,0.3-0.7,0.2-0.9,0
					c-0.9-0.7-1.8-1.4-2.6-2.3c0.3,1.2,0.7,2.4,1.2,3.6l-0.1,0.3L39,5.2c-0.7-0.5-1.2-1.1-1.9-1.6c0.3,1,1,1.9,1,3
					c-0.8,0.3-1.6-0.1-2.3-0.1c0.1,0.5,0.9,1.4,0.1,1.7c-1.4-0.8-2-2.5-2.6-3.8C33.6,6,34,7.7,34.6,9.4l-0.4,0.1
					c-0.6-0.4-1-1-1.5-1.5c0.4,1.1,0.9,2.2,1,3.4c-1,0.2-1.8-0.5-2.6-1c0.2,0.9,0.8,1.8,0.7,2.8c-0.5,0.2-0.8-0.3-1.2-0.4
					c0.3,0.4,0.5,0.9,0.7,1.4c-0.6,0.1-1.1-0.4-1.5-0.7c0.3,1,0.7,1.9,1,2.9c-0.3,0.5-1,0.1-1.4,0c0.2,0.6,1.1,1.4,0.5,1.9
					c-0.7-0.2-1.3-0.4-1.9-0.6c-0.8-0.2-1.6-0.6-2.4-0.9c0.6,0.7,1.3,1.3,2,1.8c0.1,0.1,0.3,0.2,0.4,0.3c0,0.2-0.1,0.5-0.1,0.6
					c-0.7,0.1-1.5,0-2.2,0c0.8,0.6,1.7,1,2.5,1.6c0,0.1,0.1,0.4,0.2,0.5c-0.7,0.2-1.3,0.4-2,0.6c0.3,0.4,0.7,0.7,1.1,1
					c-0.1,0.8-0.9,0.5-1.4,0.5c-0.3-0.3-0.7-0.6-1.2-0.5c0.2,0.4,0.5,0.6,0.9,0.7c0.6,0.3,1.1,0.7,1.7,1.1c-0.3,0.3-0.6,0.4-0.9,0.6
					c0.4,0.3,0.8,0.7,1,1.2c-0.1,0.1-0.4,0.2-0.6,0.3c-0.3,0.1-0.6,0.2-0.8,0.4c-1.3,0.6-2.7,1-4.1,1.2c-0.8,0.1-1.5,0-2.3,0
					c0.2,0.1,0.4,0.2,0.6,0.4c1.3,0.8,2.5,2,4.1,1.5c-0.3,1-1.6,0.7-2.3,0.4c-1.2-0.7-2.2-1.5-3.5-2c-0.6-0.3-1.2-0.4-1.7-0.8
					c-0.1-0.6,0.5-0.5,0.9-0.4c2.5,0.6,5.2,0.5,7.6-0.6c0.5-0.2,0.2-0.7-0.1-0.9c-1.6-1-3.4-1.8-4.7-3.3c-1.1-1.2-1.4-2.8-2-4.2
					c1.6,2.8,3.9,5.3,6.9,6.5c0-0.6-0.5-0.8-0.9-1.1c-0.7-0.6-1.4-1.3-2-2l0.1-0.4c0.8-0.3,1.5,0.5,2.2,0.7c0-0.1,0-0.4,0-0.5
					c-2.4-1.3-4.3-3.3-5.3-5.8l0.1,0c1.4,2.4,3.6,4.2,5.9,5.6c0.3-0.2,1-0.1,1-0.6c-1.1-0.7-2.1-1.5-3.1-2.3c0-0.1,0-0.4,0-0.5
					c1.1-0.1,2.1,0.4,3.2,0.4c-0.2-0.1-0.4-0.2-0.6-0.3c-0.6-0.9-1.5-1.5-2-2.5l0.1-0.4c0.2,0,0.7,0,0.9,0c-0.6-0.5-1.4-1-1.5-1.9
					c0.9,1.6,2.8,2.2,4.5,2.5c-1.1-1.7-2-3.5-2.5-5.5C25.1,9.6,25,8.2,24.6,7c1.3,2.7,1.9,5.7,3.5,8.2c0.6,0,1.1,0.2,1.6,0.4
					c-0.4-1.3-0.9-2.5-1.2-3.7c-0.1-0.8,0.8-0.4,1,0.1c0-0.2-0.1-0.5-0.1-0.7l-0.2,0c-0.1-1.3-0.7-2.6-0.8-3.9L28.7,7
					c0.2,0.3,0.3,0.6,0.4,0.9c-0.5-1.8-0.6-3.7-0.6-5.6l-0.2,0c0-0.4,0-0.8,0.1-1.2c0.3,0.7,0.4,1.6,0.7,2.3
					c0.8,1.9,1.1,3.9,1.7,5.8c0.6,0.4,1.2,0.6,1.8,1c0.1-1.3-1-2.5-0.9-3.8c0.8-0.3,1.2,0.9,1.8,1.2c-0.3-1.7-0.7-3.4-1.2-5.1l0-0.3
					c0.7-0.3,0.9,0.4,1,0.9c-0.5-2-0.5-4.2-0.6-6.3c0.3,1.7,1.1,3.3,1.6,4.9c0.3,1.2,0.7,2.4,1.1,3.5c0.5,0.3,1.1,0.3,1.7,0.4
					c-0.4-1.1-1-2.2-1.2-3.3L36,2.2c0.7-0.1,1.2,0.6,1.9,0.8c-0.2-1.5-0.8-2.8-1.1-4.3c0.6-0.8,1,0.5,1.4,0.9
					c-0.8-1.9-1.4-4-2.3-5.8C37.3-4.1,38.6-2,40,0.2c0.4,0.7,1.3,0.8,1.9,1.2c-0.8-2-1.7-3.9-2.4-6c0.7-0.2,0.9,0.6,1.3,1
					c0.9,1.5,2.5,2.5,4.1,3.2c-0.6-1.6-1.4-3.1-1.8-4.7c-0.6-2.4-0.4-4.9-0.1-7.4c0,3.1,0.4,6.3,1.4,9.2c0.3,0.9,0.9,1.7,1.5,2.5
					c0.1-1.2-0.5-2.3-0.5-3.5c0.5,0,0.6,0.6,0.7,0.9c0.3,0.9,1,1.6,1.6,2.3C48-3.5,48-5.9,48-8.2c0.1,0,0.2-0.1,0.3-0.2
					c0.4,1.9,1,3.8,1.7,5.5c-0.2-0.9,0.7-1.3,0.8-2.1C51.7-8.1,53.4-11,54.9-13.9z M28,17c0.1,0.3,0.3,0.4,0.6,0.2
					C28.5,16.8,28.3,16.7,28,17z"/>
			</g>
			<path fill="#010102" d="M36,42.6c2.5-0.8,5.2-0.9,7.8-0.9c2.6,0,5.2,0.7,7.5,1.9c1.7-0.6,4.3-0.4,4.9,1.7c1.7,0.2,3.3,0.9,5,1.4
				c1.5,0.5,3.1,1.4,4.1,2.7c1.1,1.3,2,2.8,2.7,4.4c0.1,0.5,0.1,1-0.6,0.9c-1.3-2.2-2.3-4.7-4.5-6.2c-2.3-1.4-5-1.9-7.4-3
				c-0.5-1.7-2.8-1.8-4.2-1.1c-0.5-0.3-0.9-0.6-1.4-0.8c-4-1.7-8.5-1.5-12.7-0.9C36.7,42.7,36.4,42.7,36,42.6z"/>
			<path fill="#010102" d="M54.4,49.4c0.1,0,0.3-0.1,0.4-0.1c-0.8,3.3-2,6.5-3.1,9.7c-1.2,3.3-2.3,6.7-3.9,9.8
				c1.1-4.3,2.5-8.4,4-12.5C52.6,54,53.4,51.7,54.4,49.4z"/>
			<g>
				<path fill="#010101" d="M70.5-13.1C70.4-11,69.6-9,68.6-7.2c-0.9,1.8-1.9,3.5-3.1,5.1c1.2,0,1.4-1.5,2.3-1.8
					c0.1,0.1,0.2,0.4,0.3,0.5c1.3-1.1,1.9-2.8,3.2-3.8c0.1,1.2-0.8,2.3-1,3.5c0.9-1.1,1.8-2.1,2.6-3.2l0.4,0.1l0.1,0.3
					c-0.7,1.8-1.2,3.7-1.9,5.6c-0.1,0.3-0.4,0.7-0.3,1c0.3,0.1,0.5-0.2,0.6-0.4c2-2,4-3.8,6-5.8c1.3-1.2,2.7-2.2,4-3.5
					c-1.3,1.6-2.5,3.3-4,4.8c-1.5,1.6-3.2,3-4.7,4.5c1-0.5,1.9-1.1,3-1.5c1.1-0.5,2-1.3,3.1-1.6c-0.2,0.3-0.5,0.5-0.8,0.7
					c-1.5,0.9-3,2-4,3.5c1.7-0.5,3.3-1.3,4.8-2.1c0.2-0.2,0.5-0.2,0.7-0.1c-0.7,0.9-1.9,1.4-2.4,2.4c1.6-0.5,3-1.5,4.4-2.4
					c0.3-0.2,0.7-0.4,0.9-0.8C83-2,83.2-1.9,83.3-1.8l-0.5,0.3c-2.2,1.5-4.4,3.1-7,3.7c0.5-0.8,1.3-1.3,2.1-1.8
					c-0.2-0.1-0.3-0.3-0.5-0.4c-1,0.5-2,1-3,1.2l-0.1-0.3c0.5-0.9,1.4-1.5,2-2.3c-0.9,0.3-1.7,0.9-2.5,1.3c-0.7,0.3-1.4,0.5-2,0.8
					c-0.4,0.1-0.8,0.2-1.2,0.3c-0.1-1.5,0.7-2.8,1-4.2c0.1-0.4,0.3-0.7,0.4-1.1c-0.6,0.7-1.3,1.4-1.8,2.2c-0.2,0.4-0.5,1.2-1,0.6
					c-0.3-1.1,0.6-2.1,0.9-3.1c-1,1-1.7,2.3-2.4,3.5C67.1-0.6,67-1.8,67-2.1c-0.5,0.5-0.9,1-1.5,1.4c-0.4,0-0.7-0.4-0.7-0.7
					c-0.2-1.6,0.2-3.1,0.7-4.6c-0.8,1.3-1.5,2.7-2.2,4.1c-0.4,0.5-0.6-0.4-0.7-0.6c0.2-0.9,0.5-1.7,0.7-2.6c0.2-0.2,0.4-0.2,0.4,0.3
					c0,0.4,0,0.7,0,1.1c0.2-0.2,0.4-0.4,0.5-0.7c0.7-0.9,1-1.9,1.7-2.8l0.4-0.1c0,1.5-0.6,2.9-0.8,4.4c1-2,2.1-3.9,3.1-6
					C69.1-10.4,70.1-11.6,70.5-13.1z M78.2-0.4 M77.2,1.1"/>
			</g>
			<path fill="#010101" d="M-20.2,51c0.6-0.6,1.1-1.3,1.7-1.9c0.7-0.7,1.3-1.8,2.3-2.1c0.5,0.4-0.5,1-0.7,1.4c0,0.8-0.5,1.5-0.7,2.3
				c-0.1,0.5-0.1,0.9-0.2,1.4c0.8,0,1.6-0.4,2.4-0.7c-0.1,0.2-0.4,0.6-0.6,0.8c0.4-0.3,0.7-0.5,1.1-0.8c0.8-0.5,1.3-1.3,1.8-2.1
				c0.1-0.3,0.8-0.3,0.6,0.2c-0.9,1.3-1.7,2.5-2.4,3.9c-0.8,1.6-1.7,3.2-2.1,5c0.9-0.6,1.8-1.5,2.6-2.2c0.7-0.6,1.2-1.3,2-1.9
				l0.3,0.2c0,0.1,0,0.4,0,0.5c-1,2.4-2.6,4.4-3.1,7c0.6-0.4,1.1-1.1,1.9-1.3c0.4,0.5-0.3,1.1-0.5,1.5c-1.1,1.6-1.6,3.6-2.1,5.4
				c1.6,0.5,2.9,1.5,4.1,2.6c1.2,1.1,1.7,2.9,3.1,3.8l0,0.3c0.1,0,0.4-0.1,0.5-0.1c0.3,0.3,0.5,0.6,0.9,0.9c2.5,1.9,4.7,4.1,6.7,6.5
				c0.7,0.9,1.2,2,1.8,3.1c1.7,0.5,3.4,1,4.8,2c0.7,0.5,1.6,0.9,2.1,1.7c0.1,1.1-1.2,0.8-1.9,0.8c1.2,0.9,2.4,2.1,2.7,3.7
				c-0.2,1-1.3,0.7-2,0.8c1.6,1.5,3.4,2.8,4.6,4.7c0.3,0.6,0.7,1.3,0.4,2c-1.1,0.6-2.1-0.7-3.1-1c0.5,0.6,1.5,1.3,0.9,2.1
				c-0.5,0.1-0.8-0.5-1.2-0.8c0.9,1.8,1.6,3.8,1.8,5.8c0.1,1.8,0.3,3.6,0,5.3c2.1-0.9,4.3-1.4,6.4-2.1c3.6-0.8,7.1-1.9,10.7-2.1
				c-0.3-0.8-0.8-1.6-0.6-2.5c1.2,1.1,1.3,2.8,2.5,3.9c1.7,1.1,3.7,1.5,5.6,2.1c0.6,0.6,1,1.6,2,1.5c2.1,0.1,4.2,0,6.3-0.1
				c1.3-0.6,1.8-2.6,3.4-2.7c2-0.1,4-0.3,5.8-1.1c0-0.6,0.6-0.8,1-1.1c-0.6-0.1-2.3,0.1-1.8-1c0.7-0.7,1.6-1.2,2.3-1.9
				c-1.1-0.1-2.5,0.2-3.4-0.6c-0.5-0.7,0.5-1.1,0.9-1.4c1.3-1,2.7-1.9,3.6-3.2c-1.1,0.1-2.3,0.4-3.3-0.1c0-0.1-0.1-0.4-0.2-0.6
				c1.1-0.8,2.1-1.6,3.2-2.4c-1.1-1.1-2.3-2.1-3.6-3c-1.2-0.7-2.7-0.4-3.9-0.9c-1.5-0.9-2.9-2-4.5-2.7c-2.2-0.1-4.3,0.9-6.6,0.8
				c0.3,1.5,1.4,3.1,0.9,4.7c-0.4,0.1-0.8,0.2-1.1,0.3c0.4,1.2,0.8,2.5,0.6,3.8c-0.1,0.1-0.3,0.2-0.4,0.3c-0.3,0-0.7-0.1-1-0.1
				c-0.5-0.2-1-0.4-1.5-0.6c0.3,0.9,0.7,1.8,0.3,2.7c-0.5,1-1.5,1.9-2.7,2.2c0,0.7,0,1.4-0.2,2c-1.1,0.3-2.1-0.6-2.8-1.4
				c-0.1,0.1-0.4,0.3-0.5,0.4c-0.3,0-0.5,0-0.8,0c-1.3,0.1-2.3-0.7-3.3-1.4c0.2,0.7,0.7,1.3,0.6,2.1c-0.2,0-0.5,0-0.6,0
				c-1.4-1-2.3-2.5-3.3-3.8c0.1,1,0.4,2,0.6,3c0,0.5-0.6,0.6-0.9,0.2c-1.7-1.8-3.1-3.9-4.1-6.3c0,0.3-0.1,0.6-0.1,0.8
				c-0.5,0.3-0.8-0.1-1-0.5c-2.1-3.4-2.7-7.5-3.2-11.4c-0.3,1.1-0.4,2.2-0.7,3.3c-0.3,0.3-0.9,0.1-0.9-0.3c-0.8-2.3-1-4.7-1.2-7.2
				c-0.4-3.4,0.2-6.9,0.1-10.4c0.9,2.9,0.3,6.1,0.7,9.1c0.3,2,0.5,4.1,0.9,6.1c0.4-1.2,0.7-2.5,1.1-3.8c0.1-0.6,0.9-0.2,0.8,0.3
				c0,1.7,0.3,3.4,0.5,5.2c0.3,2.5,0.9,5,2,7.4c0.1-0.9,0-1.8,0.1-2.6c0.1-0.1,0.4-0.2,0.5-0.2c0.5,1.9,0.9,3.8,1.9,5.5
				c0.7,1.2,1.4,2.4,2.3,3.4c0-1.2-0.4-2.3-0.2-3.5c0.1,0,0.4,0,0.5,0c1,1.3,1.7,2.8,2.9,4c-0.1-0.6-0.9-1.9,0-2.1
				c0.8,0.5,1.3,1.2,2.1,1.7c0.7,0.5,1.5,0.6,2.3,0.8c0.2-0.7,0.2-1.8,1.1-1.9c0.1,0.6,0.1,1.4,0.5,1.9c0.4,0.5,1,0.8,1.6,1.1
				c0-0.6-0.1-1.2,0.1-1.8c0.6-1,1.9-1.4,2.4-2.4c0.1-0.9-0.7-1.7-0.6-2.6c0-0.4,0.4-0.5,0.7-0.6c0.9-0.1,1.7,0.3,2.4,0.6
				c0-1.4-1.2-2.6-1-4.1c0.6,0,1.1,0.1,1.7,0.1c-0.1-2.1-1.1-4-1.8-5.9c0-0.2,0-0.6-0.1-0.8c0.4-0.2,0.8-0.3,1.3-0.3
				c-1.3-2.7-2.2-5.6-3.3-8.4c-1-3.2-2-6.4-2.5-9.7c-0.2-1.2-0.6-2.5-0.4-3.7c0.1,0.8,0.3,1.6,0.5,2.4c0.7,2.1,1.2,4.2,1.9,6.2
				c1.4,3.8,2.6,7.6,4.2,11.3c0.4,1,1,2,1.3,3.1c-0.2,0.2-0.4,0.5-0.6,0.7c-0.2-0.1-0.7-0.2-0.9-0.2c0.1,0.2,0.3,0.5,0.4,0.7
				c2.1-0.2,4-0.8,6-1.2c0.4-0.1,0.8-0.1,1.1,0c1.2,0.5,2.3,1.4,3.5,2c1.5,0.8,3.4,0.3,4.9,1.2c1.6,1,3.1,2.3,4.4,3.6
				c1.2-1,2.6-1.7,3.8-2.7c1.2-1.1,2.4-2.1,3.5-3.3c1.4-1.5,2.6-3.2,4.1-4.6c2.8-2.7,5-6,7.4-9.1c-0.5,1-1,2-1.7,3
				c-1.3,1.9-2.5,3.9-4.1,5.6c-0.3,0.3-0.5,0.6-0.8,0.9c-1.7,1.9-3.1,4-5,5.7c-1.1,1.1-2.3,2.1-3.5,3.1c-0.2,0.2-0.4,0.3-0.6,0.5
				c-2,1.4-4.3,2.3-6,4c1.5,0,2.8-0.7,4.2-0.8c0.4,0.4,0,0.8-0.3,1.1c-1.7,1.6-3.5,3.1-5.4,4.5c0.6,0,1.2,0,1.8-0.1
				c1.1-0.1,2-0.7,3.1-0.7c0.2,0.8-0.4,1.3-0.9,1.8c-0.7,0.5-1.3,1.1-1.9,1.6c-0.1,0-0.2,0.1-0.3,0.2c0.8,0.1,2.2-0.3,2.4,0.8
				c-0.9,0.5-1.8,1.1-2.6,1.7c0.4,0,0.8,0,1.2,0c2.6,0,4.8-1.7,7.2-2.6c0.5-0.2,0.9,0.4,0.7,0.8c-1,1.6-2.6,2.7-3.9,4
				c2.1,0.2,4-0.9,6-1.5c1.1-0.3,2.1-0.8,3.3-1.1c0.3-0.2,0.8,0.1,0.8,0.5c-0.3,0.6-0.8,1.1-1.1,1.7c0.3-0.2,0.7-0.4,1-0.7
				c0,0,0.1-0.1,0.1-0.1c1.4-0.9,2.7-2,4.3-2.7c0.2-0.1,0.4-0.2,0.6-0.2c0.1,0,0.3-0.1,0.5-0.1c0.2,0.1,0.3,0.3,0.5,0.4
				c-0.1,0.8-0.3,1.7-0.5,2.5c0.5-0.2,0.9-0.4,1.3-0.8c1.8-1.4,3.4-3,5.2-4.3c0.3-0.3,0.8-0.1,1.2-0.1c-0.2,0.6-0.3,1.3-0.4,2
				c0.7-1.2,1.1-2.6,1.7-3.8c0.9-2.3,2.1-4.4,2.7-6.8c0,0.9-0.1,1.9-0.3,2.8c0.8-0.4,1-1.3,1.3-2.1c0.3-0.9,0.4-1.8,0.4-2.7
				c0.1-0.3-0.1-0.9,0.3-1.1c0.2,0.1,0.6,0.3,0.9,0.4c-0.7-2.1-1.4-4.3-2.3-6.3c-0.2-0.4-0.2-1,0.4-1c0.9,0.6,1.8,1.3,2.6,1.9
				c0.1,0.3,0.4,0.5,0.7,0.6c0-0.4-0.2-0.7-0.4-1c-0.7-2-1.5-4.1-2.1-6.1c-0.8-2.3-1.9-4.5-2.9-6.8c-0.6-1.3-1.3-2.5-2.3-3.5
				c-0.5-0.5-0.6-1.2-0.8-1.8c0.3,0.2,0.9,0.5,1.2,0.6c-0.5-1.1-1.3-2-2-3c0-0.1,0.1-0.3,0.1-0.5c0.9,0.2,1.6,0.9,2.4,1.1
				c-0.5-1-1.5-1.6-1.9-2.6c0.5-0.2,0.9,0.1,1.4,0.2c0.8,0.3,1.7,0.3,2.5,0.3c-1.3-0.8-2.6-1.7-3.4-3.1c0-0.1,0-0.4,0-0.6
				c0.7-0.2,1.4,0.3,2.1,0.6c-0.5-0.7-0.9-1.5-1.7-1.7c0.3-0.2,0.7-0.3,1-0.5c1.4,0.4,2.8,0.5,4.2,0.4c-1.6-0.8-3.4-1.4-4.1-3.2
				c0.3-0.3,0.5-0.6,0.8-0.9c0.3,0,0.7,0,1.1,0c-0.1-0.1-0.2-0.2-0.3-0.4c-0.5-0.6-1-1.2-1.1-2c0.5,0,1,0.1,1.4,0.2
				c1.4,0.4,2.8,0.7,4.2,0.9c-1-0.6-2.3-1-2.9-2c-0.1-0.3-0.2-0.6-0.4-0.9c0.1-0.1,0.4-0.3,0.6-0.4c-1.1-0.6-1.9-1.7-2.2-2.9
				c0.8-0.1,1.6,0,2.5,0.1c-0.4-0.6-1.2-1.3-1-2c2.1,0.3,4.1-0.7,6.3-0.6c-1.1-0.7-2.3-1.4-3.3-2.2c-0.5-0.4-0.8-1-1-1.6
				c0.6,0.1,1.1,0.3,1.7,0.6c0.6,0.2,1.3,0.4,1.9,0.4c-0.9-1-2.2-1.6-3-2.7c-0.3-0.4-0.2-0.9-0.3-1.3c0.1,0,0.4,0,0.5,0.1
				c-0.2-0.4-0.4-0.8-0.5-1.3c1.2-0.1,2.4,0.3,3.5,0.4c1.2,0.1,2.4-0.1,3.5-0.5c-1.5-0.4-3.1-0.7-4.5-1.4c-0.7-0.4-1-1.2-1-1.9
				c0.7,0.1,1.4,0.2,2,0.4c-0.9-0.6-1.9-1.3-2.2-2.4c1,0.1,1.9,0.5,2.9,0.3c1-0.2,1.8-0.6,2.7-1C93,33,91.4,32.5,90,31.7
				c-0.4-0.2-0.7-0.5-0.7-1c1,0.1,1.9,0.3,2.8,0.4c-1.4-0.4-3.1-0.3-4-1.6c0-0.2-0.1-0.5-0.1-0.7c1.4-0.1,2.8-0.1,4.2,0.1
				c-1.4-0.4-3.4-0.2-4.2-1.7c-0.3-0.5,0-0.7,0.4-0.9c-0.5-0.3-1.2-0.4-1.5-0.9c1-0.6,2.3-0.3,3.4-0.5c1.5-0.1,2.8-0.9,4-1.8
				c-1.8,0.2-3.6,0.5-5.3,0.2c-0.4,0-0.7-0.4-1.1-0.6c1.4-0.6,2.9-0.3,4.3-0.8c-1.7,0-3.6,0.1-5.1-1c-0.1-0.1-0.4-0.4-0.5-0.6
				c1.2-0.5,2.5-0.2,3.7-0.4c-1.3-0.5-2.6-1.2-3.5-2.4c0.1-0.1,0.3-0.2,0.5-0.3c-0.1-0.1-0.2-0.4-0.3-0.6c1.6-0.9,3.4-1.3,4.9-2.2
				c-1.8,0.2-3.7,0.8-5.6,0.3c-0.7-0.2,0.3-0.6,0.5-0.6c1.1-0.3,2.2-0.7,3.2-1c-1.6,0.1-3.3,0.3-4.8,0l-0.2-0.4
				c1.9-0.6,3.9-1,5.8-1.5c-1.7-0.2-3.3,0.1-5-0.2c-0.7-0.1-1.1-0.6-1.4-1.2c1.2-0.9,2.7-1.3,4.2-1.6c0.7-0.1,1.2-0.6,1.8-1
				c-2.6,0.5-5.2,1.3-7.8,1.3c0.6-0.8,1.6-1.2,2.5-1.7c1.7-0.8,3.4-1.8,4.9-3c-2.2,0.6-4.4,1.4-6.7,1.9c-0.4,0.1-0.8,0-1.2,0
				c1-1.2,2.4-1.8,3.7-2.5c0.6-0.3,1.3-0.6,1.9-0.9c-0.6,0.1-1.2,0.2-1.8,0.4c-1.3,0.3-2.7,0.7-4,1.1c-0.8,0.2-1.7,0.4-2.5,0.6
				c0.3-1.2,1.7-1.5,2.5-2.2c-1.2,0.2-2.4,0.6-3.5,1.2c-0.2-0.4,0.1-0.7,0.3-1c1.5-1.5,3.9-2,5.1-3.9L84-2l-0.6,0.1
				c0-0.1,0.1-0.4,0.1-0.5c0.2,0.1,0.6,0.2,0.8,0.3c-0.2,0.5-0.4,0.9-0.5,1.4c1.4-0.2,2.5-1,3.8-1.4c1.5-0.5,3-0.8,4.6-1.1
				c-2,0.6-3.8,1.8-5.7,2.6c-1.4,0.6-2.8,1.4-4.2,2.1l0.7,0.2c0.1,0.1,0.2,0.2,0.2,0.3c-0.5,0.4-1.1,0.7-1.6,1l0,0.5
				c2.7-0.6,5.3-1.7,8-2l-0.1,0.4c-1.6,0.8-3.4,1.5-5,2.5c0,0.2-0.1,0.5-0.1,0.6c1.7-0.5,3.3-1,4.9-1.5c0.5-0.2,0.9-0.1,1.4,0
				c-0.1,0.4-0.3,0.7-0.6,0.9c-1.2,0.8-2.4,1.7-3.8,2.3C85.4,7,84.6,7.5,83.8,8c0.8-0.1,1.6-0.2,2.4-0.3l0-0.3
				c0,0.1,0.1,0.2,0.1,0.2c1.5-0.1,3-0.8,4.5-0.9c0.1,0.1,0.4,0.2,0.5,0.2c-0.3,0.3-0.6,0.7-0.9,1c3.6-0.7,7.3-1.1,10.9-0.4
				c-3.4,0.1-6.8,0.6-10.2,1.1c-1.4,0.2-2.8,0.4-4,0.9c-0.6,0.2-1.2,0.4-1.8,0.8c0.8,0.3,1.7,0.5,2.5,0.4c1.4-0.1,2.7-0.2,4.1-0.1
				c0.3,0,0.5,0.2,0.6,0.6c-1.6,0.7-3.4,0.8-5,1.5c1.6,0.1,3.2-0.4,4.8-0.3c0.1,0.1,0.2,0.3,0.3,0.4c-1,0.5-2.1,0.8-3.2,1.2
				l-0.3,0.4c1.6,0,3.2-0.7,4.8-0.7c0,0.1,0,0.4-0.1,0.5c-1,0.8-2.3,1.2-3.4,1.7l-0.3,0.4c3.8-0.4,7.6-1.4,11.4-0.4
				c-3.4,0.1-6.7,0.8-10.1,1.1c0,0.7-0.7,0.7-1.2,0.7c-0.8,0.1-1.6,0.2-2.4,0.2c0.8,0.9,2,1.4,3.2,1.6c0.4,0.1,1,0.1,1.3,0.5
				c0.1,0.6-0.7,0.4-1,0.6c-1.2,0.1-2.3,0.1-3.5,0.2c0.8,0.6,1.8,0.7,2.8,0.7c1,0.1,2.1-0.2,3.1,0.1c0.5,0.4-0.3,0.7-0.6,0.8
				c-1,0.4-2.1,0.5-3.1,0.7c1.7-0.2,3.4-0.3,5-0.8c0.4-0.1,1.4-0.4,1.2,0.3c-1.4,0.8-2.6,1.8-3.9,2.5c2-0.1,4-0.1,6,0.3
				c1.3,0.3,2.4,0.9,3.5,1.5c-1.5-0.4-3.1-0.3-4.7-0.5c-2.5-0.2-5.1-0.3-7.6-0.3l0,0.2c1.2,0,2.5-0.1,3.7,0c0.1,0.7-0.7,0.7-1.1,0.9
				c-1.2,0.1-2.4,0-3.7,0c0.7,0.8,1.7,1,2.7,1.1c0.8,0.2,1.9,0.2,2.4,0.9c0.2,0.8-0.8,0.6-1.2,0.5c-1.2-0.2-2.5-0.2-3.7-0.1
				c0.8,0.6,1.8,0.8,2.8,0.9c0.7,0.2,2.5,0,2,1.1c-0.9,0.2-1.9,0-2.8,0.1c1.3,0.6,2.8,0.9,4.3,1.1c0.4,0.1,1,0.1,1,0.7
				c-0.4,0.3-1,0.4-1.4,0.6c-1.1,0.3-2,1-3.2,0.9c2.8,0.8,5.6,1.4,8.5,2.1c1.6,0.4,3.1,1,4.5,1.9c-2.6-0.4-5.2-1.1-7.8-1.7
				c-1.8-0.4-3.6-0.9-5.3-1.6c0.4,0.3,1.1,0.7,0.8,1.3c-0.2,0-0.5-0.1-0.7-0.1c-0.6-0.1-1.2-0.3-1.7-0.6c0.2,0.6,0.7,1.2,1.3,1.4
				c1.4,0.6,2.9,0.6,4.4,1.1c0.5,0,0.6,0.7,0.2,0.9c-0.7,0.3-1.5,0.5-2.3,0.7c-1.6,0.2-3.2,0-4.8-0.4c0.2,0.3,0.5,0.7,0.7,1
				c0.5,0.1,0.9,0.1,1.4,0.2c2.1,0.2,4.2,0.5,6.3,1.2C98,42.5,99,43.2,100,44c-1.3-0.6-2.8-0.7-4.1-1.1c-1.7-0.4-3.3-0.7-5-0.9
				c-1.1,0-2-0.6-2.9-1c0.6,1.3,2,1.9,3,2.8c0.2,0.2,0.4,0.5,0.5,0.8l-0.4,0.3c-1,0-2-0.3-3-0.6c1,0.8,2.1,1.5,3.2,2
				c0.7,0.5,1.8,0.3,2.4,1l-0.1,0.3l-0.3,0.1c-1.1,0.1-2.3,0.1-3.4,0.1c-0.9,0.1-1.8,0.2-2.7,0.4c0.9,0.3,1.8,0.6,2.7,0.9
				c0.4,0.1,0.8,0.3,1.2,0.4c1,0.3,2.1,0.6,3.1,1c1,0.5,1.9,1.1,2.7,1.8c-1.9-0.7-3.9-0.7-5.7-1.5c-0.6-0.2-1.2-0.4-1.8-0.7
				c-0.2-0.1-0.4-0.2-0.7-0.3c0,0.1-0.1,0.4-0.1,0.5c-1.4,0-2.8-0.4-4.2-0.5c0.4,0.9,1.2,1.7,2.1,2.1c0.9,0.2,1.7,0.4,2.6,0.6
				c0.1,0,0.3,0.1,0.3,0.1c2.1,0.5,4.4,0.7,5.9,2.4c-1.8-0.5-3.6-0.8-5.3-1.3c-0.6-0.1-1.1-0.3-1.7-0.4c-0.8-0.1-1.6-0.3-2.5-0.4
				c0.4,0.7,1.1,1.2,1.8,1.5c0.5,0.2,1,0.4,1.5,0.6c0.5,0.1,0.9,0.4,0.8,1c-0.9,0.1-1.7,0-2.6-0.1c-0.5-0.1-1.1-0.2-1.6-0.4
				c-0.8-0.2-1.5-0.4-2.3-0.5c0.4,0.6,0.8,1.1,1.3,1.6c0.6,0.5,1.4,0.6,2.1,0.8c2,0.7,4.1,1.1,6.1,2c1.1,0.6,2.2,1.3,3.1,2.2
				c-1.6-0.9-3.5-1.1-5.3-1.7c-1.5-0.5-3-0.9-4.5-1.5c-1-0.4-2.1-0.7-3.2-0.7c0.4,1.1,1.5,1.7,2.6,2.1c0.8,0.4,1.7,0.6,2.4,1.1
				c0.3,0.2,0.1,0.8-0.3,0.7c-1.1,0-2.2,0.1-3.3,0.1c1.2,0.4,2.4,0.9,3.6,1.3c1.4,0.5,3,0.8,4.3,1.6c0.9,0.5,1.7,1.2,2.5,2
				c-1.3-0.9-2.9-0.8-4.4-1.3c-1.7-0.6-3.5-1.1-5.2-1.9c-0.2,0-0.5,0.1-0.7,0.1c-1,0-1.9-0.3-2.8-0.5c0.6,0.7,1.3,1.3,2.1,1.8
				c0.9,0.6,2,0.7,2.8,1.4c0.1,0.7-0.8,0.3-1.1,0.4c-0.8,0-1.6-0.1-2.5-0.2c-0.5,0.4,0.3,0.7,0.6,0.9c2.9,1.6,6.3,2.7,8.6,5.2
				c-1.4-1-3.1-1.4-4.6-2.2c-1.2-0.6-2.4-1.1-3.5-1.8c-0.1-0.1-0.2-0.2-0.3-0.3c-0.2,0.3-0.5,0.6-0.8,0.8c-0.6-0.2-1.1-0.4-1.7-0.6
				c0.6,1,1.1,2,1.7,3c1.5,1.1,3.1,2.1,4.6,3.2c0.8,0.6,1.3,1.4,2,2.2c-0.6-0.4-1.3-0.7-2-1C86.4,75,85,73.8,83.5,73
				c0.4,0.9,0.9,1.8,1.2,2.7c0.6,1.9,1.8,3.5,2.4,5.3c1.1,2.9,2.6,5.7,3.4,8.7c0.2,0.6-0.5,1-0.9,0.7c-0.9-0.5-1.6-1.2-2.4-1.8
				c0.7,2.2,1.6,4.4,1.9,6.7c-0.4,0.4-0.9,0.3-1.4,0.1c-0.2,1.8-0.8,3.6-1.6,5.2c-0.2,0-0.4,0-0.6,0c-0.6,1.4-1.1,2.9-2,4.3
				c-1,1.4-1.3,3.2-2.4,4.5c-0.3,0.5-1.2,0.5-1.4-0.1c-0.2-0.8,0.1-1.5,0.3-2.3c-1.7,1.4-3.2,2.9-5,4.2c0.9,0.2,1.8,0.4,2.7,0.8
				c3,1.3,6.1,2.2,9.1,3.2c2.7,0.9,5.2,1.9,7.9,2.8c9.8,3.3,19.3,7.4,28.5,12.1"/>
			<path fill="#010101" d="M-6.6,94.3c1.8,0,3.6-0.2,5.3,0.3c0.8,0.2,1.5,0.7,2.3,0.9c0.5,0.1,0.8-0.3,1.2-0.6
				c-0.5-1.7-0.3-3.6-0.8-5.3c-0.7-2.4-1.5-4.9-2.8-7.1c-1.8-2.6-4.2-4.7-6.6-6.8c-1.5-1.2-3-2.4-4.6-3.4c-2.1-1.4-4.5-2.2-6.7-3.4"
				/>
			<path fill="#010101" d="M7.7,115.6c0.4-0.8,0.8-1.7,1-2.6c0.6-2.7,0.6-5.5,0.1-8.2c-0.4-2.1-1.2-4-2.3-5.9c0.1,0,0.4,0,0.6-0.1
				c0.2-0.2,0.4-0.6,0.7-0.7c0.9,0.1,1.8,0.5,2.6,0.8c-1.1-1.5-2.3-3-3.9-4c-0.7-0.5-1-1.3-0.7-2.1c0.5-0.1,1-0.1,1.5-0.2
				c-0.6-1.2-1.6-2-2.6-2.8c-0.6-0.4-1-1.2-0.5-1.8c0.3-0.1,0.7-0.2,1-0.3c-1.2-0.8-2.5-1.3-3.8-1.9c0.8,2,1.8,4,1.8,6.2
				c0,0.1,0,0.4,0,0.5c0.1,0.8,0.2,1.6-0.1,2.4c-0.4,1.1-1.5,1.8-2.6,1.7c-1-0.3-1.8-1-2.9-1.1"/>
			<path fill="#010101" d="M86.1,48.5c0.3,0.9,1.3,1.2,2.1,1.3C87.5,49.4,86.9,48.8,86.1,48.5z"/>
			<g>
				<path fill="#010101" d="M51.1,17.3c2.6-1,5.6,1.2,5.9,3.9c0.1,0.4,0,0.8-0.4,0.9c-0.6-1.3-1.5-2.7-2.7-3.6
					c-1.3-0.3-2.8-0.2-3.8,0.7c-2,1.7-3.4,3.9-4.8,6c-1.3,2-1.5,4.4-2,6.7c-0.1,0-0.3-0.1-0.4-0.1c-0.2,0.4-0.3,0.8-0.5,1.2
					c-0.2-0.4-0.6-0.8-0.6-1.3c-0.2-2.8,1-5.6,2.4-8C46,21.1,48.2,18.5,51.1,17.3z M47.1,20.7c-0.3,0.1-0.6,0.6-0.4,0.9
					C47.1,21.7,47.6,20.8,47.1,20.7z"/>
			</g>
			<path fill="#010101" d="M69.3,28c0.6-2.2,3.6-3,5.5-2c1.4,0.4,2,1.7,2.5,2.9c0.9,1.6,0.6,3.5,0.6,5.3c-0.4,1.8-1,3.6-1.6,5.3
				c-0.6,1.8-1.8,3.5-2.9,5.1c-0.3,0.4-0.5,0.7-0.8,1.1c-0.7,0.8-1.4,1.6-2.3,2.2c1.6-2,2.7-4.4,3.8-6.7c1-2,1.6-4.1,2.2-6.3
				c0.3-1.1,0.3-2.3,0.2-3.4c0-1.5-0.7-2.8-1.5-4c-0.8-0.5-1.7-0.8-2.7-0.8C71.2,26.7,70.2,27.4,69.3,28z"/>
			<g>
				<path fill="#010101" d="M10.2,31.5c2.8,1,5.9,1,8.9,0.7c0.5,0,1-0.2,1.4-0.4c0,0-0.1,0.1-0.1,0.2c1.2,0,2.4-0.6,3.6-0.5
					c-0.8,0.5-1.6,0.9-2.5,1.1c-0.6,0.1-0.9,0.7-1.4,0.8c-1.4,0.5-2.8,1-4.3,1.4c-0.5,0.1-1.1,0.1-1.6,0.1c0.1,0.1,0.4,0.2,0.6,0.3
					c0,0.1,0.1,0.4,0.1,0.5l0,0.1c-1.7,0.4-3.6,0.1-5.3-0.2c1.1,1,2.3,1.7,3.5,2.3c0.4,0.1,0.5,0.6,0.6,0.9c-1,0.4-2.1,0.5-3.2,0.5
					c0.7,0,1.4,0,2,0.2c0,0.1,0,0.3,0,0.3c-0.7,0.6-1.6,0.8-2.4,1.1c-0.1,0.3-0.3,0.7-0.6,0.7c-1.2,0.6-2.6,0.8-3.9,0.9
					c0.9,0.3,1.8,0.2,2.7,0.3c0.4,0.2,0.4,0.5,0,0.7c-1.3,0.6-2.8,0.3-4.2,0.9c0.9,0,1.9,0,2.8,0c-0.1,0.1-0.2,0.4-0.2,0.5
					c-1,0.5-2.2,0.8-3,1.5c-0.3,0-0.5,0.1-0.7,0.3c0.3,0.1,0.6,0.1,1,0c0.6,0,1.2,0,1.9,0.1c0,1-1.3,1.1-1.8,1.8
					c-1.1,1.1-2.4,2.6-4.2,2.2l0-0.2c0.1-0.1,0.2-0.4,0.2-0.5c0.7-0.1,1.3-0.3,1.8-0.7c-0.4-0.5-1.1-0.2-1.6-0.3
					c-1.7,0.1-3.6-0.3-4.8-1.7c2.9,1.3,6.3,1.3,9.2,0.1c-1.4-0.1-3,0-4.3-0.6c0.1-0.2,0.3-0.5,0.4-0.7c-2.1,0.2-4.2,0-6.1-1.1
					c2.5,0.6,5.1,0.7,7.6,0.4c0.4,0,0.7-0.4,1.1-0.4c0.5,0,1,0.1,1.5-0.1c-0.7-0.1-1.4,0.1-2.1-0.2c-0.5-0.6,0.4-0.8,0.8-1
					c-1.6-0.1-3.5-0.2-4.6-1.6c2,0.9,4.2,0.8,6.3,1.1c0.6,0.1,1.1,0.1,1.7,0c-0.8-0.1-1.6-0.2-2.3-0.6c-0.4-0.2-0.9-0.4-0.9-0.9
					c0.4-0.2,0.9,0,1.3-0.1c1.1,0.1,2.2,0,3.2-0.4C5.2,41.8,2,41.6-1,40.3c2.8,0.3,5.6,0.8,8.5,0.9c1.1-0.7,2.5-0.3,3.6-1.1
					c-1.5-0.1-2.9-0.6-4.4-1c-0.3-0.5,0.4-0.5,0.7-0.6c-0.8-0.6-1.7-1.2-2.2-2.1c1.9,1.8,4.7,2,7.1,2c-1.3-0.8-3.1-1.5-3.6-3.2
					C7,35,5.3,34.3,4,33c2.5,1.1,5.4,1.2,7.9,2.2c0.5,0.2,1,0.3,1.5,0.3c-0.5-0.3-1.5-0.3-1.3-1.1c1.4-0.1,2.8,0.2,4.2-0.3
					c1-0.3,2-0.6,2.9-1.1C16.2,33.2,12.7,33.6,10.2,31.5z M0.9,46.6c0,0.1-0.1,0.2-0.2,0.3c0.9,0,1.9-0.2,2.7-0.6
					C2.6,46.3,1.7,46.4,0.9,46.6z"/>
			</g>
			<path fill="#010101" d="M31.7,38.9c2.1-1,4.3-1.9,6.5-2.3c0.4,0,0.4,0.4,0.5,0.7c-1.1,0.3-2.1,0.8-3.1,1.2c-0.5,2-0.6,4-0.7,6.1
				c-0.4,3.9,0.1,7.9,0.6,11.8c0.2,2.2,0.7,4.4,1,6.6c0.3,2,1,4,1.4,6c0.6,4.3,1.2,8.7,2.9,12.8c0.4,1.2,1.8,1.5,3,1.5
				c2.7-0.4,5-1.9,7.1-3.6c3-2.2,5.5-5.1,8-7.8c2.2-3,4.4-6,6.3-9.2c0.4-0.7,0.9-1.4,1.4-2.1c0.4-0.6,0.4-1.3,0.7-1.9
				c0.4-0.8,1-1.5,1.6-2.2c1-1.5,1.9-3,2.9-4.4c-0.4-0.5-1.3-0.9-1.1-1.6c0.5-0.1,0.9,0,1.4,0.1c1.4,0.8,2.3,2.3,2.7,3.8
				c0.1,0.4,0,0.9-0.3,1.3c-0.1,0-0.4-0.1-0.6-0.1c0-1.4-1-2.4-1.9-3.3c-0.1,0.3-0.2,0.7-0.3,1c-0.1,0.2-0.2,0.5-0.3,0.6
				c-0.4,1-1,1.9-1.6,2.7c-2.6,4.1-4.8,8.4-7.7,12.3c-1.1,1.6-2.2,3.4-3.6,4.8c-1.9,2-3.6,4.1-5.8,5.7c-2.3,1.8-4.7,3.9-7.7,4.6
				c-0.8,0.1-1.6,0.3-2.4,0.5c-1.5,0.1-2.7-1.2-3.2-2.5c-1.3-3.7-2.3-7.6-2.8-11.5c-0.2-2.2-1-4.2-1.2-6.4
				c-0.8-6.3-1.7-12.6-1.4-18.9c0.2-2.3,0.3-4.6,1.1-6.7c-1.7,0.6-3.2,2.1-5.1,2.1c0-0.3,0-0.6,0.1-1c0.4-0.2,0.7-0.4,1.1-0.5
				C31.2,39.2,31.5,39,31.7,38.9z"/>
			<path fill="#F75A53" d="M63.4-2c0.7-1.4,1.4-2.7,2.2-4.1c-0.5,1.5-0.9,3-0.7,4.6c0,0.4,0.3,0.8,0.7,0.7c0.6-0.3,1-0.9,1.5-1.4
				c0,0.3,0.1,1.5,0.6,0.9c0.7-1.2,1.3-2.5,2.4-3.5c-0.3,1-1.2,2-0.9,3.1c0.5,0.6,0.9-0.2,1-0.6c0.4-0.5,0.8-0.9,1.4-1.1
				c-0.3,1.4-1.1,2.7-1,4.2c0.4-0.1,0.8-0.2,1.2-0.3c0.8,0.1,1.7,0.2,2.5,0.3l0.1,0.3c1.1-0.3,2.1-0.7,3-1.2
				c0.2,0.1,0.3,0.3,0.5,0.4c-0.8,0.5-1.5,1-2.1,1.8c2.6-0.6,4.9-2.2,7-3.7c0.3,0,0.8-0.1,1-0.1c-1.2,1.9-3.5,2.4-5.1,3.9
				c-0.2,0.3-0.6,0.6-0.3,1c1.1-0.6,2.3-0.9,3.5-1.2c-0.8,0.8-2.2,1-2.5,2.2C80.3,4.2,81.1,4,82,3.7c-0.7,1.3-1.6,2.3-2.4,3.5
				c-0.5,0.2-1,0.3-1.5,0.4c-0.2,0.2-0.3,0.5-0.4,0.8c-0.4-0.1-0.8-0.2-1.2-0.3c-0.2,0.4-0.3,0.9-0.5,1.3c-0.3-0.1-0.5-0.1-0.7-0.2
				c-0.2,0.2-0.4,0.4-0.5,0.5c-0.2-0.1-0.3-0.3-0.5-0.4c-0.4,0.9-0.6,1.9-0.6,3c-0.2-0.1-0.3-0.2-0.5-0.3c-0.1,0.6-0.2,1.2,0,1.8
				c-0.1,1-1.1,1.4-1.8,2.1c-0.6,0.6-0.4,1.5-0.4,2.2v0.1c-0.6-0.1-1.1,0.4-1.5,0.7c-0.2,0-0.4,0-0.5,0c-0.2,0.7-0.4,1.4-0.9,1.9
				c-0.4,0.3-1,0.3-1.5,0.5c-0.4,0.9-0.9,1.8-1.8,2.1c-0.1,0.4-0.1,0.8-0.2,1.2c-0.1-0.3-0.3-0.5-0.4-0.8c-0.1,0.8,0,1.8-0.8,2.3
				c-0.3-1.4,0.1-2.7,0.1-4.1c0.1-2,0.2-4.1-0.2-6.1c-0.2-1.2,0-2.4-0.2-3.6c-0.1-1.4,0.2-2.8,0-4.2c0-0.7-0.1-1.5-0.2-2.2
				c-0.3-1.5-0.1-3-0.2-4.5c0-1.3-0.1-2.7,0.2-4C62.8-2.4,63-1.6,63.4-2z"/>
			<path fill="#F75A53" d="M77.2,1.1"/>
			<g>
				<path fill="#F75A53" d="M21.9,28.8c1.4-0.1,2.8-0.5,4.1-1.2c0.1,0.6,0.3,1.3,0.3,1.9c-0.2,0.6-0.5,1.1-0.6,1.7
					c0.1,0.6,0.4,1.1,0.6,1.7c0.1-0.2,0.2-0.4,0.4-0.6c0.3,1.6,0.8,3.1,1.4,4.6c0.1,0.1,0.3,0.2,0.4,0.2c-0.1,0.7-0.1,1.3,0.7,1.5
					c0.1,0.3,0.2,0.5,0.2,0.8c0.2,0.1,0.5,0.3,0.7,0.3c0,0.3,0,0.6-0.1,1c1.9,0,3.3-1.5,5.1-2.1c-0.8,2.1-0.9,4.4-1.1,6.7
					c-0.3,6.3,0.7,12.7,1.4,18.9c0.2,2.2,1,4.2,1.2,6.4c0.4,3.9,1.5,7.8,2.8,11.5c0.5,1.3,1.7,2.5,3.2,2.5c0.8-0.2,1.6-0.4,2.4-0.5
					c3-0.6,5.3-2.7,7.7-4.6c2.2-1.6,4-3.7,5.8-5.7c1.4-1.4,2.5-3.2,3.6-4.8c2.9-3.9,5.1-8.2,7.7-12.3c0.6-0.9,1.2-1.8,1.6-2.7
					c0.4,1.6,1.6,2.8,2.6,4c0.9,0.2,1.7-0.3,2.6-0.1c0.7,0.2,1.4,0,2.1-0.2c0.9-0.1,1.8,0.2,2.6,0.3c-0.1-0.3-0.2-0.7-0.2-1
					c0.2,0,0.6,0.1,0.8,0.2c0.8-0.3,1.6-0.5,2.5-0.5c0.1,0.1,0.2,0.2,0.3,0.4c-0.4,0-0.7,0-1.1,0c-0.3,0.3-0.6,0.6-0.8,0.9
					c0.6,1.8,2.5,2.5,4.1,3.2c-1.4,0.1-2.9-0.1-4.2-0.4c-0.3,0.2-0.7,0.3-1,0.5c0.9,0.2,1.3,1,1.7,1.7c-0.7-0.2-1.4-0.8-2.1-0.6
					c0,0.2,0,0.4,0,0.6c0.8,1.3,2.1,2.2,3.4,3.1c-0.8-0.1-1.7,0-2.5-0.3c-0.4-0.1-0.9-0.4-1.4-0.2c0.4,1,1.4,1.6,1.9,2.6
					c-0.9-0.2-1.6-0.9-2.4-1.1c0,0.1-0.1,0.3-0.1,0.5c0.7,1,1.5,1.9,2,3c-0.3-0.2-0.9-0.5-1.2-0.6c0.2,0.6,0.3,1.4,0.8,1.8
					c1.1,1,1.7,2.3,2.3,3.5c1,2.2,2.1,4.4,2.9,6.8c0.7,2.1,1.4,4.1,2.1,6.1c-0.1,0.1-0.2,0.3-0.3,0.4c-0.9-0.6-1.7-1.4-2.6-1.9
					c-0.6,0-0.6,0.6-0.4,1c0.9,2.1,1.6,4.2,2.3,6.3c-0.2-0.1-0.6-0.3-0.9-0.4c-0.4,0.1-0.3,0.7-0.3,1.1c0,0.9-0.2,1.8-0.4,2.7
					c-0.3,0.8-0.4,1.7-1.3,2.1c0.2-0.9,0.4-1.9,0.3-2.8c-0.6,2.4-1.8,4.5-2.7,6.8c-0.2-0.3-0.4-0.6-0.6-1c0.1-0.7,0.7-1.3,0.6-2
					c-1.5-0.7-2.2-2.3-2.5-3.9c-0.2-0.2-0.5-0.4-0.8-0.5c-0.9-1.9-2.1-3.7-3.5-5.2c-0.6-0.7-1.5-1-2.3-1c-0.2-0.2-0.3-0.4-0.5-0.6
					c-0.3-0.1-0.6-0.2-1-0.3c0-0.5-0.1-0.9-0.1-1.4c-0.5-0.1-1.1-0.1-1.6-0.3c-0.7-0.6-1.5-1.3-1.4-2.3c1.6-1.7,2.8-3.7,4.1-5.6
					c0.6-0.9,1.1-2,1.7-3c-2.3,3.1-4.6,6.4-7.4,9.1c-1.5,1.4-2.7,3.1-4.1,4.6c-1.1,1.2-2.3,2.2-3.5,3.3c-1.2,1-2.6,1.7-3.8,2.7
					c-1.4-1.3-2.8-2.6-4.4-3.6c-1.5-0.9-3.4-0.4-4.9-1.2c-1.2-0.6-2.3-1.5-3.5-2c-0.4-0.2-0.8-0.1-1.1,0c-2,0.3-4,1-6,1.2
					c-0.1-0.2-0.3-0.5-0.4-0.7c0.2,0.1,0.7,0.2,0.9,0.2c0.2-0.2,0.4-0.5,0.6-0.7C37,88,36.4,87,36,86c-1.7-3.7-2.9-7.5-4.2-11.3
					c-0.7-2.1-1.2-4.2-1.9-6.2c-0.3-0.8-0.4-1.6-0.5-2.4c-0.2,1.3,0.2,2.5,0.4,3.7c0.5,3.3,1.5,6.5,2.5,9.7c-0.3,0-0.7,0-1,0
					c-0.2,0.3-0.4,0.5-0.6,0.8c-0.9,0-1.7-0.1-2.6-0.3c-1.1-0.2-2,0.7-3.1,0.6c-0.5,0.7-1.2,1.3-2,1.4c0,0.2,0,0.5-0.1,0.7
					c-0.5-0.5-1.1-0.8-1.7-0.9c-0.4,0.8-0.9,1.7-1.9,1.8c0.1,0.4,0.2,0.7,0.3,1.1c-0.5,0.6-0.4,1.4-0.5,2.2
					c-0.6,0.1-1.2,0.1-1.8,0.3c-0.5,0.2-0.4,0.7-0.6,1.1c-0.6,0.2-1.2,0.4-1.7,0.8c-0.3-0.1-0.6-0.3-0.9-0.4
					c-0.1,0.4-0.2,0.7-0.3,1.1c-0.4,0.2-0.7,0.4-1.1,0.6c-0.3-1.7-0.5-3.4-0.5-5.2c0.1-0.5-0.7-0.8-0.8-0.3
					c-0.4,1.2-0.7,2.5-1.1,3.8c-0.4-2-0.6-4-0.9-6.1c-0.4-3,0.2-6.1-0.7-9.1c0.1,3.5-0.5,6.9-0.1,10.4c0.3,2.4,0.5,4.8,1.2,7.2
					c0.1,0.4,0.6,0.7,0.9,0.3c0.3-1.1,0.5-2.2,0.7-3.3c0.5,3.9,1.1,8,3.2,11.4c0.2,0.4,0.5,0.8,1,0.5c0-0.3,0.1-0.6,0.1-0.8
					c0.9,2.3,2.4,4.4,4.1,6.3c0.2,0.4,0.9,0.3,0.9-0.2c-0.2-1-0.5-2-0.6-3c1,1.3,1.9,2.8,3.3,3.8c0.2,0,0.5,0,0.6,0
					c0.2-0.7-0.3-1.4-0.6-2.1c1,0.7,2.1,1.4,3.3,1.4l0,0.1c-0.3,0.9,0.2,1.7,0.6,2.5c-3.7,0.2-7.2,1.2-10.7,2.1
					c-2.1,0.7-4.4,1.2-6.4,2.1c0.3-1.8,0.1-3.6,0-5.3c-0.2-2-0.9-4-1.8-5.8c0.4,0.3,0.6,0.9,1.2,0.8c0.6-0.8-0.5-1.5-0.9-2.1
					c1.1,0.3,2,1.5,3.1,1c0.3-0.7-0.1-1.4-0.4-2c-1.2-1.9-2.9-3.3-4.6-4.7c0.7-0.1,1.9,0.2,2-0.8c-0.3-1.5-1.5-2.7-2.7-3.7
					c0.7,0,2,0.3,1.9-0.8c-0.5-0.7-1.4-1.1-2.1-1.7c-1.4-1-3.1-1.5-4.8-2c-0.6-1-1-2.1-1.8-3.1c-2-2.4-4.2-4.6-6.7-6.5l-0.1-0.2
					c-0.1-0.4-0.1-0.9,0.1-1.3c0.7-0.8,1.6-1.4,2.1-2.4c-0.4-0.9-1.3,0.2-1.9,0.2c1-1.2,2.4-1.9,3.4-3.2c-0.7-1.1-2.1-0.3-3.2-0.3
					c1.3-0.6,2.6-1.2,3.7-2.1c0.3-0.2,0.2-0.6,0.3-0.9c-1.3,0-2.7,0.1-4-0.1l0-0.2c1.3-0.5,2.9-0.9,3.8-2c0.5-0.4,0.4-1.3-0.2-1.6
					C-4,60.9-4.8,61-5.6,61c1.1-0.8,2.3-1.3,3.3-2.2c0.3-0.2,0.3-0.9-0.1-1c-1.1-0.4-2.2-0.3-3.3-0.6c-0.2-0.1-0.5-0.4-0.6-0.5
					c0.2-0.1,0.7-0.2,0.9-0.2c1.1-0.2,2.1-0.6,3.1-1c0.1-0.3,0.1-0.5,0.1-0.8c0.8-0.4,1.6-0.9,2.1-1.7c-2.4,0-4.9,0.4-7.2-0.6
					c-0.1-0.2-0.3-0.5-0.4-0.6c2.2,0.3,4.5,0.4,6.7-0.1c0.3-0.1,0.7-0.1,0.9-0.5l0.1-0.1l0,0l0,0.2c1.7,0.4,3.1-1.1,4.2-2.2
					c0.5-0.7,1.8-0.7,1.8-1.8c-0.6,0-1.2-0.1-1.9-0.1c-0.1-0.1-0.2-0.3-0.3-0.4c0.9-0.8,2-1,3-1.5c0.1-0.1,0.2-0.4,0.2-0.5
					c-0.9-0.1-1.9,0-2.8,0c1.4-0.5,2.9-0.2,4.2-0.9c0.3-0.3,0.3-0.5,0-0.7c-0.9-0.1-1.8-0.1-2.7-0.3c1.3-0.1,2.7-0.3,3.9-0.9
					c0.4-0.1,0.5-0.4,0.6-0.7c0.8-0.3,1.8-0.5,2.4-1.1c0-0.1,0-0.3,0-0.3c-0.7-0.2-1.4-0.2-2-0.2c1.1,0,2.2-0.1,3.2-0.5
					c-0.1-0.4-0.2-0.8-0.6-0.9c-1.3-0.6-2.5-1.4-3.5-2.3c1.7,0.3,3.5,0.6,5.3,0.2l0-0.1c0.1-0.2,0.2-0.4,0.3-0.6
					c0.2-0.1,0.5-0.3,0.7-0.4c1.4-0.4,2.9-0.9,4.3-1.4c0.6-0.1,0.8-0.8,1.4-0.8c0.9-0.2,1.7-0.6,2.5-1.1c-1.2-0.1-2.4,0.4-3.6,0.5
					c0,0,0.1-0.1,0.1-0.2c0.1-0.1,0.3-0.3,0.4-0.4c0.3-0.1,0.7-0.2,1-0.3c0.7,0.3,2.1,0.7,2.3-0.4c-1.6,0.5-2.8-0.8-4.1-1.5
					C20.7,29,21.3,28.8,21.9,28.8z M25,29.3c0,0.5,0,1.1,0.5,1.4c0-0.4,0-0.8,0-1.2C25.4,29.5,25.2,29.4,25,29.3z"/>
			</g>
			<path fill="#F75A53" d="M-2.1,95.7c1,0.1,1.9,0.8,2.9,1.1c1.1,0.1,2.2-0.6,2.6-1.7c0.3-0.8,0.2-1.6,0.1-2.4
				c0.4-0.1,0.4-0.3,0-0.5c0-2.2-1-4.2-1.8-6.2c1.3,0.5,2.6,1.1,3.8,1.9c-0.3,0.1-0.7,0.2-1,0.3c-0.5,0.6-0.1,1.4,0.5,1.8
				c1,0.8,2,1.6,2.6,2.8c-0.5,0.1-1,0.1-1.5,0.2c-0.3,0.8,0,1.6,0.7,2.1c1.6,1,2.8,2.5,3.9,4c-0.9-0.3-1.7-0.7-2.6-0.8
				c-0.4,0-0.5,0.4-0.7,0.7c-0.1,0-0.4,0-0.6,0.1l-0.2,0c-0.1-0.3-0.2-0.6-0.3-0.9c-0.2,0.4-0.5,0.8-0.7,1.2c-0.5,0-0.9-0.1-1.4-0.1
				c0,0.1-0.1,0.3-0.1,0.4c-0.4-0.3-1-0.3-1.5-0.3C2.2,99,2,98.9,1.8,98.7c-0.3,0.1-0.6,0.2-0.9,0.4"/>
			<g>
				<path fill="#FBF15C" d="M53.6-0.7c0.4-1.8,0.9-3.6,1.7-5.2c0,0.5-0.1,1.1-0.1,1.6c0.1,0,0.2-0.1,0.3-0.1l0.2,0.1L55.8-4
					c-0.1,0.3-0.2,0.7-0.3,1c0-0.5-0.1-1-0.4-1.3c0.1,1.2-0.7,2.7,0.3,3.6c0.6-1.3,0.6-2.7,1.2-4c0.1,1-0.2,2.2,0.5,3.1
					c0.2,0.3,0.6,0.3,0.9,0.3c0.4-0.9,0.8-1.8,1.6-2.5C59.3-2.9,58.4-2,58.9-1c0.4-0.3,0.8-0.7,1.1-1c0.4,1.4,0.2,3,0.2,4.4
					c-0.7-0.5-1.2-1.2-1.9-1.7c-0.7-0.5-1.6-0.8-2.5-0.9c-0.6,0.2-1.2,0.6-1.9,0.7c-1.2,0.1-1.3,1.7-2,2.4c-0.2,1.6-0.8,3.2-0.9,4.8
					c-0.3,1.1-0.4,2.3-0.2,3.4c0.1,1,0.5,2.4-0.6,3.1c0.1,1,0.2,2.1,0.8,2.9c-3,1.2-5.1,3.8-6.8,6.5c-0.5-0.5-0.9-1.1-1.4-1.6
					c-0.1,0.3-0.2,0.6-0.2,1c-0.3,0-0.7-0.1-1-0.1c-0.2,0.2-0.4,0.5-0.7,0.8c-0.1-0.2-0.2-0.6-0.2-0.8c-0.1,0.2-0.2,0.5-0.3,0.7
					c-0.1-0.2-0.2-0.4-0.3-0.7c-0.6,0.1-1.1-0.3-1.5-0.8c-0.2,0.1-0.5,0.2-0.7,0.3c-0.1-0.6-0.2-1.4-0.8-1.8
					c-0.6-0.4-1.2-0.7-1.8-1.2c-0.6-0.7-1.6-0.1-2.3,0c-0.7,0.3-1.4-0.1-2-0.4c-1,0.3-1.5,1.4-2.2,2.2c-0.3-0.4-0.6-0.8-0.9-1.1
					c0.4-0.5,0.5-1.1-0.2-1.3c-0.1-0.1-0.3-0.2-0.4-0.3c0.1-0.3,0.2-0.7,0.4-1c0.6,0.2,1.3,0.4,1.9,0.6c0.6-0.5-0.3-1.4-0.5-1.9
					c0.4,0,1.1,0.4,1.4,0c-0.3-1-0.6-2-1-2.9c0.4,0.4,0.9,0.8,1.5,0.7c-0.2-0.5-0.4-1-0.7-1.4c0.4,0.2,0.8,0.6,1.2,0.4
					c0.1-1-0.5-1.9-0.7-2.8c0.8,0.5,1.6,1.1,2.6,1c-0.1-1.2-0.6-2.3-1-3.4c0.5,0.5,0.9,1.1,1.5,1.5l0.4-0.1C34,7.7,33.6,6,33.2,4.3
					c0.6,1.4,1.2,3,2.6,3.8c0.8-0.3,0-1.2-0.1-1.7c0.8,0.1,1.6,0.4,2.3,0.1c0-1.1-0.7-2-1-3c0.6,0.5,1.2,1.2,1.9,1.6l0.3-0.1
					l0.1-0.3c-0.4-1.2-0.9-2.4-1.2-3.6c0.8,0.8,1.7,1.6,2.6,2.3c0.2,0.2,0.7,0.3,0.9,0c0-0.6-0.3-1-0.5-1.5c0.5,0.1,1.1,0.4,1.6,0
					c0.1-0.5-0.3-0.8-0.4-1.2c-0.7-1.1-1.2-2.3-1.6-3.5c1.1,1.5,2.7,2.6,4.3,3.3c0.4,0.2,0.8,0,1.1-0.2c0.2,0,0.6,0,0.8-0.1
					c0.2-0.7-0.3-1.3-0.5-2c0.5,0.6,0.9,1.4,1.8,1.6c0-2,0-3.9,0.1-5.9c0.6,1.4,0.9,3,1.4,4.4c0.1,0.1,0.4,0.2,0.5,0.3
					c0.2,0.5,0,1.7,0.7,1.5c0.7-1,0.8-2.2,1.3-3.3c0.2,0.9,0,2,0.6,2.8C53.4,0.3,53.5-0.4,53.6-0.7z"/>
				<path fill="#FBF15C" d="M83.8,8c0.8-0.5,1.6-0.9,2.5-1.3c0,0.2-0.1,0.5-0.1,0.7l0,0.3C85.4,7.8,84.6,7.9,83.8,8z"/>
			</g>
			<g>
				<path fill="#F89C57" d="M61.4-1.6c0.4-1.3,0.9-2.6,1.8-3.7l0.2,0c-0.2,0.9-0.5,1.7-0.7,2.6c-0.3,1.3-0.1,2.7-0.2,4
					c0,1.5-0.1,3,0.2,4.5c0.1,0.7,0.2,1.4,0.2,2.2c-0.3-0.2-0.6-0.4-0.9-0.6c0.2-0.2,0.4-0.5,0.6-0.7c-0.3,0-0.5,0-0.8,0
					c-1-2.6-1-5.5-1-8.3C61-1.5,61.3-1.5,61.4-1.6z"/>
				<path fill="#F89C57" d="M62,14c0.2-0.6,0.5-1.2,0.8-1.7c0.2,1.2,0,2.4,0.2,3.6c0.4,2,0.3,4,0.2,6.1c0,1.4-0.4,2.7-0.1,4.1
					c0.8-0.5,0.7-1.5,0.8-2.3c0.1,0.3,0.3,0.5,0.4,0.8c0.1-0.4,0.1-0.8,0.2-1.2c0.9-0.4,1.4-1.3,1.8-2.1c0.5-0.1,1.1-0.2,1.5-0.5
					c0.5-0.5,0.7-1.3,0.9-1.9c0.2,0,0.4,0,0.5,0c0.4-0.4,0.9-0.8,1.5-0.7c0.1,0.7-0.2,1.2-0.8,1.4c-0.9,0.9-1.6,1.9-2.2,3
					c-0.6,1-2.1,1-2.6,2.1c-0.5,1-1,2-1.8,2.7c-0.6,0-1.2,0.1-1.7,0.3c-0.3-0.6-0.4-1.3-0.2-1.9c0.5-0.6,0.4-1.4,0.3-2.2
					c0.2,0.4,0.5,0.7,0.8,1.1c-0.1-0.6-0.1-1.2-0.2-1.8c0.1-0.1,0.3-0.3,0.4-0.4c-0.2-0.4-0.3-0.8-0.4-1.2c0.2-0.3,0.5-0.5,0.6-0.9
					c0-0.5-0.3-0.9-0.5-1.3c0.2,0,0.4,0.1,0.6,0.1c0-0.3,0-0.6,0-0.9c-0.2,0.2-0.4,0.3-0.6,0.5c0.1-0.4,0.1-0.9,0.2-1.3
					c-0.2,0-0.5,0.1-0.7,0.1c0.1-0.4,0.3-0.7,0.4-1.1c-0.6-0.5-0.3-1.2,0.1-1.8C62.4,14.5,62.2,14.3,62,14z"/>
			</g>
			<g>
				<path fill="#F9CF5A" d="M60.5-2.4c0.1-0.1,0.3-0.3,0.4-0.4c-0.1,0.5-0.1,0.9,0,1.4c0,2.8,0,5.6,1,8.3c0.3,0,0.5,0,0.8,0
					C62.5,7,62.2,7.3,62,7.5c0.3,0.2,0.6,0.4,0.9,0.6c0.2,1.4-0.1,2.8,0,4.2c-0.3,0.5-0.6,1.1-0.8,1.7c0.2,0.2,0.3,0.5,0.5,0.7
					c-0.3,0.6-0.6,1.2-0.1,1.8c-0.1,0.4-0.3,0.7-0.4,1.1c0.2,0,0.5-0.1,0.7-0.1c-0.1,0.4-0.1,0.9-0.2,1.3c0.2-0.2,0.4-0.4,0.6-0.5
					c0,0.3,0,0.6,0,0.9c-0.2,0-0.4-0.1-0.6-0.1c0.2,0.4,0.5,0.8,0.5,1.3c-0.1,0.4-0.4,0.6-0.6,0.9c0.1,0.4,0.2,0.8,0.4,1.2
					c-0.1,0.1-0.3,0.3-0.4,0.4c0.1,0.6,0.2,1.2,0.2,1.8c-0.3-0.3-0.5-0.7-0.8-1.1c0.1,0.7,0.2,1.5-0.3,2.2c0-1.4-0.2-2.7,0-4
					c0.2-1-0.3-2-0.1-3c0.2-1.2-0.3-2.4,0-3.6c0.2-1,0-2.1,0.5-3c0.3-0.6,0.3-1.4,0.4-2c-0.5-1-0.7-2.1-1-3.1
					c-0.1-0.2-0.2-0.4-0.3-0.6C60.4,3.5,60.8,0.5,60.5-2.4z"/>
			</g>
			<g>
				<path fill="#FAE75C" d="M60-2c0.2-0.1,0.3-0.3,0.5-0.4c0.3,2.9-0.1,5.9,0.6,8.8c0.1,0.2,0.2,0.4,0.3,0.6c0.3,1.1,0.6,2.1,1,3.1
					c-0.1,0.7-0.1,1.4-0.4,2c-0.6,0.9-0.3,2-0.5,3c-0.3,1.2,0.2,2.4,0,3.6c-0.2,1,0.3,2,0.1,3c-0.2,1.3,0,2.7,0,4
					c-0.2,0.6-0.1,1.3,0.2,1.9c0.6-0.2,1.1-0.3,1.7-0.3c0.8-0.8,1.3-1.8,1.8-2.7c0.5-1.1,2-1.1,2.6-2.1c0.6-1.1,1.3-2.1,2.2-3
					c0.6-0.2,0.9-0.7,0.8-1.4v-0.1c0.6-0.3,1.3-0.7,1.4-1.5c1-0.6,1.6-1.7,2.5-2.6c0.9-1,1.4-2.2,2.2-3.3c0.8-1.2,1.8-2.3,2.5-3.5
					C80.4,6.1,81.3,5,82,3.7c1.3-0.4,2.6-0.7,4-1.1l-0.1,0.5c-1.3,0.7-2.7,1.3-3.7,2.5c0.4,0,0.8,0.1,1.2,0c2.3-0.5,4.4-1.3,6.7-1.9
					c-1.5,1.2-3.2,2.1-4.9,3c-0.9,0.5-1.9,0.9-2.5,1.7c2.7,0,5.3-0.7,7.8-1.3c-0.5,0.4-1.1,0.9-1.8,1c-1.5,0.4-3,0.7-4.2,1.6
					c0.3,0.6,0.7,1.1,1.4,1.2c1.6,0.4,3.3,0,5,0.2c-2,0.4-3.9,0.8-5.8,1.5l0.2,0.4c1.6,0.3,3.2,0.1,4.8,0c-1.1,0.4-2.2,0.7-3.2,1
					c-0.2,0.1-1.2,0.4-0.5,0.6c1.8,0.4,3.7-0.1,5.6-0.3c-1.5,1-3.3,1.3-4.9,2.2c0.1,0.1,0.2,0.4,0.3,0.6c-0.1,0.1-0.3,0.2-0.5,0.3
					c0.9,1.1,2.2,1.8,3.5,2.4c-1.2,0.2-2.5,0-3.7,0.4c0.1,0.1,0.4,0.4,0.5,0.6c-0.1,0.2-0.3,0.4-0.4,0.6c0.1,0.2,0.2,0.3,0.3,0.5
					c-0.4,0.1-0.7,0.1-1.1,0.2c-0.1,0.2-0.1,0.5-0.2,0.7c-0.2-0.1-0.4-0.2-0.7-0.3c0,1-0.7,1.6-1.3,2.3c-0.7,0.8-0.5,2-1.1,2.8
					c-0.3,0.2-0.6,0.3-0.9,0.4c0,0.3,0,0.5,0.1,0.8c-0.2,0-0.4,0-0.7,0c0,0.3,0,0.6,0.1,0.8c-0.3,0.1-0.7,0.1-1,0.2
					c-0.4,0.9-1.3,1.4-1.1,2.5c-0.3,0-0.5-0.1-0.8-0.1c-0.1,0.6-0.2,1.3-0.4,1.9c0-1.8,0.3-3.7-0.6-5.3c-0.6-1.2-1.2-2.5-2.5-2.9
					c-1.9-0.9-4.9-0.2-5.5,2c0.9-0.7,1.9-1.4,3.1-1.4c0.9,0,1.9,0.3,2.7,0.8c0.8,1.2,1.5,2.5,1.5,4c0,1.1,0,2.3-0.2,3.4
					c-0.2,0-0.6,0.1-0.8,0.2c-0.6,1-1.3,1.9-1.8,2.9c-0.4,0.9-1.4,1.4-2,2.1c-0.6,0.8-1.7,1-2.6,1.4c-1.1,0.3-2.1,0.8-3.1,1.2
					c-0.1,0.7-0.3,1.4-0.6,2c-1,0.1-2.2,0.5-2.2,1.7c-0.3-0.1-0.6-0.2-0.9-0.3c-0.5,0-0.7,0.5-1,0.7c-1.7-0.5-3.3-1.2-5-1.4
					c-0.6-2-3.1-2.3-4.9-1.7c-2.3-1.2-4.9-1.8-7.5-1.9c-0.4-0.4-1-0.7-1.6-0.7c-2.2-0.2-4.5,0-6.6,0.6c-0.1-1,0.1-2.1-0.1-3.1
					c1-0.4,2.1-0.9,3.1-1.2c-0.1-0.3-0.1-0.6-0.5-0.7c-2.3,0.4-4.5,1.2-6.5,2.3c-0.8-0.5-1.4-1.4-2.1-2c-0.4-0.3-0.5-0.7-0.7-1.2
					c-0.5-1.5-1.4-2.9-2-4.3c0.1-1.4,0.1-2.7-0.1-4.1c0.1-0.1,0.4-0.2,0.6-0.3c-0.2-0.5-0.6-0.9-1-1.2c0.3-0.2,0.7-0.3,0.9-0.6
					c-0.5-0.4-1.1-0.7-1.7-1.1c0.1,0,0.2-0.1,0.3-0.2c0.5,0,1.3,0.2,1.4-0.5c-0.4-0.3-0.8-0.6-1.1-1c0.6-0.2,1.3-0.4,2-0.6
					c0-0.1-0.1-0.4-0.2-0.5c-0.8-0.6-1.7-1-2.5-1.6c0.7,0,1.5,0.1,2.2,0c0-0.2,0.1-0.5,0.1-0.6c0.7,0.2,0.6,0.8,0.2,1.3
					c0.3,0.4,0.6,0.8,0.9,1.1c0.7-0.7,1.1-1.9,2.2-2.2c0.6,0.3,1.3,0.7,2,0.4c0.8-0.1,1.7-0.8,2.3,0c0.5,0.5,1.2,0.8,1.8,1.2
					c0.6,0.4,0.6,1.2,0.8,1.8c0.2-0.1,0.5-0.2,0.7-0.3c0.4,0.5,0.8,0.9,1.5,0.8c0.1,0.2,0.2,0.4,0.3,0.7c0.1-0.2,0.2-0.5,0.3-0.7
					c0.1,0.2,0.2,0.6,0.2,0.8c0.2-0.3,0.4-0.5,0.7-0.8c0.3,0,0.7,0,1,0.1c0.1-0.3,0.2-0.6,0.2-1c0.5,0.5,1,1,1.4,1.6
					c-1.4,2.4-2.6,5.1-2.4,8c0,0.5,0.4,0.9,0.6,1.3c0.2-0.4,0.3-0.8,0.5-1.2c0.1,0,0.3,0.1,0.4,0.1c0.6-2.3,0.8-4.7,2-6.7
					c1.4-2.2,2.8-4.4,4.8-6c1-0.9,2.5-1,3.8-0.7c1.2,0.9,2,2.2,2.7,3.6c0.4-0.1,0.5-0.6,0.4-0.9c-0.4-2.6-3.3-4.9-5.9-3.9
					c-0.6-0.8-0.8-1.9-0.8-2.9c1.1-0.6,0.8-2,0.6-3.1c-0.3-1.1-0.1-2.3,0.2-3.4C51.2,6.2,51.8,4.7,52,3c0.7-0.8,0.8-2.3,2-2.4
					c0.7-0.1,1.2-0.5,1.9-0.7c0.9,0.1,1.8,0.4,2.5,0.9c0.6,0.6,1.2,1.2,1.9,1.7C60.3,1,60.4-0.6,60-2z M53.2,33.1
					c-0.9,0.7-1.8,1.6-2,2.8c0,0.5,0.2,1.2,0.9,1.1c1.5-0.4,2.7-1.9,2.4-3.5C54.4,32.9,53.7,32.7,53.2,33.1z M65.4,37.3
					c-1,0.4-1.5,1.4-1.9,2.3c-0.4,0.8,0.1,2,1.1,1.8c1.5-0.4,2.4-2.2,1.9-3.7C66.2,37.3,65.7,37.1,65.4,37.3z"/>
			</g>
			<path fill="#FAE75C" d="M80.6,42.7c0.8-0.4,1.5-0.7,2.3-1c1,0.4,2,0.3,3,0.3c0,0.3,0,0.6,0,0.9c0.7,0,1.5,0,2.2,0.1
				c0.5,0,0.6,0.6,0.8,1c-0.5-0.2-1.1-0.4-1.7-0.6c0.2,0.6,0.4,1.2,1,1.6c1.1,0.8,2.2,1.5,3.3,2.2c-2.1-0.1-4.1,0.9-6.3,0.6
				c-0.3,0.7,0.6,1.4,1,2c-0.8-0.1-1.6-0.2-2.5-0.1c0.3,1.3,1.1,2.3,2.2,2.9c-0.1,0.1-0.4,0.3-0.6,0.4c0.1,0.3,0.2,0.6,0.4,0.9
				c0,0.3,0,0.6,0,1c-0.1-0.1-0.3-0.2-0.4-0.3c-0.3,0.1-0.6,0.3-0.9,0.4c-0.5-0.1-1-0.1-1.4-0.2c0.1,0.8,0.5,1.5,1.1,2
				c-0.9,0-1.7,0.2-2.5,0.5c-0.2-0.1-0.6-0.2-0.8-0.2l-0.2,0c-0.2,0.2-0.3,0.4-0.5,0.6c-0.2-0.2-0.4-0.4-0.6-0.6
				c-0.2-0.2-0.4-0.3-0.6-0.5c-0.9,0.6-2-0.4-3,0.1c-0.5,0.1-0.9,0.1-1.4,0.2c-0.1-0.3-0.3-0.7-0.4-1c0.3-0.4,0.4-0.8,0.3-1.3
				c-0.3-1.6-1.2-3.1-2.7-3.8c0-0.8,0-1.6-0.4-2.4c0.4-0.9,1.5-1.6,1.2-2.7c0.3-0.4,0.5-0.7,0.8-1.1c0.1,0.1,0.3,0.3,0.4,0.4
				c0.9-0.3,1.9-0.5,2.5-1.3c0.4-0.6,1-0.8,1.7-1c0,0.1,0.1,0.4,0.1,0.5c0.2-0.2,0.4-0.3,0.6-0.5C79.3,42.8,80,43.1,80.6,42.7z"/>
			<g>
				<path fill="#FEFEFE" d="M73.7-0.2c0.8-0.4,1.6-1,2.5-1.3c-0.6,0.8-1.5,1.4-2,2.3c-0.8-0.1-1.7-0.2-2.5-0.3
					C72.3,0.3,73,0.1,73.7-0.2z"/>
			</g>
			<g>
				<path fill="#A4716E" d="M71.2,0.1c-0.2-0.4,0.1-0.7,0.3-1c0.1,0.2,0.3,0.5,0.4,0.7C71.7-0.1,71.5,0.2,71.2,0.1z"/>
			</g>
			<path fill="#F3F0EC" d="M85.9,2.7c0.6-0.2,1.2-0.3,1.8-0.4c-0.6,0.3-1.3,0.6-1.9,0.9L85.9,2.7z"/>
			<path fill="#F3F0EC" d="M2.9,47.2c0.2-0.2,0.4-0.3,0.7-0.3c0.1,0.1,0.2,0.3,0.3,0.4C3.6,47.3,3.3,47.3,2.9,47.2z"/>
			<g>
				<path fill="#F8B558" d="M78.1,7.6c0.5-0.1,1-0.2,1.5-0.4c-0.8,1.2-1.8,2.3-2.5,3.5c-0.8,1-1.3,2.3-2.2,3.3
					c-0.9,0.8-1.4,1.9-2.5,2.6c-0.1,0.8-0.8,1.2-1.4,1.5c0-0.7-0.2-1.6,0.4-2.2c0.6-0.6,1.7-1,1.8-2.1c0.3,0.2,0.5,0.6,0.8,0.5
					c0.4-0.5,0.3-1.2,0.3-1.7c0.2,0,0.5,0,0.7,0.1c0.2-0.9,0.3-1.7,0.4-2.6c0.2,0.5,0.5,0.9,0.8,1.4c0.1-0.8,0.2-1.5,0.4-2.3
					C76.9,9,77.2,9,77.5,8.9c0.1-0.1,0.2-0.4,0.2-0.5C77.8,8.2,78,7.9,78.1,7.6z"/>
			</g>
			<g>
				<path fill="#F88F56" d="M76.1,9.4c0.2-0.4,0.3-0.9,0.5-1.3c0.4,0.1,0.8,0.2,1.2,0.3c-0.1,0.1-0.2,0.4-0.2,0.5
					C77.2,9,76.9,9,76.6,9.1c-0.2,0.7-0.3,1.5-0.4,2.3c-0.3-0.5-0.6-0.9-0.8-1.4c-0.1,0.9-0.2,1.8-0.4,2.6c-0.2,0-0.5,0-0.7-0.1
					c0,0.6,0.1,1.3-0.3,1.7c-0.3,0.1-0.5-0.3-0.8-0.5c-0.2-0.6-0.1-1.2,0-1.8c0.2,0.1,0.3,0.2,0.5,0.3c0-1,0.2-2,0.6-3
					c0.2,0.1,0.3,0.3,0.5,0.4c0.2-0.2,0.4-0.4,0.5-0.5C75.6,9.3,75.8,9.4,76.1,9.4z"/>
			</g>
			<g>
				<path fill="#FAF15F" d="M85.3,10.2c0.6-0.3,1.2-0.6,1.8-0.8l0.4,0c0.1,0.4,0.2,0.8,0.4,1.2C87,10.7,86.1,10.6,85.3,10.2z"/>
			</g>
			<path fill="#F65B53" d="M25.5,16.9c0.8,0.3,1.6,0.6,2.4,0.9c-0.1,0.3-0.2,0.7-0.4,1C26.7,18.2,26.1,17.6,25.5,16.9z"/>
			<g>
				<path fill="#2F2B13" d="M28,17c0.3-0.2,0.5-0.2,0.6,0.2C28.3,17.4,28.1,17.3,28,17z"/>
			</g>
			<g>
				<path fill="#F6DC59" d="M87.8,17.7c0.8-0.1,1.6-0.2,2.4-0.2c-0.5,0.2-1.2,0.1-1.5,0.5c0.5,0.8,1.5,1,2.3,1.3
					C89.9,19.1,88.7,18.6,87.8,17.7z"/>
				<path fill="#F6DC59" d="M49.8,43.6c0.5,0.2,1,0.5,1.4,0.8c1.4-0.6,3.7-0.6,4.2,1.1c2.4,1.1,5.1,1.6,7.4,3
					c-1.1,0-2.2,0.3-3.3,0.8c-0.1-0.3-0.1-0.6-0.2-0.9c-0.2,0.1-0.4,0.3-0.5,0.4c-0.5-0.1-1-0.2-1.4-0.4c-0.7-0.4-1.5-0.2-2.2-0.3
					c-0.1-0.4-0.3-0.7-0.4-1.1c-0.2,0.2-0.3,0.4-0.5,0.6c-0.4-0.5-0.8-1-0.9-1.7c-0.7-0.1-1.4-0.1-2.1-0.1c0-0.3,0-0.5,0-0.8
					c-0.2,0.3-0.4,0.5-0.5,0.8c-0.1-0.3-0.2-0.6-0.2-0.9c-0.3-0.1-0.6-0.1-0.8-0.2C49.8,44.3,49.8,44,49.8,43.6z"/>
			</g>
			<g>
				<path fill="#FAF15C" d="M87.9,20.6c1.2-0.1,2.3-0.1,3.5-0.2c-0.6,0.1-1.3,0.2-1.9,0.5c0.4,0.2,0.8,0.3,1.2,0.4
					C89.7,21.3,88.6,21.2,87.9,20.6z"/>
			</g>
			<path fill="#F9F25D" d="M47.1,20.7c0.5,0.1,0,1-0.4,0.9C46.5,21.2,46.8,20.8,47.1,20.7z"/>
			<path fill="#F9F25C" d="M87.1,20.9c1.4,1.2,3.3,1,5.1,1c-1.4,0.5-2.9,0.2-4.3,0.8c0.3,0.2,0.7,0.5,1.1,0.6
				c1.8,0.2,3.6-0.1,5.3-0.2c-1.2,0.9-2.5,1.7-4,1.8c-1.1,0.2-2.4-0.1-3.4,0.5c0.3,0.5,1,0.7,1.5,0.9c-0.4,0.2-0.7,0.5-0.4,0.9
				c0.8,1.5,2.7,1.3,4.2,1.7c-1.4-0.1-2.8-0.1-4.2-0.1c0,0.2,0.1,0.5,0.1,0.7c0.9,1.3,2.7,1.1,4,1.6c-0.9-0.1-1.9-0.3-2.8-0.4
				c0,0.5,0.4,0.8,0.7,1c1.4,0.8,3,1.3,4.6,1.5c-0.9,0.3-1.8,0.8-2.7,1c-1,0.2-2-0.2-2.9-0.3c0.4,1.1,1.3,1.8,2.2,2.4
				c-0.7-0.2-1.3-0.3-2-0.4c0,0.7,0.3,1.5,1,1.9c1.4,0.8,3,1,4.5,1.4c-1.1,0.4-2.3,0.6-3.5,0.5c-1.2,0-2.3-0.5-3.5-0.4
				c0.1,0.5,0.3,0.9,0.5,1.3c-0.1,0-0.4,0-0.5-0.1c0.1,0.4,0,0.9,0.3,1.3c0.8,1.1,2.1,1.7,3,2.7c-0.7-0.1-1.3-0.2-1.9-0.4
				c-0.2-0.4-0.3-0.9-0.8-1c-0.7-0.1-1.5-0.1-2.2-0.1c0-0.3,0-0.6,0-0.9c-1,0-2.1,0.1-3-0.3c-0.8,0.3-1.6,0.6-2.3,1
				c-0.6,0.4-1.2,0.1-1.8,0c-0.2,0.2-0.4,0.3-0.6,0.5c0-0.1-0.1-0.4-0.1-0.5c-0.7,0.2-1.3,0.5-1.7,1c-0.6,0.8-1.6,1-2.5,1.3
				c-0.1-0.1-0.3-0.3-0.4-0.4c1.1-1.6,2.2-3.2,2.9-5.1c0.6-1.7,1.2-3.5,1.6-5.3c0.2-0.6,0.4-1.2,0.4-1.9c0.3,0,0.5,0.1,0.8,0.1
				c-0.2-1,0.8-1.6,1.1-2.5c0.3-0.1,0.7-0.1,1-0.2c0-0.3-0.1-0.6-0.1-0.8c0.2,0,0.4,0,0.7,0c0-0.3,0-0.5-0.1-0.8
				c0.3-0.1,0.6-0.2,0.9-0.4c0.6-0.8,0.4-2,1.1-2.8c0.6-0.7,1.3-1.4,1.3-2.3c0.2,0.1,0.4,0.2,0.7,0.3c0.1-0.2,0.1-0.5,0.2-0.7
				c0.4-0.1,0.7-0.1,1.1-0.2c-0.1-0.2-0.2-0.3-0.3-0.5C86.9,21.2,87,21.1,87.1,20.9z"/>
			<path fill="#F9F25C" d="M75.5,35c0.2,0,0.6-0.1,0.8-0.2c-0.6,2.1-1.2,4.3-2.2,6.3c-1.1,2.3-2.1,4.7-3.8,6.7
				c0.9-0.6,1.6-1.4,2.3-2.2c0.4,1.1-0.8,1.8-1.2,2.7c0.3,0.8,0.4,1.6,0.4,2.4c-0.4-0.1-0.9-0.2-1.4-0.1c-0.2,0.7,0.7,1.1,1.1,1.6
				c-1,1.4-1.9,2.9-2.9,4.4c-0.3-0.9-0.5-1.8-0.7-2.8c-0.7-1.6-1.6-3.1-2.7-4.4c-1-1.4-2.5-2.2-4.1-2.7c0.3-0.3,0.5-0.7,1-0.7
				c0.3,0.1,0.6,0.2,0.9,0.3c0.1-1.2,1.3-1.5,2.2-1.7c0.3-0.6,0.5-1.3,0.6-2c1-0.4,2-0.9,3.1-1.2c0.9-0.3,2-0.5,2.6-1.4
				c0.6-0.8,1.6-1.2,2-2.1C74.1,36.9,74.8,36,75.5,35z"/>
			<path fill="#F9F25C" d="M68.3,85.8c0.8,0.7,1.6,1.4,2.2,2.3c0.3,0.2,0.7,0.4,1,0.6c0.2,0.4,0.2,0.9,0.3,1.3
				c0.7-0.1,1.3-0.1,2-0.2c0.9,0,1.8,0.3,2.3,1c1.4,1.6,2.6,3.3,3.5,5.2c0.8,1.7,0.8,3.7,2,5.1c0.4,0.4,0.2,1.1,0.2,1.6
				c0.1,0.1,0.3,0.4,0.4,0.5c-0.1,0.6-0.3,1.3-0.5,1.9c-0.1,0-0.2,0.1-0.3,0.1c-0.4-0.1-0.8-0.2-1.2,0.1c-1.9,1.3-3.5,2.9-5.2,4.3
				l-0.5,0c0.1-0.4,0.2-0.9,0.3-1.3c-0.2-0.1-0.4-0.3-0.6-0.4c-0.2-0.1-0.4-0.3-0.5-0.4c-0.2-0.3-0.5-0.6-0.7-0.9
				c-0.5-0.1-0.9-0.3-1.2-0.7c0.1-0.4,0.3-0.9,0.4-1.3c-0.5-0.3-1-0.6-1.5-1c0.3-0.1,0.7-0.1,1-0.2c-0.2-0.1-0.4-0.2-0.6-0.3
				c0-0.4,0-0.8,0-1.2c-0.4,0.1-0.8,0.1-1.3,0.2c0-0.2-0.1-0.3-0.1-0.5c-0.2,0-0.4-0.1-0.6-0.1c0-0.9,0.2-1.9,0.5-2.7
				c-0.9,0.2-1.6,1.4-2.5,0.8c0.1-0.7,0.3-1.4,0.4-2c-0.6,0-1.1,0.1-1.7,0.1c-0.5-0.6-0.8-1.4-0.5-2.2c-0.6,0.1-1.2,0.1-1.7,0.5
				c-0.5,0.3-1.1,0.5-1.7,0.6c-0.3-0.1-0.6-0.1-0.8-0.2c0-0.2,0-0.5,0.1-0.7c-0.6,0-1.1-0.4-1.5-0.9c1.2-1,2.4-2,3.5-3.1
				C65.2,89.8,66.6,87.7,68.3,85.8z"/>
			<path fill="#DFD9CE" d="M24.7,23.4c0.5,0,0.9,0.2,1.2,0.5c-0.1,0-0.2,0.1-0.3,0.2C25.2,24,24.9,23.7,24.7,23.4z"/>
			<g>
				<path fill="#FAF25C" d="M88.5,27c1.2,0,2.4,0.1,3.7,0c-0.3,0.1-0.7,0.2-1,0.3c0,0.2,0.1,0.6,0.1,0.8C90.2,28,89.1,27.8,88.5,27z
					"/>
				<path fill="#FAF25C" d="M88.7,29.4c1.3-0.1,2.5,0,3.7,0.1c-0.2,0-0.7-0.1-1-0.1c0,0.2,0.1,0.6,0.1,0.9
					C90.5,30.2,89.5,30,88.7,29.4z"/>
			</g>
			<g>
				<path fill="#F9A755" d="M26,27.6c0.3-0.1,0.6-0.2,0.8-0.4c0.2,1.4,0.2,2.7,0.1,4.1c-0.1,0.3-0.2,0.7-0.3,1
					c-0.1,0.2-0.2,0.4-0.4,0.6c-0.2-0.6-0.4-1.1-0.6-1.7c0.1-0.6,0.4-1.1,0.6-1.7C26.3,28.9,26.1,28.2,26,27.6z"/>
			</g>
			<path fill="#D0C9B8" d="M19.6,28.8c0.8,0,1.5,0.1,2.3,0c-0.6,0.1-1.1,0.2-1.7,0.4C20,29,19.8,28.9,19.6,28.8z"/>
			<g>
				<path fill="#F98E57" d="M25,29.3c0.1,0.1,0.4,0.2,0.6,0.2c0,0.4,0,0.8,0,1.2C25,30.4,25,29.9,25,29.3z"/>
			</g>
			<g>
				<path fill="#F8B659" d="M26.9,31.3c0.6,1.5,1.5,2.8,2,4.3c0.2,0.4,0.3,0.9,0.7,1.2c0.7,0.7,1.3,1.5,2.1,2
					c-0.2,0.1-0.5,0.3-0.7,0.4c-0.2-0.2-0.3-0.5-0.4-0.8c-0.5-0.1-1.1-0.2-1.6-0.2c0-0.2,0-0.5,0-0.7c-0.2-0.1-0.5-0.3-0.7-0.4
					c-0.1-0.1-0.3-0.2-0.4-0.2c-0.5-1.5-1.1-3-1.4-4.6C26.7,32,26.8,31.7,26.9,31.3z"/>
			</g>
			<path fill="#020101" d="M51.4,50.1c0.3-0.7,0.3-1.5,0.9-2.1c0,0.8-0.3,1.6-0.5,2.4c-1.2,4.1-2.5,8.3-4.2,12.3
				c-0.7,1.5-1.3,3-1.9,4.5C47.6,61.5,49.7,55.9,51.4,50.1z"/>
			<g>
				<path fill="#000001" d="M53.2,33.1c0.4-0.3,1.2-0.1,1.3,0.4c0.3,1.6-0.9,3.1-2.4,3.5c-0.6,0.1-0.9-0.6-0.9-1.1
					C51.4,34.7,52.3,33.7,53.2,33.1z"/>
			</g>
			<path fill="#E4E0D7" d="M14.2,34.9c0.5,0,1.1-0.1,1.6-0.1c-0.2,0.1-0.5,0.2-0.7,0.4c-0.1,0.2-0.2,0.4-0.3,0.6
				c0-0.1-0.1-0.4-0.1-0.5C14.7,35.2,14.4,35,14.2,34.9z"/>
			<path fill="#FAEE5C" d="M90.9,37.5c-0.7-0.2-1.1-0.8-1.3-1.4c0.5,0.3,1.1,0.5,1.7,0.6C91.2,37,91,37.2,90.9,37.5z"/>
			<g>
				<path fill="#F87C55" d="M28.4,37.1c0.2,0.1,0.5,0.3,0.7,0.4c0,0.2,0,0.5,0,0.7c0.5,0.1,1.1,0.2,1.6,0.2c0.1,0.3,0.1,0.6,0.4,0.8
					c-0.4,0.2-0.7,0.4-1.1,0.5c-0.2-0.1-0.5-0.2-0.7-0.3c-0.1-0.3-0.2-0.5-0.2-0.8C28.3,38.5,28.3,37.8,28.4,37.1z"/>
			</g>
			<path d="M65.4,37.3c0.4-0.2,0.9,0,1,0.4c0.6,1.4-0.4,3.2-1.9,3.7c-1,0.2-1.4-1-1.1-1.8C63.9,38.7,64.4,37.7,65.4,37.3z"/>
			<g>
				<path fill="#EDC154" d="M34.8,44.6c0.1-2,0.2-4.1,0.7-6.1c0.2,1,0,2.1,0.1,3.1c2.2-0.6,4.4-0.7,6.6-0.6c0.6,0,1.1,0.3,1.6,0.7
					c-2.6,0-5.3,0.1-7.8,0.9c0.4,0,0.7,0.1,1.1,0c4.2-0.6,8.7-0.7,12.7,0.9c0,0.4,0,0.7,0,1.1c0.3,0.1,0.6,0.1,0.8,0.2
					c0.1,0.3,0.2,0.6,0.2,0.9c0.2-0.3,0.4-0.5,0.5-0.8c0,0.3,0,0.5,0,0.8c0.7,0,1.4,0,2.1,0.1c0,0.7,0.5,1.2,0.9,1.7
					c0.2-0.2,0.3-0.4,0.5-0.6c0.1,0.4,0.3,0.7,0.4,1.1c0.7,0,1.5-0.1,2.2,0.3c0.4,0.2,0.9,0.3,1.4,0.4c0.2-0.1,0.4-0.3,0.5-0.4
					c0.1,0.3,0.1,0.6,0.2,0.9c1-0.4,2.1-0.7,3.3-0.8c2.2,1.5,3.2,4,4.5,6.2c0.7,0.1,0.6-0.4,0.6-0.9c0.2,0.9,0.4,1.9,0.7,2.8
					c-0.5,0.7-1.1,1.4-1.6,2.2c-0.3,0.6-0.4,1.3-0.7,1.9c-0.5,0.7-0.9,1.4-1.4,2.1c-1.9,3.2-4.1,6.2-6.3,9.2c-2.5,2.8-5,5.6-8,7.8
					c-2,1.7-4.4,3.2-7.1,3.6c-1.1,0-2.5-0.3-3-1.5c-1.7-4.1-2.3-8.4-2.9-12.8c-0.4-2-1-4-1.4-6c-0.3-2.2-0.8-4.4-1-6.6
					C35,52.5,34.4,48.5,34.8,44.6z M51.4,50.1c-1.7,5.8-3.7,11.5-5.8,17.1c0.7-1.5,1.3-3,1.9-4.5c1.7-4,3-8.1,4.2-12.3
					c0.2-0.8,0.5-1.6,0.5-2.4C51.7,48.5,51.6,49.4,51.4,50.1z M54.4,49.4c-1,2.2-1.8,4.5-2.6,6.8c-1.4,4.1-2.9,8.3-4,12.5
					c1.6-3.1,2.7-6.5,3.9-9.8c1.1-3.2,2.3-6.4,3.1-9.7C54.6,49.4,54.4,49.4,54.4,49.4z"/>
			</g>
			<path fill="#EDC154" d="M-19.2,68.9c2.2,1.3,4.6,2.1,6.7,3.4c1.6,1,3.1,2.1,4.6,3.4c2.3,2.1,4.8,4.2,6.6,6.8
				c1.3,2.2,2.1,4.6,2.8,7.1c0.5,1.7,0.3,3.6,0.8,5.3c-0.4,0.2-0.7,0.6-1.2,0.6c-0.8-0.2-1.5-0.7-2.3-0.9c-1.7-0.5-3.5-0.3-5.3-0.3"
				/>
			<g>
				<path fill="#FCF25D" d="M88.4,39.8c1.6,0.4,3.2,0.6,4.8,0.4c-0.9,0.1-1.7,0.1-2.6,0.3c0,0.1-0.1,0.4-0.1,0.6
					c-0.5-0.1-1-0.1-1.4-0.2C88.8,40.4,88.6,40.1,88.4,39.8z"/>
			</g>
			<g>
				<path fill="#FBF25C" d="M87.9,41c0.9,0.4,1.8,1,2.9,1c0,0.6,0.1,1.2,0.2,1.8C90,42.8,88.5,42.3,87.9,41z"/>
			</g>
			<g>
				<path fill="#FAED5C" d="M88.2,44.3c1,0.2,1.9,0.6,3,0.6c0.1,0.5,0.2,1,0.3,1.5C90.3,45.8,89.2,45.1,88.2,44.3z"/>
			</g>
			<g>
				<path fill="#F2F0EC" d="M0.9,46.6c0.8-0.2,1.7-0.3,2.5-0.4c-0.8,0.4-1.8,0.7-2.7,0.6C0.8,46.8,0.9,46.6,0.9,46.6z"/>
				<path fill="#F2F0EC" d="M39.1,93.2c2.2-0.5,4.6-0.3,6.6,0.8c0.8,0.6,1.6,1.2,2.5,1.7c0.6,0.3,0.7,1,1,1.6c0.2,0.7,0.7,1.3,1,1.9
					c-0.2,0.9-0.5,1.9-1,2.7c-1,0.7-2.2,1-3.2,1.5c-1.1,0.6-2.3,1-3.6,1c-1.2,0-2.4,0.1-3.6-0.4c0-0.4,0-0.8,0-1.2
					c-0.1,0.1-0.4,0.4-0.5,0.5c-0.3-0.4-0.6-0.7-1-1.1l-0.2,0c-1.1,0.1-1.3-1.4-1.1-2.2c0.1-0.1,0.3-0.2,0.4-0.3
					c0.5-0.8,1-1.6,1.5-2.3c-0.1-0.4-0.3-0.9-0.4-1.3c0.3-0.5,0.4-1.1,0.3-1.7C38.3,94,38.7,93.6,39.1,93.2z"/>
			</g>
			<g>
				<path fill="#FDFAD1" d="M90.1,47.9c1.1-0.1,2.3-0.1,3.4-0.1c-0.7,0.2-1.5,0-2.2,0.4c-0.2,0.5,0,1,0,1.6
					c-0.4-0.1-0.8-0.3-1.2-0.4c0.1-0.5,0.3-0.9,0.4-1.4H90.1z"/>
			</g>
			<g>
				<path fill="#FAD65B" d="M87.4,48.4c0.9-0.2,1.8-0.4,2.7-0.4h0.4c-0.1,0.5-0.3,0.9-0.4,1.4C89.2,49,88.3,48.7,87.4,48.4z"/>
			</g>
			<g>
				<path fill="#FAE65B" d="M86.1,48.5c0.8,0.3,1.4,0.9,2.1,1.3C87.4,49.7,86.4,49.4,86.1,48.5z"/>
				<path fill="#FAE65B" d="M88.9,50.1c0.2,0.1,0.4,0.2,0.7,0.3c0,0.8,0,1.6-0.2,2.4c-0.9-0.2-1.7-0.4-2.6-0.6
					c-1-0.3-1.7-1.2-2.1-2.1c1.4,0,2.8,0.5,4.2,0.5C88.8,50.5,88.8,50.3,88.9,50.1z"/>
			</g>
			<g>
				<path fill="#E1DAA7" d="M89.5,50.4c0.6,0.2,1.2,0.5,1.8,0.7c-0.5,0-1.1,0.1-1.6,0.3c-0.1,0.5-0.1,1-0.2,1.5
					c-0.1,0-0.3-0.1-0.3-0.1C89.6,52.1,89.5,51.2,89.5,50.4z"/>
			</g>
			<g>
				<path fill="#F9CA5A" d="M71.8,52.4c0.9,0.9,1.9,1.9,1.9,3.3c0.1,0,0.4,0.1,0.6,0.1c0.2,0.3,0.3,0.7,0.4,1
					c-1,0.1-1.6-0.7-2.2-1.3c-0.6-0.6-0.8-1.4-1.1-2.1C71.6,53.1,71.7,52.7,71.8,52.4z"/>
			</g>
			<g>
				<path fill="#FABA59" d="M86.1,53.3c0.8,0.1,1.6,0.3,2.5,0.4c-0.2,0.4-0.4,0.8-0.6,1.2C87.2,54.5,86.5,54,86.1,53.3z"/>
			</g>
			<g>
				<path fill="#F77C55" d="M71.2,54c0.1-0.2,0.2-0.5,0.3-0.6c0.3,0.7,0.5,1.5,1.1,2.1c0.6,0.6,1.2,1.4,2.2,1.3
					c0.5,0,0.9-0.1,1.4-0.2c0,0.2,0.1,0.5,0.2,0.7c0.4,0.1,0.8,0.3,1.2,0.4c0.2-0.1,0.4-0.3,0.7-0.4c0.6,0.1,1.1,0,1.6-0.4
					c0.2,0.2,0.4,0.4,0.6,0.6c0.2-0.2,0.3-0.4,0.5-0.6l0.2,0c0.1,0.3,0.2,0.7,0.2,1c-0.9-0.1-1.8-0.4-2.6-0.3
					c-0.7,0.2-1.4,0.4-2.1,0.2c-0.9-0.2-1.7,0.3-2.6,0.1C72.7,56.8,71.6,55.7,71.2,54z"/>
			</g>
			<path fill="#F8B057" d="M85.8,53.8c0.7,1.1,1.9,1.5,2.9,2c-1.4-0.2-2.8-0.5-4.2-0.9c0.3-0.1,0.6-0.3,0.9-0.4
				c0.1,0.1,0.3,0.2,0.4,0.3C85.8,54.4,85.8,54.1,85.8,53.8z"/>
			<g>
				<path fill="#FCF6B6" d="M88.6,53.6c0.6,0.1,1.1,0.2,1.7,0.4c-0.8,0-0.6,0.9-0.8,1.4c-0.5-0.2-1-0.4-1.5-0.6
					C88.2,54.4,88.4,54,88.6,53.6z"/>
			</g>
			<g>
				<path fill="#FAA858" d="M83.8,55.3c0.8,0.1,1.5,0.3,2.3,0.5c-0.3,0.4-0.7,0.7-1,1C84.5,56.4,84.1,55.9,83.8,55.3z"/>
			</g>
			<g>
				<path fill="#F77E54" d="M86,55.9c0.5,0.1,1.1,0.3,1.6,0.4c-0.2,0.5-0.3,1-0.5,1.5c-0.7-0.2-1.5-0.3-2.1-0.8
					C85.4,56.6,85.7,56.2,86,55.9z"/>
			</g>
			<g>
				<path fill="#F9BB5A" d="M76.1,56.7c1-0.5,2,0.5,3-0.1c0.2,0.2,0.4,0.3,0.6,0.5c-0.5,0.4-1,0.5-1.6,0.4c-0.2,0.1-0.4,0.3-0.7,0.4
					c-0.4-0.1-0.8-0.3-1.2-0.4C76.2,57.1,76.1,56.9,76.1,56.7z"/>
			</g>
			<g>
				<path fill="#F55A52" d="M83.4,58c1.1,0,2.2,0.3,3.2,0.7c-0.3,0.5-0.5,0.9-0.6,1.4C84.9,59.7,83.8,59.1,83.4,58z"/>
			</g>
			<g>
				<path fill="#F55A53" d="M82,63.2c0.9,0.3,1.8,0.5,2.8,0.5c-0.2,0.1-0.5,0.3-0.7,0.4c0,0.3,0,0.5,0,0.8
					C83.3,64.5,82.6,63.9,82,63.2z"/>
			</g>
			<g>
				<path fill="#F65A51" d="M83.4,69.3c0.3-0.2,0.6-0.5,0.8-0.8c0.1,0.1,0.2,0.2,0.3,0.3c-0.2,0.3-0.6,0.5-0.9,0.7
					c-0.1,0.7-0.2,1.4-0.2,2.1c-0.6-1-1.1-2-1.7-3C82.3,68.8,82.8,69,83.4,69.3z"/>
			</g>
			<path fill="#F66753" d="M5.4,99.2c0.2-0.4,0.5-0.8,0.7-1.2c0.1,0.3,0.2,0.6,0.3,0.9l0.2,0c1,1.8,1.8,3.8,2.3,5.9
				c-0.3,0.3-0.7,0.6-1,0.8c-0.2-0.3-0.4-0.5-0.7-0.8c0.4-1.2-0.1-2.3-0.5-3.3c-0.6-0.1-1.3-0.2-1.9-0.3c-0.5-0.4-0.9-1-0.9-1.7
				c0-0.1,0.1-0.3,0.1-0.4C4.5,99.1,5,99.1,5.4,99.2z"/>
			<g>
				<path fill="#F9F15C" d="M31.1,79.4c0.3,0,0.7,0,1,0c1,2.8,1.9,5.7,3.3,8.4c-0.5,0-0.9,0.1-1.3,0.3c-0.2,0-0.7-0.1-0.9-0.1
					c-0.1,0.4-0.2,0.7-0.4,1.1c-0.5,0-0.9,0-1.4,0c0,0.1,0,0.3,0,0.4c-0.1,0.6-0.1,1.2-0.1,1.9c-0.1,0.1-0.4,0.3-0.5,0.4
					c-1,0.3-2.3,0.1-3.1,0.8c-1.7,1.6-3.4,3.3-5.4,4.7c-0.3,0.3-0.6,0.5-0.9,0.8c-0.2,0-0.6,0-0.8,0c-0.6-0.1-1.4,0.1-1.3,0.9
					c-0.2,0-0.4-0.1-0.6-0.1c-0.1,0.5-0.5,0.7-0.8,0.9c-0.1,0.1-0.3,0.4-0.4,0.5c-0.1,0-0.4-0.1-0.6-0.1c-1-1.7-1.4-3.6-1.9-5.5
					c-0.1,0.1-0.4,0.2-0.5,0.2c-0.1,0.9,0,1.7-0.1,2.6c-1.1-2.3-1.7-4.8-2-7.4c0.4-0.2,0.7-0.4,1.1-0.6c0.1-0.4,0.2-0.7,0.3-1.1
					c0.3,0.1,0.6,0.3,0.9,0.4c0.5-0.4,1.1-0.6,1.7-0.8c0.8-0.4,1.7-0.6,2.7-0.6c-0.1-1.4,0.6-2.6,0.9-3.8c0.2-0.4,0.6-0.8,0.9-1.2
					c0.6,0.3,1.2,0.6,1.8,1c0.5-0.9,1.4-1.4,2-2.2c0.7-0.2,1.4-0.4,1.9-0.9c0.2,0,0.5,0.1,0.7,0.1c0.1-0.2,0.3-0.5,0.4-0.6
					c0.8,0.2,1.7,0.4,2.6,0.3C30.7,80,30.9,79.7,31.1,79.4z"/>
			</g>
			<g>
				<path fill="#F8B858" d="M24.9,80.5c1.1,0.1,2-0.8,3.1-0.6c-0.1,0.2-0.3,0.5-0.4,0.6c-0.2,0-0.5-0.1-0.7-0.1
					c-0.6,0.5-1.2,0.7-1.9,0.9c-0.6,0.8-1.5,1.3-2,2.2c-0.6-0.3-1.2-0.7-1.8-1c-0.3,0.4-0.6,0.7-0.9,1.2c-0.4,1.3-1,2.5-0.9,3.8
					c-0.9-0.1-1.8,0.2-2.7,0.6c0.2-0.4,0.1-0.9,0.6-1.1c0.6-0.2,1.2-0.3,1.8-0.3c0.1-0.7,0-1.5,0.5-2.2c-0.1-0.4-0.3-0.7-0.3-1.1
					c1-0.1,1.5-1,1.9-1.8c0.6,0.1,1.2,0.5,1.7,0.9c0-0.2,0-0.5,0.1-0.7C23.7,81.8,24.4,81.2,24.9,80.5z"/>
			</g>
			<g>
				<path fill="#F9C458" d="M68.3,85.8c0.3-0.3,0.5-0.6,0.8-0.9c-0.1,1,0.7,1.8,1.4,2.3c0.5,0.2,1.1,0.2,1.6,0.3
					c0,0.5,0.1,0.9,0.1,1.4c0.3,0.1,0.6,0.2,1,0.3c0.2,0.2,0.3,0.4,0.5,0.6c-0.7,0-1.3,0.1-2,0.2c-0.1-0.4-0.1-0.9-0.3-1.3
					c-0.3-0.2-0.6-0.4-1-0.6C69.8,87.2,69.1,86.5,68.3,85.8z"/>
			</g>
			<g>
				<path fill="#7998A7" d="M33.3,88.1c0.2,0,0.7,0.1,0.9,0.1c0,0.2,0,0.6,0.1,0.8c-0.4,0.4-0.8,0.8-1,1.3c-0.5-0.1-1-0.2-1.5-0.3
					c0-0.1-0.1-0.3-0.1-0.4c0-0.1,0-0.3,0-0.4c0.5,0,0.9,0,1.4,0C33.1,88.8,33.2,88.4,33.3,88.1z"/>
			</g>
			<path fill="#F0EEE9" d="M89,88.1c0.2,0.3,0.4,0.6,0.4,1c-0.3-0.1-0.6-0.3-0.7-0.6C88.8,88.4,88.9,88.2,89,88.1z"/>
			<path fill="#386CC2" d="M33.2,90.3c0.3-0.5,0.6-1,1-1.3c0.7,1.9,1.7,3.8,1.8,5.9c-0.6-0.1-1.1-0.1-1.7-0.1c-0.2,1.4,1,2.6,1,4.1
				c-0.8-0.3-1.6-0.7-2.4-0.6c-0.3,0.1-0.7,0.2-0.7,0.6c-0.1,0.9,0.7,1.7,0.6,2.6c-0.5,1.1-1.8,1.4-2.4,2.4
				c-0.2,0.6-0.1,1.2-0.1,1.8c-0.6-0.3-1.2-0.6-1.6-1.1c-0.4-0.5-0.4-1.3-0.5-1.9c-0.9,0.2-0.9,1.2-1.1,1.9
				c-0.8-0.2-1.6-0.3-2.3-0.8c-0.8-0.5-1.3-1.3-2.1-1.7c-1,0.2-0.1,1.4,0,2.1c-1.2-1.2-1.9-2.7-2.9-4c-0.1,0-0.4,0-0.5,0
				c-0.1,1.2,0.2,2.3,0.2,3.5c-0.9-1-1.7-2.2-2.3-3.4c0.1,0,0.4,0.1,0.6,0.1c0.1-0.1,0.3-0.4,0.4-0.5c0.4-0.2,0.8-0.5,0.8-0.9
				c0.2,0,0.4,0.1,0.6,0.1c0.2,0.1,0.6,0.2,0.8,0.3c0.2-0.4,0.3-0.8,0.5-1.2c0.2,0,0.6,0,0.8,0c0.3-0.3,0.6-0.6,0.9-0.8
				c1.9-1.4,3.6-3.1,5.4-4.7c1.1,0.4,2.3,0.6,3.3-0.1c0.4-0.2,0.3-0.7,0.4-1.1c0-0.6,0-1.2,0.1-1.9c0,0.1,0.1,0.3,0.1,0.4
				C32.1,90.1,32.6,90.2,33.2,90.3z"/>
			<path fill="#386CC2" d="M53.1,99.2c1.7-1.8,4.1-2.6,6-4c0,0.2,0,0.5,0,0.7c0.6,0.2,1.2,0.4,1.6,0.9c0.5,0,0.9,0,1.4,0.1
				c0.1,0.1,0.2,0.3,0.3,0.3c0.1,0.1,0.2,0.3,0.2,0.4c0.7,0.1,1.4,0.1,2.1,0.1c0.2,0.8,0.5,1.8,1.5,2c0.2,0.6,0.4,1.2,0.6,1.8
				c0.5,0.9,1.7,0.8,2.2,1.7c0.6,1,0.7,2.1,1,3.2c1,0.4,1.8,1,2.8,1.4c-1.6,0.7-2.9,1.7-4.3,2.7l-0.1,0l-0.1,0
				c-0.3,0.2-0.7,0.5-1,0.7c0.3-0.6,0.8-1.1,1.1-1.7c0.1-0.4-0.4-0.7-0.8-0.5c-1.1,0.3-2.2,0.8-3.3,1.1c-2,0.6-3.9,1.7-6,1.5
				c1.3-1.3,2.9-2.4,3.9-4c0.3-0.4-0.2-1-0.7-0.8c-2.4,0.9-4.6,2.6-7.2,2.6c0.8-1.2,2.4-1.5,3.4-2.5c-0.7,0.2-1.3,0.4-2,0.8
				c-0.2-1.2-1.5-0.7-2.4-0.8c0.1,0,0.2-0.1,0.3-0.2c1.2,0.1,2.1-0.8,3-1.4c0.7-0.5,1.7-0.7,2-1.6c-1.1,0.3-2,1.1-3.1,1.4
				c0.5-0.5,1.1-1,0.9-1.8c-1.1,0-2,0.6-3.1,0.7c-0.6,0-1.2,0-1.8,0.1c1.9-1.4,3.7-2.9,5.4-4.5c0.3-0.3,0.7-0.7,0.3-1.1
				C55.9,98.4,54.6,99.2,53.1,99.2z"/>
			<g>
				<path fill="#E4E0D5" d="M36.1,91c2.2,0.1,4.3-1,6.6-0.8c1.7,0.6,3,1.8,4.5,2.7c1.2,0.6,2.7,0.3,3.9,0.9c1.3,0.8,2.6,1.8,3.6,3
					c-1.1,0.8-2.1,1.6-3.2,2.4l-0.1,0.1c-0.1,0.6-0.1,1.2-0.3,1.8c-0.3,0.7-1,0.8-1.6,1.2c-0.9,0.4-1.2,1.4-2,1.9
					c-0.7,0.5-1.4,0.9-2.1,1.3c-1.5-0.4-3-0.6-4.5-0.6c-1.2,0-2.5-0.1-3.6-0.8c0.1-0.2,0.2-0.3,0.3-0.5c-0.3-0.1-0.5-0.2-0.8-0.4
					c0.1-0.3,0.1-0.6,0.2-0.9l0.2,0c0.3,0.3,0.6,0.7,1,1.1c0.1-0.1,0.4-0.4,0.5-0.5c0,0.4,0,0.8,0,1.2c1.1,0.5,2.4,0.4,3.6,0.4
					c1.3,0,2.5-0.5,3.6-1c1-0.6,2.2-0.9,3.2-1.5c0.5-0.8,0.8-1.8,1-2.7c-0.4-0.6-0.8-1.2-1-1.9c-0.3-0.6-0.4-1.3-1-1.6
					c-0.9-0.5-1.7-1.1-2.5-1.7c-2-1-4.4-1.2-6.6-0.8c-0.4,0.4-0.8,0.9-1.2,1.3c0,0.6-0.1,1.2-0.3,1.7c0.1,0.4,0.3,0.9,0.4,1.3
					c-0.5,0.8-1,1.6-1.5,2.3c0.2-1.3-0.1-2.6-0.6-3.8c0.4-0.1,0.8-0.2,1.1-0.3C37.5,94.1,36.5,92.6,36.1,91z"/>
			</g>
			<g>
				<path fill="#8EA793" d="M31,91.8c0.1-0.1,0.4-0.3,0.5-0.4c0,0.4,0.1,0.9-0.4,1.1c-1,0.7-2.2,0.5-3.3,0.1
					C28.7,91.9,29.9,92.1,31,91.8z"/>
			</g>
			<g>
				<path fill="#E79A95" d="M3.4,92.2c0.4,0.2,0.4,0.3,0,0.5C3.4,92.6,3.4,92.4,3.4,92.2z"/>
			</g>
			<g>
				<path fill="#7D7A9B" d="M59.2,95.1c0.2-0.2,0.4-0.3,0.6-0.5c0.3,0.5,0.8,0.9,1.5,0.9c0,0.2-0.1,0.5-0.1,0.7
					c0.3,0.1,0.6,0.1,0.8,0.2c0,0.1,0.1,0.3,0.1,0.4c-0.4-0.1-0.9-0.1-1.4-0.1c-0.4-0.5-1-0.7-1.6-0.9
					C59.2,95.7,59.2,95.3,59.2,95.1z"/>
			</g>
			<g>
				<path fill="#D5D96F" d="M63.8,95.9c0.5-0.3,1.1-0.4,1.7-0.5c-0.3,0.8,0,1.6,0.5,2.2c0.6-0.1,1.1-0.1,1.7-0.1
					c-0.2,0.7-0.4,1.3-0.4,2c0.9,0.6,1.7-0.6,2.5-0.8c-0.3,0.9-0.5,1.8-0.5,2.7c0.2,0,0.4,0.1,0.6,0.1c0,0.2,0.1,0.3,0.1,0.5
					c0.4-0.1,0.8-0.1,1.3-0.2c0,0.4,0,0.8,0,1.2c0.2,0.1,0.4,0.2,0.6,0.3c-0.3,0.1-0.7,0.1-1,0.2c0.5,0.4,1,0.7,1.5,1
					c-0.1,0.4-0.3,0.9-0.4,1.3c0.3,0.4,0.7,0.6,1.2,0.7c0.2,0.3,0.5,0.6,0.7,0.9c-0.1,0-0.3,0.1-0.5,0.1c-0.1-0.1-0.4-0.4-0.5-0.5
					c-1,0.1-1.4-0.9-1.7-1.7c-0.3,0.2-0.6,0.3-0.9,0.5c-0.1-1-0.1-2,0-3c-0.2,0.2-0.4,0.4-0.7,0.6c-0.2-0.3-0.4-0.7-0.5-1
					c-0.2-0.5-0.1-1,0-1.5c-0.5-0.5-1.2-0.4-1.8-0.2c-0.4-0.8-0.4-1.6-0.1-2.4c-0.4-0.3-0.9-0.3-1.4-0.3c-0.4-0.7-0.9-1.4-1.3-2
					C64.2,96,63.9,95.9,63.8,95.9z"/>
			</g>
			<g>
				<path fill="#B0BD86" d="M63.8,95.9c0.1,0,0.4,0.1,0.6,0.2c0.4,0.7,0.9,1.4,1.3,2c0.5,0,1,0,1.4,0.3c-0.4,0.8-0.3,1.7,0.1,2.4
					c0.6-0.2,1.3-0.3,1.8,0.2c-0.1,0.5-0.2,1,0,1.5c-0.3-0.1-0.6-0.2-0.9-0.3c-0.1-0.3-0.1-0.7-0.1-1c-0.3,0.2-0.6,0.3-0.8,0.5
					c-0.3-1-0.6-1.9-0.8-2.9c-0.3,0-0.7-0.1-1-0.1c-0.1-0.4-0.2-0.8-0.4-1.2c-0.9-0.1-1.7-0.1-2.6-0.3c-0.1-0.1-0.2-0.3-0.3-0.3
					c0-0.1-0.1-0.3-0.1-0.4C62.7,96.4,63.2,96.2,63.8,95.9z"/>
			</g>
			<g>
				<path fill="#F8AE57" d="M79.5,96.1c0.3,0.2,0.5,0.3,0.8,0.5c0.3,1.5,1,3.2,2.5,3.9c0.1,0.7-0.5,1.3-0.6,2c0.1,0.4,0.4,0.7,0.6,1
					c-0.6,1.3-0.9,2.6-1.7,3.8c0.1-0.7,0.2-1.3,0.4-2c0.1,0,0.2-0.1,0.3-0.1c0.2-0.6,0.3-1.2,0.5-1.9c-0.1-0.1-0.3-0.4-0.4-0.5
					c0-0.5,0.2-1.2-0.2-1.6C80.4,99.8,80.3,97.8,79.5,96.1z"/>
			</g>
			<g>
				<path fill="#77969E" d="M62.4,97.2c0.9,0.1,1.7,0.2,2.6,0.3c0.1,0.4,0.2,0.8,0.4,1.2c0.3,0,0.7,0.1,1,0.1c0.2,1,0.5,1.9,0.8,2.9
					c0.3-0.2,0.6-0.4,0.8-0.5c0,0.3,0.1,0.7,0.1,1c0.3,0.1,0.6,0.2,0.9,0.3c0.2,0.3,0.4,0.7,0.5,1c0.2-0.2,0.4-0.4,0.7-0.6
					c0,1-0.1,2,0,3c0.3-0.2,0.6-0.3,0.9-0.5c0.3,0.8,0.7,1.8,1.7,1.7c0.1,0.1,0.4,0.4,0.5,0.5c-0.2,0.1-0.4,0.1-0.6,0.2
					c-1-0.4-1.8-1-2.8-1.4c-0.3-1.1-0.4-2.2-1-3.2c-0.4-0.9-1.7-0.9-2.2-1.7c-0.3-0.6-0.4-1.2-0.6-1.8c-1-0.2-1.2-1.2-1.5-2
					c-0.7,0-1.4-0.1-2.1-0.1C62.5,97.5,62.4,97.3,62.4,97.2z"/>
			</g>
			<g>
				<path fill="#C78771" d="M19.5,99c-0.1-0.8,0.7-1,1.3-0.9c-0.2,0.4-0.3,0.8-0.5,1.2C20.1,99.2,19.7,99,19.5,99z"/>
			</g>
			<path fill="#F7A957" d="M0.9,99.1c0.3-0.1,0.6-0.2,0.9-0.4C2,98.9,2.2,99,2.4,99.2c0.5,0,1.1,0,1.5,0.3c0,0.7,0.4,1.3,0.9,1.7
				c-0.8-0.1-1.3-0.6-1.7-1.2c-0.9,0-1.9-0.3-2.8,0.1"/>
			<path fill="#C7BFAC" d="M51.5,99.2L51.5,99.2c0.1,0.1,0.2,0.3,0.2,0.5c1,0.6,2.2,0.2,3.3,0.1c-0.9,1.4-2.3,2.3-3.6,3.2
				c-0.4,0.3-1.4,0.7-0.9,1.4c0.9,0.9,2.3,0.5,3.4,0.6c-0.7,0.7-1.6,1.2-2.3,1.9c-0.5,1.1,1.2,0.9,1.8,1c-0.4,0.3-1,0.5-1,1.1
				c-1.8,0.7-3.8,1-5.8,1.1c-1.6,0.1-2,2.1-3.4,2.7c-2.1,0.1-4.2,0.1-6.3,0.1c-1,0.1-1.4-0.9-2-1.5c-1.9-0.6-3.9-1-5.6-2.1
				c-1.2-1.1-1.3-2.9-2.5-3.9l0-0.1c0.3,0,0.5,0,0.8,0c0.1-0.1,0.4-0.3,0.5-0.4c0.6,0.8,1.7,1.7,2.8,1.4c0.3-0.6,0.2-1.4,0.2-2
				c1.2-0.2,2.1-1.1,2.7-2.2c0.4-0.9,0-1.8-0.3-2.7c0.5,0.2,1,0.4,1.5,0.6c-0.7,0.9-0.4,2.2,0.4,3c1.3,1.3,2.3,3,4.2,3.5
				c2,0.5,4.3,0.1,6.1-1c0.7-0.4,1.4-0.8,2.1-1.3c0.8-0.5,1.1-1.5,2-1.9c0.5-0.3,1.3-0.5,1.6-1.2C51.5,100.5,51.4,99.8,51.5,99.2z"
				/>
			<path fill="#F9D35A" d="M0.4,100c0.9-0.3,1.9-0.1,2.8-0.1c0.4,0.6,0.9,1.2,1.7,1.2c0.6,0.2,1.3,0.2,1.9,0.3
				c0.4,1.1,0.9,2.2,0.5,3.3c0.1,0.7,0.3,1.4,0.6,2.1c-0.4-0.5-1-0.9-0.9-1.5c0.1-1.1,0.3-2.5-0.7-3.3c-0.7-0.5-1.6-0.4-2.4-0.3
				c-0.9,1.1-1.4,2.4-2.3,3.5"/>
			<g>
				<path fill="#D9D4C7" d="M35.4,102.9c-0.8-0.7-1.1-2.1-0.4-3c0.3,0.1,0.7,0.1,1,0.1c-0.1,0.8,0,2.3,1.1,2.2
					c-0.1,0.3-0.1,0.6-0.2,0.9c0.3,0.1,0.5,0.2,0.8,0.4c-0.1,0.2-0.2,0.3-0.3,0.5c1.1,0.6,2.4,0.7,3.6,0.8c1.5,0,3.1,0.2,4.5,0.6
					c-1.8,1-4,1.4-6.1,1C37.7,105.9,36.7,104.2,35.4,102.9z"/>
			</g>
			<polygon fill="#F75A53" points="28.9,61.1 38.8,86.1 50.1,87.5 71.5,68.5 78.7,74.6 100,94.6 100,120 59,130.6 -2.1,124.2 
				-25.4,85.8 			"/>
		</g>
	</g>
	<circle fill="none" stroke="#FFB52E" stroke-width="2" stroke-miterlimit="10" cx="52" cy="50" r="40.2"/>
</g>
</svg>
