<?xml version="1.0" encoding="utf-8"?>
<!-- Generator: Adobe Illustrator 18.1.1, SVG Export Plug-In . SVG Version: 6.00 Build 0)  -->
<svg version="1.1" id="Layer_1" xmlns="http://www.w3.org/2000/svg" xmlns:xlink="http://www.w3.org/1999/xlink" x="0px" y="0px"
	 viewBox="0 0 361.4 100" enable-background="new 0 0 361.4 100" xml:space="preserve">
<g>
	<path fill="#FFFFFF" d="M106.4,46.3l9.9-14.2c0.2-0.3,0.4-0.6,0.6-0.7l0.3-0.3V31c-0.1,0-0.2,0-0.4,0c-0.2,0-0.5,0.1-0.8,0.1h-6.2
		v3.1h-3.2v-6.1h15.2v2.4l-9.9,14.2c-0.2,0.3-0.4,0.5-0.6,0.7l-0.3,0.3v0.1l0.4-0.1c0.2,0,0.5,0,0.8,0h6.6v-3.2h3.2v6.2h-15.7V46.3z
		"/>
	<path fill="#FFFFFF" d="M126.9,30.9h-2.5v-2.9h8.8v2.9h-2.5v10c0,1.2,0.3,2.2,0.7,2.9c0.7,1.2,2.1,1.8,3.9,1.8s3.1-0.6,3.9-1.9
		c0.5-0.8,0.7-1.8,0.7-2.9v-9.9h-2.5v-2.9h8.7v2.9h-2.5v10c0,2-0.6,3.9-1.5,5.2c-1.5,2-4.1,2.9-6.8,2.9c-2.9,0-5.4-1-6.8-2.9
		c-1.1-1.4-1.5-3.1-1.5-5.2V30.9z"/>
	<path fill="#FFFFFF" d="M148.5,46.3l9.9-14.2c0.2-0.3,0.4-0.6,0.6-0.7l0.3-0.3V31c-0.1,0-0.2,0-0.4,0c-0.2,0-0.5,0.1-0.8,0.1h-6.2
		v3.1h-3.2v-6.1h15.2v2.4L154,44.7c-0.2,0.3-0.4,0.5-0.6,0.7l-0.3,0.3v0.1l0.4-0.1c0.2,0,0.5,0,0.8,0h6.6v-3.2h3.2v6.2h-15.7V46.3z"
		/>
	<path fill="#FFFFFF" d="M169,30.9h-2.5v-2.9h8.8v2.9h-2.5v10c0,1.2,0.3,2.2,0.7,2.9c0.7,1.2,2.1,1.8,3.9,1.8c1.7,0,3.1-0.6,3.9-1.9
		c0.5-0.8,0.7-1.8,0.7-2.9v-9.9h-2.5v-2.9h8.7v2.9h-2.5v10c0,2-0.6,3.9-1.5,5.2c-1.5,2-4.1,2.9-6.8,2.9c-2.9,0-5.4-1-6.8-2.9
		c-1.1-1.4-1.5-3.1-1.5-5.2V30.9z"/>
	<path fill="#FFFFFF" d="M196.7,45.8h1.9l6.2-17.8h4.3l6.2,17.8h1.9v2.8h-7.7v-2.8h2l-1.3-3.9h-6.5l-1.3,3.9h2v2.8h-7.7V45.8z
		 M209.3,39l-1.9-5.8l-0.3-1.3c0-0.2-0.1-0.4-0.1-0.5h-0.1l-0.1,0.5c-0.1,0.3-0.1,0.7-0.3,1.3l-2,5.8H209.3z"/>
	<path fill="#FFFFFF" d="M219,45.8h2.5V30.9H219v-2.9h6.3l8.7,13.3c0.2,0.3,0.4,0.8,0.5,1.1l0.2,0.6h0.1l-0.1-0.7
		c0-0.4-0.1-0.9-0.1-1.2V30.9h-2.6v-2.9h8.8v2.9h-2.5v17.7h-3.8l-8.7-13.2c-0.2-0.3-0.4-0.8-0.5-1.1l-0.2-0.6h-0.1l0.1,0.7
		c0,0.4,0.1,0.9,0.1,1.2v10.2h2.6v2.8H219V45.8z"/>
	<path fill="#FFFFFF" d="M243.5,45.8h2.5V30.9h-2.5v-2.9h8.9c1.7,0,2.9,0.1,4.3,0.5c4,1.2,6.7,4.8,6.7,9.8c0,4.9-2.4,8.4-6.4,9.7
		c-1.4,0.5-2.8,0.6-4.6,0.6h-8.9V45.8z M252.3,45.6c1.3,0,2.3-0.1,3.4-0.5c2.3-1,3.8-3.3,3.8-6.7c0-3.5-1.5-5.9-4-6.8
		c-1-0.4-2-0.5-3.2-0.5h-2.5v14.5H252.3z"/>
	<path fill="#FFFFFF" d="M273.5,46.3l9.9-14.2c0.2-0.3,0.4-0.6,0.6-0.7l0.3-0.3V31c-0.1,0-0.2,0-0.4,0c-0.2,0-0.5,0.1-0.8,0.1h-6.2
		v3.1h-3.2v-6.1h15.2v2.4l-9.9,14.2c-0.2,0.3-0.4,0.5-0.6,0.7l-0.3,0.3v0.1l0.4-0.1c0.2,0,0.5,0,0.8,0h6.6v-3.2h3.2v6.2h-15.7V46.3z
		"/>
	<path fill="#FFFFFF" d="M291,45.8h1.9l6.2-17.8h4.3l6.2,17.8h1.9v2.8h-7.7v-2.8h2l-1.3-3.9h-6.5l-1.3,3.9h2v2.8H291V45.8z
		 M303.5,39l-1.9-5.8l-0.3-1.3c0-0.2-0.1-0.4-0.1-0.5h-0.1l-0.1,0.5c-0.1,0.3-0.1,0.7-0.3,1.3l-2,5.8H303.5z"/>
	<path fill="#FFFFFF" d="M313.3,46.3l9.9-14.2c0.2-0.3,0.4-0.6,0.6-0.7l0.3-0.3V31c-0.1,0-0.2,0-0.4,0c-0.2,0-0.5,0.1-0.8,0.1h-6.2
		v3.1h-3.2v-6.1h15.2v2.4l-9.9,14.2c-0.2,0.3-0.4,0.5-0.6,0.7l-0.3,0.3v0.1l0.4-0.1c0.2,0,0.5,0,0.8,0h6.6v-3.2h3.2v6.2h-15.7V46.3z
		"/>
	<path fill="#FFFFFF" d="M330.7,45.8h1.9l6.2-17.8h4.3l6.2,17.8h1.9v2.8h-7.7v-2.8h2l-1.3-3.9h-6.5l-1.3,3.9h2v2.8h-7.7V45.8z
		 M343.3,39l-1.9-5.8l-0.3-1.3c0-0.2-0.1-0.4-0.1-0.5h-0.1l-0.1,0.5c-0.1,0.3-0.1,0.7-0.3,1.3l-2,5.8H343.3z"/>
	<path fill="#FFFFFF" d="M106,71.5h1.8V59.8H106v-1.2h6.4c0.9,0,1.7,0.1,2.4,0.4c1.4,0.6,2.3,2,2.3,3.8c0,1.9-1,3.4-2.6,4
		c-0.7,0.2-1.3,0.3-2.1,0.3h-3.2v4.4h1.8v1.2H106V71.5z M112.3,65.9c0.7,0,1.2-0.1,1.7-0.3c1-0.4,1.7-1.4,1.7-2.8
		c0-1.3-0.5-2.2-1.5-2.7c-0.5-0.2-1.2-0.3-1.9-0.3h-3v6.1H112.3z"/>
	<path fill="#FFFFFF" d="M119.9,63.7h-1.8v-1.1h3.2v6.1c0,1.6,0.2,3,2.2,3c2.3,0,3.7-2.1,3.7-4.3v-3.7h-1.8v-1.1h3.2v8.5
		c0,0.3,0.1,0.4,0.4,0.4h1.1v1.1h-1.7c-0.9,0-1.2-0.3-1.2-1.1V71c0-0.2,0-0.4,0-0.5v-0.2h0c-0.3,0.7-1.5,2.6-4,2.6
		c-2.3,0-3.3-1.3-3.3-3.9V63.7z"/>
	<path fill="#FFFFFF" d="M133,75.5V64.2c0-0.3-0.1-0.4-0.4-0.4h-1.4v-1.1h1.9c0.9,0,1.2,0.4,1.2,1.1v0.1c0,0.2,0,0.4,0,0.5l0,0.2h0
		c0.2-0.4,0.4-0.7,0.7-1c0.5-0.5,1.4-1,2.8-1c2.7,0,4.4,2.2,4.4,5.3c0,3.2-1.9,5.3-4.5,5.3c-1.2,0-2-0.5-2.6-1
		c-0.3-0.3-0.6-0.6-0.8-1h0l0,0.2c0,0.2,0,0.4,0,0.6v3.8h1.7v1.1h-4.8v-1.1H133z M137.5,71.7c1.8,0,3.3-1.5,3.3-4c0-2.5-1.3-4-3.2-4
		c-1.7,0-3.2,1.2-3.2,4.1C134.3,69.7,135.5,71.7,137.5,71.7z"/>
	<path fill="#FFFFFF" d="M145.5,75.5V64.2c0-0.3-0.1-0.4-0.4-0.4h-1.4v-1.1h1.9c0.9,0,1.2,0.4,1.2,1.1v0.1c0,0.2,0,0.4,0,0.5l0,0.2
		h0c0.2-0.4,0.4-0.7,0.7-1c0.5-0.5,1.4-1,2.8-1c2.7,0,4.4,2.2,4.4,5.3c0,3.2-1.9,5.3-4.5,5.3c-1.2,0-2-0.5-2.6-1
		c-0.3-0.3-0.6-0.6-0.8-1h0l0,0.2c0,0.2,0,0.4,0,0.6v3.8h1.7v1.1h-4.8v-1.1H145.5z M150,71.7c1.8,0,3.3-1.5,3.3-4c0-2.5-1.3-4-3.2-4
		c-1.7,0-3.2,1.2-3.2,4.1C146.8,69.7,147.9,71.7,150,71.7z"/>
	<path fill="#FFFFFF" d="M161.5,62.4c2.8,0,4.2,2.1,4.2,4.6c0,0.1,0,0.3,0,0.4l0,0.2h-7.7c0.1,2.6,1.8,4,3.9,4
		c0.9,0,1.7-0.3,2.2-0.6c0.3-0.2,0.6-0.4,0.8-0.6l0.6,1c-0.3,0.3-0.6,0.5-1,0.7c-0.6,0.4-1.6,0.7-2.7,0.7c-3,0-5.3-2.2-5.3-5.3
		C156.5,64.3,158.8,62.4,161.5,62.4z M164.3,66.6c-0.1-2.1-1.4-3.1-2.8-3.1c-1.7,0-3.1,1.1-3.5,3.1H164.3z"/>
	<path fill="#FFFFFF" d="M168.8,63.7H167v-1.1h1.8v-2.8h1.3v2.8h2.5v1.1h-2.5v5.2c0,2.3,1.5,2.7,2.3,2.7c0.2,0,0.3,0,0.3,0
		c0.1,0,0.1,0,0.1,0v1.2c-0.1,0-0.1,0-0.2,0c-0.1,0-0.2,0-0.4,0c-1.2,0-3.5-0.4-3.5-3.7V63.7z"/>
	<path fill="#FFFFFF" d="M179.5,71.5h1.8V59.8h-1.8v-1.2h6.4c0.9,0,1.7,0.1,2.4,0.4c1.4,0.6,2.3,2,2.3,3.8c0,1.9-1,3.4-2.6,4
		c-0.7,0.2-1.3,0.3-2.1,0.3h-3.2v4.4h1.8v1.2h-5.1V71.5z M185.8,65.9c0.7,0,1.2-0.1,1.7-0.3c1-0.4,1.7-1.4,1.7-2.8
		c0-1.3-0.5-2.2-1.5-2.7c-0.5-0.2-1.2-0.3-1.9-0.3h-3v6.1H185.8z"/>
	<path fill="#FFFFFF" d="M197.9,66.5h0.7v-0.4c0-1.9-1-2.5-2.4-2.5c-0.9,0-1.6,0.2-2.1,0.5c-0.3,0.1-0.6,0.3-0.8,0.5l-0.6-1
		c0.3-0.2,0.6-0.4,1-0.6c0.6-0.3,1.5-0.6,2.7-0.6c2.5,0,3.7,1.3,3.7,3.8v5c0,0.3,0.1,0.4,0.4,0.4h1.1v1.1h-1.6
		c-0.9,0-1.2-0.4-1.2-1.1v-0.2c0-0.2,0-0.4,0-0.6c0-0.1,0-0.1,0-0.2h0c-0.2,0.4-0.4,0.8-0.8,1.1c-0.5,0.6-1.4,1.2-2.7,1.2
		c-1.7,0-3.4-0.9-3.4-3C191.9,66.6,196.2,66.5,197.9,66.5z M195.4,71.8c2,0,3.2-2,3.2-3.8v-0.5H198c-0.8,0-4.7-0.1-4.7,2.2
		C193.3,70.8,194,71.8,195.4,71.8z"/>
	<path fill="#FFFFFF" d="M203,71.5h1.6v-7.4c0-0.3-0.1-0.4-0.4-0.4h-1.4v-1.1h1.9c0.9,0,1.2,0.3,1.2,1.1v0.7c0,0.2,0,0.4,0,0.5
		c0,0.1,0,0.2,0,0.2h0c0.5-1.5,1.6-2.7,3.2-2.7c0.1,0,0.3,0,0.4,0l0.2,0v1.3c-0.1,0-0.1,0-0.2,0c-0.1,0-0.2,0-0.4,0
		c-2.3,0-3.2,2.5-3.2,4.5v3.1h1.6v1.1H203V71.5z"/>
	<path fill="#FFFFFF" d="M211,71.5h1.6v-7.4c0-0.3-0.1-0.4-0.4-0.4h-1.4v-1.1h1.9c0.9,0,1.2,0.3,1.2,1.1v0.7c0,0.2,0,0.4,0,0.5
		c0,0.1,0,0.2,0,0.2h0c0.5-1.5,1.6-2.7,3.2-2.7c0.1,0,0.3,0,0.4,0l0.2,0v1.3c-0.1,0-0.1,0-0.2,0c-0.1,0-0.2,0-0.4,0
		c-2.3,0-3.2,2.5-3.2,4.5v3.1h1.6v1.1H211V71.5z"/>
	<path fill="#FFFFFF" d="M224.2,62.4c2.9,0,5.3,2.3,5.3,5.2c0,3-2.4,5.3-5.3,5.3c-2.9,0-5.3-2.3-5.3-5.3
		C218.9,64.6,221.3,62.4,224.2,62.4z M224.2,71.7c2.2,0,3.9-1.8,3.9-4.1c0-2.3-1.8-4-3.9-4c-2.1,0-3.9,1.7-3.9,4
		C220.3,69.9,222,71.7,224.2,71.7z"/>
	<path fill="#FFFFFF" d="M232.6,63.7h-1.8v-1.1h1.8v-2.8h1.3v2.8h2.5v1.1h-2.5v5.2c0,2.3,1.5,2.7,2.3,2.7c0.2,0,0.3,0,0.3,0
		c0.1,0,0.1,0,0.1,0v1.2c-0.1,0-0.1,0-0.2,0c-0.1,0-0.2,0-0.4,0c-1.2,0-3.5-0.4-3.5-3.7V63.7z"/>
	<path fill="#FFFFFF" d="M242.4,71.5h1.4l4.7-12.9h1.5l4.7,12.9h1.4v1.2h-4.5v-1.2h1.6l-1.3-3.6h-5.5l-1.3,3.6h1.6v1.2h-4.5V71.5z
		 M251.7,66.7l-2.1-5.8c-0.1-0.2-0.1-0.5-0.2-0.6l-0.1-0.3h-0.1c0,0.1,0,0.2,0,0.3c-0.1,0.2-0.1,0.4-0.2,0.6l-2.1,5.8H251.7z"/>
	<path fill="#FFFFFF" d="M258.2,59.7h-1.8v-1.1h3.2v5c0,0.2,0,0.4,0,0.6l0,0.2h0c0.2-0.4,0.4-0.7,0.8-1c0.5-0.5,1.4-1,2.7-1
		c2.7,0,4.4,2.2,4.4,5.3c0,3.2-1.9,5.3-4.5,5.3c-1.2,0-2-0.5-2.6-1c-0.3-0.3-0.6-0.6-0.8-1h0l0,0.2c0,0.2,0,0.4,0,0.6v1h-1.3V59.7z
		 M262.7,71.7c1.8,0,3.3-1.5,3.3-4c0-2.5-1.3-4-3.2-4c-1.7,0-3.3,1.2-3.3,4.1C259.5,69.7,260.6,71.7,262.7,71.7z"/>
	<path fill="#FFFFFF" d="M275.2,66.5h0.7v-0.4c0-1.9-1-2.5-2.4-2.5c-0.9,0-1.6,0.2-2.1,0.5c-0.3,0.1-0.6,0.3-0.8,0.5l-0.6-1
		c0.3-0.2,0.6-0.4,1-0.6c0.6-0.3,1.5-0.6,2.7-0.6c2.5,0,3.7,1.3,3.7,3.8v5c0,0.3,0.1,0.4,0.4,0.4h1.1v1.1h-1.6
		c-0.9,0-1.2-0.4-1.2-1.1v-0.2c0-0.2,0-0.4,0-0.6c0-0.1,0-0.1,0-0.2h0c-0.2,0.4-0.4,0.8-0.8,1.1c-0.5,0.6-1.4,1.2-2.7,1.2
		c-1.7,0-3.4-0.9-3.4-3C269.1,66.6,273.5,66.5,275.2,66.5z M272.7,71.8c2,0,3.2-2,3.2-3.8v-0.5h-0.6c-0.8,0-4.7-0.1-4.7,2.2
		C270.5,70.8,271.3,71.8,272.7,71.8z"/>
	<path fill="#FFFFFF" d="M280.2,69.5h1.2v0.7c0,1,1.5,1.5,2.6,1.5c1.3,0,2.4-0.5,2.4-1.6c0-1.2-1.3-1.6-2.7-2.1
		c-1.5-0.6-3.1-1.2-3.1-3c0-1.8,1.8-2.7,3.5-2.7c1.4,0,3.3,0.6,3.3,2v1.2h-1.2v-0.7c0-0.7-1-1.2-2.1-1.2c-1.1,0-2.1,0.5-2.1,1.5
		c0,1.1,1.2,1.6,2.5,2c1.6,0.5,3.3,1.2,3.3,3c0,1.7-1.6,2.8-3.8,2.8c-1.9,0-3.8-0.9-3.8-2.4V69.5z"/>
	<path fill="#FFFFFF" d="M289.6,69.5h1.2v0.7c0,1,1.5,1.5,2.6,1.5c1.3,0,2.4-0.5,2.4-1.6c0-1.2-1.3-1.6-2.7-2.1
		c-1.5-0.6-3.1-1.2-3.1-3c0-1.8,1.8-2.7,3.5-2.7c1.4,0,3.3,0.6,3.3,2v1.2h-1.2v-0.7c0-0.7-1-1.2-2.1-1.2c-1.1,0-2.1,0.5-2.1,1.5
		c0,1.1,1.2,1.6,2.5,2c1.6,0.5,3.3,1.2,3.3,3c0,1.7-1.6,2.8-3.8,2.8c-1.9,0-3.8-0.9-3.8-2.4V69.5z"/>
	<path fill="#FFFFFF" d="M304.9,66.5h0.7v-0.4c0-1.9-1-2.5-2.4-2.5c-0.9,0-1.6,0.2-2.1,0.5c-0.3,0.1-0.6,0.3-0.8,0.5l-0.6-1
		c0.3-0.2,0.6-0.4,1-0.6c0.6-0.3,1.5-0.6,2.7-0.6c2.5,0,3.7,1.3,3.7,3.8v5c0,0.3,0.1,0.4,0.4,0.4h1.1v1.1h-1.6
		c-0.9,0-1.2-0.4-1.2-1.1v-0.2c0-0.2,0-0.4,0-0.6c0-0.1,0-0.1,0-0.2h0c-0.2,0.4-0.4,0.8-0.8,1.1c-0.5,0.6-1.4,1.2-2.7,1.2
		c-1.7,0-3.4-0.9-3.4-3C298.8,66.6,303.2,66.5,304.9,66.5z M302.4,71.8c2,0,3.2-2,3.2-3.8v-0.5H305c-0.8,0-4.7-0.1-4.7,2.2
		C300.2,70.8,301,71.8,302.4,71.8z"/>
	<path fill="#FFFFFF" d="M314.5,62.4c1.2,0,2,0.5,2.5,1c0.3,0.3,0.6,0.6,0.7,1h0c0-0.1,0-0.1,0-0.2c0-0.1,0-0.3,0-0.6v-3.8h-1.8
		v-1.1h3.2v12.5c0,0.3,0.1,0.4,0.4,0.4h1.1v1.1H319c-0.9,0-1.2-0.4-1.2-1.1v-0.2c0-0.2,0-0.3,0-0.5l0-0.2h0
		c-0.2,0.4-0.4,0.7-0.8,1.1c-0.6,0.5-1.4,1.1-2.8,1.1c-2.7,0-4.4-2.2-4.4-5.3C309.9,64.4,311.8,62.4,314.5,62.4z M314.5,71.7
		c1.7,0,3.3-1.2,3.3-4c0-2.1-1-4-3.2-4c-1.8,0-3.3,1.5-3.3,4C311.3,70.1,312.6,71.7,314.5,71.7z"/>
	<path fill="#FFFFFF" d="M327.5,62.4c2.9,0,5.3,2.3,5.3,5.2c0,3-2.4,5.3-5.3,5.3c-2.9,0-5.3-2.3-5.3-5.3
		C322.2,64.6,324.6,62.4,327.5,62.4z M327.5,71.7c2.2,0,3.9-1.8,3.9-4.1c0-2.3-1.8-4-3.9-4c-2.1,0-3.9,1.7-3.9,4
		C323.6,69.9,325.4,71.7,327.5,71.7z"/>
	<path fill="#FFFFFF" d="M334.8,71.5h1.6v-7.4c0-0.3-0.1-0.4-0.4-0.4h-1.4v-1.1h1.9c0.9,0,1.2,0.3,1.2,1.1v0.7c0,0.2,0,0.4,0,0.5
		c0,0.1,0,0.2,0,0.2h0c0.5-1.5,1.6-2.7,3.2-2.7c0.1,0,0.3,0,0.4,0l0.2,0v1.3c-0.1,0-0.1,0-0.2,0c-0.1,0-0.2,0-0.4,0
		c-2.3,0-3.2,2.5-3.2,4.5v3.1h1.6v1.1h-4.5V71.5z"/>
	<path fill="#FFFFFF" d="M342.6,69.5h1.2v0.7c0,1,1.5,1.5,2.6,1.5c1.3,0,2.4-0.5,2.4-1.6c0-1.2-1.3-1.6-2.7-2.1
		c-1.5-0.6-3.1-1.2-3.1-3c0-1.8,1.8-2.7,3.5-2.7c1.4,0,3.3,0.6,3.3,2v1.2h-1.2v-0.7c0-0.7-1-1.2-2.1-1.2c-1.1,0-2.1,0.5-2.1,1.5
		c0,1.1,1.2,1.6,2.5,2c1.6,0.5,3.3,1.2,3.3,3c0,1.7-1.6,2.8-3.8,2.8c-1.9,0-3.8-0.9-3.8-2.4V69.5z"/>
</g>
<g>
	<polygon fill="#FDC34B" points="52.8,79.1 54,80 54.1,81.8 54.3,82.9 56.1,82.9 57.3,81.3 58.9,81.8 60.3,81.5 62.8,80.1 
		64.3,79.9 64.9,78.1 64.9,75.4 65.4,74.5 63.4,71.2 57.5,71.4 51.7,75.6 	"/>
	<polygon fill="#FDC34B" points="20.8,82.8 22.1,84.8 25.6,86.2 27.6,88.8 27.6,91.5 27,93 27.6,94.8 29.7,94.6 30.4,94.2 
		32.3,94.3 34,94.1 36.2,92.2 36.8,90.6 37.3,89.9 40.1,89.4 41.3,88.2 41.7,86.2 40.8,85.3 39.8,84.7 38,80.8 28.4,79.2 22.5,79.9 
			"/>
	<path fill="#FFFFFF" d="M10.9,23.6c1.3-0.3,2.7-0.7,4-0.9c-0.3,0.7-0.6,1.4-0.9,2.1c-1.1,0-2.1,0.4-3.1,0.7c0.9-0.5,1.9-1,2.9-1.3
		c0-0.3,0-0.6-0.3-0.7C12.6,23.2,11.7,23.6,10.9,23.6z"/>
	<path fill="#FFFFFF" d="M11.2,31.5c-0.1-0.2,0.3-0.6,0.5-0.3C11.8,31.5,11.4,31.7,11.2,31.5z"/>
	<path fill="#1D1411" d="M31.1,7.8c1.3-1.6,2.3-3.7,4.4-4.4c-1.2,1.5-2.6,2.9-3.6,4.5c1.4-0.8,2.7-1.6,4-2.5c0.2-0.1,0.7-0.6,0.8,0
		c-1.1,0.8-2.3,1.7-3.2,2.7c0.1,0,0.4,0,0.6,0c0.8-0.8,1.7-1.5,2.8-1.9c-0.7,0.9-1.6,1.7-2.5,2.4c0.3-0.2,0.6-0.3,0.9-0.4
		c0.1,0.1,0.3,0.1,0.5,0.2c1.2-1.2,2.5-2.6,4.3-3c-1.1,1.4-2.7,2.3-3.9,3.6c1.3-0.7,2.6-1.2,4-1.7c0.5-0.2,1.1-0.4,1.7-0.5
		c-0.2,0.5-0.8,0.6-1.1,1c1.3-0.6,2.6-1.2,4-1.2c-1.5,0.8-3.2,1.2-4.6,2.2c0.9-0.2,1.8-0.7,2.7-0.6l0.2,0.2c-1.1,0.5-2.3,1-2.9,2.2
		c1.5-1,3.4-1.8,5.2-1.2c-1.1,0.6-2.3,0.9-3.4,1.3c0.8,0,1.6,0,2.4,0c0.1,0.1,0.3,0.2,0.5,0.3c-0.8,0.5-1.9,0.5-2.8,1
		c0.1,0.1,0.3,0.3,0.4,0.4c1.5-0.4,3.1-0.6,4.7-0.8c0.8-0.1,1.5,0.1,2.2,0.3c-2,0.4-4,0.3-6,0.8c0.9,0,1.9,0.1,2.8,0.4
		c0.3,0.2-0.1,0.5-0.4,0.5c-0.7,0.1-1.5,0.3-2.1,0.7c0.2,0.1,0.5,0.3,0.7,0.3c1.2,0,2.4-0.1,3.6,0c0.6,0,1.2,0.3,1.6,0.7
		c-0.1,0-0.3-0.1-0.4-0.1c-1.3,0.3-2.5,0.2-3.8,0.2c0.9,0.3,1.9,0.6,2.8,1c0.4,0.2,0.1,0.7-0.3,0.6c-0.9-0.1-1.9-0.2-2.8,0
		c0.6,0.4,1.4,0.3,2,0.6c1.4,0.3,2.8,0.8,3.5,2.1c-1-0.5-2.1-0.7-3.2-1.1c0.6,0.5,1.3,1.1,1.7,1.8c-0.2,0.1-0.4,0.4-0.6,0.3
		c-0.6-0.3-1.3-0.5-2.1-0.5c1.2,0.5,2.2,1.3,3.2,2.1c0.7,0.6,1.1,1.5,1.1,2.4c-0.2-0.4-0.5-0.8-0.8-1.1c-0.8-0.7-1.6-1.6-2.6-2
		c0.5,0.8,1.4,1.5,1.3,2.5c0.8,0.9,1.6,1.8,1.6,3c-0.1,1.5,2,2.3,1.7,3.9c0.4,0.4,0.9,0.9,1.1,1.5c0.2,0.5,0.2,1.1,0.3,1.6
		c0.7-1.5,1.6-2.9,2.9-4c0.6-0.4,1,0.4,1,0.9c0.7-0.8,1.6-1.5,2.6-2c0.4-0.2,1-0.1,1,0.4c-0.3,1.1-0.9,2.1-1.4,3.2
		c0.9-0.8,1.8-1.6,3-1.9c0.3-0.1,0.9-0.1,0.9,0.3c0.2,0.6-0.4,1.1-0.8,1.5c-0.9,1-1.6,2.1-2.3,3.2c1-1,2.2-2,3.6-2.5
		c0.5-0.1,1.3-0.2,1.3,0.5c-0.1,0.7-0.8,1.1-1.3,1.5c1.2-0.8,2.5-1.5,3.9-1.4c0.3-0.1,0.5,0.2,0.7,0.4c-1,1.4-2.7,2.2-3.5,3.8
		c1.1-0.7,2.5-1.3,3.8-1.1c0.5,0.1,0.9,0.7,0.6,1.1c-0.4,0.5-1.1,0.6-1.6,0.9c-1,0.4-1.8,1.2-2.7,1.8c1-0.4,2.1-0.5,3.1-0.4
		c0.4,0,0.5,0.6,0.2,0.8c-0.8,0.5-1.7,0.9-2.4,1.6c1.9-0.8,4.1-0.9,6-0.2c0.4,0.2,0.8,0.4,0.9,0.8c0,0.5-0.5,0.7-0.8,1
		c-1.2,0.6-2.4,1-3.5,1.8c0.9,0,1.8,0.1,2.5,0.7c0.3,0.3,0.3,0.9-0.2,1.1c-0.8,0.4-1.8,0.6-2.7,0.7c0.6,0.2,1.3,0.4,1.8,0.9
		c0.4,0.3,0.1,0.8-0.3,0.9c-1.1,0.4-2.2,0.6-3.3,1c-1.5,0.6-2.9,1.4-4.3,2.1c1.1,0.6,2.1,1.4,3,2.2c0.8,0.8,1.7,1.5,2.4,2.4
		c0.2,0.2,0.1,0.7-0.3,0.6c-0.6-0.2-1.2-0.5-1.8-0.7c1.1,1.1,2.3,2.2,3.2,3.5c0.5,0.6,0.6,1.4,0.8,2.2c-0.6-1-1.7-1.6-2.7-2
		c1.2,1.2,1.9,2.8,2.8,4.3c0,0.2,0,0.5,0.1,0.7c-0.7,0.1-1-0.5-1.3-1c-0.9-0.9-2.2-1.4-3.4-1.8c1.1,1.3,2.4,2.5,2.9,4.2
		c0.1,0.5,0.5,1,0.5,1.6c-0.2,0.1-0.5,0.2-0.7,0.2c-0.8-0.6-1.5-1.2-2.4-1.7c0.9,1.2,2,2.5,2,4.1c-0.1,0.2-0.5,0.3-0.7,0.1
		c-0.3-0.5-0.6-0.9-1-1.3c0.5,0.9,1.1,1.9,1.1,3c0,0.3-0.5,0.8-0.6,0.4c-0.1-0.8-0.1-1.6-0.5-2.2c-0.3-0.6-0.7-1.3-0.7-2
		c0.4,0.1,0.7,0.3,1.1,0.5c-0.3-1-1-1.8-1.5-2.7c-0.1-0.2-0.4-0.9,0.1-0.7c1.1,0.3,2,1.1,3,1.7c-0.5-1.5-1.3-2.9-2.4-4.1
		c-0.3-0.5-0.9-0.9-0.8-1.5c0.4-0.1,0.8,0.1,1.1,0.2c1,0.3,1.9,0.7,2.8,1.3c-0.7-1.3-1.6-2.6-2.4-3.8c0.8,0,1.5,0.4,2.2,0.6
		c-1-1.4-2.4-2.5-3.5-3.9c-0.3-0.3-0.3-0.7-0.3-1.1c0.7,0.1,1.3,0.4,1.9,0.7c-1.4-1.4-2.9-2.6-4.4-3.9c-0.9,0.4-1.9,0.9-2.8,1.3
		c0.9-0.8,1.8-1.4,2.8-2.1c0.4-0.2,0.8-0.5,1.2-0.7c1.3-0.7,2.6-1.4,4-1.8c0.8-0.2,1.7-0.4,2.5-0.7c-0.8-0.5-1.7-0.6-2.7-0.8
		c-0.1-0.2-0.2-0.3-0.2-0.5c1.3-0.7,2.9-0.6,4.2-1.2c-0.9-0.8-2-0.5-3-0.4c-0.4,0.1-0.6-0.4-0.3-0.6c1.4-1.3,3.2-2,4.8-2.9
		c-2.4-1.1-5.4-0.7-7.4,1c-0.4-0.1-0.5-0.4-0.4-0.7c0.9-1,1.9-1.9,3-2.7c-0.8,0-1.6,0.1-2.2,0.5c-0.4,0.2-0.8,0.6-1.3,0.4
		c0-0.1,0-0.3,0.1-0.4c1.3-1.7,3.3-2.6,4.9-3.9c-0.8,0-1.6,0-2.3,0.3c-0.8,0.3-1.4,0.9-2.1,1.3c-0.5,0.1-0.4-0.5-0.3-0.8
		c0.5-1.7,2.1-2.8,3.3-3.9c-2,0.3-3.6,1.6-5,2.9c-0.3,0.2-0.7,0.6-1,0.2c0-0.5,0.3-0.9,0.6-1.3c0.7-0.9,1.6-1.7,2.4-2.6
		c-1.7,0.4-2.9,1.7-4.1,2.8c-0.6,0.5-1,1.1-1.6,1.6c-0.3,0.2-0.6-0.2-0.4-0.5c0.6-1.4,1.6-2.5,2.4-3.8c0.6-1,1.5-1.9,2.1-2.9
		c-1.3,0.5-2.6,1.3-3.6,2.2c-0.3,0.2-0.5,0.9-1,0.7c-0.2-0.4,0.1-0.9,0.2-1.3c0.5-1,1.1-2,1.6-3c-1.6,0.9-2.8,2.4-3.5,4.1
		c-0.2,0.4-0.9,0-0.7-0.4c0.2-0.9,0.6-1.7,0.8-2.6c-1.2,1.2-2.1,2.7-2.7,4.3c-0.2,0.5-0.4,0.9-0.6,1.4c-0.7,1.5-1.2,3.1-1.8,4.6
		c-0.1,0.4-0.3,0.8-0.6,1.1c0.1-0.7,0.3-1.3,0.4-2c0.3-1.3,0.7-2.5,1.2-3.7c0.3-1.1,1.2-2.3,0.6-3.4c-0.6-1-1.6-1.8-2.4-2.7
		C50.4,30,49.9,29.6,50,29c0.5-0.3,0.9,0.4,1.3,0.6c-0.7-0.8-1.3-1.7-1.7-2.8c0.1-0.1,0.2-0.3,0.2-0.4c-0.5-0.8-1.1-1.7-1.8-2.4
		c-0.3-0.3-0.6-0.7-0.8-1.1l0.6,0.1c-0.5-0.7-1.3-1.4-1-2.3c-0.4-0.3-1.1-0.6-1-1.2c0.7-0.1,1.4,0,2.1,0.1c-1-0.8-2-1.7-3.1-2.3
		c-0.1-0.3-0.1-0.6-0.2-0.9c0.6-0.1,1.2-0.1,1.8-0.2c-0.6-0.3-1.3-0.5-1.9-0.6c-0.3,0-0.4-0.4-0.5-0.6c-0.3-0.3-0.6-0.5-1-0.8
		c0.5-0.6,1.2-0.8,1.9-1c-1.2-0.1-2.4-0.2-3.5-0.4c0-0.1,0.1-0.2,0.1-0.3c-0.1-0.1-0.3-0.3-0.4-0.4c0.5-0.5,1.1-0.7,1.7-1
		c-1-0.1-2.1,0.1-3.1-0.1c-0.3-0.3,0-0.6,0.2-0.8c0.4-0.6,0.9-1,1.4-1.5c-1.2,0.4-2.4,0.8-3.5,1.4c0.7-0.9,1.6-1.7,2.5-2.5
		c-1.4,0.5-2.8,1-4,1.7c-0.4,0.2-0.8,0.4-1.2,0.4C34.9,9.4,35,9,35.1,8.6c-0.4,0.2-0.7,0.5-1.1,0.7c-0.4-0.2-0.7-0.5-1.1-0.7
		c0.2-0.5,0.5-0.9,0.8-1.2c-0.9,0.5-1.7,1-2.6,1.5c-0.2-0.2-0.4-0.4-0.6-0.6c0.2-0.8,0.6-1.5,1-2.2c-0.9,0.8-1.8,1.6-2.4,2.6
		c-0.1,0.1-0.2,0.4-0.5,0.4c0-0.1-0.1-0.4-0.2-0.6c-0.2,0.2-0.4,0.6-0.8,0.5c-0.1-0.7-0.1-1.4,0-2c0-0.2,0.1-0.5,0.1-0.7
		c0.1,0,0.2,0,0.3,0c-0.1,0.6-0.1,1.3,0,1.9c0.5-0.6,0.6-1.4,0.9-2.1c0.4-0.9,1-1.8,1.7-2.5c-0.7,1.5-1.2,3-1.7,4.5
		c1.2-1.3,2.5-2.6,3.9-3.6c0.2,0.3-0.1,0.6-0.3,0.8C32.1,6.1,31.5,6.9,31.1,7.8z"/>
	<path fill="#1D1411" d="M25.7,4.2c0.2,1.5,0.6,2.9,0.8,4.4c0.4-1,0.7-1.9,0.9-2.9c0.1-0.4,0.3-1,0.8-0.9c0.2,0.5,0,1-0.1,1.5
		C28,6,27.9,5.7,27.9,5.4c-0.2,0.5-0.3,1.1-0.3,1.6c-0.3,1.1-0.8,2.1-1.3,3.1c-0.3-0.3-0.5-0.7-0.7-1c-0.1,0.4,0,1.1-0.4,1.2
		c-0.4-0.3-0.6-0.8-0.9-1.2c0.1,0.6,0.2,1.1,0.2,1.7c-0.3,0.1-0.5-0.1-0.8-0.1c0,0.1,0.1,0.4,0.2,0.5c-0.4-0.2-0.9-0.4-1.3-0.7
		c-0.1,0.2-0.1,0.5-0.3,0.7c-0.7-0.1-1.2-0.4-1.8-0.7c0.3,0.5,0.7,1,1.1,1.5c-0.3,0.4-0.8,0.2-1.2,0.2c-0.8,0-1.6,0-2.4-0.1
		c0.6,0.3,1.3,0.5,1.9,1c0.1,0.3-0.2,0.5-0.5,0.5c-1,0-2-0.2-3-0.1c0.9,0.1,1.7,0.4,2.5,0.9c0.4,0.5-0.1,0.7-0.6,0.5
		c-0.6-0.1-1.3-0.1-1.9-0.1c0.2,0.4,0.8,0.9,0.5,1.4c-1.1,0.1-2.3,0.1-3.4,0.4c1.1-0.1,2.3,0,3.4,0.3c0.2,0.2,0.4,0.3,0.5,0.6
		c-0.1,0.5-0.7,0.3-1,0.3c-0.4,0-0.9,0.1-1.3,0.2c-0.1-0.1-0.2-0.2-0.3-0.3c0.5-0.1,1.1-0.2,1.6-0.3c-1.8-0.4-3.8-0.3-5.6-0.1
		c0-0.1-0.1-0.2-0.1-0.3c1.9-0.6,3.8-0.9,5.8-1.1c-1.1-0.5-2.4-0.5-3.6-0.4c-1.2,0.1-2.4,0-3.5,0.4c1.3-0.7,2.6-1.3,4.1-1.3
		c1.6,0,3.2,0,4.8,0.1c-1.3-0.7-2.8-0.9-4.3-0.9c0-0.1-0.1-0.3-0.2-0.4c1.3-0.1,2.5-0.2,3.8-0.1c0.6,0.1,1.3,0.1,1.9,0.1
		c-0.8-0.4-1.6-0.9-2.5-1c0.1-0.1,0.3-0.2,0.4-0.2c-1.9-0.1-3.7-1-5.6-0.8c0.9-0.3,1.9-0.3,2.8-0.4c2.1,0,4.1,0.8,6.1,1
		c-0.6-0.8-1.3-1.5-2.1-2.2c-0.4-0.2-0.1-0.8,0.3-0.5c1,0.5,2.1,1.1,3.1,1.5c-0.1-0.3-0.2-0.6-0.5-0.8c-0.8-0.6-1.7-1.1-2.3-1.9
		c-0.3-0.4-0.7-0.8-1.1-1.2c1.1,0.4,2.1,1.1,3.2,1.5C22,8.9,23,9.3,23.8,10c-0.2-1.2-0.3-2.4-0.5-3.6c0-0.1,0.1-0.4,0.1-0.5
		c0.2,0.1,0.4,0.3,0.4,0.5C24,7.4,24.3,8.6,25,9.4c0.1-0.7,0.2-1.4,0.4-2C25.3,6.3,25.5,5.2,25.7,4.2z"/>
	<path fill="#1D1411" d="M35.7,15.7c0.1-0.3,0.4,0,0.6,0.1c1.2,0.7,2.5,1.3,3.5,2.3c0.9,1,1.7,2.3,1.8,3.7c0.1,0.9,0.1,1.8-0.5,2.6
		c-0.4,0.4-0.9,0.6-1.3,1c0.3-0.7,0.1-1.5,0.3-2.2c0.3-1.5-0.3-2.9-1.2-4.1c-0.8-0.9-1.8-1.7-2.7-2.5C35.9,16.3,35.5,16.1,35.7,15.7
		z"/>
	<path fill="#1D1411" d="M14.5,17.6l0.2-0.2c0,0.2,0,0.4,0,0.6c-0.3,0-0.6,0.1-0.9,0.2c0.6,0.1,1.4,0,1.9,0.4
		c-1.2,0-2.4,0.1-3.5,0.5c1.1,0,2.6-0.4,3.3,0.7c-0.4,0.5-1.1,0.5-1.7,0.7c-1.1,0.2-2.1,0.6-3.1,1c1.4-0.2,2.9-0.2,4.3,0l0.1,0.3
		c-0.9,0.4-1.9,0.5-2.7,1c0.8,0,1.6-0.2,2.4-0.1c0,0,0,0.1-0.1,0.2l-0.1,0c-1.4,0.2-2.7,0.5-4,0.9c0.9-0.1,1.7-0.4,2.6-0.2
		c0.3,0.1,0.3,0.4,0.3,0.7c-1,0.3-2,0.8-2.9,1.3c1-0.3,2-0.6,3.1-0.7c0.2,0.1,0.4,0.3,0.6,0.4c-0.3,0.1-0.7,0.3-1,0.4
		c-0.2,0.1-0.5,0.3-0.6,0.4c0-0.2,0-0.4,0.1-0.5c-1.5,0.2-2.9,0.8-4.4,1.2c-0.4,0-0.3-0.5,0-0.6c1.3-0.8,2.7-1.5,4-2.2
		c-1.1,0.1-2.3,0.1-3.4,0.3c-1.2,0.4-2.2,1-3.2,1.7c1.1-1.1,2.4-2,3.8-2.5c1.3-0.4,2.6-1,3.9-1.6c-1.1,0-2.1-0.1-3.2,0.1
		c-0.6,0.1-1.2,0.3-1.8,0.2c-0.4-0.4,0.3-0.4,0.5-0.6c1.5-0.6,2.9-1.2,4.4-1.6c0.4-0.1,0.7-0.2,1.1-0.3c-1.6-0.4-3.4-0.5-4.8,0.3
		C9,20.3,8,20.7,7,21.2c1.2-0.8,2.4-1.7,3.7-2.2C12,18.5,13.3,18,14.5,17.6z"/>
	<path fill="#1D1411" d="M23.6,18.9c0.4-0.7,1.2-1.2,2-1.5c-0.1,0.3-0.3,0.6-0.5,0.8c-0.7,0.9-1,2-1.6,2.9c-1,1.4-1.5,3.2-1.3,4.9
		c0.1,0.9,0.7,1.7,1.2,2.5c0.3,0.5,0.8,0.7,1.2,1c-0.9-0.2-1.9-0.3-2.5-1.1c-1.1-1.3-1.2-3.2-0.8-4.8C21.5,21.8,22.7,20.4,23.6,18.9
		z"/>
	<path fill="#1D1411" d="M34.6,20.2c0.7-0.3,0.9,0.6,0.8,1.1c0,0.6-0.7,1-1.2,0.7C33.6,21.5,33.9,20.4,34.6,20.2z"/>
	<path fill="#1D1411" d="M27.9,22.2c0.2-0.1,0.6-0.3,0.8,0c0.3,0.6,0.2,1.8-0.7,1.8C27.1,23.9,27.2,22.5,27.9,22.2z"/>
	<g>
		<path fill="#1D1411" d="M35.6,26c0.8-0.5,2.1-0.6,2.7,0.4c1-0.1,2.1-0.2,3.2-0.1c1.7,0.3,3.4,0.9,4.7,2.1c2,1.3,3.1,3.6,3.5,5.9
			c0.1,0.8,0.3,1.7,0.3,2.5c0,0.8-0.4,1.4-0.5,2.1c-0.2,0.7-0.2,1.6-0.9,2c-0.4,0-0.8-0.2-1.2-0.3c-1.4-0.6-3-0.4-4.5-0.5
			c-2.2-0.1-4.4-0.1-6.6-0.5c-2.2-0.4-4.4-0.8-6.5-1.5c-0.4-0.1-0.8-0.3-1.2-0.4c-0.8-0.3-1.7-0.7-2.6-1c-0.8-0.3-1.6-0.8-2.4-0.8
			c-1.3-0.1-2.3-0.8-3.3-1.5c-0.4,0.7-0.7,1.5-1.2,2.1c-0.2,0.2-0.4,0.7-0.8,0.4c-0.1-0.7,0.2-1.4,0.5-2c0.6-0.9,1-1.9,1.7-2.8
			c0.2,0.1,0.4,0.3,0.5,0.4c-0.2,0.3-0.4,0.7-0.6,1.1c0.5,0.2,1,0.4,1.5,0.3c1.5-0.4,2.6-1.5,4-2.2c1.2-0.6,2.1-1.6,3.2-2.4
			c1.6-1.2,3.4-1.8,5.2-2.5C34.9,26.8,35.2,26.3,35.6,26z M35.3,27.5c-1.7,0.7-3.4,1.2-5,2.1c-1.5,0.9-2.5,2.3-4.1,3
			c-1.3,0.6-2.5,1.8-4,1.9c0.6,0.5,1.6,0.4,2.3,0.7c3.3,1.2,6.7,2.6,10.2,3.1c2.6,0.6,5.3,0.6,7.9,0.8c1.8,0.1,3.7-0.2,5.4,0.7
			c0.2,0,0.5,0.3,0.6,0c0.2-1-0.5-1.8-0.7-2.8c-0.9-2.8-2.9-5.1-5.3-7c-1.2-1-2.5-2-3.8-2.9c-0.3-0.3-0.6-0.1-0.9-0.1
			c-0.4-0.2-0.5-0.9-1-0.7C36.2,26.4,35.7,27,35.3,27.5z M39.3,27c2.7,1.7,5.4,3.7,7.4,6.3c1.1,1.4,1.7,3.1,2.2,4.7
			c0.1-0.5,0.2-0.9,0.1-1.4c-0.2-2.4-0.8-4.9-2.5-6.7c-0.7-0.4-1.1-1.1-1.8-1.4C43.2,27.4,41.2,26.9,39.3,27z"/>
	</g>
	<g>
		<path fill="#1D1411" d="M13.5,25.9c0.3,0,0.5,0.1,0.7,0.1c-0.4,0.4-0.9,0.9-1.4,1.3c-0.8,0.7-1.5,1.4-2.2,2.2
			c0.6-0.3,1.2-0.6,1.8-0.8c0.5-0.2,1.1-0.3,1.7-0.3l0,0.3C13.6,29.5,12.5,30,12,31c1.1-0.5,1.9-1.4,3.1-1.5
			c-0.1,0.1-0.3,0.2-0.4,0.3l0.2,0.2c-1.4,1.3-2.9,2.5-4.1,4c1-0.5,1.8-1.4,3-1.5c-0.1,0.8-0.8,1.4-1.2,2.1c0.7-0.4,1.4-0.9,2.3-0.8
			c-0.4,0.2-0.8,0.3-1.1,0.6c-0.4,0.3-0.8,0.8-1.1,1.2c0.1-0.1,0.3-0.2,0.4-0.3c0.1,0.1,0.2,0.2,0.4,0.3c-1.7,0.5-2.5,2.1-3.6,3.3
			c-0.6,0.7-1.2,1.4-1.8,2.1c0.7-1.2,1.2-2.4,2-3.5c0.4-0.5,0.7-1,0.9-1.6c0.4-1,1.2-1.7,1.8-2.6c-1.1,0.6-2,1.5-3.1,2.1
			c0.3-1.3,1.5-2.3,2.4-3.2c0.6-0.7,1.4-1.3,2.1-1.9c-0.7,0.3-1.2,0.8-1.8,1.3c-1.2,0.8-2.2,1.9-3.3,2.8c-0.6,0.5-1.2,0.9-1.7,1.4
			c0.6-0.7,1.1-1.4,1.7-2c0.3-0.3,0.4-0.8,0.7-1.1c0.7-0.6,1.1-1.5,1.8-2.2c0.4-0.4,1-0.8,1-1.4c-1.2,0.4-2.2,1.2-3.2,1.9l0-0.3
			c1.1-1.7,2.8-2.9,4.2-4.3c-2.9,1.1-5,3.6-6.9,5.9c0.6-1.6,1.7-3.1,3-4.2c0.9-0.8,2-1.3,2.9-2.1c0.1,0.1,0.2,0.2,0.2,0.3
			C12.9,26.1,13.2,26,13.5,25.9z M11.2,31.5c0.2,0.1,0.6,0,0.5-0.3C11.5,31,11.1,31.3,11.2,31.5z"/>
	</g>
	<g>
		<path fill="#1D1411" d="M13.6,35c0.3-0.1,0.6-0.3,0.9-0.4h0.3c-0.3,0.8-1,1.4-1.5,2c-0.6,0.8-1.2,1.6-1.8,2.4c0.6-0.5,1.3-1,2-1.4
			c0.2-0.2,0.8-0.3,0.7,0.2c-0.4,0.9-1,1.6-1.5,2.5c0.8-0.7,1.4-1.8,2.5-2c-1,2-2.5,3.7-3.3,5.8c0.8-0.8,1.6-1.6,2.5-2.2
			c0.5-0.3,1.1-0.3,1.6-0.4c-0.7,0.8-1.2,1.8-1.6,2.8c-0.3,0.9-0.6,1.7-0.8,2.6c0.6-0.7,1.2-1.4,1.8-2c0.2-0.2,0.4-0.4,0.7-0.4
			c0,0.2,0,0.5,0,0.6c-0.5,1.2-0.9,2.4-1.2,3.6c0.7-0.9,1.2-1.9,1.7-2.8c0.1,1.7-0.6,3.3-0.9,4.9c0.5-0.4,1-0.9,1.6-1.1
			c0.3,0,0.4,0.1,0.3,0.4c-0.5,1.1-1.3,1.9-1.7,3c-0.4,1.5-1.2,2.8-2.1,4.1c0.2,0,0.5,0,0.7,0c-0.5,1.1-1.5,1.9-2,3.1
			c0.7-0.1,1-0.8,1.7-1.1c-0.3,0.7-0.7,1.4-1.1,2.1c0.3,0,0.6,0.1,0.9,0.1c-0.1-0.1-0.3-0.3-0.4-0.4c0.2,0,0.5-0.1,0.7-0.1
			c0,0.8-0.5,1.4-0.9,2c-0.7,1.1-1.2,2.3-1.6,3.5c0.4-0.3,0.8-0.7,1.3-0.6c0.5-0.8,0.8-1.6,1.5-2.2c-0.3,1.1-0.9,2.1-1.2,3.1
			c0.5-0.5,0.9-1,1.5-1.3c0,1-0.5,1.9-0.9,2.8C13.7,69,13.3,70,13,70.9c0.1,0.1,0.3,0.2,0.4,0.2c0.2,0.7-0.1,1.4-0.2,2.1
			c0.6-1.2,0.9-2.7,1.7-3.8c-0.2,0.8-0.5,1.5-0.7,2.3c0.1,0.1,0.4,0.2,0.5,0.3c-0.2,1.4-0.5,2.8-0.5,4.3c0.6-0.4,0.6-1.2,1.1-1.8
			c-0.1,0.6-0.2,1.1-0.4,1.7c-0.3,1.2-0.1,2.4-0.1,3.6c0.4-0.9,0.6-2,1.5-2.6c0.9,1.4,0.4,3.1,0.6,4.6c0.2-0.3,0.4-0.5,0.6-0.8
			c0.4,0.5,0.7,1,0.9,1.5c0.3-0.8,0.4-1.7,0.7-2.6c0.1-0.4,0.7-0.7,0.9-0.3c0.5,1,0.7,2.1,1.1,3.2c0.2-0.4,0.1-1.1,0.5-1.3
			c0.8,1,1.4,2.1,2.3,3c-0.2-0.9-0.3-1.9-0.2-2.8c0.6,0.3,0.8,1,1.1,1.5c0.3,0.7,0.8,1.2,1.2,1.8c0.1-0.9-0.2-1.9,0.1-2.8
			c0.5-0.1,0.6,0.4,0.9,0.7c0.5,0.9,1.3,1.5,2.1,2.1c-0.2-0.9-0.6-1.7-0.8-2.6c-0.1-0.4,0.6-0.4,0.7-0.1c0.9,1,1.9,1.9,3.2,2.5
			c-0.4-0.9-0.8-1.8-1-2.7c0.7-0.1,1.1,0.5,1.5,0.9c1,0.9,2.2,1.5,3.4,2c-0.3-0.9-0.7-1.7-1.1-2.5c-0.1-0.2-0.4-0.7,0.1-0.7
			c1.1,0.4,1.7,1.8,3,1.9c0.8,0.1,1.5,0.6,2.2,1c0.1-1.1-0.1-2.2-0.3-3.3c-0.1-0.3,0.4-0.5,0.6-0.3c1.2,0.7,2.5,1.3,3.8,1.9
			c0.1-0.5,0.1-1.1,0.1-1.7c0-0.8-0.6-1.4-0.5-2.2c0.2-0.3,0.5-0.3,0.8-0.1c1.6,0.8,3.1,1.8,4.2,3.3c0.2-1.8-0.9-3.5-0.7-5.3
			c0.1,0,0.2,0,0.3,0c1,1.1,1.6,2.4,2.7,3.4c0.7-0.3,0.4-1.4,0.9-2c0.4,0,0.5,0.5,0.7,0.8c0.2-0.3,0.2-0.9,0.8-0.7l0,0.4
			c0,0.1-0.1,0.3-0.1,0.3c0.4,0.4,0.9,0.7,1,1.3c0.2,0.6-0.1,1.2,0,1.8c0.4,0.2,0.9,0.1,1.3,0.1c0.7-0.2,0.7-1,0.8-1.5
			c0.1-0.3,0.3-0.5,0.6-0.4c0.4,0.2,0.8,0.6,1.3,0.8c0.7,0.2,1.4,0,2-0.4c0.7-0.4,1.3-1,1.8-1.5c0.2,0,0.4,0.1,0.6,0.2
			c0,0,0.1,0,0.2,0.1c0.5-0.2,1-0.5,1.1-1.1c0.2-0.6,0.1-1.2,0-1.8c-0.1-0.7,0-1.4,0.3-2c-0.6-0.6-1.3-1.1-2-1.6
			c0.7,1,1.2,2.2,0.8,3.4c-0.1,0.4-0.6,0.3-0.8,0.1c-0.9-0.5-1.7-1.1-2.5-1.7c-0.5-0.3-1-0.6-1.4-0.8c0.2,0.5,0.4,1,0.6,1.6
			c0,0.9,0.1,2.2-0.8,2.7c-0.2-0.2-0.4-0.4-0.5-0.6c-0.7-0.6-1.4-1-2.1-1.5c0.2,0.4,0.5,0.8,0.6,1.2c0.1,0.5-0.1,0.9-0.1,1.4
			c0,0.1-0.1,0.3-0.1,0.4c-0.2,0.4-0.5,0.9-0.8,1.2c-0.7-0.6-1-1.6-1.8-2.1l-0.1-0.2c0.9,0.1,1.4,0.9,1.9,1.5c0.3-0.6,0.6-1.3,0.6-2
			c-0.2-0.7-0.8-1.3-0.8-2c0.1,0,0.3,0,0.5,0c1.1,0.5,2,1.2,3,1.9c0.1-0.5,0.2-0.9,0.2-1.4c-0.1-0.8-0.6-1.4-0.7-2.2
			c-0.1-0.5,0.6-0.6,0.9-0.4c1.4,0.6,2.6,1.7,4,2.5c0-0.5,0-1-0.1-1.4c-0.2-0.6-0.7-1.1-1-1.7c-0.1-0.7,0.8-0.5,1.2-0.3
			c1.1,0.4,1.7,1.5,2.7,2c0.6,0,0.3,0.6,0.2,0.9c-0.3-0.1-0.5-0.3-0.8-0.5c0.3,1,0.3,2.1,0.2,3.1c-0.1,0.9-0.8,1.7-1.5,2.1
			c-0.5,0.3-1.1-0.1-1.5,0.3c-1,0.7-1.9,1.6-3.2,1.5c-0.6,0-1.3-0.2-1.8-0.5c-0.2,0.8-0.9,1.4-1.7,1.5c-0.7,0-1.6,0.1-2-0.5
			c-0.4-0.9,0.4-1.9-0.1-2.8c0,0.1,0,0.4,0,0.6c-0.6-0.3-1,0.2-1.4,0.6C52.2,81.1,52,81,52,80.9c-0.1,0.2-0.2,0.5-0.5,0.5
			c-0.2-0.1-0.4-0.1-0.6-0.2c0-0.1-0.1-0.4-0.2-0.5c-0.6-0.4-1-0.9-1.4-1.4c0.1,0,0.2-0.1,0.3-0.2c-0.3-0.4-0.6-0.8-0.9-1.2
			c0.4,2,1.3,4.1,0.8,6.2c-0.4,0.2-0.7-0.3-0.7-0.6c-0.6-1.8-2.4-2.9-4-3.8c0.2,0.4,0.4,0.7,0.7,0.9l-0.3-0.1c0.2,1.1,0,2.2-0.2,3.3
			c-0.3,0-0.7-0.1-1-0.3c-1-0.7-2.1-1-3.1-1.6c0.2,1,0,2.1,0.2,3.1c0.3,0.1,0.6,0.2,0.9,0.3c0.7,1.2,0.4,2.9-0.7,3.8
			c-1,0.7-2.3,0.6-3.5,0.8c-0.2,0.1-0.2,0.4-0.3,0.6c-0.3,1.8-1.8,3.1-3.3,3.9c-1.3,0.7-2.6-0.1-3.9-0.2c-0.4,0.9-1.4,1.6-2.4,1.3
			c-0.7-0.2-1.1-1-1.1-1.7c-0.2-0.2-0.4-0.4-0.7-0.6c0.4-1,0.8-2,1.1-3c0.2-1-0.1-2-0.8-2.7c-0.6-0.6-1.3-1.2-2.1-1.7
			c-0.7-0.5-1.7-0.4-2.5-0.7c-1.1-0.9-1.6-2.3-2-3.6c-0.3,0.9-0.4,2-1.4,2.4c-0.2-0.1-0.4-0.3-0.6-0.4c0.1-0.5,0-1-0.2-1.4
			c-0.2,0.4-0.1,1.3-0.8,1.2c-0.1,0.3-0.2,0.5-0.4,0.7c-0.4-0.2-0.8-0.5-0.9-0.9c-0.2-1.3,0.2-2.5,0.3-3.8l0.2-0.3
			c-0.7,0.6-0.5,1.8-1.2,2.4c-0.7-0.3-0.4-1.4-0.5-2c-0.3,1.4-0.2,2.8-0.7,4.2c-0.6-1.7-0.2-3.6,0.3-5.3c-0.1,0-0.2,0.1-0.3,0.2
			c-0.5,0-0.3-0.6-0.2-0.9c0.4-1.6,0.3-3.2,0.7-4.8c-0.2,0.3-0.3,0.5-0.4,0.8c-0.6,2-1.1,4.1-1.7,6.1c-0.2-1.8,0.5-3.6,0.9-5.3
			c-0.3-0.9-0.1-1.7,0-2.6c-0.5,1-0.9,2.1-1.3,3.2c-0.1,0.3-0.6,0.1-0.5-0.2c0.1-0.7,0.5-1.3,0.7-2c0.5-1.5,1-3,1.7-4.4
			c0.4-0.8,0.8-1.6,1.1-2.5c-0.4,0.3-0.7,0.6-1.1,0.8c-1.1,1.7-1.5,3.8-2.1,5.7c0,0-0.1,0-0.1,0c0-0.9-0.1-1.8,0.1-2.7
			c0.3-1.2,1-2.3,1.2-3.5c-0.7,0.6-1,1.4-1.5,2l-0.2-0.1c-0.1-0.7,0.4-1.4,0.5-2.1c0.6-1.6,1.3-3.2,2.4-4.5
			c-0.1-0.1-0.2-0.2-0.3-0.3c-0.9,0.7-1.2,1.8-1.8,2.7c-0.5,1.1-1.3,2.1-1.6,3.4c-0.1-0.9-0.1-1.9,0.3-2.8c0.6-1.4,1.4-2.7,2.3-3.9
			c-0.4,0.4-0.8,0.8-1.2,1.2l-0.2-0.1l0-0.2c0.5-0.8,1-1.6,1.6-2.3c0.4-0.7,1.1-1.2,1.4-2c-0.2,0.1-0.5,0.3-0.6,0.5
			c-0.9,1.1-1.5,2.4-2.6,3.4c-0.3,0.3-0.5,0.5-0.8,0.8c0.3-0.7,0.5-1.5,1-2.1c1-1.3,1.9-2.7,2.9-4c0.4-0.5,0.8-1,1.1-1.6
			c-0.4,0.3-0.7,0.7-1,1c0.6-1.5,1.5-2.8,2.3-4.1c-0.4,0.4-0.7,0.9-1.1,1.2c-0.8,0.1-0.3-1-0.2-1.5c-0.4,1.1-0.9,2.1-1.3,3.2
			c0.2-1.6,0.8-3.1,1.3-4.6c-0.2,0.4-0.3,0.8-0.5,1.2l-0.3-0.1l-0.1-0.2c0.2-1.7,0.8-3.2,1.3-4.8c-0.8,0.9-1.7,1.8-2.2,3l-0.2,0
			l-0.1-0.2c0.2-0.9,0.5-1.7,0.7-2.6c-0.6,1.5-1.4,2.9-2,4.4c0.2-1.5,0.5-3.1,1.2-4.4c0.6-1.1,1-2.3,1.8-3.3c-1.3,0.7-2.3,1.9-3.2,3
			l-0.2,0l-0.1-0.2c0.3-1.4,1-2.6,1.8-3.8c-1.2,1.8-2.9,3.4-3.7,5.5c0.1-1.8,1.3-3.1,2-4.6c0.4-1.4,1.2-2.7,2.1-3.9
			c-1,0.7-2,1.5-3,2.2c-0.3,0.1-0.5-0.3-0.2-0.5c1.1-1.3,2-2.9,3.2-4.1C13.5,35.7,14.1,35.3,13.6,35z M21.6,82.3
			c0,0.5-0.3,1.1,0.1,1.5c0.5,0.5,1.2,0.9,1.9,1.3C22.8,84.2,22.2,83.2,21.6,82.3z M35.4,82.4c0.5,1.1,1,2.2,1.7,3.1
			c-0.3,0.3-0.7,0.2-1.1,0.1c-0.6-0.3-1.3-0.6-1.9-0.9c-0.6-0.4-1.2-0.8-1.8-1.3c0.3,0.6,0.6,1.2,0.9,1.9l-0.3,0.1l0.2,0.1
			c-0.5,0.1-0.9,0-1.3-0.1c-0.8-0.5-1.6-1-2.4-1.6c0.2,0.5,0.3,0.9,0.6,1.3c0.1,0.3,0.1,0.6,0.1,0.9c-1,0.1-1.7-0.7-2.4-1.2
			c-0.4-0.4-0.7-0.8-1.1-1.2c0,0.6,0.1,1.2,0.1,1.8c0.1,0.3-0.1,0.9-0.5,0.6c-1.1-0.8-1.7-2.1-2.2-3.4c0,1,0.4,2,0.8,2.9
			c1.5,0.4,2.8,1.4,3.6,2.7c0.2,0.8,0.2,1.7,0.2,2.6l0,0c-0.2,0.4-0.4,0.9-0.5,1.3c-0.2,0.4-0.4,0.9-0.6,1.3c0.3,0.4,0.3,1,0.9,1.1
			c0.3-0.2,0.7-0.4,1-0.6c1.3-0.5,2.7,0.1,4.1,0c1.5-0.7,2.9-2,3.2-3.6c0.1-0.4,0.3-0.8,0.6-1.1c0.3-0.2,0.5,0.1,0.8,0.3
			c0.5-0.1,1-0.2,1.5-0.3l0,0c0.4-0.1,0.9-0.1,1.2-0.5c0.5-0.7,0.9-1.6,0.5-2.4c-0.1-0.2-0.3-0.4-0.4-0.6c-0.2-0.6-0.9-1.1-1.5-1.1
			C37.6,84.5,36.5,83.3,35.4,82.4z"/>
	</g>
	<path fill="#1D1411" d="M49.7,47.6c1.3-0.1,2.6-0.1,3.8-0.1c0.6,0,0.9,0.8,0.5,1.3c-0.5,0.6-1.2,1.1-1.8,1.6
		c-1.1,0.9-2.4,1.4-3.7,2.2c0.8,0,1.9,0.1,2.3,0.9c0.3,0.6-0.3,1.2-0.8,1.5c-1.1,0.7-2.2,1.3-3.3,1.9c0.6,0.3,1.2,0.8,1.3,1.5
		c0.2,0.8-0.5,1.3-1.1,1.6c-1.3,0.8-2.8,1.1-4.2,1.6c0.6,0.1,1.4,0.4,1.6,1.1c0.2,0.6-0.2,1.2-0.6,1.6c-1,0.8-2.2,1.5-3.4,2
		c-0.8,0.4-1.7,0.4-2.6,0.8c-0.2,0.2-0.3,0.5-0.4,0.8c1,0.1,1.9,0.5,2.8,0.8c-0.7,0.2-1.3,0.5-2,0.5c-1,0-2-0.4-2.9-0.7
		c-0.4-0.1-0.7-0.3-1.1-0.4c-0.3-0.3-0.5-0.9,0-1.2c0.8-0.2,1.7,0,2.4-0.3c0.5-0.2,1-0.4,1.5-0.6c1.3-0.2,2.5-0.8,3.6-1.5
		c0.6-0.4,1.3-0.8,1.8-1.4c0-0.5-0.7-0.5-1-0.6c-0.6,0-1.9,0-1.6-1c0.6-0.5,1.4-0.7,2.2-1c1.4-0.6,3-0.8,4-1.9
		c-0.2-0.2-0.4-0.5-0.6-0.7c-0.6-0.1-1.2,0-1.8-0.1c-0.3-0.2-0.3-0.7,0-0.9c1.6-1.2,3.6-1.9,5.2-3.2c-0.9-0.4-2,0.1-2.9-0.1
		c-0.5-0.6,0.3-1,0.7-1.2c1.4-1,3-1.6,4.4-2.7c0.5-0.5,1.2-0.8,1.5-1.5c-1.5,0-2.9-0.1-4.4,0.2c-0.7,0.2-1.3,0.8-2,1
		c-1.3,0.4-2.6,0.9-3.8,1.4c-1,0.4-1.8,1-2.8,1.4c-0.3,0.1-0.8,0.2-0.9-0.2c-0.1-0.9,0.7-1.6,1.3-2.2c-1.5,1-3,2.1-4.7,2.9
		c-0.1,0.1-0.4,0.2-0.6,0.3c1-1,2.3-1.7,3.4-2.6c0.9-0.6,1.8-1.3,2.7-1.7c0.5,0,0.5,0.5,0.2,0.8c-0.6,0.7-1.4,1.3-1.8,2.2
		c1-0.5,2-1.1,3-1.6c1.3-0.7,2.7-1.3,4.1-1.6C48.2,48.2,48.9,47.7,49.7,47.6z"/>
	<path fill="#1D1411" d="M33.2,52.4c1.7-1.1,2.7-3.1,4.5-3.9c-0.6,1.2-1.6,2-2.5,3c-1,0.8-1.9,1.8-3.1,2
		C32.4,53.1,32.8,52.8,33.2,52.4z"/>
	<path fill="#1D1411" d="M30.6,51.3c0.6-0.7,1.3-1.4,2.1-1.9c-0.7,1.7-2.1,2.9-3.4,4.1c-0.2,0.2-0.9,0.7-0.8,0.1
		C29.1,52.8,29.9,52.1,30.6,51.3z"/>
	<path fill="#1D1411" d="M27.7,52.3c0.9-0.9,1.8-2,3-2.5c-0.7,1.2-1.6,2.2-2.5,3.2c-0.7,0.7-1.5,1.5-2.4,1.9c-0.1,0-0.3-0.1-0.4-0.1
		c0.1-0.5,0.6-0.7,0.9-1c0.7-0.5,1.2-1.3,1.5-2.1c-1.4,1-2.6,2.3-4,3.4c-1.3,1-3,1.5-4.1,2.8c0.3-0.9,1.1-1.5,1.8-2.1
		c2-1.4,3.8-3.1,5.6-4.7c0.4-0.3,0.8-1.1,1.3-0.7C28.8,51.2,27.8,51.6,27.7,52.3z"/>
	<path fill="#1D1411" d="M24.3,68.3c1.4,1.9,3.8,2.6,5.9,3.4c-0.9,0-1.8,0.1-2.6-0.2c-1.1-0.4-2.1-1-2.8-1.9
		C24.4,69.2,24.2,68.8,24.3,68.3z"/>
	<path fill="#1D1411" d="M30.4,68.8c0.1,0,0.2,0,0.2,0c0.7,0.2,1.3,0.6,1.9,0.7c0.9,0.3,2,0.3,2.9,0.7c-0.2,0.2-0.5,0.2-0.8,0.2
		C33,70.4,31.4,69.9,30.4,68.8z"/>
	<path fill="#F64942" d="M29.1,8.8c0.7-1,1.5-1.8,2.4-2.6c-0.4,0.7-0.8,1.4-1,2.2c0.2,0.2,0.4,0.4,0.6,0.6c0.9-0.5,1.7-1,2.6-1.5
		c-0.3,0.4-0.6,0.8-0.8,1.2c0.4,0.2,0.8,0.5,1.1,0.7c0,0.3,0,0.6,0,0.9c-0.1,0.6-0.2,1.3,0.2,1.9c-0.2,0.2-0.4,0.5-0.6,0.7
		c0,0.1,0,0.3,0,0.4c-0.2,0-0.3-0.1-0.5-0.1c-0.3,0.6-0.6,1.2-0.7,1.8c0.1,0.1,0.2,0.2,0.3,0.3c-0.3,0.5-0.5,1-0.5,1.5
		c0,0.1-0.1,0.2-0.1,0.3c0.3,0.7-0.2,1.4-0.4,2c-0.1-0.2-0.2-0.3-0.3-0.5c-0.7-0.2-1.4-0.3-2-0.6c-0.6-0.5-1.2-1-1.9-1.4
		c-0.1-0.1-0.2-0.2-0.2-0.3c-0.9-1.2-2-2.1-3.4-2.6c-0.9-0.5-1.7-1.1-2.4-1.8c-0.4-0.5-0.8-1-1.1-1.5c0.6,0.3,1.2,0.6,1.8,0.7
		c0.2-0.1,0.2-0.5,0.3-0.7c0.4,0.3,0.8,0.5,1.3,0.7c0-0.1-0.1-0.4-0.2-0.5c0.3,0.1,0.5,0.3,0.8,0.1c0-0.6-0.1-1.1-0.2-1.7
		c0.3,0.4,0.5,0.9,0.9,1.2c0.5-0.2,0.3-0.8,0.4-1.2c0.2,0.4,0.4,0.7,0.7,1c0.5-1,1-2,1.3-3.1l0.1,0c-0.1,0.7-0.1,1.4,0,2
		c0.4,0.1,0.6-0.3,0.8-0.5c0,0.1,0.1,0.4,0.2,0.6C28.9,9.2,29,8.9,29.1,8.8z"/>
	<g>
		<path fill="#F64942" d="M50.7,30.5c0.8,0.9,1.7,1.6,2.4,2.7c0.6,1.1-0.3,2.3-0.6,3.4c-0.3,0-0.5-0.1-0.8-0.1
			c-0.1,1.2-0.8,2.3-0.9,3.5c0.1,0.1,0.3,0.2,0.4,0.3c-0.2,0.7-0.4,1.3-0.4,2c0.2-0.4,0.4-0.7,0.6-1.1l0.2,0.1
			c0.2,0.1,0.4,0.2,0.5,0.3c0.3,0.6,0.7,1.1,1.3,1.3c1.6,0.6,3.1,1.6,4.3,2.8c0.5,0.5,0.6,1.2,1.1,1.7c0.7,0.7,0.6,1.8,1.1,2.7
			c0.6,1,1,2.1,1.6,3c-1,0.6-1.9,1.3-2.8,2.1c0.9-0.4,1.9-0.9,2.8-1.3c1.5,1.3,3,2.5,4.4,3.9c-0.6-0.3-1.2-0.6-1.9-0.7
			c0.1,0.4,0.1,0.8,0.3,1.1c1.1,1.4,2.5,2.5,3.5,3.9c-0.7-0.3-1.4-0.6-2.2-0.6c0.9,1.2,1.8,2.4,2.4,3.8c-0.8-0.6-1.8-0.9-2.8-1.3
			c-0.4-0.1-0.7-0.3-1.1-0.2c-0.1,0.6,0.5,1,0.8,1.5c1.1,1.2,1.9,2.6,2.4,4.1c-1-0.6-1.9-1.4-3-1.7c-0.5-0.1-0.2,0.5-0.1,0.7
			c0.6,0.9,1.2,1.7,1.5,2.7c-0.4-0.2-0.7-0.4-1.1-0.5c0,0.7,0.3,1.4,0.7,2c0.4,0.7,0.4,1.5,0.5,2.2L66,74.8l-0.1,0
			c-1-0.5-1.6-1.6-2.7-2c-0.4-0.2-1.3-0.4-1.2,0.3c0.3,0.6,0.8,1.1,1,1.7c0.1,0.5,0.1,0.9,0.1,1.4c-1.4-0.8-2.5-1.9-4-2.5
			c-0.3-0.2-1-0.1-0.9,0.4c0.1,0.8,0.6,1.4,0.7,2.2c0,0.5-0.1,1-0.2,1.4c-1-0.7-1.9-1.5-3-1.9c-0.1,0-0.3,0-0.5,0
			c0,0.8,0.6,1.3,0.8,2c0.1,0.7-0.2,1.4-0.6,2c-0.4-0.7-1-1.5-1.9-1.5l0.1,0.2c0,0.1-0.1,0.3-0.1,0.4l0-0.4
			c-0.6-0.2-0.6,0.4-0.8,0.7c-0.2-0.3-0.3-0.8-0.7-0.8c-0.5,0.5-0.2,1.7-0.9,2c-1-1-1.7-2.3-2.7-3.4c-0.1,0-0.2,0-0.3,0
			c-0.2,1.8,0.9,3.5,0.7,5.3c-1-1.5-2.6-2.5-4.2-3.3c-0.3-0.2-0.6-0.1-0.8,0.1c-0.1,0.8,0.5,1.4,0.5,2.2c0,0.6-0.1,1.1-0.1,1.7
			c-1.3-0.7-2.6-1.2-3.8-1.9c-0.2-0.2-0.7-0.1-0.6,0.3c0.2,1.1,0.3,2.2,0.3,3.3c-0.7-0.4-1.4-0.9-2.2-1c-1.3-0.1-1.8-1.5-3-1.9
			c-0.5,0-0.2,0.5-0.1,0.7c0.4,0.8,0.8,1.7,1.1,2.5c-1.2-0.5-2.5-1.1-3.4-2c-0.4-0.4-0.8-1-1.5-0.9c0.2,0.9,0.6,1.8,1,2.7
			c-1.3-0.5-2.3-1.5-3.2-2.5c-0.1-0.3-0.8-0.4-0.7,0.1c0.2,0.9,0.6,1.8,0.8,2.6c-0.8-0.6-1.6-1.2-2.1-2.1c-0.2-0.3-0.4-0.8-0.9-0.7
			c-0.4,0.9-0.1,1.9-0.1,2.8c-0.5-0.5-0.9-1.1-1.2-1.8c-0.3-0.5-0.5-1.2-1.1-1.5c-0.1,0.9,0,1.9,0.2,2.8c-0.9-0.9-1.5-2.1-2.3-3
			c-0.4,0.3-0.4,0.9-0.5,1.3c-0.4-1.1-0.6-2.2-1.1-3.2c-0.3-0.4-0.8-0.1-0.9,0.3c-0.3,0.8-0.4,1.7-0.7,2.6c-0.3-0.5-0.6-1-0.9-1.5
			c-0.2,0.3-0.4,0.5-0.6,0.8c-0.2-1.5,0.3-3.2-0.6-4.6c-0.8,0.6-1,1.7-1.5,2.6c0-1.2-0.2-2.4,0.1-3.6c0.1-0.6,0.3-1.1,0.4-1.7
			c-0.4,0.5-0.5,1.3-1.1,1.8c0-1.4,0.3-2.9,0.5-4.3c-0.1-0.1-0.4-0.2-0.5-0.3c0.2-0.8,0.5-1.5,0.7-2.3c-0.8,1.2-1.1,2.6-1.7,3.8
			c0.1-0.7,0.4-1.4,0.2-2.1c-0.1-0.1-0.3-0.2-0.4-0.2c0.3-1,0.7-1.9,1.1-2.8c0.4-0.9,0.9-1.8,0.9-2.8c-0.6,0.3-1.1,0.8-1.5,1.3
			c0.3-1.1,0.9-2,1.2-3.1c-0.6,0.6-1,1.5-1.5,2.2c-0.5-0.1-0.9,0.3-1.3,0.6c0.4-1.2,1-2.4,1.6-3.5c0.4-0.6,0.9-1.2,0.9-2
			c-0.2,0-0.5,0.1-0.7,0.1c0.1,0.1,0.3,0.3,0.4,0.4c-0.3,0-0.6-0.1-0.9-0.1c0.4-0.7,0.8-1.4,1.1-2.1c-0.6,0.3-0.9,1-1.7,1.1
			c0.5-1.1,1.5-1.9,2-3.1c-0.2,0-0.5,0-0.7,0c0.8-1.3,1.6-2.6,2.1-4.1c0.4-1.1,1.2-2,1.7-3c0-0.3-0.1-0.4-0.3-0.4
			c-0.6,0.2-1.1,0.7-1.6,1.1c0.3-1.6,1-3.2,0.9-4.9c-0.6,0.9-1,1.9-1.7,2.8c0.3-1.2,0.7-2.4,1.2-3.6c0.1,0,0.2-0.1,0.3-0.1
			c1.6-0.5,3-1.7,4.4-2.5c0.5-0.3,1-0.3,1.5-0.5c0.3-0.2,0.6-0.5,0.9-0.7c1-0.3,2.2-0.1,3.2-0.6c0.7-0.4,1.4-0.8,2-1.4
			c0.4-0.5,0.9-0.9,1.4-1.2c2.1,0.7,4.3,1,6.5,1.5c2.2,0.4,4.4,0.3,6.6,0.5c1.5,0.1,3.1-0.1,4.5,0.5c0.4,0.1,0.8,0.4,1.2,0.3
			c0.7-0.4,0.8-1.3,0.9-2c0.1-0.7,0.5-1.4,0.5-2.1c0-0.9-0.2-1.7-0.3-2.5C50.3,33,50.5,31.7,50.7,30.5z M49.7,47.6
			c-0.8,0.1-1.5,0.6-2.3,0.8c-1.5,0.3-2.8,0.9-4.1,1.6c-0.2-0.5-0.7-0.7-1.2-0.6c0.2-0.3,0.2-0.8-0.2-0.8c-1,0.5-1.8,1.1-2.7,1.7
			l0.2-0.3c-0.1,0-0.3-0.1-0.4-0.1c-0.7,0.3-1.6,0.3-2.2,0.7c-0.5,0.3-1,0.6-1.5,0.9c0.9-1,1.9-1.8,2.5-3c-1.9,0.8-2.9,2.8-4.5,3.9
			l0.2-0.2c-0.8-0.1-1.7-0.2-2.3,0.3c-0.5,0.4-1,0.8-1.1,1.5c-0.2,1-0.3,2-0.6,2.9c-0.1,2.2-0.6,4.3-0.6,6.5
			c0.1,0.7,0.5,1.4,0.4,2.2c-0.1,0.7,0.3,1.4,0.6,2c0,0.2,0,0.4,0,0.7c0.2,0,0.3-0.1,0.5-0.1c0,0.2,0.1,0.4,0.1,0.6l0.1,0
			c1.1,1.1,2.6,1.6,4.2,1.7c0.3,0,0.6-0.1,0.8-0.2c-0.9-0.4-1.9-0.4-2.9-0.7c0.5,0,1,0,1.5-0.3l0.2,0.1c0-0.1,0-0.3,0-0.4
			c0.4-0.1,1,0.1,1.1-0.4c1,0.3,1.9,0.7,2.9,0.7c0.7,0,1.3-0.3,2-0.5c-0.9-0.3-1.8-0.7-2.8-0.8c0.1-0.3,0.2-0.5,0.4-0.8
			c0.8-0.3,1.7-0.4,2.6-0.8c1.2-0.6,2.4-1.2,3.4-2c0.5-0.4,0.9-1,0.6-1.6c-0.2-0.7-1-0.9-1.6-1.1c1.4-0.5,2.9-0.8,4.2-1.6
			c0.6-0.3,1.2-0.9,1.1-1.6c0-0.8-0.7-1.2-1.3-1.5c1.1-0.6,2.3-1.2,3.3-1.9c0.5-0.3,1.1-0.9,0.8-1.5c-0.4-0.9-1.5-1-2.3-0.9
			c1.2-0.7,2.5-1.3,3.7-2.2c0.6-0.5,1.3-1,1.8-1.6c0.4-0.5,0.1-1.2-0.5-1.3C52.3,47.5,51,47.5,49.7,47.6z M30.6,51.3
			c-0.7,0.8-1.5,1.5-2.1,2.3c0,0.6,0.6,0.1,0.8-0.1c1.3-1.2,2.8-2.4,3.4-4.1C31.9,50,31.2,50.6,30.6,51.3z M27.7,52.3
			c0.1-0.7,1-1.1,0.6-1.9c-0.6-0.4-0.9,0.4-1.3,0.7c-1.8,1.6-3.6,3.3-5.6,4.7c-0.7,0.6-1.6,1.2-1.8,2.1c1.1-1.3,2.8-1.8,4.1-2.8
			c1.4-1.1,2.6-2.3,4-3.4c-0.3,0.8-0.8,1.5-1.5,2.1c-0.3,0.3-0.8,0.5-0.9,1c0.1,0,0.3,0.1,0.4,0.1c1-0.4,1.7-1.2,2.4-1.9
			c0.9-1,1.8-2,2.5-3.2C29.5,50.3,28.7,51.4,27.7,52.3z M24.3,68.3c0,0.5,0.2,0.9,0.5,1.3c0.7,0.9,1.7,1.5,2.8,1.9
			c0.8,0.3,1.7,0.2,2.6,0.2C28,70.9,25.7,70.2,24.3,68.3z"/>
	</g>
	<path fill="#F64942" d="M53.9,35.1c0.4,0.4,0.4,0.8,0.5,1.3c-0.3,0-0.7,0-1,0.1C53.5,36,53.7,35.6,53.9,35.1z"/>
	<path fill="#F64942" d="M62.6,41.3c0.9,0.4,1.3,1.2,1.7,2c-0.6-0.2-1.2-0.5-1.7-0.9c0.1,0,0.3,0,0.4,0
		C62.9,42.1,62.8,41.7,62.6,41.3z"/>
	<path fill="#F64942" d="M49.3,48.3c1.4-0.3,2.9-0.2,4.4-0.2c-0.2,0.7-0.9,1.1-1.5,1.5C51.3,49,50.3,48.5,49.3,48.3z"/>
	<g>
		<path fill="#FEEF4C" d="M36.1,9.4c1.3-0.7,2.7-1.2,4-1.7c-0.9,0.8-1.7,1.6-2.5,2.5c1.1-0.6,2.3-1,3.5-1.4
			c-0.5,0.4-1.1,0.9-1.4,1.5c-0.1,0.3-0.4,0.6-0.2,0.8c1,0.2,2.1,0.1,3.1,0.1c-0.6,0.3-1.3,0.5-1.7,1c0.1,0.1,0.3,0.3,0.4,0.4
			c0,0.1-0.1,0.2-0.1,0.3c1.2,0.1,2.3,0.3,3.5,0.4c-0.7,0.3-1.4,0.5-1.9,1c0.3,0.3,0.6,0.5,1,0.8c0.1,0.2,0.2,0.6,0.5,0.6
			c0.6,0.2,1.3,0.4,1.9,0.6c-0.6,0.1-1.2,0.1-1.8,0.2c0.1,0.3,0.1,0.6,0.2,0.9c1.2,0.6,2.1,1.5,3.1,2.3c-0.7-0.1-1.4-0.2-2.1-0.1
			c-0.1,0.6,0.6,0.8,1,1.2c-0.3,0.9,0.6,1.6,1,2.3L47.2,23c0.2,0.4,0.5,0.8,0.8,1.1c0.7,0.7,1.2,1.6,1.8,2.4
			c-0.1,0.1-0.2,0.3-0.2,0.4c0.4,1,1,1.9,1.7,2.8c-0.4-0.3-0.8-0.9-1.3-0.6c-0.1,0.6,0.4,1,0.7,1.5c-0.2,1.3-0.4,2.6-1,3.8
			c-0.4-2.3-1.5-4.6-3.5-5.9c-1.3-1.1-3-1.7-4.7-2.1c-1.1-0.1-2.1,0-3.2,0.1c-0.6-0.9-1.8-0.8-2.7-0.4c-0.4,0.3-0.7,0.8-1.2,1
			c-1.8,0.7-3.7,1.3-5.2,2.5c-1.1,0.8-1.9,1.8-3.2,2.4c-1.4,0.7-2.5,1.8-4,2.2c-0.5,0.2-1-0.1-1.5-0.3c0.2-0.4,0.4-0.7,0.6-1.1
			c-0.2-0.1-0.4-0.3-0.5-0.4c-0.7,0.8-1.2,1.8-1.7,2.8c-0.4,0.6-0.6,1.3-0.5,2c0.4,0.2,0.6-0.2,0.8-0.4c0.5-0.7,0.8-1.4,1.2-2.1
			c1,0.6,2.1,1.4,3.3,1.5c0.9,0,1.6,0.5,2.4,0.8c0.9,0.3,1.7,0.6,2.6,1c0,0.1,0.1,0.4,0.1,0.5c-1,1.2-2.3,2.1-3.8,2.2
			c0-0.1-0.1-0.4-0.1-0.5c-0.5,0.1-0.9,0.3-1.3,0.6c-0.6,0.4-1.4,0.4-2.1,0.7c-1.2,0.5-2.1,1.3-3,2.1c-0.7,0.6-1.5,1-2,1.8
			c-0.1,0-0.2,0.1-0.3,0.1c0-0.2,0-0.5,0-0.6c-0.3,0-0.5,0.3-0.7,0.4c-0.3-0.2-0.7-0.4-1-0.6c0.4-1,0.9-2,1.6-2.8
			c-0.5,0.1-1.1,0.1-1.6,0.4c-1,0.6-1.7,1.4-2.5,2.2c0.8-2.1,2.3-3.8,3.3-5.8c-1.1,0.3-1.6,1.4-2.5,2c0.4-0.9,1.1-1.6,1.5-2.5
			c0.1-0.5-0.5-0.3-0.7-0.2c-0.7,0.4-1.3,0.9-2,1.4c0.6-0.8,1.1-1.6,1.8-2.4c0.5-0.7,1.2-1.3,1.5-2h-0.3c-0.3,0-0.5-0.1-0.8-0.2
			c0.3-0.3,0.8-0.4,1.1-0.6c-0.9-0.2-1.6,0.3-2.3,0.8c0.4-0.7,1-1.3,1.2-2.1c-1.2,0-2,0.9-3,1.5c1.2-1.5,2.7-2.7,4.1-4l-0.2-0.2
			c0.1-0.1,0.3-0.2,0.4-0.3C13.9,29.5,13,30.5,12,31c0.6-0.9,1.6-1.4,2.2-2.4l0-0.3c-0.6,0-1.1,0.2-1.7,0.3c-0.5,0.3-2.4,1.5-2.3,1
			c0.5-0.4,3.6-3.2,4-3.7c-0.2,0-0.5-0.1-0.7-0.1l0.1-0.2c0.3-0.2,0.6-0.3,1-0.4c-0.2-0.1-0.4-0.3-0.6-0.4c-8.6,2.4-0.8-0.7-0.6-1.2
			c0.1-0.2-8.1,0.9,1.5-0.9l0.1,0c0,0,0-0.1,0.1-0.2c0-0.1-2.7,0.3-2.7,0.2c1.8-0.8,2.2-0.8,2.2-1.3c0-0.1-3.8,0.1-3.8,0.1
			c0-0.3,4.4-1.6,4.4-1.8c0-0.3-3.4-0.6-3.3-0.8c0.2-0.2,3-0.2,3.5-0.4c0.1,0-1.7-0.3-1.6-0.3c0.1-0.2,2-0.6,2.6-0.5
			c0.3-0.1,0.9,0.1,1-0.3c-0.1-0.2-0.3-0.4-0.5-0.6c0.1-0.1-3.8-0.3-3.8-0.4c2.2-0.6,3.8-0.3,3.8-0.4c0.1-0.2-0.9-1.2-0.8-1.4
			c0.2-0.2,2,0.3,2.3,0.1c0.4,0.2,0.8,0.1,0.4-0.4c0.5-0.4,1.1-0.8,1.7-1.1c0.3,0.4,0.6,0.9,1,1.2c1.2,0.4,2.5,0.6,3.6,1.2
			c0.7,0.3,1.3,1,2.2,0.7c0.1,0.1,0.2,0.2,0.2,0.3c0.2,0.4,0.3,0.8,0.6,1.1c0.6,0.6,1.6,0.7,2.3,1.3c0.5,0.4,1.2,0.7,1.8,0.7
			c0.8-0.4,0.5-1.5,0.5-2.2c-0.1-1.2,0.6-2.2,1-3.3c0.3-0.7,0.8-1.4,1.1-2.1C35.4,11.2,35.8,10.3,36.1,9.4z M35.7,15.7
			c-0.1,0.4,0.2,0.6,0.5,0.8c0.9,0.8,1.9,1.6,2.7,2.5c0.9,1.1,1.5,2.6,1.2,4.1c-0.2,0.7,0.1,1.5-0.3,2.2c0.4-0.3,1-0.6,1.3-1
			c0.6-0.7,0.6-1.7,0.5-2.6c-0.1-1.4-0.9-2.6-1.8-3.7c-1-1-2.3-1.6-3.5-2.3C36.1,15.7,35.8,15.4,35.7,15.7z M23.6,18.9
			c-0.9,1.5-2.1,2.9-2.4,4.7c-0.4,1.6-0.3,3.5,0.8,4.8c0.6,0.8,1.6,0.9,2.5,1.1c-0.5-0.3-1-0.5-1.2-1c-0.5-0.8-1-1.6-1.2-2.5
			c-0.2-1.7,0.3-3.5,1.3-4.9c0.7-0.9,1-2,1.6-2.9c0.2-0.3,0.3-0.5,0.5-0.8C24.8,17.7,24,18.2,23.6,18.9z M34.6,20.2
			c-0.8,0.2-1,1.3-0.4,1.8c0.5,0.2,1.2-0.2,1.2-0.7C35.5,20.8,35.3,19.9,34.6,20.2z M27.9,22.2c-0.7,0.4-0.7,1.7,0.1,1.8
			c0.9-0.1,1-1.2,0.7-1.8C28.5,21.9,28.1,22,27.9,22.2z"/>
	</g>
	<path fill="#FEEF4C" d="M53.3,36.5c0.3,0,0.7-0.1,1-0.1c1.5,1.6,3.7,1.9,5.3,3.4c0.8,0.9,1.8,1.6,2.7,2.3c0.1,0.4,0.1,0.8,0.3,1.2
		c0.3,0.4,0.9,0.3,1.4,0.3c0.1,0.5,0.2,1.1,0.3,1.6c1,0.3,0.9,1.3,1.1,2.1c0.3,0,0.6,0,0.8,0c0.1,0.4,0.2,0.7,0.4,1.1
		c0.1,0.2,0.1,0.3,0.2,0.5c0.1,0.5,0.1,1,0.1,1.5c-1.4,0.4-2.7,1.1-4,1.8c-0.4-0.1-0.8-0.3-1.2-0.5c0-0.7,0.2-1.5-0.4-2.1
		c-0.9-1-1.4-2.3-1.7-3.6c-0.2,0.1-0.4,0.2-0.6,0.3c-0.5-0.6-0.9-1.3-1.4-2c-0.3-0.4-0.8-0.2-1.2-0.5c-0.8-0.5-1.6-1-2.4-1.6
		c-0.3-0.2-0.6-0.3-1-0.4c-0.2-0.3-0.5-0.7-0.7-1c-0.3,0.1-0.5,0.2-0.8,0.3l-0.2-0.1C52.1,39.6,52.5,38,53.3,36.5z"/>
	<path fill="#FEEF4C" d="M36.3,52.6c1.6-0.8,3.1-1.9,4.7-2.9c-0.6,0.6-1.4,1.3-1.3,2.2c0.1,0.4,0.6,0.3,0.9,0.2c1-0.4,1.8-1,2.8-1.4
		c-0.3,0.5-0.6,0.9-0.8,1.5c-0.1,0.7,0.1,1.4-0.2,2c-0.3,0.7-0.2,1.4-0.3,2.1c0.1,1.3,0.3,2.5,0.3,3.8c0.3,0.2,0.6,0.3,0.8,0.5
		c-0.7,0.3-1.5,0.5-2.2,1c-0.3,1,0.9,1,1.6,1c-0.4,0.4-1.1,0.5-1.4,1.1c-0.3,0.5-0.6,1.1-1.2,1.3c-0.6,0.2-1.3,0.4-1.8,1
		c-0.5,0.1-1,0.4-1.5,0.6c-0.8,0.3-1.6,0.1-2.4,0.3c-0.5,0.2-0.3,0.9,0,1.2c0,0.3,0,0.6-0.1,0.8c0,0.1,0,0.3,0,0.4L34,69.2
		c-0.1,0-0.3-0.1-0.3-0.2c0-0.2,0-0.4,0.1-0.5c-0.3-0.4-0.7-0.3-1.1-0.1c-0.2-0.2-0.4-0.3-0.5-0.5c0-0.2,0-0.3,0-0.5
		c-0.4-0.4-0.8-0.7-1-1.2c-0.6-1.1-0.4-2.3-0.5-3.4c0-2.6,0.9-5.1,1.7-7.6c0.8-0.3,1.1-1.1,1.4-1.8c0.2-0.1,0.3-0.1,0.5-0.2
		c0.1-0.2,0.1-0.5,0.2-0.7c0.3-0.2,0.8-0.1,1.2-0.2c0.1,0.5,0.4,0.8,0.9,0.9C36.4,53,36.4,52.8,36.3,52.6z"/>
	<path fill="#FDCE73" d="M34,9.3c0.4-0.2,0.7-0.5,1.1-0.7C35,9,34.9,9.4,34.9,9.7c-0.3,0.2-0.6,0.4-0.8,0.5C34,10,34,9.6,34,9.3z"/>
	<path fill="#FDCE73" d="M17.9,12c0.8,0.1,1.6,0.1,2.4,0.1c0.1,0.4,0.1,0.8,0.2,1.1c-0.6,0.3-1.2,0.6-1.7,1.1
		c-0.8-0.5-1.6-0.7-2.5-0.9c1-0.1,2,0.2,3,0.1c0.3,0,0.6-0.2,0.5-0.5C19.2,12.5,18.5,12.3,17.9,12z"/>
	<path fill="#FDCE73" d="M59.6,39.8c0.6,0,1.1,0.4,1.5,0.8c0.2,0,0.5,0,0.7,0c0.3,0.2,0.5,0.5,0.8,0.7c0.2,0.4,0.3,0.7,0.5,1.1
		c-0.1,0-0.3,0-0.4,0c-0.1-0.1-0.3-0.2-0.4-0.3C61.4,41.4,60.3,40.7,59.6,39.8z"/>
	<path fill="#FDCE73" d="M13.7,46.9c0.2-0.9,0.5-1.8,0.8-2.6c0.3,0.2,0.7,0.4,1,0.6C14.9,45.5,14.3,46.2,13.7,46.9z"/>
	<path fill="#FDC34B" d="M34.9,9.7c0.5,0.1,0.9-0.1,1.2-0.4c-0.3,0.9-0.7,1.8-1.1,2.7c-0.3,0.7-0.8,1.3-1.1,2.1
		c-0.4,1.1-1.1,2.1-1,3.3c-0.1,0.7,0.3,1.8-0.5,2.2c-0.7,0.1-1.3-0.3-1.8-0.7c-0.7-0.6-1.7-0.6-2.3-1.3c-0.3-0.3-0.5-0.7-0.6-1.1
		c0.7,0.4,1.3,0.9,1.9,1.4c0.6,0.3,1.3,0.4,2,0.6c0.1,0.2,0.2,0.3,0.3,0.5c0.2-0.6,0.7-1.3,0.4-2c0-0.1,0.1-0.2,0.1-0.3
		c0-0.6,0.2-1.1,0.5-1.5c-0.1-0.1-0.2-0.2-0.3-0.3c0.2-0.6,0.4-1.2,0.7-1.8c0.2,0,0.3,0.1,0.5,0.1c0-0.1,0-0.3,0-0.4
		c0.2-0.2,0.4-0.5,0.6-0.7c-0.3-0.6-0.3-1.3-0.2-1.9C34.3,10.1,34.6,9.9,34.9,9.7z"/>
	<path fill="#FDC34B" d="M21.5,11.9c0.7,0.7,1.5,1.3,2.4,1.8c1.4,0.5,2.5,1.4,3.4,2.6c-0.8,0.3-1.5-0.4-2.2-0.7
		c-1.1-0.6-2.4-0.8-3.6-1.2c-0.4-0.3-0.7-0.8-1-1.2c-0.1-0.4-0.2-0.7-0.2-1.1C20.7,12.1,21.2,12.3,21.5,11.9z"/>
	<path fill="#FDC34B" d="M35.3,27.5c0.4-0.5,0.9-1.1,1.6-1c0.5-0.1,0.6,0.5,1,0.7c0.3,0,0.7-0.1,0.9,0.1c1.3,0.9,2.5,1.9,3.8,2.9
		c2.3,1.8,4.3,4.1,5.3,7c0.2,0.9,0.8,1.8,0.7,2.8c-0.1,0.3-0.4,0-0.6,0c-1.6-0.9-3.6-0.7-5.4-0.7c-2.6-0.2-5.3-0.2-7.9-0.8
		c-3.5-0.5-6.9-1.9-10.2-3.1c-0.7-0.3-1.7-0.2-2.3-0.7c1.5-0.1,2.7-1.3,4-1.9c1.6-0.7,2.6-2.2,4.1-3C31.9,28.7,33.7,28.2,35.3,27.5z
		"/>
	<path fill="#FDC34B" d="M39.3,27c1.9-0.1,3.9,0.4,5.5,1.4c0.7,0.4,1.1,1,1.8,1.4c1.7,1.8,2.3,4.3,2.5,6.7c0,0.5-0.1,1-0.1,1.4
		c-0.6-1.6-1.2-3.3-2.2-4.7C44.7,30.7,42,28.8,39.3,27z"/>
	<path fill="#FDC34B" d="M51.7,36.4c0.2,0,0.5,0.1,0.8,0.1c-0.5,1.2-0.9,2.4-1.2,3.7C51.2,40.2,51,40,50.9,40
		C50.9,38.7,51.6,37.6,51.7,36.4z"/>
	<path fill="#FDC34B" d="M28.6,37.7c0.4,0.1,0.8,0.3,1.2,0.4c-0.5,0.4-1,0.8-1.4,1.2c-0.5,0.6-1.3,1-2,1.4c-1,0.5-2.1,0.4-3.2,0.6
		c-0.3,0.2-0.6,0.5-0.9,0.7c-0.5,0.2-1.1,0.2-1.5,0.5c-1.5,0.8-2.8,2-4.4,2.5c0.5-0.7,1.3-1.2,2-1.8c0.9-0.8,1.9-1.7,3-2.1
		c0.7-0.3,1.5-0.3,2.1-0.7c0.4-0.2,0.8-0.5,1.3-0.6c0,0.1,0.1,0.4,0.1,0.5c1.6-0.1,2.9-1,3.8-2.2C28.7,38.1,28.6,37.8,28.6,37.7z"/>
	<path fill="#FDC34B" d="M51.7,41.2c0.3-0.1,0.5-0.2,0.8-0.3c0.2,0.3,0.5,0.7,0.7,1c0.3,0.1,0.7,0.2,1,0.4c0.8,0.6,1.6,1.1,2.4,1.6
		c0.4,0.2,0.9,0.1,1.2,0.5c0.5,0.6,0.9,1.3,1.4,2c0.2-0.1,0.4-0.2,0.6-0.3c0.3,1.3,0.9,2.6,1.7,3.6c0.5,0.6,0.4,1.4,0.4,2.1
		c0.4,0.2,0.8,0.4,1.2,0.5c-0.4,0.2-0.8,0.4-1.2,0.7c-0.6-1-1-2.1-1.6-3c-0.5-0.8-0.4-2-1.1-2.7c-0.5-0.5-0.6-1.2-1.1-1.7
		c-1.2-1.2-2.7-2.2-4.3-2.8c-0.6-0.2-1.1-0.7-1.3-1.3C52,41.4,51.8,41.3,51.7,41.2z"/>
	<path fill="#FDC34B" d="M62.3,42.1c0.1,0.1,0.3,0.2,0.4,0.3c0.5,0.4,1,0.7,1.7,0.9c0,0.1,0.1,0.2,0.1,0.2c-0.1,0.4,0,0.7,0.4,0.7
		c0.6,0.9,0.9,2,1.3,3c-0.3,0-0.6,0-0.8,0c-0.2-0.8-0.1-1.9-1.1-2.1c-0.1-0.5-0.2-1.1-0.3-1.6c-0.5-0.1-1.1,0.1-1.4-0.3
		C62.3,42.9,62.3,42.5,62.3,42.1z"/>
	<path fill="#FDC34B" d="M42.1,49.3c0.5-0.1,1,0.1,1.2,0.6c-1,0.5-2,1.1-3,1.6C40.7,50.6,41.5,50.1,42.1,49.3z"/>
	<path fill="#FDC34B" d="M36.7,50.6c0.7-0.5,1.5-0.4,2.2-0.7c0.1,0,0.3,0.1,0.4,0.1l-0.2,0.3c-1.1,0.9-2.4,1.6-3.4,2.6
		c0.1-0.1,0.4-0.2,0.6-0.3c0,0.2,0.1,0.4,0.1,0.6c-0.5-0.1-0.8-0.4-0.9-0.9c-0.4,0-0.8,0-1.2,0.2c-0.1,0.2-0.2,0.5-0.2,0.7
		c-0.2,0.1-0.3,0.1-0.5,0.2c-0.3,0.7-0.7,1.5-1.4,1.8c-0.8,2.5-1.7,5-1.7,7.6c0.1,1.1,0,2.4,0.5,3.4c0.2,0.5,0.6,0.8,1,1.2
		c0,0.2,0,0.3,0,0.5c0.2,0.2,0.4,0.3,0.5,0.5c0.4-0.2,0.8-0.3,1.1,0.1c0,0.2-0.1,0.4-0.1,0.5c0.1,0,0.3,0.1,0.3,0.2
		c-0.4,0.3-1,0.3-1.5,0.3c-0.7-0.2-1.3-0.5-1.9-0.7c-0.1,0-0.2,0-0.2,0l-0.1,0c0-0.2-0.1-0.4-0.1-0.6c-0.2,0-0.3,0.1-0.5,0.1
		c0-0.2,0-0.5,0-0.7c-0.3-0.6-0.7-1.3-0.6-2c0.1-0.8-0.3-1.5-0.4-2.2c0.1-2.2,0.6-4.3,0.6-6.5C29.7,56,29.7,55,30,54
		c0.1-0.6,0.7-1.1,1.1-1.5c0.6-0.6,1.5-0.5,2.3-0.3l-0.2,0.2c-0.4,0.3-0.8,0.7-1.1,1.1c1.2-0.3,2.1-1.3,3.1-2
		C35.7,51.2,36.2,50.9,36.7,50.6z"/>
	<path fill="#FDC34B" d="M42.6,62.6c0.4,0.1,1,0.1,1,0.6c-0.4,0.6-1.1,1-1.8,1.4c-1.1,0.7-2.3,1.2-3.6,1.5c0.4-0.6,1.1-0.7,1.8-1
		c0.6-0.2,0.9-0.9,1.2-1.3C41.5,63.1,42.2,63,42.6,62.6z"/>
	<path fill="#FDC34B" d="M34.3,68.1c0.3,0.2,0.7,0.3,1.1,0.4c-0.1,0.5-0.7,0.3-1.1,0.4C34.3,68.6,34.3,68.3,34.3,68.1z"/>
	<path fill="#4573AE" d="M56.4,33.7c0.8-1.6,1.9-3.2,3.5-4.1c-0.5,1-1.1,2-1.6,3c-0.2,0.4-0.4,0.8-0.2,1.3c0.5,0.2,0.6-0.5,1-0.7
		c1.1-0.9,2.3-1.7,3.6-2.2c-0.6,1-1.5,1.9-2.1,2.9c-0.8,1.3-1.8,2.4-2.4,3.8c-0.2,0.3,0.1,0.6,0.4,0.5c0.5-0.5,1-1.1,1.6-1.6
		c1.2-1.1,2.4-2.4,4.1-2.8c-0.7,0.9-1.7,1.6-2.4,2.6c-0.3,0.4-0.6,0.8-0.6,1.3c0.3,0.4,0.7,0,1-0.2c1.4-1.3,3-2.6,5-2.9
		c-1.2,1.2-2.8,2.2-3.3,3.9c-0.1,0.3-0.2,0.9,0.3,0.8c0.7-0.4,1.3-1,2.1-1.3c0.7-0.4,1.5-0.4,2.3-0.3c-1.7,1.2-3.7,2.2-4.9,3.9
		c0,0.1,0,0.3-0.1,0.4c0.5,0.2,0.9-0.2,1.3-0.4c0.7-0.4,1.5-0.5,2.2-0.5c-1.1,0.8-2.1,1.7-3,2.7c0-0.1-0.1-0.2-0.1-0.2
		c-0.4-0.8-0.9-1.6-1.7-2c-0.3-0.2-0.5-0.5-0.8-0.7c-0.2,0-0.5,0-0.7,0c-0.4-0.4-0.9-0.8-1.5-0.8c-1.5-1.4-3.8-1.8-5.3-3.4
		c0-0.5-0.1-1-0.5-1.3c0.6-1.6,1.5-3.1,2.7-4.3c-0.2,0.9-0.6,1.7-0.8,2.6C55.6,33.8,56.3,34.2,56.4,33.7z"/>
	<path fill="#4573AE" d="M64.8,44.3c2-1.6,5-2.1,7.4-1c-1.6,0.9-3.5,1.6-4.8,2.9c-0.3,0.2-0.1,0.7,0.3,0.6c1-0.1,2.2-0.4,3,0.4
		c-1.3,0.6-2.9,0.6-4.2,1.2c-0.1-0.4-0.2-0.7-0.4-1.1C65.7,46.3,65.4,45.3,64.8,44.3z"/>
	<path fill="#4573AE" d="M47.2,49.3c0.7-0.2,1.3-0.7,2-1c1.1,0.2,2,0.7,2.9,1.3c-1.3,1.1-3,1.7-4.4,2.7c-0.4,0.3-1.3,0.7-0.7,1.2
		c1,0.2,2-0.3,2.9,0.1c-1.6,1.3-3.5,2-5.2,3.2c-0.3,0.2-0.3,0.6,0,0.9c0.6,0.1,1.2,0,1.8,0.1c0.3,0.1,0.4,0.4,0.6,0.7
		c-1.1,1.1-2.7,1.3-4,1.9c-0.3-0.2-0.6-0.3-0.8-0.5c0.1-1.3-0.1-2.5-0.3-3.8c0.1-0.7,0.1-1.5,0.3-2.1c0.3-0.6,0-1.3,0.2-2
		c0.2-0.5,0.5-1,0.8-1.5C44.7,50.1,45.9,49.6,47.2,49.3z"/>
	<path fill="#4573AE" d="M66.7,49c0.9,0.2,1.8,0.3,2.7,0.8c-0.8,0.3-1.7,0.5-2.5,0.7C66.8,50,66.7,49.5,66.7,49z"/>
</g>
<g>
	<path fill="#FDC34B" d="M62.3,73.5c0,0-1.4,2.1-0.8,3.5c-0.4-0.1-1.4-1.5-1.4-1.5l-0.7,1l-0.8-1.4l0.1-0.3c0,0-0.8,0.4-1.6,0.2
		c-0.9-0.2-1.3-1.6-0.9-2.2s1.8-1.9,2.5-2.2c0.8-0.3,4.2,0.1,4.2,0.1L62.3,73.5z"/>
	<polygon fill="#FDC34B" points="77.3,79.3 75.3,83.3 75.3,84.2 75.1,84.4 73,83 72.2,83.4 70,81.9 68.6,81.7 68.7,78.7 69.2,77.3 
		70.2,75.2 76.6,74.5 	"/>
	<path fill="#FFFFFF" d="M82.7,27c-0.4,0.2-0.7,0.4-1,0.7c-0.1,0.2-0.2,0.5-0.2,0.7C82,28,82.4,27.6,82.7,27z"/>
	<g>
		<path fill="#1D1411" d="M80.4,27.9c0.9-0.5,1.7-1.2,2.6-1.6c0.2-0.2,0.6,0.2,0.4,0.4c-0.5,1-1.2,1.7-2,2.5c1.2,0.6,2.6,0.4,4,0.6
			c0.5,0.1,1,0.1,1.5,0.2c0.4,0.2,0,0.5-0.3,0.5c-0.9,0.1-1.8,0.4-2.6,0.6c2.5,0.7,5.1,1.2,7.5,2.1c-1.1,0.1-2.2-0.1-3.3-0.4
			c-0.8-0.3-1.7-0.1-2.5,0.1c1.8,1.3,4,1.8,6.1,2.7c0.1,0.1,0.6,0.2,0.4,0.4c-0.8,0.1-1.4-0.4-2.1-0.6c-0.8-0.4-1.8-0.2-2.6-0.3
			c1.1,1,2.3,2,3.6,2.8c0.3,0.1,0.3,0.7-0.1,0.6c-1.1-0.2-2.2-0.7-3.3-0.5c2,1.9,4.3,3.3,6.3,5.1c-0.9-0.2-1.7-0.7-2.4-1.2
			c-1-0.7-2.1-1.8-3.4-1.6c0.6,0.9,1.4,1.6,2.2,2.3c0.2,0.2,0.6,0.5,0.2,0.7c-1.1-0.3-2.3-1.3-3.4-0.6c1.2,1.1,2.6,2.1,3.8,3.3
			c0.2,0.2,0.5,0.6,0.1,0.7c-0.6,0.1-1.2-0.3-1.6-0.6c-0.8-0.6-1.8-1.1-2.8-1.4c0.6,0.7,1.4,1.3,1.8,2.2c0.2,0.3-0.3,0.6-0.6,0.4
			c-0.9-0.4-1.7-0.9-2.6-1.2c0.8,0.8,1.7,1.5,2.1,2.6c-0.1,0.3-0.3,0.4-0.6,0.2c-0.8-0.4-1.7-1.1-2.7-0.9c0.6,0.3,1.3,0.5,1.8,0.9
			c0.3,0.3,0.1,0.6-0.1,0.9c0,0.2,0,0.3,0.1,0.5c2.1,0.4,4.1,1.2,6.2,1.6c1.4,0.3,2.8,0.8,4.2,1.2c1,0.3,2,0.7,2.9,1.3
			c0.4,0.3,0.2,1-0.3,1.2c-0.9,0.3-1.9,0.2-2.9,0.2c0.4,0.5,1,1.1,0.8,1.8c-0.2,0.6-0.9,0.4-1.3,0.3c-1.2-0.4-2.5-0.4-3.7-0.1
			c0.8,0.5,1.8,0.7,2.3,1.6c0,0.1-0.1,0.3-0.2,0.4c-0.9,0-1.8-0.6-2.8-0.3c0.6,0.7,1.3,1.6,0.9,2.5c-1-0.1-1.9-0.7-2.9-0.8
			c0.6,0.6,1.5,1,1.9,1.8c0.2,0.3,0,0.7-0.3,0.8c-0.7,0-1.3-0.5-2-0.3c0.3,0.5,0.8,1,0.8,1.6c0,0.4-0.4,0.5-0.7,0.6
			c1.3,0.8,2.7,1.5,4.1,2c0.4,0.1,0.2,0.7-0.2,0.7c-0.7,0-1.3-0.1-2-0.2c1,0.6,2.1,1.2,2.9,2.1c0.3,0.3,0,0.9-0.4,0.8
			c-0.6-0.2-1.2-0.5-1.8-0.7c-1.1-0.4-2.1-1.1-3.3-1.1c0.3,0.3,0.7,0.5,1,0.7c1.2,0.7,2.2,1.7,3,2.7c0.2,0.3,0.5,0.7,0.2,1
			c-0.3,0.2-0.6-0.1-0.8-0.3c-0.9-0.7-2-1.1-3.1-1.4c1.4,1.5,2.8,3,3.8,4.7c0.2,0.2,0.1,0.6-0.2,0.4c-1.2-1-2.6-1.8-3.8-2.8
			c0.8,1.5,2.1,2.5,3.3,3.7c0.2,0.2,0.5,0.4,0.2,0.7c-1.6-0.3-2.8-1.4-4-2.3c0.5,0.9,0.8,1.9,1,2.9c0.1,0.3-0.2,0.8-0.6,0.5
			c-0.8-1.1-1.8-2.1-2.8-3c0.4,1,0.7,2.2,0.7,3.3c0,0.3-0.2,0.4-0.5,0.4c-0.5-0.5-0.8-1.1-1.2-1.7c0.1,0.4,0.4,1.4-0.4,1.3
			c-0.4-0.4-0.7-0.8-1.1-1.2c0.2,0.3,0.3,0.5,0.5,0.8c-0.3,0.5-0.8,0-1-0.3c-0.3-0.5-0.9-0.6-1.4-0.8c0,0.8,0.5,1.5,0.6,2.3
			c-1.1-0.6-2-1.6-3.1-2.3c0.3,0.9,0.7,1.9,0.2,2.8c-0.7-0.4-0.9-1.2-1.4-1.7c-0.2,0.5-0.5,0.9-0.6,1.4c-0.1,0.5,0,1-0.2,1.4
			c-0.1,0-0.4-0.1-0.5-0.2c0.1,0.9,0.1,2-0.7,2.7c-0.9-0.2-1.7-0.7-2.2-1.4c-1.1,0.7-2.4-0.4-3-1.3c-0.5,0.1-1,0.1-1.5-0.2
			c-0.3-0.2-0.4-0.7-0.4-1.1c-0.1-1.1,0.3-2.2,0.5-3.2c0.1-0.4,0.4-0.6,0.5-1c-0.1-0.3-0.1-0.5-0.2-0.8c-0.2,0.6-0.4,1.1-0.7,1.6
			c-0.2-0.3-0.4-0.7-0.6-1.1c-0.1-0.4-0.2-0.7-0.4-1.1c-0.1,0.4-0.2,0.7-0.3,1.1c-0.1-0.1-0.3-0.2-0.5-0.2c-0.3-0.6-0.4-1.4-0.8-1.9
			l0-0.1l-0.2,0c0-0.2,0-0.4,0-0.5c-0.2,0.4-0.3,0.9-0.8,0.9c-0.2-0.2-0.4-0.4-0.6-0.6c0.1,0,0.2-0.1,0.3-0.1c0-0.2,0-0.5-0.1-0.7
			c-0.4,0.2-0.9,0.4-1.4,0.5c-0.5,0-0.9,0.2-1.1,0.7c-0.4,1-0.3,2,0,3c-0.1,0-0.3,0.1-0.3,0.2c-0.6-0.4-1-1.1-1.4-1.8
			c-0.2,0.3-0.3,1-0.8,0.8c-0.5-0.4-0.8-1-0.8-1.6c-0.5,0.1-1,0.3-1.5,0.2c-0.6-0.2-1.1-0.8-1.2-1.4c0-0.5,0.2-1,0.4-1.5
			c0.4-0.9,1.3-1.5,2.2-1.9c0.3-0.6,0.7-1.3,1.1-1.9c-0.4,0.1-0.8,0.1-1.2,0.2c-0.5,0.1-1.1,0.3-1.6,0c0.5-0.5,0.9-1.1,1.2-1.7
			c0.5-0.8,1.3-1.4,1.8-2.2c-1.3-0.3-2.7,0-3.9,0.2c-0.1,0-0.2-0.1-0.3-0.2c0.6-1.4,2.2-1.9,3.4-2.6C58.7,62.3,58,62.5,58,62
			c0.8-1,2.2-1.3,3-2.2c-0.6-0.3-1.2-0.5-1.8-0.7c0.3-0.4,0.9-0.6,1.3-1c-0.3,0.1-0.7,0.2-0.6-0.3c0.5-0.4,1.2-0.6,1.7-1.1
			c-1.9,0.2-3.8-0.5-5.4-1.6c-0.6-0.4-0.1-1.2,0.4-1.6c-1-0.3-2-0.6-3-1c-0.3-0.1-0.7-0.3-0.7-0.6c0.1-0.8,0.5-1.6,1.3-1.9
			c-0.8-0.5-1.6-0.8-2.5-1.2c-0.8-0.5-1-1.7-0.2-2.3c-0.7-0.3-1.4-0.8-2-1.3c-0.6-0.4-1.4-0.7-1.7-1.4c-0.1-0.9,0.8-1.9,1.8-1.6
			c0.6,0.1,1.3,0.2,1.9,0.4c0.5,0.1,0.9,0.6,1.4,0.6c3.1,0.6,6.2,1.4,9.4,1.7c1.5,0.2,3,0.4,4.4,1.1c-0.1-0.3-0.5-0.7-0.2-1
			c2.4-0.5,3.9-2.7,5.9-4.1c-1.8,0.1-3.7,0.2-5.5-0.4c-1.9-0.7-3.9-1.4-5.8-2.2c-1.6-1-3.2-2.1-4.8-3.3c-0.3-0.2-0.4-0.8,0-0.9
			c1.3-0.6,2.8-0.7,4.2-1c1.7-0.3,3.4-0.3,5.1-0.1c1.7,0,3.3,0.6,4.8,1.4c0.1-0.3,0.1-0.6,0.2-0.9c1.3,0.3,2.4-0.5,3.5-1.1
			c1.1-0.8,2.1-1.6,3.3-2.3c1.3-1.3,2.2-2.8,2.9-4.5c0.2-0.3,0.2-0.9,0.7-0.8c0.2,0.3,0.1,0.6,0,0.9C80.9,26.3,80.7,27.1,80.4,27.9z
			 M81.7,27.7c-0.5,0.3-1,0.7-1.6,0.8c-0.5-0.1,0-0.8,0-1.1c0.6-0.4-0.5-0.6-0.1,0c-0.9,1.2-1.7,2.5-2.9,3.4c-1,0.7-1.9,1.6-2.9,2.2
			c-0.8,0.3-1.6,0.8-2.4,1c0,1.6,0.7,3.1,1.3,4.6c-0.2-0.2-0.5-0.4-0.6-0.7c-0.5-1.1-0.9-2.2-0.9-3.4c0-0.3-0.3-0.5-0.4-0.7
			c0,0.3,0,0.6-0.1,0.9c-1.3-0.6-2.6-1.2-4-1.4c-1.1-0.1-2.2,0-3.4,0c-1.7,0-3.3,0.4-5,0.7c-0.6,0.1-1.1,0.3-1.7,0.5
			c0.4,0.3,0.9,0.6,1.3,0.9c0.3,0.4,0.7,0.6,1.1,0.9c1,0.6,1.9,1.4,3,1.8c1.5,0.6,2.9,1.2,4.4,1.6c2.1,0.8,4.4,0.6,6.7,0.5
			c-0.2-0.4-0.8-0.9-0.1-1.1c0.6,1,1.6,1.8,2,2.9c-0.1,0.1-0.4,0.3-0.5,0.4c-0.3-0.5-0.5-1-0.9-1.4l0,0c-0.1-0.2-0.2-0.4-0.3-0.5
			c-0.2,0.1-0.5,0.1-0.7,0.2c-1.4,1.4-2.6,3-4.4,4.1c-0.3,0.2-0.6,0.4-1,0.6c1,0.6,2,1.1,3.1,1.5c0.3,0.1,0.6,0,0.9,0
			c0.9-0.4,1.5-1.3,2.4-1.6l-0.1,0.2c-0.1,0.9-0.8,1.4-1.4,1.9c-0.6,0.3-1.3,0.5-2,0.4c-1.3-0.3-2.4-0.9-3.5-1.6
			c-0.7-0.2-1.4-0.4-2.1-0.6c-1.6-0.4-3.3-0.5-4.9-0.7c-0.6-0.1-1.2-0.2-1.7-0.3c-1.6-0.3-3.2-0.7-4.7-0.9c-0.7-0.2-1.4-0.2-2.1-0.4
			c-0.7-0.3-1.4-0.4-2.1-0.5c-0.5,0-0.8,0.5-0.9,1c1.3,0.8,2.5,1.8,3.8,2.5c0.3,0.4-0.3,0.6-0.5,0.9c-0.4,0.3-0.1,0.8,0.2,1.1
			c0.3,0.2,0.7,0.3,1.1,0.5c0.7,0.4,1.5,0.6,2,1.2c0.2,0.4-0.3,0.5-0.6,0.6c-0.6,0.2-0.7,0.8-0.9,1.3c1.2,0.5,2.4,0.8,3.6,1.2
			c0.3,0.2,0.1,0.6,0,0.9c-0.2,0.2-0.6,0.3-0.5,0.6c1.1,0.8,2.4,1.2,3.7,1.6c0.3-0.1,0.5-0.2,0.7-0.4c0.9-0.6,1.9-0.9,2.8-1.6
			c-0.8-0.3-1.6-0.3-2.4-0.5c0.3-0.2,0.6-0.4,0.9-0.5c1-0.2,2.1-0.4,3.1-0.9c-0.7-0.3-1.5-0.3-2.1-0.7c0.7-0.7,1.7-0.9,2.6-1.4
			c0.6-0.3,1.1-0.8,1.5-1.2c0,0.7-0.6,1.1-1.1,1.4c-0.6,0.4-1.4,0.7-2,1c0.6,0.3,1.5,0.2,1.9,0.8c-0.9,0.8-2.2,1-3.3,1.3
			c0.4,0.2,1.1,0,1.3,0.4c-0.3,1-1.5,1.3-2.4,1.7c0.1,0,0.3,0.1,0.3,0.2c0.1,0.9-0.8,1.3-1.5,1.7c0,0.5-0.5,0.7-0.9,1
			c0.5,0.2,1.2,0.3,1.6,0.8c0,0.4-0.4,0.7-0.7,0.9c-0.6,0.4-1.2,0.8-1.8,1.2c0.3,0.1,1.1,0.2,0.7,0.7c-1,0.8-2.3,1-3.1,2
			c1.2,0,2.4-0.5,3.6,0c0.6,0.2,0.1,0.9-0.1,1.2c-0.8,0.8-1.5,1.8-2.1,2.8c0.8-0.1,1.7-0.5,2.5-0.3c-0.2,0.7-0.7,1.2-1.1,1.8
			c0.6-0.1,1.2-0.6,1.8-0.5c-0.3,0.7-1,1.1-1.5,1.7c-0.2,0.6-0.4,1.1-0.6,1.7c0.5-0.2,1-0.5,1.5-0.7l0,0c0.8-0.2,1.5-0.6,2.3-0.6
			c0.6,0.4-0.1,1.1-0.2,1.6c0.9,0.1,1.6-0.6,2.4-0.9c0,0.5,0,0.9,0,1.4c0.1-0.2,0.2-0.4,0.3-0.6c0.2,0.1,0.4,0.2,0.4,0.4
			c0.3,0.7,0.7,1.4,1,2.1c0.1-0.3,0.2-0.6,0.4-1c0.2-0.1,0.4,0,0.5,0.2c0.3,0.5,0.4,1.1,0.6,1.6c0.2-0.5,0.3-0.9,0.5-1.4
			c0.1,0,0.2,0,0.3,0c0.3,0.6,0.4,1.2,0.7,1.8c0.7-0.1,0.6-0.9,0.8-1.4c0.3,0.1,0.4,0.4,0.5,0.6c0.3,0.8,0.7,1.5,1.1,2.2
			c0-0.5,0-1.1,0.1-1.6c0-0.3,0.4-0.4,0.6-0.1c0.9,0.9,1.8,1.8,2.6,2.8c0-0.7-0.3-1.5-0.1-2.2c0.1,0,0.3-0.1,0.4-0.1
			c1,0.9,1.9,1.9,2.7,3c-0.1-0.9-0.4-1.6-0.8-2.4c0.1-0.1,0.2-0.2,0.3-0.2c1,0.6,1.9,1.3,2.8,2c0-0.2-0.1-0.4-0.1-0.6
			c0.1-0.3,0.1-0.6,0.2-0.8c0.6,0,1.3,0.2,1.8,0.5c-0.2-0.3-0.6-0.6-0.3-0.9c0.7,0.2,1.2,0.7,1.7,1.2c-0.1-0.5-0.3-1-0.3-1.5
			c0-0.3,0.4-0.3,0.5-0.1c0.4,0.4,0.7,0.8,1.1,1.3c-0.1-0.9-0.5-1.8-0.7-2.6c0.1-0.5,0.7,0,0.9,0.1c0.8,0.7,1.6,1.4,2.3,2.1
			c-0.3-1-0.8-1.9-1.2-2.8c0-0.1,0.1-0.3,0.2-0.4c1.4,0.9,2.5,2.1,4,2.7c-1.2-1.1-2.5-2.3-3-4c0-0.1,0.1-0.3,0.1-0.4
			c1.1,0.9,2.3,1.8,3.5,2.6c-1-1.5-2.3-2.8-3.5-4.2c-0.1-0.2-0.4-0.5-0.2-0.7c1.2,0.2,2.3,0.7,3.4,1.1c-0.8-0.9-1.7-1.6-2.6-2.3
			c-0.4-0.3-0.8-0.5-0.9-0.9c1.5-0.2,2.9,0.1,4.3,0.5c-0.5-0.7-1.4-1.1-2-1.6l-0.1-0.2c0.9-0.1,1.7,0.2,2.6,0.2
			c-1.6-0.7-3.1-1.4-4.4-2.4c-0.7-0.5-1.6-0.7-2.4-1c0.1,0.4,0.3,0.7,0.2,1.1c-0.1,0.5-0.7,0.3-1,0.1c-1.7-1.2-2.9-2.9-4.5-4.3
			c-0.4-0.4-1-0.7-1.3-1.3c0.9,0,1.6,0.6,2.2,1.2c1.2,1.2,2.3,2.5,3.6,3.6c0-0.4,0-1,0.6-1.1c1.2,0.1,2.3,0.8,3.5,1.1
			c-0.2-0.3-0.4-0.6-0.5-0.9L88,64c-0.1-0.3-0.1-0.6-0.1-0.9c0.3-0.5,1.1-0.3,1.3-0.7c-0.3-0.6-1.3-0.8-1.3-1.5
			c0.3-0.5,1-0.3,1.5-0.4c0.1,0,0.2,0.1,0.3,0.1c0.5,0.2,0.9,0.3,1.4,0.5c-0.3-0.5-0.6-1.1-1.1-1.4c-0.1-0.3,0-0.6,0.3-0.8
			c0.9-0.1,1.8-0.1,2.6,0.3c-0.7-0.5-1.5-0.8-2.3-1.1c-0.1-0.1-0.2-0.2-0.3-0.3l0-0.3c0.1-0.1,0.3-0.2,0.4-0.3
			c1.6-0.4,3.3-0.4,4.9,0.1c-0.3-0.6-0.8-1-1.3-1.4c-0.3-0.2-0.2-0.6,0.1-0.7c0.4-0.2,0.9-0.1,1.4-0.1c0.8,0.1,1.6,0,2.3-0.1
			c-0.2-0.4-0.6-0.5-1-0.7c-1.2-0.5-2.5-0.9-3.8-1.3c-1-0.3-2.1-0.5-3.1-0.8c-0.8-0.2-1.5-0.4-2.3-0.7c-1-0.4-2-0.6-3.1-0.9
			c-0.4-0.2-0.9-0.2-1.1-0.6c0.2,0,0.5,0,0.7,0.1c-0.1-0.2-0.3-0.4-0.4-0.6c0.3-0.1,0.6-0.2,0.8-0.3c-0.7-0.2-1.4-0.6-2.1-1l-0.1,0
			c0.1-0.2,0.1-0.6,0.5-0.6c0.9-0.4,1.9,0,2.8,0.5c-0.6-0.6-1.1-1.2-1.8-1.7c-0.2-0.3-0.5-0.6-0.1-0.8c1-0.2,2,0.4,2.9,0.9
			c-0.6-0.7-1.3-1.2-1.8-1.9c0-0.4,0.3-0.4,0.6-0.4c1.5,0.2,2.8,1,4,1.9c-1-1-2.2-1.9-3.3-2.9c-0.2-0.2-0.4-0.6-0.1-0.8
			c0.8-0.6,1.9-0.4,2.7,0.1c-0.5-0.7-1.4-1.2-1.6-2.1c0.2-0.6,0.9-0.3,1.3-0.4c-0.6-0.6-1.3-1-1.9-1.6c-0.3-0.3,0-0.7,0.3-0.9
			c0.6-0.2,1.3,0,2,0.1c-0.7-0.7-1.6-1.2-2.3-2c-0.1-0.2-0.4-0.5,0-0.7c0.4-0.1,0.8,0,1.2-0.1c-1-0.5-2-0.8-2.8-1.6
			c-0.2-0.7,0.8-0.7,1.3-0.9c-1.1-0.2-2.2-0.4-3.2-0.9c-0.3,0-0.5-0.5-0.1-0.6c0.6-0.3,1.3-0.3,1.9-0.6c-1.4-0.1-2.7-0.1-4-0.6
			c-0.1-0.1-0.3-0.3-0.4-0.4c0.2-0.2,0.4-0.5,0.6-0.7c0.5-0.4,0.9-0.9,1.2-1.4C82.3,27.2,82,27.5,81.7,27.7z M56.9,72.4
			c-0.3,0.6-0.7,1.4-0.2,2c0.4,0.6,1.2,0.4,1.7,0.1c0.2-0.1,0.5-0.3,0.7,0c0,0.2,0,0.5-0.1,0.7c0.1,0.3,0.2,0.6,0.4,0.9
			c0.1-0.2,0.1-0.4,0.2-0.6c0.2-0.1,0.4-0.2,0.6-0.4c0.1,0.1,0.3,0.3,0.4,0.5l0,0.1c0.2,0.4,0.4,0.8,0.7,1.1c-0.2-1-0.1-2.1,0.6-2.9
			c-0.1-0.1-0.2-0.3-0.3-0.3c0.1-0.3,0.2-0.7,0.4-1c-0.1,0-0.2,0.1-0.3,0.1c-1.1,0.4-2.1,0.8-3.1,1.4c-0.2,0.2-0.5,0-0.5-0.3
			c0.2-0.9,0.6-1.7,0.9-2.6C58.2,71.2,57.4,71.8,56.9,72.4z M75.8,78.2c0.1,0.8,0.4,1.6,0,2.4c-0.4,0.2-0.6-0.4-0.9-0.6
			c-0.5-0.6-1-1.2-1.5-1.8c-0.3-0.3-0.6-0.7-0.9-1c0,0.5,0,1,0,1.5c-0.1,0.4,0.2,1.1-0.3,1.2c-0.4-0.3-0.5-1-0.8-1.4
			c-0.2-0.7-0.5-1.4-0.9-2c-0.1,0.7-0.2,1.3-0.3,2c-0.1,0.2-0.2,0.7-0.5,0.5c-0.1-0.3-0.2-0.6-0.4-0.9c-0.2,0.7-0.4,1.3-0.5,2l0,0
			c-0.1,0.5-0.1,1,0,1.5c0.5,0.2,1,0,1.4-0.3c0.5,0.1,0.5,0.6,0.5,1c0.4,0.4,0.9,0.8,1.4,0.9c0.2-0.3,0.4-0.7,0.7-1
			c0.1,0,0.4,0.1,0.5,0.2c0.1,0.2,0.1,0.4,0.2,0.5c0.4,0.6,0.9,1,1.6,1.2c-0.1-0.3-0.2-0.6-0.4-0.9c0.6-0.2,0.2-1,0.5-1.5
			c0.1-0.4,0.4-0.4,0.7-0.3c0.3-0.7,0.5-1.3,1-1.8C76.7,79.1,76.3,78.6,75.8,78.2z M70.1,77.4"/>
	</g>
	<path fill="#1D1411" d="M79,38c0.5-1.5,0.6-3.2,0.1-4.8c-0.1,1.4,0,2.8-0.6,4c-0.2,0.7-0.8,1.3-1.5,1.5c-0.6,0.3-1.3-0.2-2,0
		c0.2,0.6,0.9,0.8,1.5,0.8C77.5,39.5,78.5,38.9,79,38z"/>
	<path fill="#1D1411" d="M75.5,34.5c-0.2-0.8-1-0.2-1.1,0.3c-0.3,0.4-0.1,1.5,0.6,1.2C75.4,35.6,75.7,35,75.5,34.5z"/>
	<path fill="#1D1411" d="M59.9,48.4c0-0.1,0-0.2,0-0.2c-0.6,0.2-1.3,0.2-1.9,0.1c-1-0.3-2-0.6-3.1-0.7c0.9,0.6,2,1,3.1,1.2
		c0.5,0.1,1.1,0,1.5-0.2C59.7,48.6,59.8,48.5,59.9,48.4z"/>
	<path fill="#1D1411" d="M60.8,51.9c-0.9,0-1.9,0.1-2.8-0.3c-0.1,0-0.2-0.1-0.3-0.1c-0.1,0-0.3,0-0.4,0.1c0.5,0.3,1,0.6,1.5,0.7
		C59.4,52.5,60.2,52.4,60.8,51.9z"/>
	<path fill="#F64942" d="M81.7,27.7c-0.5,0.3-1,0.7-1.6,0.8c-0.5-0.1,0-0.8,0-1.1l-0.1,0c-0.9,1.2-1.7,2.5-2.9,3.4
		c-1,0.7-1.9,1.6-2.9,2.2c0.7-0.4,1.4-0.4,2.1-0.5c0.8-0.3,1.6-0.7,2.4-1.1c0.8-0.7,1.6-1.5,2.2-2.3c0.2-0.2,0.4-0.5,0.6-0.7
		C81.5,28.2,81.6,28,81.7,27.7z"/>
	<path fill="#F64942" d="M83,48.1L83,48.1c-0.9,0.2-1.7-0.2-2.5-0.3c-0.8-0.1-1.7-0.2-2.5-0.4c-1.4-0.3-2.7,0.2-4,0.4
		c-0.5,0.1-1-0.2-1.4-0.4c-0.6,0.3-1.3,0.5-2,0.4c-1.3-0.3-2.4-0.9-3.5-1.6c-0.7-0.2-1.4-0.4-2.1-0.6c-1.6-0.4-3.3-0.5-4.9-0.7
		c0,1.1,0.1,2.1,0,3.2c0,0.1,0,0.2,0,0.2c-0.1,0.1-0.2,0.1-0.3,0.2c-0.3,1.1-0.5,2.2-0.8,3.2c-0.3-0.1-0.6-0.1-0.9-0.2
		c0.9,0.4,1.9,0.3,2.8,0.3c-0.6,0.4-1.3,0.5-2,0.4c-0.4,0.7-1,1.3-1.7,1.7c-0.2,0.2-0.6,0.3-0.5,0.6c1.1,0.8,2.4,1.2,3.7,1.6
		c0.3-0.1,0.5-0.2,0.7-0.4c0.9-0.6,1.9-0.9,2.8-1.6c-0.8-0.3-1.6-0.3-2.4-0.5c0.3-0.2,0.6-0.4,0.9-0.5c1-0.2,2.1-0.4,3.1-0.9
		c-0.7-0.3-1.5-0.3-2.1-0.7c0.7-0.7,1.7-0.9,2.6-1.4c0.6-0.3,1.1-0.8,1.5-1.2c0,0.7-0.6,1.1-1.1,1.4c-0.6,0.4-1.4,0.7-2,1
		c0.6,0.3,1.5,0.2,1.9,0.8c-0.9,0.8-2.2,1-3.3,1.3c0.4,0.2,1.1,0,1.3,0.4c-0.3,1-1.5,1.3-2.4,1.7c0.1,0,0.3,0.1,0.3,0.2
		c0.1,0.9-0.8,1.3-1.5,1.7c0,0.5-0.5,0.7-0.9,1c0.5,0.2,1.2,0.3,1.6,0.8c0,0.4-0.4,0.7-0.7,0.9c-0.6,0.4-1.2,0.8-1.8,1.2
		c0.3,0.1,1.1,0.2,0.7,0.7c-1,0.8-2.3,1-3.1,2c1.2,0,2.4-0.5,3.6,0c0.6,0.2,0.1,0.9-0.1,1.2c-0.8,0.8-1.5,1.8-2.1,2.8
		c0.8-0.1,1.7-0.5,2.5-0.3c-0.2,0.7-0.7,1.2-1.1,1.8c0.6-0.1,1.2-0.6,1.8-0.5c-0.3,0.7-1,1.1-1.5,1.7c-0.2,0.1-1.1,1.6-0.8,1.9
		l1.7-0.8c0.8-0.2,1.5-0.6,2.3-0.6c0.6,0.4-0.1,1.1-0.2,1.6c0.9,0.1,1.6-0.6,2.4-0.9c0,0.5,0,0.9,0,1.4c0.1-0.2,0.2-0.4,0.3-0.6
		c0.2,0.1,0.4,0.2,0.4,0.4c0.3,0.7,0.7,1.4,1,2.1c0.1-0.3,0.2-0.6,0.4-1c0.2-0.1,0.4,0,0.5,0.2c0.3,0.5,0.4,1.1,0.6,1.6
		c0.2-0.5,0.3-0.9,0.5-1.4c0.1,0,0.2,0,0.3,0c0.3,0.6,0.4,1.2,0.7,1.8c0.7-0.1,0.6-0.9,0.8-1.4c0.3,0.1,0.4,0.4,0.5,0.6
		c0.3,0.8,0.7,1.5,1.1,2.2c0-0.5,0-1.1,0.1-1.6c0-0.3,0.4-0.4,0.6-0.1c0.9,0.9,1.8,1.8,2.6,2.8c0-0.7-0.3-1.5-0.1-2.2
		c0.1,0,0.3-0.1,0.4-0.1c1,0.9,1.9,1.9,2.7,3c-0.1-0.9-0.4-1.6-0.8-2.4c0.1-0.1,0.2-0.2,0.3-0.2c1,0.6,1.9,1.3,2.8,2
		c0-0.2-0.1-0.4-0.1-0.6c0.1-0.3,0.1-0.6,0.2-0.8c0.6,0,1.3,0.2,1.8,0.5c-0.2-0.3-0.6-0.6-0.3-0.9c0.7,0.2,1.2,0.7,1.7,1.2
		c-0.1-0.5-0.3-1-0.3-1.5c0-0.3,0.4-0.3,0.5-0.1c0.4,0.4,0.7,0.8,1.1,1.3c-0.1-0.9-0.5-1.8-0.7-2.6c0.1-0.5,0.7,0,0.9,0.1
		c0.8,0.7,1.6,1.4,2.3,2.1c-0.3-1-0.8-1.9-1.2-2.8c0-0.1,0.1-0.3,0.2-0.4c1.4,0.9,2.5,2.1,4,2.7c-1.2-1.1-2.5-2.3-3-4
		c0-0.1,0.1-0.3,0.1-0.4c1.1,0.9,2.3,1.8,3.5,2.6c-1-1.5-2.3-2.8-3.5-4.2c-0.1-0.2-0.4-0.5-0.2-0.7c1.2,0.2,2.3,0.7,3.4,1.1
		c-0.8-0.9-1.7-1.6-2.6-2.3c-0.4-0.3-0.8-0.5-0.9-0.9c1.5-0.2,2.9,0.1,4.3,0.5c-0.5-0.7-1.4-1.1-2-1.6l-0.1-0.2
		c0.9-0.1,1.7,0.2,2.6,0.2c-1.6-0.7-3.1-1.4-4.4-2.4c-0.7-0.5-1.6-0.7-2.4-1c0.1,0.4,0.3,0.7,0.2,1.1c-0.1,0.5-0.7,0.3-1,0.1
		c-1.7-1.2-2.9-2.9-4.5-4.3c-0.4-0.4-1-0.7-1.3-1.3c0.9,0,1.6,0.6,2.2,1.2c1.2,1.2,2.3,2.5,3.6,3.6c0-0.4,0-1,0.6-1.1
		c1.2,0.1,2.3,0.8,3.5,1.1c-0.2-0.3-0.4-0.6-0.5-0.9L88,64c-0.2,0.1-0.4,0.1-0.5,0.2c-0.6-0.4-1.2-0.8-1.8-1
		c-0.1-0.5-0.3-0.9-0.5-1.3c0.8-1,0.2-2.2,0.6-3.3c0.8-2.4,1.5-4.7,2.4-7.1c-1-0.4-2-0.6-3.1-0.9c-0.4-0.2-0.9-0.2-1.1-0.6
		c0.2,0,0.5,0,0.7,0.1c-0.1-0.2-0.3-0.4-0.4-0.6c0.3-0.1,0.6-0.2,0.8-0.3C84.3,48.9,83.6,48.5,83,48.1z"/>
	<path fill="#F64942" d="M68.5,44.9c-0.3,0.2-0.6,0.4-1,0.6c1,0.6,2,1.1,3.1,1.5c0.3,0.1,0.6,0,0.9,0c-0.8-0.3-1.6-0.5-2.4-0.8
		C68.7,45.9,68.6,45.3,68.5,44.9z"/>
	<g>
		<path fill="#FEEF4C" d="M83.3,30.8c-0.3,0.1-0.1,0.6,0.1,0.6c1,0.4,2.1,0.6,3.2,0.9c-0.4,0.2-1.5,0.2-1.3,0.9
			c0.8,0.8,1.9,1.1,2.8,1.6c-0.4,0-0.8-0.1-1.2,0.1c-0.3,0.1-0.1,0.5,0,0.7c0.7,0.7,1.5,1.3,2.3,2c-0.6-0.1-1.3-0.3-2-0.1
			c-0.3,0.1-0.6,0.6-0.3,0.9c0.6,0.6,1.3,1.1,1.9,1.6c-0.4,0.1-1.1-0.2-1.3,0.4c0.2,0.9,1.1,1.4,1.6,2.1c-0.7-0.5-1.9-0.7-2.7-0.1
			c-0.3,0.2-0.2,0.6,0.1,0.8c1.1,1,2.3,1.8,3.3,2.9c-1.2-0.8-2.5-1.7-4-1.9c-0.3,0-0.6,0-0.6,0.4c0.6,0.7,1.2,1.3,1.8,1.9
			c-0.9-0.4-1.9-1-2.9-0.9c-0.4,0.2-0.1,0.6,0.1,0.8c-1,0.4-1.9,0.7-2.9,1.1c-1,0.2-2.1,0.1-3.1-0.3c-1.5-0.5-2.9-1-4.4-1.5l0.1-0.2
			c0.4-1.4,0-2.8-0.1-4.2c0.3,0.4,0.6,0.9,0.9,1.4c0.1-0.1,0.4-0.3,0.5-0.4c-0.4-1.2-1.4-1.9-2-2.9c-0.1-0.2-0.2-0.3-0.2-0.5
			c-0.5-1.5-1.3-3-1.3-4.6c0.9-0.2,1.6-0.6,2.4-1c0.7-0.4,1.4-0.4,2.1-0.5c0.8-0.3,1.6-0.7,2.4-1.1c1.1,0.4,2-0.4,2.8-1
			c-0.1-0.3-0.1-0.6-0.2-0.9c1.3,0.5,2.7,0.5,4,0.6C84.6,30.4,84,30.5,83.3,30.8z M79.1,33.2c-0.1,1.4,0,2.8-0.6,4
			c-0.2,0.7-0.8,1.3-1.5,1.5c-0.6,0.3-1.3-0.2-2,0c0.2,0.6,0.9,0.8,1.5,0.8c1,0,2-0.7,2.5-1.6C79.5,36.4,79.5,34.7,79.1,33.2z
			 M74.4,34.8c-0.3,0.4-0.1,1.5,0.6,1.2c0.4-0.4,0.7-1,0.5-1.5C75.3,33.7,74.5,34.3,74.4,34.8z"/>
	</g>
	<path fill="#FEEF4C" d="M93.5,53c-1-0.3-2.1-0.5-3.1-0.8c-0.7,0.8-1.7,1.5-2.4,2.3c-0.7,1-0.7,2.3-1.2,3.4
		c-0.6,1.1-1.1,2.4-0.8,3.6c0.1,0.5,0.5,0.7,0.9,0.9c0.1,0.2,0.1,0.5,0.2,0.7c0.1-0.1,0.3-0.3,0.4-0.4c0.2,0.1,0.3,0.3,0.5,0.4
		c0.3-0.5,1.1-0.3,1.3-0.7c-0.3-0.6-1.3-0.8-1.3-1.5c0.3-0.5,1-0.3,1.5-0.4c0.3-0.9,0.8-1.8,1-2.8l0-0.3c0.1-0.1,0.3-0.2,0.4-0.3
		C91.7,55.7,92.2,54,93.5,53z"/>
	<path fill="#FEEF4C" d="M58.2,44.7c-1.6-0.3-3.2-0.7-4.7-0.9c-0.1,0-0.3-0.1-0.4-0.1c-0.1,1.7,0.3,3.4-0.1,5.1
		c0.7,0.4,1.5,0.6,2,1.2c0.2,0.4-0.3,0.5-0.6,0.6c-0.6,0.2-0.7,0.8-0.9,1.3c1.2,0.5,2.4,0.8,3.6,1.2c-0.2-0.2-0.4-0.3-0.6-0.5
		c0.3-0.3,0.5-0.7,0.7-1.1c0.1,0,0.3,0,0.4-0.1c0.3-0.9,0.4-1.8,0.4-2.8c-1.1-0.2-2.1-0.6-3.1-1.2c1,0.1,2,0.4,3.1,0.7
		C58.1,47.1,58.2,45.9,58.2,44.7z"/>
	<path fill="#FDCE73" d="M64.2,34.1c-0.1-0.4-0.5-0.5-0.7-0.7c-1.7,0-3.3,0.4-5,0.7c-0.6,0.1-1.1,0.3-1.7,0.5
		c0.4,0.3,0.9,0.6,1.3,0.9c0.3,0.4,0.7,0.6,1.1,0.9c1,0.6,1.9,1.4,3,1.8c1.5,0.6,2.9,1.2,4.4,1.6c-0.1-1.1-1-1.9-1.4-2.9
		C64.9,36,64.6,35,64.2,34.1z"/>
	<path fill="#FDCE73" d="M90.6,57.9c-0.1-0.1-0.2-0.2-0.3-0.3c-0.1,1-0.7,1.9-1,2.8c0.1,0,0.2,0.1,0.3,0.1c0.1-0.3,0.2-0.6,0.3-0.9
		c-0.1-0.3,0-0.6,0.3-0.8C90.4,58.5,90.5,58.2,90.6,57.9z"/>
	<path fill="#FDC34B" d="M80.9,29.2c-0.7,0.8-1.4,1.6-2.2,2.3c1.1,0.4,2-0.4,2.8-1c-0.1-0.3-0.1-0.6-0.2-0.9
		C81.1,29.5,81,29.3,80.9,29.2z"/>
	<path fill="#FDC34B" d="M70.9,34c0,0.3,0,0.6-0.1,0.9c-1.3-0.6-2.6-1.2-4-1.4c-1.1-0.1-2.2,0-3.4,0c0.3,0.2,0.6,0.3,0.7,0.7
		c0.3,1,0.6,1.9,1,2.8c0.4,1,1.2,1.8,1.4,2.9c2.1,0.8,4.4,0.6,6.7,0.5c-0.2-0.4-0.8-0.9-0.1-1.1c-0.1-0.2-0.2-0.3-0.2-0.5
		c-0.2-0.2-0.5-0.4-0.6-0.7c-0.5-1.1-0.9-2.2-0.9-3.4C71.4,34.4,71.1,34.2,70.9,34z"/>
	<path fill="#FDC34B" d="M73.9,41.2c-0.1-0.2-0.2-0.4-0.3-0.5c-0.2,0.1-0.5,0.1-0.7,0.2c-1.4,1.4-2.6,3-4.4,4.1
		c0.1,0.4,0.2,1,0.6,1.2c0.8,0.3,1.6,0.5,2.4,0.8c0.9-0.4,1.5-1.3,2.4-1.6C74.4,44,74,42.6,73.9,41.2L73.9,41.2z"/>
	<path fill="#FDC34B" d="M86.1,47.9c-0.6-0.6-1.1-1.2-1.8-1.7c-1,0.4-1.9,0.7-2.9,1.1c-1,0.2-2.1,0.1-3.1-0.3
		c-1.5-0.5-2.9-1-4.4-1.5c-0.1,0.9-0.8,1.4-1.4,1.9c0.5,0.2,0.9,0.5,1.4,0.4c1.3-0.2,2.7-0.6,4-0.4c0.8,0.2,1.7,0.3,2.5,0.4
		c0.8,0.1,1.6,0.4,2.4,0.3c0.1-0.2,0.1-0.6,0.5-0.6C84.3,47.1,85.3,47.5,86.1,47.9z"/>
	<path fill="#FDC34B" d="M90.4,52.2c-0.8-0.2-1.5-0.4-2.3-0.7c-0.8,2.4-1.6,4.7-2.4,7.1c-0.4,1.1,0.1,2.3-0.6,3.3
		c0.2,0.4,0.4,0.8,0.5,1.3c0.7,0.2,1.3,0.6,1.8,1c0.2-0.1,0.4-0.1,0.5-0.2c-0.1-0.3-0.1-0.6-0.1-0.9c-0.2-0.1-0.3-0.3-0.5-0.4
		c-0.1,0.1-0.3,0.3-0.4,0.4c0-0.2-0.1-0.5-0.2-0.7c-0.4-0.2-0.8-0.5-0.9-0.9c-0.3-1.2,0.2-2.5,0.8-3.6c0.5-1.1,0.6-2.4,1.2-3.4
		C88.7,53.7,89.6,53,90.4,52.2z"/>
	<path fill="#FDC34B" d="M59.9,45c-0.6-0.1-1.2-0.2-1.7-0.3c0,1.2,0,2.4-0.1,3.6c0.6,0.1,1.3,0.1,1.9-0.1C60,47.1,60,46.1,59.9,45z"
		/>
	<path fill="#FDC34B" d="M58.8,51.9c0.3-1.1,0.4-2.2,0.8-3.2c-0.5,0.2-1,0.2-1.5,0.2c0,0.9-0.1,1.9-0.4,2.8c0.1,0,0.2,0.1,0.3,0.1
		C58.2,51.7,58.5,51.8,58.8,51.9z"/>
	<path fill="#FDC34B" d="M58.7,52.4c-0.5-0.2-1.1-0.4-1.5-0.7c-0.2,0.4-0.5,0.7-0.7,1.1c0.2,0.2,0.4,0.3,0.6,0.5
		c0.3,0.2,0.1,0.6,0,0.9C57.8,53.7,58.3,53.1,58.7,52.4z"/>
	<path fill="#4573AE" d="M80.1,27.5c0.6-0.4-0.5-0.6-0.1,0L80.1,27.5z"/>
	<path fill="#4573AE" d="M97.3,54.3c-1.2-0.5-2.5-0.9-3.8-1.3c-1.3,1-1.7,2.7-2.6,4c1.6-0.4,3.3-0.4,4.9,0.1c-0.3-0.6-0.8-1-1.3-1.4
		c-0.3-0.2-0.2-0.6,0.1-0.7c0.4-0.2,0.9-0.1,1.4-0.1c0.8,0.1,1.6,0,2.3-0.1C98.1,54.6,97.6,54.5,97.3,54.3z"/>
	<path fill="#4573AE" d="M53.5,43.8c-0.7-0.2-1.4-0.2-2.1-0.4c-0.7-0.3-1.4-0.4-2.1-0.5c-0.5,0-0.8,0.5-0.9,1
		c1.3,0.8,2.5,1.8,3.8,2.5c0.3,0.4-0.3,0.6-0.5,0.9c-0.4,0.3-0.1,0.8,0.2,1.1c0.3,0.2,0.7,0.3,1.1,0.5c0.4-1.7,0.1-3.4,0.1-5.1
		C53.2,43.7,53.4,43.7,53.5,43.8z"/>
	<path fill="#4573AE" d="M93,59.1c-0.7-0.5-1.5-0.8-2.3-1.1c-0.1,0.3-0.2,0.6-0.3,0.8C91.2,58.7,92.1,58.7,93,59.1z"/>
	<path fill="#4573AE" d="M91.1,61c-0.3-0.5-0.6-1.1-1.1-1.4c-0.1,0.3-0.2,0.6-0.3,0.9C90.2,60.7,90.6,60.9,91.1,61z"/>
	<path fill="#4573AE" d="M70.1,77.4"/>
</g>
</svg>
