<?xml version="1.0" encoding="utf-8"?>
<!-- Generator: Adobe Illustrator 18.1.1, SVG Export Plug-In . SVG Version: 6.00 Build 0)  -->
<svg version="1.1" id="Layer_1" xmlns="http://www.w3.org/2000/svg" xmlns:xlink="http://www.w3.org/1999/xlink" x="0px" y="0px"
	 viewBox="0 0 50 50" enable-background="new 0 0 50 50" xml:space="preserve">
<circle fill="none" stroke="#414042" stroke-width="2" stroke-miterlimit="10" cx="25" cy="25" r="18"/>
<path fill="#414042" d="M34.6,19c-0.7,0.3-1.5,0.5-2.3,0.6c0.8-0.5,1.4-1.3,1.7-2.2c-0.8,0.5-1.6,0.8-2.5,1
	c-0.7-0.8-1.8-1.3-2.9-1.3c-2.2,0-4,1.8-4,4c0,0.3,0,0.6,0.1,0.9c-3.3-0.2-6.2-1.7-8.2-4.1c-0.3,0.6-0.5,1.3-0.5,2
	c0,1.4,0.7,2.6,1.8,3.3c-0.6,0-1.3-0.2-1.8-0.5c0,0,0,0,0,0c0,1.9,1.4,3.5,3.2,3.9c-0.3,0.1-0.7,0.1-1,0.1c-0.3,0-0.5,0-0.7-0.1
	c0.5,1.6,2,2.7,3.7,2.7c-1.4,1.1-3.1,1.7-4.9,1.7c-0.3,0-0.6,0-0.9-0.1c1.8,1.1,3.8,1.8,6.1,1.8c7.3,0,11.3-6,11.3-11.3
	c0-0.2,0-0.3,0-0.5C33.4,20.5,34.1,19.8,34.6,19z"/>
<circle fill="none" stroke="#414042" stroke-miterlimit="10" cx="25" cy="25" r="18"/>
</svg>
