<?xml version="1.0" encoding="utf-8"?>
<!-- Generator: Adobe Illustrator 18.1.1, SVG Export Plug-In . SVG Version: 6.00 Build 0)  -->
<svg version="1.1" id="Layer_1" xmlns="http://www.w3.org/2000/svg" xmlns:xlink="http://www.w3.org/1999/xlink" x="0px" y="0px"
	 viewBox="0 0 50 50" enable-background="new 0 0 50 50" xml:space="preserve">
<circle fill="none" stroke="#414042" stroke-width="2" stroke-miterlimit="10" cx="25" cy="25" r="18"/>
<g>
	<path fill-rule="evenodd" clip-rule="evenodd" fill="#414042" d="M20.1,33.6V22h-3.8v11.6H20.1L20.1,33.6z M18.2,20.4
		c1.3,0,2.2-0.9,2.2-2c0-1.1-0.8-2-2.1-2s-2.2,0.9-2.2,2C16,19.5,16.9,20.4,18.2,20.4L18.2,20.4L18.2,20.4z"/>
	<path fill-rule="evenodd" clip-rule="evenodd" fill="#414042" d="M22.2,33.6h3.8v-6.5c0-0.3,0-0.7,0.1-0.9c0.3-0.7,0.9-1.4,2-1.4
		c1.4,0,1.9,1.1,1.9,2.6v6.2H34v-6.6c0-3.6-1.9-5.2-4.4-5.2c-2.1,0-3,1.2-3.5,1.9h0V22h-3.8C22.3,23.1,22.2,33.6,22.2,33.6
		L22.2,33.6z"/>
</g>
<circle fill="none" stroke="#414042" stroke-miterlimit="10" cx="25" cy="25" r="18"/>
</svg>
