<?xml version="1.0" encoding="utf-8"?>
<!-- Generator: Adobe Illustrator 18.1.1, SVG Export Plug-In . SVG Version: 6.00 Build 0)  -->
<svg version="1.1" id="Layer_1" xmlns="http://www.w3.org/2000/svg" xmlns:xlink="http://www.w3.org/1999/xlink" x="0px" y="0px"
	 viewBox="0 0 270 180" enable-background="new 0 0 270 180" xml:space="preserve">
<rect x="-8.1" y="-2" display="none" fill="#32A65A" width="289" height="184"/>
<g>
	<linearGradient id="SVGID_1_" gradientUnits="userSpaceOnUse" x1="139.9175" y1="7.2394" x2="139.9175" y2="172.7606">
		<stop  offset="0" style="stop-color:#F2E530"/>
		<stop  offset="1" style="stop-color:#FFB52E"/>
	</linearGradient>
	
		<path fill="none" stroke="url(#SVGID_1_)" stroke-width="6" stroke-linecap="round" stroke-linejoin="round" stroke-miterlimit="10" d="
		M127.1,11c-0.2,0.5-0.4,1.1-0.6,1.7c0.4,0.5,1.2,1.1,1.2,1.7c0,0.5-1,0.9-1.4,1.5c-0.4,0.5-0.8,1.2-1.4,2.1
		c2.2,0.8,3.9,1.7,5.8,2.2c1.6,0.4,3.4,0.5,5.1,0.7c0.3,1.1,0.2,2.7,0.9,3.3c0.8,0.6,2.4,0.1,3.6,0.4c1,0.2,2,0.9,3.3,1.4
		c-0.1-0.9-0.1-1.4-0.2-2c-0.5-3.7,0.3-3.6,3.1-3.7c2.1,0,4.3-0.2,5.7,2c0.1,0.2,0.3,0.4,0.4,0.4c3.2,0.2,6.4,0.5,9.6,0.7
		c1,0.1,2.1,0,3.1-0.1c1.1-0.1,1.3,0.5,1.6,1.5c0.4,1.2,0.9,2.6,1.8,3.4c2.2,1.9,2.7,4.4,3.7,6.8c0.8,1.9,0.7,4.1,2.5,5.5
		c0.9,0.7,1.8,1.5,2.7,2.3c0.3,0.3,0.7,0.9,0.6,1.3c-0.3,3.2,1.1,6,2.6,8.6c1.6,2.8,3.7,5.3,5.6,7.9c0.3,0.4,0.9,0.8,1.4,1
		c2,0.9,2.6,2.7,2.9,4.6c0.3,1.6,0.9,2.6,2.8,2.4c2-0.2,4-0.3,6-0.5c1-0.1,2-0.6,2.9-1c1.2-0.5,2.3-1.1,3.7-1.8
		c0.7,3.4-0.3,5.9-1.4,8.4c-1.6,3.5-3.3,7-4.7,10.6c-1.4,3.5-3.9,5.6-7.3,6.7c-0.8,0.3-1.6,0.9-2.2,1.6c-2.3,2.9-3.8,6.5-7,8.8
		c-1.2,0.9-1.1,2.3-0.8,3.6c0.4,1.9,0.7,3.8,1.2,5.7c0.2,0.9,0.8,1.8,1,2.7c0.5,2.2,0.8,4.4,1.2,6.5c0,0.1,0,0.1,0,0.2
		c0.5,1.1,1.7,2.6,1.4,3.3c-0.8,1.7-2.2,3.3-3.7,4.6c-2.9,2.7-6,5.2-8.8,7.5c0.1,2.8,0.5,5.5,0.2,8.1c-0.1,1.1-1.6,2.3-2.7,2.8
		c-1.7,0.8-2.6,1.7-2.2,3.7c0.4,2.1-0.2,3.8-2,5.4c-2.1,1.9-3.7,4.5-5.7,6.6c-3.3,3.4-6.9,6.3-12.1,5.6c-1.5-0.2-3.2-0.7-4,1.5
		c-0.1,0.3-1.4,0.5-2.1,0.4c-0.7-0.1-1.3-0.8-1.9-1.2c-0.1,0-1.9-5.5-2-5.6c-0.7-1.8-1.3-3.5-2-5.3c-0.2-0.4-0.4-0.8-0.6-1.4
		c-0.4-0.1-0.9-0.2-1.1-0.2c-0.9-2.8-1.9-5.4-2.6-8.1c-0.6-2.6-0.8-5.4-1.4-8c-0.3-1.3-0.7-2.8-1.6-3.8c-2.5-2.7-2.6-5.8-1.8-9
		c0.6-2.3,1.1-4.7,3.4-6.4c0.8-0.6,0.9-3,0.5-4.3c-0.5-1.6-1.2-2.8-0.9-4.6c0.2-1.1-0.4-2.4-0.5-3.6c-0.2-1.8-1.1-3.4-1.7-5.1
		c-1-0.9-2.1-1.8-3-3c-1-1.3-1.9-2.7-2.7-4.1c-0.1-0.2-0.2-0.5-0.2-0.7c0.5-2.2,1-4.4,1.5-6.6c0.5-2,0.6-4.3-1-5.6
		c-1.1-0.9-3.1-0.7-4.7-0.7c-1.6,0.1-3-0.8-3.6-2.3c-0.2-0.5-1-1.2-1.5-1.2c-1.8-0.1-3.5,0.2-5.5,0.3c0.1,0.5,0.2,1,0.3,1.5
		c-1.6,0-3.1,0.1-4.7,0c-3.5-0.4-6.6,1.2-9.8,2.1c-1.4,0.4-3.1,0.3-4.6,0.1c-0.5-0.1-0.8-1.1-1.2-1.7c-1.4-2-3.6-2.8-5.8-3.7
		c-1-0.4-2.3-1.4-2.4-2.2c-0.3-3.3-2.1-5.8-4.2-7.7c-1.5-1.3-2-3.1-3.3-4.5c-0.4-0.4,0-1.8,0.2-2.6c0.3-1.2,1.2-2.4,1.3-3.7
		c0.2-3.2-0.1-6.5,0.1-9.7c0.1-1.9,0.8-3.7,1.2-5.5c0.1-0.5,0.1-1,0-1.5c-0.3-2.7,0.2-3.5,2.9-4.7c0.7-0.3,1.3-1.2,1.8-1.9
		c1.1-1.6,1.9-3.3,4.2-4c2-0.6,2.7-2.8,3.1-4.8c0.2-0.8,0.2-1.7,0.4-2.5c0.6-2.2,1.5-2.9,2.9-2.9c1.1-1.1,1.9-1.8,2.6-2.5
		c0.1-0.1,0.3-0.3,0.3-0.5c0.7-3.2,3-2.3,5.2-2.3c2.3,0,4.7,0.1,6.6-1.8c0.5-0.4,1.4-0.6,2.1-0.6c2.8-0.2,5.8-1,8.4-0.3
		C120.7,12.3,123.6,8.7,127.1,11z"/>
</g>
<g display="none">
	<linearGradient id="SVGID_2_" gradientUnits="userSpaceOnUse" x1="136.4175" y1="7.2394" x2="136.4175" y2="172.7606">
		<stop  offset="0" style="stop-color:#F2E530"/>
		<stop  offset="1" style="stop-color:#FFB52E"/>
	</linearGradient>
	
		<path display="inline" fill="none" stroke="url(#SVGID_2_)" stroke-width="6" stroke-linecap="round" stroke-linejoin="round" stroke-miterlimit="10" d="
		M123.6,11c-0.2,0.5-0.4,1.1-0.6,1.7c0.4,0.5,1.2,1.1,1.2,1.7c0,0.5-1,0.9-1.4,1.5c-0.4,0.5-0.8,1.2-1.4,2.1
		c2.2,0.8,3.9,1.7,5.8,2.2c1.6,0.4,3.4,0.5,5.1,0.7c0.3,1.1,0.2,2.7,0.9,3.3c0.8,0.6,2.4,0.1,3.6,0.4c1,0.2,2,0.9,3.3,1.4
		c-0.1-0.9-0.1-1.4-0.2-2c-0.5-3.7,0.3-3.6,3.1-3.7c2.1,0,4.3-0.2,5.7,2c0.1,0.2,0.3,0.4,0.4,0.4c3.2,0.2,6.4,0.5,9.6,0.7
		c1,0.1,2.1,0,3.1-0.1c1.1-0.1,1.3,0.5,1.6,1.5c0.4,1.2,0.9,2.6,1.8,3.4c2.2,1.9,2.7,4.4,3.7,6.8c0.8,1.9,0.7,4.1,2.5,5.5
		c0.9,0.7,1.8,1.5,2.7,2.3c0.3,0.3,0.7,0.9,0.6,1.3c-0.3,3.2,1.1,6,2.6,8.6c1.6,2.8,3.7,5.3,5.6,7.9c0.3,0.4,0.9,0.8,1.4,1
		c2,0.9,2.6,2.7,2.9,4.6c0.3,1.6,0.9,2.6,2.8,2.4c2-0.2,4-0.3,6-0.5c1-0.1,2-0.6,2.9-1c1.2-0.5,2.3-1.1,3.7-1.8
		c0.7,3.4-0.3,5.9-1.4,8.4c-1.6,3.5-3.3,7-4.7,10.6c-1.4,3.5-3.9,5.6-7.3,6.7c-0.8,0.3-1.6,0.9-2.2,1.6c-2.3,2.9-3.8,6.5-7,8.8
		c-1.2,0.9-1.1,2.3-0.8,3.6c0.4,1.9,0.7,3.8,1.2,5.7c0.2,0.9,0.8,1.8,1,2.7c0.5,2.2,0.8,4.4,1.2,6.5c0,0.1,0,0.1,0,0.2
		c0.5,1.1,1.7,2.6,1.4,3.3c-0.8,1.7-2.2,3.3-3.7,4.6c-2.9,2.7-6,5.2-8.8,7.5c0.1,2.8,0.5,5.5,0.2,8.1c-0.1,1.1-1.6,2.3-2.7,2.8
		c-1.7,0.8-2.6,1.7-2.2,3.7c0.4,2.1-0.2,3.8-2,5.4c-2.1,1.9-3.7,4.5-5.7,6.6c-3.3,3.4-6.9,6.3-12.1,5.6c-1.5-0.2-3.2-0.7-4,1.5
		c-0.1,0.3-1.4,0.5-2.1,0.4c-0.7-0.1-1.3-0.8-1.9-1.2c-0.1,0-1.9-5.5-2-5.6c-0.7-1.8-1.3-3.5-2-5.3c-0.2-0.4-0.4-0.8-0.6-1.4
		c-0.4-0.1-0.9-0.2-1.1-0.2c-0.9-2.8-1.9-5.4-2.6-8.1c-0.6-2.6-0.8-5.4-1.4-8c-0.3-1.3-0.7-2.8-1.6-3.8c-2.5-2.7-2.6-5.8-1.8-9
		c0.6-2.3,1.1-4.7,3.4-6.4c0.8-0.6,0.9-3,0.5-4.3c-0.5-1.6-1.2-2.8-0.9-4.6c0.2-1.1-0.4-2.4-0.5-3.6c-0.2-1.8-1.1-3.4-1.7-5.1
		c-1-0.9-2.1-1.8-3-3c-1-1.3-1.9-2.7-2.7-4.1c-0.1-0.2-0.2-0.5-0.2-0.7c0.5-2.2,1-4.4,1.5-6.6c0.5-2,0.6-4.3-1-5.6
		c-1.1-0.9-3.1-0.7-4.7-0.7c-1.6,0.1-3-0.8-3.6-2.3c-0.2-0.5-1-1.2-1.5-1.2c-1.8-0.1-3.5,0.2-5.5,0.3c0.1,0.5,0.2,1,0.3,1.5
		c-1.6,0-3.1,0.1-4.7,0c-3.5-0.4-6.6,1.2-9.8,2.1c-1.4,0.4-3.1,0.3-4.6,0.1c-0.5-0.1-0.8-1.1-1.2-1.7c-1.4-2-3.6-2.8-5.8-3.7
		c-1-0.4-2.3-1.4-2.4-2.2c-0.3-3.3-2.1-5.8-4.2-7.7c-1.5-1.3-2-3.1-3.3-4.5c-0.4-0.4,0-1.8,0.2-2.6c0.3-1.2,1.2-2.4,1.3-3.7
		c0.2-3.2-0.1-6.5,0.1-9.7c0.1-1.9,0.8-3.7,1.2-5.5c0.1-0.5,0.1-1,0-1.5c-0.3-2.7,0.2-3.5,2.9-4.7c0.7-0.3,1.3-1.2,1.8-1.9
		c1.1-1.6,1.9-3.3,4.2-4c2-0.6,2.7-2.8,3.1-4.8c0.2-0.8,0.2-1.7,0.4-2.5c0.6-2.2,1.5-2.9,2.9-2.9c1.1-1.1,1.9-1.8,2.6-2.5
		c0.1-0.1,0.3-0.3,0.3-0.5c0.7-3.2,3-2.3,5.2-2.3c2.3,0,4.7,0.1,6.6-1.8c0.5-0.4,1.4-0.6,2.1-0.6c2.8-0.2,5.8-1,8.4-0.3
		C117.2,12.3,120.1,8.7,123.6,11z"/>
</g>
<g>
	<path fill="#414141" d="M31.6,65.2v2.1L21.1,83.3h7.4l0.4-2.6h3.3l-0.3,5.9H15.9v-2.2l10.4-15.8h-6.8l-0.3,2.6h-3.3l0.3-5.9H31.6z"
		/>
	<path fill="#414141" d="M42.2,65.2v2.6l-2.3,0.4v11.1c0,1.4,0.4,2.5,1.1,3.2c0.8,0.7,1.8,1,3.1,1c1.3,0,2.4-0.3,3.1-1
		s1.1-1.7,1.1-3.2V68.2l-2.3-0.4v-2.6H55v2.6l-2.3,0.4v11.1c0,2.4-0.8,4.2-2.4,5.5s-3.6,1.9-6.2,1.9c-2.5,0-4.6-0.6-6.2-1.9
		c-1.6-1.3-2.4-3.1-2.4-5.5V68.2l-2.3-0.4v-2.6h2.3h4.3H42.2z"/>
	<path fill="#414141" d="M72.2,65.2v2.1L61.7,83.3h7.4l0.4-2.6h3.3l-0.3,5.9H56.5v-2.2l10.4-15.8h-6.8l-0.3,2.6h-3.3l0.3-5.9H72.2z"
		/>
	<path fill="#414141" d="M82.8,65.2v2.6l-2.3,0.4v11.1c0,1.4,0.4,2.5,1.1,3.2c0.8,0.7,1.8,1,3.1,1c1.3,0,2.4-0.3,3.1-1
		s1.1-1.7,1.1-3.2V68.2l-2.3-0.4v-2.6h8.8v2.6l-2.3,0.4v11.1c0,2.4-0.8,4.2-2.4,5.5s-3.6,1.9-6.2,1.9c-2.5,0-4.6-0.6-6.2-1.9
		c-1.6-1.3-2.4-3.1-2.4-5.5V68.2L74,67.8v-2.6h2.3h4.3H82.8z"/>
	<path fill="#414141" d="M104,84l1.5-0.2l6.5-18.5h4.4l6.4,18.5l1.5,0.2v2.6h-7.3V84l1.5-0.3l-0.9-2.9h-6.9l-0.9,2.9l1.5,0.3v2.6
		H104V84z M111.8,77.6h4.9l-2.4-7.5h-0.1L111.8,77.6z"/>
	<path fill="#414141" d="M147.6,65.2v2.6l-2.3,0.4v18.3H141l-8.6-14.4l-0.1,0v11.3l2.3,0.4v2.6h-8.8V84l2.3-0.4V68.2l-2.3-0.4v-2.6
		h2.3h4.3l8.6,14.4l0.1,0V68.2l-2.3-0.4v-2.6h6.5H147.6z"/>
	<path fill="#414141" d="M158.6,65.2c2.6,0,4.8,0.8,6.4,2.5c1.7,1.7,2.5,3.8,2.5,6.4v3.5c0,2.6-0.8,4.8-2.5,6.4
		c-1.7,1.7-3.8,2.5-6.4,2.5H149V84l2.3-0.4V68.2l-2.3-0.4v-2.6h2.3H158.6z M155.5,68.5v14.8h2.8c1.5,0,2.7-0.5,3.6-1.6
		s1.3-2.4,1.3-4.1v-3.6c0-1.7-0.4-3-1.3-4s-2.1-1.6-3.6-1.6H155.5z"/>
	<path fill="#414141" d="M192.9,65.2v2.1l-10.4,15.9h7.4l0.4-2.6h3.3l-0.3,5.9h-15.9v-2.2l10.4-15.8h-6.8l-0.3,2.6h-3.3l0.3-5.9
		H192.9z"/>
	<path fill="#414141" d="M194.7,84l1.5-0.2l6.5-18.5h4.4l6.4,18.5l1.5,0.2v2.6h-7.3V84l1.5-0.3l-0.9-2.9h-6.9l-0.9,2.9L202,84v2.6
		h-7.3V84z M202.5,77.6h4.9l-2.4-7.5h-0.1L202.5,77.6z"/>
	<path fill="#414141" d="M232.4,65.2v2.1L222,83.3h7.4l0.4-2.6h3.3l-0.3,5.9h-15.9v-2.2l10.4-15.8h-6.8l-0.3,2.6h-3.3l0.3-5.9H232.4
		z"/>
	<path fill="#414141" d="M234.2,84l1.5-0.2l6.5-18.5h4.4l6.4,18.5l1.5,0.2v2.6h-7.3V84l1.5-0.3l-0.9-2.9H241l-0.9,2.9l1.5,0.3v2.6
		h-7.3V84z M242,77.6h4.9l-2.4-7.5h-0.1L242,77.6z"/>
	<path fill="#414141" d="M20.7,96.3c1.5,0,2.6,0.4,3.5,1.1s1.2,1.8,1.2,3c0,1.3-0.4,2.3-1.2,3s-2,1.1-3.5,1.1h-3.2v4.9l1.6,0.1v0.9
		h-4.3v-0.9l1.6-0.1V97.3l-1.6-0.1v-0.9h1.6H20.7z M17.4,103.6h3.2c1.2,0,2.1-0.3,2.6-0.9s0.9-1.3,0.9-2.3c0-0.9-0.3-1.7-0.9-2.3
		s-1.5-0.9-2.6-0.9h-3.2V103.6z"/>
	<path fill="#414141" d="M35.2,108.8c-0.3,0.6-0.8,1.1-1.4,1.4s-1.3,0.5-2,0.5c-1.1,0-2-0.4-2.6-1.1s-0.9-1.9-0.9-3.5V101l-1.3-0.1
		V100h1.3h1.2v6.1c0,1.3,0.2,2.2,0.7,2.8s1.1,0.8,1.9,0.8c0.9,0,1.6-0.2,2.1-0.6s0.9-0.9,1.1-1.6V101l-1.5-0.1V100h1.5h1.2v9.6
		l1.4,0.1v0.9h-2.4L35.2,108.8z"/>
	<path fill="#414141" d="M39.1,100.9V100h2.6l0.1,1.6c0.4-0.6,0.8-1,1.4-1.4s1.2-0.5,2-0.5c1.3,0,2.3,0.5,3,1.5s1.1,2.4,1.1,4v0.2
		c0,1.6-0.4,2.8-1.1,3.8s-1.7,1.4-3,1.4c-0.7,0-1.4-0.1-1.9-0.4s-1-0.7-1.4-1.2v4.5l1.6,0.1v0.9h-4.3v-0.9l1.6-0.1V101L39.1,100.9z
		 M48,105.4c0-1.3-0.3-2.4-0.8-3.3s-1.3-1.3-2.3-1.3c-0.8,0-1.4,0.2-1.9,0.6s-0.9,0.9-1.1,1.5v5.1c0.3,0.6,0.7,1,1.2,1.4
		s1.1,0.5,1.9,0.5c1,0,1.8-0.4,2.3-1.2s0.8-1.8,0.8-3.1V105.4z"/>
	<path fill="#414141" d="M50.8,100.9V100h2.6l0.1,1.6c0.4-0.6,0.8-1,1.4-1.4s1.2-0.5,2-0.5c1.3,0,2.3,0.5,3,1.5s1.1,2.4,1.1,4v0.2
		c0,1.6-0.4,2.8-1.1,3.8s-1.7,1.4-3,1.4c-0.7,0-1.4-0.1-1.9-0.4s-1-0.7-1.4-1.2v4.5l1.6,0.1v0.9h-4.3v-0.9l1.6-0.1V101L50.8,100.9z
		 M59.7,105.4c0-1.3-0.3-2.4-0.8-3.3s-1.3-1.3-2.3-1.3c-0.8,0-1.4,0.2-1.9,0.6s-0.9,0.9-1.1,1.5v5.1c0.3,0.6,0.7,1,1.2,1.4
		s1.1,0.5,1.9,0.5c1,0,1.8-0.4,2.3-1.2s0.8-1.8,0.8-3.1V105.4z"/>
	<path fill="#414141" d="M67.5,110.8c-1.3,0-2.4-0.5-3.3-1.5s-1.3-2.2-1.3-3.7V105c0-1.5,0.4-2.8,1.3-3.8s1.9-1.5,3.1-1.5
		c1.3,0,2.3,0.4,3.1,1.2s1.1,1.9,1.1,3.3v1H64v0.3c0,1.2,0.3,2.2,1,3s1.5,1.2,2.5,1.2c0.7,0,1.3-0.1,1.9-0.3s1-0.5,1.3-0.9l0.5,0.8
		c-0.4,0.4-0.9,0.7-1.5,1S68.3,110.8,67.5,110.8z M67.3,100.8c-0.9,0-1.6,0.3-2.2,1s-0.9,1.5-1,2.5l0,0h6.2V104
		c0-0.9-0.3-1.7-0.8-2.3S68.2,100.8,67.3,100.8z"/>
	<path fill="#414141" d="M76.3,97.3v2.7h2.3v1h-2.3v6.9c0,0.7,0.1,1.2,0.4,1.5s0.6,0.4,1,0.4c0.2,0,0.4,0,0.6,0s0.4,0,0.6-0.1
		l0.2,0.9c-0.2,0.1-0.4,0.2-0.7,0.2s-0.6,0.1-0.8,0.1c-0.7,0-1.3-0.2-1.7-0.7s-0.6-1.2-0.6-2.2v-6.9h-1.8v-1h1.8v-2.7H76.3z"/>
	<path fill="#414141" d="M91.3,96.3c1.5,0,2.6,0.4,3.5,1.1s1.2,1.8,1.2,3c0,1.3-0.4,2.3-1.2,3s-2,1.1-3.5,1.1h-3.2v4.9l1.6,0.1v0.9
		h-4.3v-0.9l1.6-0.1V97.3l-1.6-0.1v-0.9h1.6H91.3z M88.1,103.6h3.2c1.2,0,2.1-0.3,2.6-0.9s0.9-1.3,0.9-2.3c0-0.9-0.3-1.7-0.9-2.3
		s-1.5-0.9-2.6-0.9h-3.2V103.6z"/>
	<path fill="#414141" d="M105.2,110.5c-0.1-0.4-0.1-0.7-0.2-0.9s0-0.5,0-0.8c-0.4,0.6-0.9,1-1.6,1.4s-1.4,0.5-2.2,0.5
		c-1,0-1.8-0.3-2.4-0.8s-0.8-1.3-0.8-2.2c0-1,0.4-1.8,1.3-2.3s2-0.9,3.4-0.9h2.3v-1.4c0-0.8-0.2-1.3-0.7-1.8s-1.2-0.6-2-0.6
		c-0.6,0-1.1,0.1-1.6,0.2s-0.9,0.4-1.2,0.6l-0.1,1.4h-1l0-2c0.5-0.4,1.1-0.7,1.8-0.9s1.4-0.4,2.2-0.4c1.2,0,2.1,0.3,2.8,0.9
		s1.1,1.4,1.1,2.5v5.2c0,0.2,0,0.4,0,0.6s0,0.4,0.1,0.6l1.1,0.1v0.9H105.2z M101.4,109.7c0.8,0,1.6-0.2,2.2-0.6s1.1-0.9,1.4-1.5
		v-2.1h-2.4c-1.1,0-1.9,0.2-2.5,0.7s-1,1-1,1.7c0,0.6,0.2,1,0.6,1.4S100.7,109.7,101.4,109.7z"/>
	<path fill="#414141" d="M111.5,100l0.1,1.8v0.1c0.3-0.7,0.7-1.2,1.2-1.5s1.1-0.6,1.8-0.6c0.1,0,0.3,0,0.4,0s0.3,0,0.3,0.1l-0.2,1.1
		l-0.9-0.1c-0.7,0-1.3,0.2-1.8,0.6s-0.8,1-1,1.7v6.3l1.6,0.1v0.9h-4.3v-0.9l1.6-0.1V101l-1.6-0.1V100h1.6H111.5z"/>
	<path fill="#414141" d="M119.5,100l0.1,1.8v0.1c0.3-0.7,0.7-1.2,1.2-1.5s1.1-0.6,1.8-0.6c0.1,0,0.3,0,0.4,0s0.3,0,0.3,0.1l-0.2,1.1
		l-0.9-0.1c-0.7,0-1.3,0.2-1.8,0.6s-0.8,1-1,1.7v6.3l1.6,0.1v0.9h-4.3v-0.9l1.6-0.1V101l-1.6-0.1V100h1.6H119.5z"/>
	<path fill="#414141" d="M124.9,105.1c0-1.6,0.4-2.8,1.3-3.8s2-1.5,3.4-1.5c1.4,0,2.5,0.5,3.4,1.5s1.3,2.3,1.3,3.8v0.3
		c0,1.6-0.4,2.8-1.3,3.8s-2,1.5-3.4,1.5c-1.4,0-2.6-0.5-3.4-1.5s-1.3-2.3-1.3-3.8V105.1z M126,105.4c0,1.2,0.3,2.3,0.9,3.1
		s1.5,1.2,2.6,1.2c1.1,0,1.9-0.4,2.6-1.2s0.9-1.9,0.9-3.1v-0.3c0-1.2-0.3-2.2-0.9-3.1s-1.5-1.3-2.6-1.3s-2,0.4-2.6,1.3
		s-0.9,1.9-0.9,3.1V105.4z"/>
	<path fill="#414141" d="M138.8,97.3v2.7h2.3v1h-2.3v6.9c0,0.7,0.1,1.2,0.4,1.5s0.6,0.4,1,0.4c0.2,0,0.4,0,0.6,0s0.4,0,0.6-0.1
		l0.2,0.9c-0.2,0.1-0.4,0.2-0.7,0.2c-0.3,0-0.6,0.1-0.8,0.1c-0.7,0-1.3-0.2-1.7-0.7s-0.6-1.2-0.6-2.2v-6.9h-1.8v-1h1.8v-2.7H138.8z"
		/>
	<path fill="#414141" d="M147.7,109.7l1-0.1l5-13.3h1.1l5,13.3l1.1,0.1v0.9h-3.5v-0.9l1.2-0.1l-1.2-3.2h-6.4l-1.2,3.2l1.2,0.1v0.9
		h-3.5V109.7z M151.5,105.4h5.6l-2.8-7.5h-0.1L151.5,105.4z"/>
	<path fill="#414141" d="M171.7,105.6c0,1.6-0.4,2.8-1.1,3.8s-1.7,1.4-3,1.4c-0.8,0-1.4-0.2-2-0.5s-1-0.8-1.4-1.3l-0.1,1.6h-1V96.3
		l-1.6-0.1v-0.9h2.8v6.3c0.4-0.6,0.8-1,1.3-1.4s1.2-0.5,2-0.5c1.3,0,2.3,0.5,3,1.5s1.1,2.4,1.1,4V105.6z M170.5,105.4
		c0-1.3-0.3-2.4-0.8-3.3s-1.3-1.3-2.3-1.3c-0.8,0-1.5,0.2-2,0.6s-0.9,0.9-1.1,1.6v4.8c0.3,0.6,0.6,1.1,1.2,1.5s1.2,0.5,1.9,0.5
		c1,0,1.8-0.4,2.3-1.1s0.8-1.8,0.8-3V105.4z"/>
	<path fill="#414141" d="M181,110.5c-0.1-0.4-0.1-0.7-0.2-0.9s0-0.5,0-0.8c-0.4,0.6-0.9,1-1.6,1.4s-1.4,0.5-2.2,0.5
		c-1,0-1.8-0.3-2.4-0.8s-0.8-1.3-0.8-2.2c0-1,0.4-1.8,1.3-2.3s2-0.9,3.4-0.9h2.3v-1.4c0-0.8-0.2-1.3-0.7-1.8s-1.2-0.6-2-0.6
		c-0.6,0-1.1,0.1-1.6,0.2s-0.9,0.4-1.2,0.6l-0.1,1.4h-1l0-2c0.5-0.4,1.1-0.7,1.8-0.9s1.4-0.4,2.2-0.4c1.2,0,2.1,0.3,2.8,0.9
		s1.1,1.4,1.1,2.5v5.2c0,0.2,0,0.4,0,0.6s0,0.4,0.1,0.6l1.1,0.1v0.9H181z M177.1,109.7c0.8,0,1.6-0.2,2.2-0.6s1.1-0.9,1.4-1.5v-2.1
		h-2.4c-1.1,0-1.9,0.2-2.5,0.7s-1,1-1,1.7c0,0.6,0.2,1,0.6,1.4S176.5,109.7,177.1,109.7z"/>
	<path fill="#414141" d="M192.4,103.2h-1l-0.1-1.5c-0.3-0.3-0.7-0.5-1.1-0.7s-1-0.3-1.5-0.3c-0.9,0-1.5,0.2-1.9,0.6
		s-0.6,0.8-0.6,1.3c0,0.5,0.2,0.9,0.6,1.2s1.1,0.6,2.2,0.8c1.3,0.3,2.2,0.7,2.8,1.1s0.9,1.1,0.9,2c0,0.9-0.4,1.6-1.1,2.1
		s-1.7,0.8-2.8,0.8c-0.8,0-1.5-0.1-2.1-0.3s-1.2-0.5-1.7-0.9v-2.1h0.9l0.2,1.5c0.3,0.3,0.7,0.5,1.2,0.7s1,0.2,1.5,0.2
		c0.8,0,1.5-0.2,2-0.6s0.7-0.8,0.7-1.3c0-0.5-0.2-0.9-0.6-1.3s-1.1-0.7-2.2-0.9c-1.3-0.3-2.2-0.6-2.8-1.1s-0.9-1.1-0.9-1.9
		c0-0.8,0.3-1.5,1-2s1.6-0.8,2.7-0.8c0.8,0,1.5,0.1,2.1,0.4s1.2,0.6,1.6,1L192.4,103.2z"/>
	<path fill="#414141" d="M202.4,103.2h-1l-0.1-1.5c-0.3-0.3-0.7-0.5-1.1-0.7s-1-0.3-1.5-0.3c-0.9,0-1.5,0.2-1.9,0.6
		s-0.6,0.8-0.6,1.3c0,0.5,0.2,0.9,0.6,1.2s1.1,0.6,2.2,0.8c1.3,0.3,2.2,0.7,2.8,1.1s0.9,1.1,0.9,2c0,0.9-0.4,1.6-1.1,2.1
		s-1.7,0.8-2.8,0.8c-0.8,0-1.5-0.1-2.1-0.3s-1.2-0.5-1.7-0.9v-2.1h0.9l0.2,1.5c0.3,0.3,0.7,0.5,1.2,0.7s1,0.2,1.5,0.2
		c0.8,0,1.5-0.2,2-0.6s0.7-0.8,0.7-1.3c0-0.5-0.2-0.9-0.6-1.3s-1.1-0.7-2.2-0.9c-1.3-0.3-2.2-0.6-2.8-1.1s-0.9-1.1-0.9-1.9
		c0-0.8,0.3-1.5,1-2s1.6-0.8,2.7-0.8c0.8,0,1.5,0.1,2.1,0.4s1.2,0.6,1.6,1L202.4,103.2z"/>
	<path fill="#414141" d="M212,110.5c-0.1-0.4-0.1-0.7-0.2-0.9s0-0.5,0-0.8c-0.4,0.6-0.9,1-1.6,1.4s-1.4,0.5-2.2,0.5
		c-1,0-1.8-0.3-2.4-0.8s-0.8-1.3-0.8-2.2c0-1,0.4-1.8,1.3-2.3s2-0.9,3.4-0.9h2.3v-1.4c0-0.8-0.2-1.3-0.7-1.8s-1.2-0.6-2-0.6
		c-0.6,0-1.1,0.1-1.6,0.2s-0.9,0.4-1.2,0.6l-0.1,1.4h-1l0-2c0.5-0.4,1.1-0.7,1.8-0.9s1.4-0.4,2.2-0.4c1.2,0,2.1,0.3,2.8,0.9
		s1.1,1.4,1.1,2.5v5.2c0,0.2,0,0.4,0,0.6s0,0.4,0.1,0.6l1.1,0.1v0.9H212z M208.2,109.7c0.8,0,1.6-0.2,2.2-0.6s1.1-0.9,1.4-1.5v-2.1
		h-2.4c-1.1,0-1.9,0.2-2.5,0.7s-1,1-1,1.7c0,0.6,0.2,1,0.6,1.4S207.5,109.7,208.2,109.7z"/>
	<path fill="#414141" d="M223.1,109c-0.4,0.6-0.8,1-1.4,1.3s-1.2,0.4-2,0.4c-1.3,0-2.3-0.5-3-1.4s-1.1-2.2-1.1-3.8v-0.2
		c0-1.7,0.4-3,1.1-4s1.7-1.5,3-1.5c0.7,0,1.4,0.2,1.9,0.5s1,0.8,1.3,1.3v-5.3l-1.6-0.1v-0.9h1.6h1.2v14.2l1.6,0.1v0.9h-2.6
		L223.1,109z M217,105.6c0,1.3,0.3,2.3,0.8,3s1.3,1.1,2.3,1.1c0.7,0,1.4-0.2,1.9-0.5s0.9-0.8,1.2-1.4v-5c-0.3-0.6-0.6-1.1-1.1-1.5
		s-1.1-0.6-1.9-0.6c-1,0-1.8,0.4-2.3,1.3s-0.8,1.9-0.8,3.3V105.6z"/>
	<path fill="#414141" d="M227.7,105.1c0-1.6,0.4-2.8,1.3-3.8s2-1.5,3.4-1.5c1.4,0,2.5,0.5,3.4,1.5s1.3,2.3,1.3,3.8v0.3
		c0,1.6-0.4,2.8-1.3,3.8s-2,1.5-3.4,1.5c-1.4,0-2.6-0.5-3.4-1.5s-1.3-2.3-1.3-3.8V105.1z M228.8,105.4c0,1.2,0.3,2.3,0.9,3.1
		s1.5,1.2,2.6,1.2c1.1,0,1.9-0.4,2.6-1.2s0.9-1.9,0.9-3.1v-0.3c0-1.2-0.3-2.2-0.9-3.1s-1.5-1.3-2.6-1.3s-2,0.4-2.6,1.3
		s-0.9,1.9-0.9,3.1V105.4z"/>
	<path fill="#414141" d="M241.4,100l0.1,1.8v0.1c0.3-0.7,0.7-1.2,1.2-1.5s1.1-0.6,1.8-0.6c0.1,0,0.3,0,0.4,0s0.3,0,0.3,0.1l-0.2,1.1
		l-0.9-0.1c-0.7,0-1.3,0.2-1.8,0.6s-0.8,1-1,1.7v6.3l1.6,0.1v0.9h-4.3v-0.9l1.6-0.1V101l-1.6-0.1V100h1.6H241.4z"/>
	<path fill="#414141" d="M254.6,103.2h-1l-0.1-1.5c-0.3-0.3-0.7-0.5-1.1-0.7s-1-0.3-1.5-0.3c-0.9,0-1.5,0.2-1.9,0.6
		s-0.6,0.8-0.6,1.3c0,0.5,0.2,0.9,0.6,1.2s1.1,0.6,2.2,0.8c1.3,0.3,2.2,0.7,2.8,1.1s0.9,1.1,0.9,2c0,0.9-0.4,1.6-1.1,2.1
		s-1.7,0.8-2.8,0.8c-0.8,0-1.5-0.1-2.1-0.3s-1.2-0.5-1.7-0.9v-2.1h0.9l0.2,1.5c0.3,0.3,0.7,0.5,1.2,0.7s1,0.2,1.5,0.2
		c0.8,0,1.5-0.2,2-0.6s0.7-0.8,0.7-1.3c0-0.5-0.2-0.9-0.6-1.3s-1.1-0.7-2.2-0.9c-1.3-0.3-2.2-0.6-2.8-1.1s-0.9-1.1-0.9-1.9
		c0-0.8,0.3-1.5,1-2s1.6-0.8,2.7-0.8c0.8,0,1.5,0.1,2.1,0.4s1.2,0.6,1.6,1L254.6,103.2z"/>
</g>
<linearGradient id="SVGID_3_" gradientUnits="userSpaceOnUse" x1="136.4175" y1="10.2984" x2="136.4175" y2="170.5139">
	<stop  offset="0" style="stop-color:#F2E530"/>
	<stop  offset="1" style="stop-color:#FFB52E"/>
</linearGradient>
<path display="none" fill="url(#SVGID_3_)" d="M219.4,61.3c-0.3-1.2-1.2-2.4-1.3-3.7c-0.2-3.2,0.1-6.5-0.1-9.7
	c-0.1-1.9-0.8-3.7-1.2-5.5c-0.1-0.5-0.1-1,0-1.5c0.3-2.7-0.2-3.5-2.9-4.7c-0.7-0.3-1.3-1.2-1.8-1.9c-1.1-1.6-1.9-3.3-4.2-4
	c-2-0.6-2.7-2.8-3.1-4.8c-0.2-0.8-0.2-1.7-0.4-2.5c-0.6-2.2-1.5-2.9-2.9-2.9c-1.1-1.1-1.9-1.8-2.6-2.5c-0.1-0.1-0.3-0.3-0.3-0.5
	c-0.7-3.2-3-2.3-5.2-2.3c-2.3,0-4.7,0.1-6.6-1.8c-0.5-0.4-1.4-0.6-2.1-0.6c-2.8-0.2-5.8-1-8.4-0.3c-3.5,0.9-6.4-2.7-10-0.5
	c0.2,0.5,0.4,1.1,0.6,1.7c-0.4,0.5-1.2,1.1-1.2,1.7c0,0.5,1,0.9,1.4,1.5c0.4,0.5,0.8,1.2,1.4,2.1c-2.2,0.8-3.9,1.7-5.8,2.2
	c-1.6,0.4-3.4,0.5-5.1,0.7c-0.3,1.1-0.2,2.7-0.9,3.3c-0.8,0.6-2.4,0.1-3.6,0.4c-1,0.2-2,0.9-3.3,1.4c0.1-0.9,0.1-1.4,0.2-2
	c0.5-3.7-0.3-3.6-3.1-3.7c-2.1,0-4.3-0.2-5.7,2c-0.1,0.1-0.2,0.2-0.3,0.3c-3-0.2-5.9-0.4-8.9-0.6c-0.1,0-0.3-0.2-0.4-0.4
	c-1.4-2.1-3.6-2-5.7-2c-2.8,0.1-3.6-0.1-3.1,3.7c0.1,0.6,0.1,1.1,0.2,2c-1.3-0.6-2.2-1.2-3.3-1.4c-1.2-0.3-2.8,0.2-3.6-0.4
	c-0.7-0.6-0.6-2.2-0.9-3.3c-1.7-0.2-3.4-0.2-5.1-0.7c-1.9-0.5-3.6-1.4-5.8-2.2c0.6-0.9,0.9-1.5,1.4-2.1c0.4-0.5,1.4-1,1.4-1.5
	c0-0.6-0.8-1.2-1.2-1.7c0.2-0.6,0.4-1.2,0.6-1.7c-3.6-2.3-6.5,1.3-10,0.5c-2.6-0.7-5.6,0.1-8.4,0.3c-0.7,0.1-1.6,0.2-2.1,0.6
	c-1.9,1.8-4.3,1.8-6.6,1.8c-2.2,0-4.5-0.9-5.2,2.3c0,0.2-0.2,0.3-0.3,0.5c-0.7,0.7-1.4,1.4-2.6,2.5c-1.4,0-2.3,0.7-2.9,2.9
	c-0.2,0.8-0.2,1.7-0.4,2.5c-0.5,2-1.1,4.1-3.1,4.8c-2.3,0.7-3.1,2.4-4.2,4c-0.5,0.7-1,1.6-1.8,1.9c-2.7,1.2-3.2,1.9-2.9,4.7
	c0.1,0.5,0.1,1,0,1.5c-0.4,1.9-1.1,3.7-1.2,5.5c-0.2,3.2,0.1,6.5-0.1,9.7c-0.1,1.2-0.9,2.4-1.3,3.7c-0.2,0.9-0.6,2.2-0.2,2.6
	c1.3,1.4,1.7,3.2,3.3,4.5c2.2,1.9,3.9,4.4,4.2,7.7c0.1,0.8,1.4,1.8,2.4,2.2c2.2,0.9,4.4,1.7,5.8,3.7c0.4,0.6,0.8,1.6,1.2,1.7
	c1.5,0.2,3.1,0.3,4.6-0.1c3.2-0.9,6.3-2.4,9.8-2.1c1.5,0.2,3.1,0,4.7,0c-0.1-0.5-0.2-1-0.3-1.5c0.7,0,1.4-0.1,2.1-0.2
	c0.9,1.9,1.7,3.9,2.5,5.8c1.4,3.5,3.9,5.6,7.3,6.7c0.8,0.3,1.6,0.9,2.2,1.6c0.3,0.3,0.5,0.7,0.8,1.1c-0.1,0.3-0.2,0.7-0.2,1
	c0,0.2,0.1,0.5,0.2,0.7c0.9,1.4,1.7,2.8,2.7,4.1c0.9,1.1,2.1,2,3,3c0.4,1,0.8,2,1.2,3c-0.3,1.8-0.7,3.5-1.1,5.2
	c-0.2,0.9-0.8,1.8-1,2.7c-0.5,2.2-0.8,4.4-1.2,6.5c0,0.1,0,0.1,0,0.2c-0.5,1.1-1.7,2.6-1.4,3.3c0.6,1.3,1.6,2.6,2.7,3.7
	c-0.6,2.9-0.5,5.9,1.9,8.4c0.9,0.9,1.3,2.4,1.6,3.8c0.6,2.7,0.8,5.4,1.4,8c0.6,2.7,1.6,5.2,2.6,8.1c0.2,0,0.7,0.1,1.1,0.2
	c0.2,0.5,0.5,0.9,0.6,1.4c0.7,1.7,1.4,3.5,2,5.3c0,0.1,1.9,5.6,2,5.6c0.6,0.4,1.2,1,1.9,1.2c0.7,0.1,2,0,2.1-0.4
	c0.7-2.3,2.5-1.7,4-1.5c2.2,0.3,4.1-0.1,5.9-0.8c2.1,1.2,4.4,1.9,7.2,1.5c1.5-0.2,3.2-0.7,4,1.5c0.1,0.3,1.4,0.5,2.1,0.4
	c0.7-0.1,1.3-0.8,1.9-1.2c0.1,0,1.9-5.5,2-5.6c0.7-1.8,1.3-3.5,2-5.3c0.2-0.4,0.4-0.8,0.6-1.4c0.4-0.1,0.9-0.2,1.1-0.2
	c0.9-2.8,1.9-5.4,2.6-8.1c0.6-2.6,0.8-5.4,1.4-8c0.3-1.3,0.7-2.8,1.6-3.8c2.5-2.7,2.6-5.8,1.8-9c0-0.2-0.1-0.4-0.1-0.6
	c1.2-1.2,2.3-2.5,3-3.9c0.3-0.7-0.9-2.2-1.4-3.3c0-0.1,0-0.1,0-0.2c-0.4-2.2-0.7-4.4-1.2-6.5c-0.2-0.9-0.8-1.8-1-2.7
	c-0.4-1.4-0.7-2.9-0.9-4.3c0.3-0.8,0.7-1.7,1-2.5c1-0.9,2.1-1.8,3-3c1-1.3,1.9-2.7,2.7-4.1c0.1-0.2,0.2-0.5,0.2-0.7
	c-0.2-0.7-0.3-1.4-0.5-2c0.3-0.5,0.7-0.9,1-1.4c0.6-0.7,1.4-1.4,2.2-1.6c3.5-1.2,6-3.3,7.3-6.7c0.6-1.5,1.3-3,1.9-4.5
	c0.9,0.1,1.8,0.1,2.7,0.2c-0.1,0.5-0.2,1-0.3,1.5c1.6,0,3.1,0.1,4.7,0c3.5-0.4,6.6,1.2,9.8,2.1c1.4,0.4,3.1,0.3,4.6,0.1
	c0.5-0.1,0.8-1.1,1.2-1.7c1.4-2,3.6-2.8,5.8-3.7c1-0.4,2.3-1.4,2.4-2.2c0.3-3.3,2.1-5.8,4.2-7.7c1.5-1.3,2-3.1,3.3-4.5
	C220,63.5,219.6,62.2,219.4,61.3z"/>
</svg>
