<?xml version="1.0" encoding="utf-8"?>
<!-- Generator: Adobe Illustrator 18.1.1, SVG Export Plug-In . SVG Version: 6.00 Build 0)  -->
<svg version="1.1" id="Layer_1" xmlns="http://www.w3.org/2000/svg" xmlns:xlink="http://www.w3.org/1999/xlink" x="0px" y="0px"
	 viewBox="0 0 376.3 95.3" enable-background="new 0 0 376.3 95.3" xml:space="preserve">
<rect x="-8.1" y="-44.3" display="none" fill="#32A65A" width="289" height="184"/>
<g display="none">
	<linearGradient id="SVGID_1_" gradientUnits="userSpaceOnUse" x1="136.4175" y1="-35.0939" x2="136.4175" y2="130.4273">
		<stop  offset="0" style="stop-color:#F2E530"/>
		<stop  offset="1" style="stop-color:#FFB52E"/>
	</linearGradient>
	
		<path display="inline" fill="none" stroke="url(#SVGID_1_)" stroke-width="6" stroke-linecap="round" stroke-linejoin="round" stroke-miterlimit="10" d="
		M123.6-31.3c-0.2,0.5-0.4,1.1-0.6,1.7c0.4,0.5,1.2,1.1,1.2,1.7c0,0.5-1,0.9-1.4,1.5c-0.4,0.5-0.8,1.2-1.4,2.1
		c2.2,0.8,3.9,1.7,5.8,2.2c1.6,0.4,3.4,0.5,5.1,0.7c0.3,1.1,0.2,2.7,0.9,3.3c0.8,0.6,2.4,0.1,3.6,0.4c1,0.2,2,0.9,3.3,1.4
		c-0.1-0.9-0.1-1.4-0.2-2c-0.5-3.7,0.3-3.6,3.1-3.7c2.1,0,4.3-0.2,5.7,2c0.1,0.2,0.3,0.4,0.4,0.4c3.2,0.2,6.4,0.5,9.6,0.7
		c1,0.1,2.1,0,3.1-0.1c1.1-0.1,1.3,0.5,1.6,1.5c0.4,1.2,0.9,2.6,1.8,3.4c2.2,1.9,2.7,4.4,3.7,6.8c0.8,1.9,0.7,4.1,2.5,5.5
		c0.9,0.7,1.8,1.5,2.7,2.3c0.3,0.3,0.7,0.9,0.6,1.3c-0.3,3.2,1.1,6,2.6,8.6c1.6,2.8,3.7,5.3,5.6,7.9c0.3,0.4,0.9,0.8,1.4,1
		c2,0.9,2.6,2.7,2.9,4.6c0.3,1.6,0.9,2.6,2.8,2.4c2-0.2,4-0.3,6-0.5c1-0.1,2-0.6,2.9-1c1.2-0.5,2.3-1.1,3.7-1.8
		c0.7,3.4-0.3,5.9-1.4,8.4c-1.6,3.5-3.3,7-4.7,10.6c-1.4,3.5-3.9,5.6-7.3,6.7c-0.8,0.3-1.6,0.9-2.2,1.6c-2.3,2.9-3.8,6.5-7,8.8
		c-1.2,0.9-1.1,2.3-0.8,3.6c0.4,1.9,0.7,3.8,1.2,5.7c0.2,0.9,0.8,1.8,1,2.7c0.5,2.2,0.8,4.4,1.2,6.5c0,0.1,0,0.1,0,0.2
		c0.5,1.1,1.7,2.6,1.4,3.3c-0.8,1.7-2.2,3.3-3.7,4.6c-2.9,2.7-6,5.2-8.8,7.5c0.1,2.8,0.5,5.5,0.2,8.1c-0.1,1.1-1.6,2.3-2.7,2.8
		c-1.7,0.8-2.6,1.7-2.2,3.7c0.4,2.1-0.2,3.8-2,5.4c-2.1,1.9-3.7,4.5-5.7,6.6c-3.3,3.4-6.9,6.3-12.1,5.6c-1.5-0.2-3.2-0.7-4,1.5
		c-0.1,0.3-1.4,0.5-2.1,0.4c-0.7-0.1-1.3-0.8-1.9-1.2c-0.1,0-1.9-5.5-2-5.6c-0.7-1.8-1.3-3.5-2-5.3c-0.2-0.4-0.4-0.8-0.6-1.4
		c-0.4-0.1-0.9-0.2-1.1-0.2c-0.9-2.8-1.9-5.4-2.6-8.1c-0.6-2.6-0.8-5.4-1.4-8c-0.3-1.3-0.7-2.8-1.6-3.8c-2.5-2.7-2.6-5.8-1.8-9
		c0.6-2.3,1.1-4.7,3.4-6.4c0.8-0.6,0.9-3,0.5-4.3c-0.5-1.6-1.2-2.8-0.9-4.6c0.2-1.1-0.4-2.4-0.5-3.6c-0.2-1.8-1.1-3.4-1.7-5.1
		c-1-0.9-2.1-1.8-3-3c-1-1.3-1.9-2.7-2.7-4.1c-0.1-0.2-0.2-0.5-0.2-0.7c0.5-2.2,1-4.4,1.5-6.6c0.5-2,0.6-4.3-1-5.6
		c-1.1-0.9-3.1-0.7-4.7-0.7c-1.6,0.1-3-0.8-3.6-2.3c-0.2-0.5-1-1.2-1.5-1.2c-1.8-0.1-3.5,0.2-5.5,0.3c0.1,0.5,0.2,1,0.3,1.5
		c-1.6,0-3.1,0.1-4.7,0c-3.5-0.4-6.6,1.2-9.8,2.1c-1.4,0.4-3.1,0.3-4.6,0.1c-0.5-0.1-0.8-1.1-1.2-1.7c-1.4-2-3.6-2.8-5.8-3.7
		c-1-0.4-2.3-1.4-2.4-2.2c-0.3-3.3-2.1-5.8-4.2-7.7c-1.5-1.3-2-3.1-3.3-4.5c-0.4-0.4,0-1.8,0.2-2.6c0.3-1.2,1.2-2.4,1.3-3.7
		c0.2-3.2-0.1-6.5,0.1-9.7C72,3,72.7,1.2,73.1-0.7c0.1-0.5,0.1-1,0-1.5c-0.3-2.7,0.2-3.5,2.9-4.7c0.7-0.3,1.3-1.2,1.8-1.9
		c1.1-1.6,1.9-3.3,4.2-4c2-0.6,2.7-2.8,3.1-4.8c0.2-0.8,0.2-1.7,0.4-2.5c0.6-2.2,1.5-2.9,2.9-2.9c1.1-1.1,1.9-1.8,2.6-2.5
		c0.1-0.1,0.3-0.3,0.3-0.5c0.7-3.2,3-2.3,5.2-2.3c2.3,0,4.7,0.1,6.6-1.8c0.5-0.4,1.4-0.6,2.1-0.6c2.8-0.2,5.8-1,8.4-0.3
		C117.2-30,120.1-33.6,123.6-31.3z"/>
</g>
<linearGradient id="SVGID_2_" gradientUnits="userSpaceOnUse" x1="136.4175" y1="-32.035" x2="136.4175" y2="128.1806">
	<stop  offset="0" style="stop-color:#F2E530"/>
	<stop  offset="1" style="stop-color:#FFB52E"/>
</linearGradient>
<path display="none" fill="url(#SVGID_2_)" d="M219.4,19c-0.3-1.2-1.2-2.4-1.3-3.7c-0.2-3.2,0.1-6.5-0.1-9.7
	c-0.1-1.9-0.8-3.7-1.2-5.5c-0.1-0.5-0.1-1,0-1.5c0.3-2.7-0.2-3.5-2.9-4.7c-0.7-0.3-1.3-1.2-1.8-1.9c-1.1-1.6-1.9-3.3-4.2-4
	c-2-0.6-2.7-2.8-3.1-4.8c-0.2-0.8-0.2-1.7-0.4-2.5c-0.6-2.2-1.5-2.9-2.9-2.9c-1.1-1.1-1.9-1.8-2.6-2.5c-0.1-0.1-0.3-0.3-0.3-0.5
	c-0.7-3.2-3-2.3-5.2-2.3c-2.3,0-4.7,0.1-6.6-1.8c-0.5-0.4-1.4-0.6-2.1-0.6c-2.8-0.2-5.8-1-8.4-0.3c-3.5,0.9-6.4-2.7-10-0.5
	c0.2,0.5,0.4,1.1,0.6,1.7c-0.4,0.5-1.2,1.1-1.2,1.7c0,0.5,1,0.9,1.4,1.5c0.4,0.5,0.8,1.2,1.4,2.1c-2.2,0.8-3.9,1.7-5.8,2.2
	c-1.6,0.4-3.4,0.5-5.1,0.7c-0.3,1.1-0.2,2.7-0.9,3.3c-0.8,0.6-2.4,0.1-3.6,0.4c-1,0.2-2,0.9-3.3,1.4c0.1-0.9,0.1-1.4,0.2-2
	c0.5-3.7-0.3-3.6-3.1-3.7c-2.1,0-4.3-0.2-5.7,2c-0.1,0.1-0.2,0.2-0.3,0.3c-3-0.2-5.9-0.4-8.9-0.6c-0.1,0-0.3-0.2-0.4-0.4
	c-1.4-2.1-3.6-2-5.7-2c-2.8,0.1-3.6-0.1-3.1,3.7c0.1,0.6,0.1,1.1,0.2,2c-1.3-0.6-2.2-1.2-3.3-1.4c-1.2-0.3-2.8,0.2-3.6-0.4
	c-0.7-0.6-0.6-2.2-0.9-3.3c-1.7-0.2-3.4-0.2-5.1-0.7c-1.9-0.5-3.6-1.4-5.8-2.2c0.6-0.9,0.9-1.5,1.4-2.1c0.4-0.5,1.4-1,1.4-1.5
	c0-0.6-0.8-1.2-1.2-1.7c0.2-0.6,0.4-1.2,0.6-1.7c-3.6-2.3-6.5,1.3-10,0.5c-2.6-0.7-5.6,0.1-8.4,0.3c-0.7,0.1-1.6,0.2-2.1,0.6
	c-1.9,1.8-4.3,1.8-6.6,1.8c-2.2,0-4.5-0.9-5.2,2.3c0,0.2-0.2,0.3-0.3,0.5c-0.7,0.7-1.4,1.4-2.6,2.5c-1.4,0-2.3,0.7-2.9,2.9
	c-0.2,0.8-0.2,1.7-0.4,2.5c-0.5,2-1.1,4.1-3.1,4.8c-2.3,0.7-3.1,2.4-4.2,4c-0.5,0.7-1,1.6-1.8,1.9c-2.7,1.2-3.2,1.9-2.9,4.7
	c0.1,0.5,0.1,1,0,1.5c-0.4,1.9-1.1,3.7-1.2,5.5c-0.2,3.2,0.1,6.5-0.1,9.7c-0.1,1.2-0.9,2.4-1.3,3.7c-0.2,0.9-0.6,2.2-0.2,2.6
	c1.3,1.4,1.7,3.2,3.3,4.5c2.2,1.9,3.9,4.4,4.2,7.7c0.1,0.8,1.4,1.8,2.4,2.2c2.2,0.9,4.4,1.7,5.8,3.7c0.4,0.6,0.8,1.6,1.2,1.7
	c1.5,0.2,3.1,0.3,4.6-0.1c3.2-0.9,6.3-2.4,9.8-2.1c1.5,0.2,3.1,0,4.7,0c-0.1-0.5-0.2-1-0.3-1.5c0.7,0,1.4-0.1,2.1-0.2
	c0.9,1.9,1.7,3.9,2.5,5.8c1.4,3.5,3.9,5.6,7.3,6.7c0.8,0.3,1.6,0.9,2.2,1.6c0.3,0.3,0.5,0.7,0.8,1.1c-0.1,0.3-0.2,0.7-0.2,1
	c0,0.2,0.1,0.5,0.2,0.7c0.9,1.4,1.7,2.8,2.7,4.1c0.9,1.1,2.1,2,3,3c0.4,1,0.8,2,1.2,3c-0.3,1.8-0.7,3.5-1.1,5.2
	c-0.2,0.9-0.8,1.8-1,2.7c-0.5,2.2-0.8,4.4-1.2,6.5c0,0.1,0,0.1,0,0.2c-0.5,1.1-1.7,2.6-1.4,3.3c0.6,1.3,1.6,2.6,2.7,3.7
	c-0.6,2.9-0.5,5.9,1.9,8.4c0.9,0.9,1.3,2.4,1.6,3.8c0.6,2.7,0.8,5.4,1.4,8c0.6,2.7,1.6,5.2,2.6,8.1c0.2,0,0.7,0.1,1.1,0.2
	c0.2,0.5,0.5,0.9,0.6,1.4c0.7,1.7,1.4,3.5,2,5.3c0,0.1,1.9,5.6,2,5.6c0.6,0.4,1.2,1,1.9,1.2c0.7,0.1,2,0,2.1-0.4
	c0.7-2.3,2.5-1.7,4-1.5c2.2,0.3,4.1-0.1,5.9-0.8c2.1,1.2,4.4,1.9,7.2,1.5c1.5-0.2,3.2-0.7,4,1.5c0.1,0.3,1.4,0.5,2.1,0.4
	c0.7-0.1,1.3-0.8,1.9-1.2c0.1,0,1.9-5.5,2-5.6c0.7-1.8,1.3-3.5,2-5.3c0.2-0.4,0.4-0.8,0.6-1.4c0.4-0.1,0.9-0.2,1.1-0.2
	c0.9-2.8,1.9-5.4,2.6-8.1c0.6-2.6,0.8-5.4,1.4-8c0.3-1.3,0.7-2.8,1.6-3.8c2.5-2.7,2.6-5.8,1.8-9c0-0.2-0.1-0.4-0.1-0.6
	c1.2-1.2,2.3-2.5,3-3.9c0.3-0.7-0.9-2.2-1.4-3.3c0-0.1,0-0.1,0-0.2c-0.4-2.2-0.7-4.4-1.2-6.5c-0.2-0.9-0.8-1.8-1-2.7
	c-0.4-1.4-0.7-2.9-0.9-4.3c0.3-0.8,0.7-1.7,1-2.5c1-0.9,2.1-1.8,3-3c1-1.3,1.9-2.7,2.7-4.1c0.1-0.2,0.2-0.5,0.2-0.7
	c-0.2-0.7-0.3-1.4-0.5-2c0.3-0.5,0.7-0.9,1-1.4c0.6-0.7,1.4-1.4,2.2-1.6c3.5-1.2,6-3.3,7.3-6.7c0.6-1.5,1.3-3,1.9-4.5
	c0.9,0.1,1.8,0.1,2.7,0.2c-0.1,0.5-0.2,1-0.3,1.5c1.6,0,3.1,0.1,4.7,0c3.5-0.4,6.6,1.2,9.8,2.1c1.4,0.4,3.1,0.3,4.6,0.1
	c0.5-0.1,0.8-1.1,1.2-1.7c1.4-2,3.6-2.8,5.8-3.7c1-0.4,2.3-1.4,2.4-2.2c0.3-3.3,2.1-5.8,4.2-7.7c1.5-1.3,2-3.1,3.3-4.5
	C220,21.2,219.6,19.9,219.4,19z"/>
<g>
	<path fill="#414042" d="M103.9,39.5l9.9-14.2c0.2-0.3,0.4-0.6,0.6-0.7l0.3-0.3v-0.1c-0.1,0-0.2,0-0.4,0c-0.2,0-0.5,0.1-0.8,0.1
		h-6.2v3.1H104v-6.1h15.2v2.4L109.3,38c-0.2,0.3-0.4,0.5-0.6,0.7l-0.3,0.3V39l0.4-0.1c0.2,0,0.5,0,0.8,0h6.6v-3.2h3.2V42h-15.7V39.5
		z"/>
	<path fill="#414042" d="M124.4,24.2h-2.5v-2.9h8.8v2.9h-2.5v10c0,1.2,0.3,2.2,0.7,2.9c0.7,1.2,2.1,1.8,3.9,1.8s3.1-0.6,3.9-1.9
		c0.5-0.8,0.7-1.8,0.7-2.9v-9.9h-2.5v-2.9h8.7v2.9h-2.5v10c0,2-0.6,3.9-1.5,5.2c-1.5,2-4.1,2.9-6.8,2.9c-2.9,0-5.4-1-6.8-2.9
		c-1.1-1.4-1.5-3.1-1.5-5.2V24.2z"/>
	<path fill="#414042" d="M146,39.5l9.9-14.2c0.2-0.3,0.4-0.6,0.6-0.7l0.3-0.3v-0.1c-0.1,0-0.2,0-0.4,0c-0.2,0-0.5,0.1-0.8,0.1h-6.2
		v3.1h-3.2v-6.1h15.2v2.4L151.4,38c-0.2,0.3-0.4,0.5-0.6,0.7l-0.3,0.3V39l0.4-0.1c0.2,0,0.5,0,0.8,0h6.6v-3.2h3.2V42H146V39.5z"/>
	<path fill="#414042" d="M166.5,24.2H164v-2.9h8.8v2.9h-2.5v10c0,1.2,0.3,2.2,0.7,2.9c0.7,1.2,2.1,1.8,3.9,1.8s3.1-0.6,3.9-1.9
		c0.5-0.8,0.7-1.8,0.7-2.9v-9.9h-2.5v-2.9h8.7v2.9h-2.5v10c0,2-0.6,3.9-1.5,5.2c-1.5,2-4.1,2.9-6.8,2.9c-2.9,0-5.4-1-6.8-2.9
		c-1.1-1.4-1.5-3.1-1.5-5.2V24.2z"/>
	<path fill="#414042" d="M194.2,39.1h1.9l6.2-17.8h4.3l6.2,17.8h1.9V42h-7.7v-2.8h2l-1.3-3.9h-6.5l-1.3,3.9h2V42h-7.7V39.1z
		 M206.8,32.3l-1.9-5.8l-0.3-1.3c0-0.2-0.1-0.4-0.1-0.5h-0.1l-0.1,0.5c-0.1,0.3-0.1,0.7-0.3,1.3l-2,5.8H206.8z"/>
	<path fill="#414042" d="M216.4,39.1h2.5V24.2h-2.5v-2.9h6.3l8.7,13.3c0.2,0.3,0.4,0.8,0.5,1.1l0.2,0.6h0.1l-0.1-0.7
		c0-0.4-0.1-0.9-0.1-1.2V24.2h-2.6v-2.9h8.8v2.9h-2.5V42h-3.8l-8.7-13.2c-0.2-0.3-0.4-0.8-0.5-1.1l-0.2-0.6h-0.1l0.1,0.7
		c0,0.4,0.1,0.9,0.1,1.2v10.2h2.6V42h-8.8V39.1z"/>
	<path fill="#414042" d="M241,39.1h2.5V24.2H241v-2.9h8.9c1.7,0,2.9,0.1,4.3,0.5c4,1.2,6.7,4.8,6.7,9.8c0,4.9-2.4,8.4-6.4,9.7
		c-1.4,0.5-2.8,0.6-4.6,0.6H241V39.1z M249.7,38.9c1.3,0,2.3-0.1,3.4-0.5c2.3-1,3.8-3.3,3.8-6.7c0-3.5-1.5-5.9-4-6.8
		c-1-0.4-2-0.5-3.2-0.5h-2.5v14.5H249.7z"/>
	<path fill="#414042" d="M270.9,39.5l9.9-14.2c0.2-0.3,0.4-0.6,0.6-0.7l0.3-0.3v-0.1c-0.1,0-0.2,0-0.4,0c-0.2,0-0.5,0.1-0.8,0.1
		h-6.2v3.1h-3.2v-6.1h15.2v2.4L276.4,38c-0.2,0.3-0.4,0.5-0.6,0.7l-0.3,0.3V39l0.4-0.1c0.2,0,0.5,0,0.8,0h6.6v-3.2h3.2V42h-15.7
		V39.5z"/>
	<path fill="#414042" d="M288.4,39.1h1.9l6.2-17.8h4.3l6.2,17.8h1.9V42h-7.7v-2.8h2l-1.3-3.9h-6.5l-1.3,3.9h2V42h-7.7V39.1z
		 M301,32.3l-1.9-5.8l-0.3-1.3c0-0.2-0.1-0.4-0.1-0.5h-0.1l-0.1,0.5c-0.1,0.3-0.1,0.7-0.3,1.3l-2,5.8H301z"/>
	<path fill="#414042" d="M310.7,39.5l9.9-14.2c0.2-0.3,0.4-0.6,0.6-0.7l0.3-0.3v-0.1c-0.1,0-0.2,0-0.4,0c-0.2,0-0.5,0.1-0.8,0.1
		h-6.2v3.1h-3.2v-6.1h15.2v2.4L316.2,38c-0.2,0.3-0.4,0.5-0.6,0.7l-0.3,0.3V39l0.4-0.1c0.2,0,0.5,0,0.8,0h6.6v-3.2h3.2V42h-15.7
		V39.5z"/>
	<path fill="#414042" d="M328.2,39.1h1.9l6.2-17.8h4.3l6.2,17.8h1.9V42h-7.7v-2.8h2l-1.3-3.9h-6.5l-1.3,3.9h2V42h-7.7V39.1z
		 M340.8,32.3l-1.9-5.8l-0.3-1.3c0-0.2-0.1-0.4-0.1-0.5h-0.1l-0.1,0.5c-0.1,0.3-0.1,0.7-0.3,1.3l-2,5.8H340.8z"/>
	<path fill="#414042" d="M103.4,64.8h1.8V53.1h-1.8v-1.2h6.4c0.9,0,1.7,0.1,2.4,0.4c1.4,0.6,2.3,2,2.3,3.8c0,1.9-1,3.4-2.6,4
		c-0.7,0.2-1.3,0.3-2.1,0.3h-3.2v4.4h1.8V66h-5.1V64.8z M109.7,59.2c0.7,0,1.2-0.1,1.7-0.3c1-0.4,1.7-1.4,1.7-2.8
		c0-1.3-0.5-2.2-1.5-2.7c-0.5-0.2-1.2-0.3-1.9-0.3h-3v6.1H109.7z"/>
	<path fill="#414042" d="M117.3,57h-1.8v-1.1h3.2V62c0,1.6,0.2,3,2.2,3c2.3,0,3.7-2.1,3.7-4.3V57h-1.8v-1.1h3.2v8.5
		c0,0.3,0.1,0.4,0.4,0.4h1.1V66h-1.7c-0.9,0-1.2-0.3-1.2-1.1v-0.5c0-0.2,0-0.4,0-0.5v-0.2h0c-0.3,0.7-1.5,2.6-4,2.6
		c-2.3,0-3.3-1.3-3.3-3.9V57z"/>
	<path fill="#414042" d="M130.5,68.8V57.5c0-0.3-0.1-0.4-0.4-0.4h-1.4v-1.1h1.9c0.9,0,1.2,0.4,1.2,1.1V57c0,0.2,0,0.4,0,0.5l0,0.2h0
		c0.2-0.4,0.4-0.7,0.7-1c0.5-0.5,1.4-1,2.8-1c2.7,0,4.4,2.2,4.4,5.3c0,3.2-1.9,5.3-4.5,5.3c-1.2,0-2-0.5-2.6-1
		c-0.3-0.3-0.6-0.6-0.8-1h0l0,0.2c0,0.2,0,0.4,0,0.6v3.8h1.7V70h-4.8v-1.1H130.5z M135,65c1.8,0,3.3-1.5,3.3-4c0-2.5-1.3-4-3.2-4
		c-1.7,0-3.2,1.2-3.2,4.1C131.8,63,132.9,65,135,65z"/>
	<path fill="#414042" d="M142.9,68.8V57.5c0-0.3-0.1-0.4-0.4-0.4h-1.4v-1.1h1.9c0.9,0,1.2,0.4,1.2,1.1V57c0,0.2,0,0.4,0,0.5l0,0.2h0
		c0.2-0.4,0.4-0.7,0.7-1c0.5-0.5,1.4-1,2.8-1c2.7,0,4.4,2.2,4.4,5.3c0,3.2-1.9,5.3-4.5,5.3c-1.2,0-2-0.5-2.6-1
		c-0.3-0.3-0.6-0.6-0.8-1h0l0,0.2c0,0.2,0,0.4,0,0.6v3.8h1.7V70h-4.8v-1.1H142.9z M147.4,65c1.8,0,3.3-1.5,3.3-4c0-2.5-1.3-4-3.2-4
		c-1.7,0-3.2,1.2-3.2,4.1C144.3,63,145.4,65,147.4,65z"/>
	<path fill="#414042" d="M159,55.7c2.8,0,4.2,2.1,4.2,4.6c0,0.1,0,0.3,0,0.4l0,0.2h-7.7c0.1,2.6,1.8,4,3.9,4c0.9,0,1.7-0.3,2.2-0.6
		c0.3-0.2,0.6-0.4,0.8-0.6l0.6,1c-0.3,0.3-0.6,0.5-1,0.7c-0.6,0.4-1.6,0.7-2.7,0.7c-3,0-5.3-2.2-5.3-5.3
		C154,57.6,156.2,55.7,159,55.7z M161.8,59.9c-0.1-2.1-1.4-3.1-2.8-3.1c-1.7,0-3.1,1.1-3.5,3.1H161.8z"/>
	<path fill="#414042" d="M166.3,57h-1.8v-1.1h1.8v-2.8h1.3v2.8h2.5V57h-2.5v5.2c0,2.3,1.5,2.7,2.3,2.7c0.2,0,0.3,0,0.3,0
		c0.1,0,0.1,0,0.1,0V66c-0.1,0-0.1,0-0.2,0c-0.1,0-0.2,0-0.4,0c-1.2,0-3.5-0.4-3.5-3.7V57z"/>
	<path fill="#414042" d="M177,64.8h1.8V53.1H177v-1.2h6.4c0.9,0,1.7,0.1,2.4,0.4c1.4,0.6,2.3,2,2.3,3.8c0,1.9-1,3.4-2.6,4
		c-0.7,0.2-1.3,0.3-2.1,0.3h-3.2v4.4h1.8V66H177V64.8z M183.2,59.2c0.7,0,1.2-0.1,1.7-0.3c1-0.4,1.7-1.4,1.7-2.8
		c0-1.3-0.5-2.2-1.5-2.7c-0.5-0.2-1.2-0.3-1.9-0.3h-3v6.1H183.2z"/>
	<path fill="#414042" d="M195.4,59.8h0.7v-0.4c0-1.9-1-2.5-2.4-2.5c-0.9,0-1.6,0.2-2.1,0.5c-0.3,0.1-0.6,0.3-0.8,0.5l-0.6-1
		c0.3-0.2,0.6-0.4,1-0.6c0.6-0.3,1.5-0.6,2.7-0.6c2.5,0,3.7,1.3,3.7,3.8v5c0,0.3,0.1,0.4,0.4,0.4h1.1V66h-1.6
		c-0.9,0-1.2-0.4-1.2-1.1v-0.2c0-0.2,0-0.4,0-0.6c0-0.1,0-0.1,0-0.2h0c-0.2,0.4-0.4,0.8-0.8,1.1c-0.5,0.6-1.4,1.2-2.7,1.2
		c-1.7,0-3.4-0.9-3.4-3C189.3,59.9,193.7,59.8,195.4,59.8z M192.9,65.1c2,0,3.2-2,3.2-3.8v-0.5h-0.6c-0.8,0-4.7-0.1-4.7,2.2
		C190.7,64.1,191.5,65.1,192.9,65.1z"/>
	<path fill="#414042" d="M200.5,64.8h1.6v-7.4c0-0.3-0.1-0.4-0.4-0.4h-1.4v-1.1h1.9c0.9,0,1.2,0.3,1.2,1.1v0.7c0,0.2,0,0.4,0,0.5
		c0,0.1,0,0.2,0,0.2h0c0.5-1.5,1.6-2.7,3.2-2.7c0.1,0,0.3,0,0.4,0l0.2,0v1.3c-0.1,0-0.1,0-0.2,0c-0.1,0-0.2,0-0.4,0
		c-2.3,0-3.2,2.5-3.2,4.5v3.1h1.6V66h-4.5V64.8z"/>
	<path fill="#414042" d="M208.5,64.8h1.6v-7.4c0-0.3-0.1-0.4-0.4-0.4h-1.4v-1.1h1.9c0.9,0,1.2,0.3,1.2,1.1v0.7c0,0.2,0,0.4,0,0.5
		c0,0.1,0,0.2,0,0.2h0c0.5-1.5,1.6-2.7,3.2-2.7c0.1,0,0.3,0,0.4,0l0.2,0v1.3c-0.1,0-0.1,0-0.2,0c-0.1,0-0.2,0-0.4,0
		c-2.3,0-3.2,2.5-3.2,4.5v3.1h1.6V66h-4.5V64.8z"/>
	<path fill="#414042" d="M221.6,55.7c2.9,0,5.3,2.3,5.3,5.2c0,3-2.4,5.3-5.3,5.3c-2.9,0-5.3-2.3-5.3-5.3
		C216.3,57.9,218.7,55.7,221.6,55.7z M221.6,65c2.2,0,3.9-1.8,3.9-4.1c0-2.3-1.8-4-3.9-4c-2.1,0-3.9,1.7-3.9,4
		C217.7,63.2,219.5,65,221.6,65z"/>
	<path fill="#414042" d="M230,57h-1.8v-1.1h1.8v-2.8h1.3v2.8h2.5V57h-2.5v5.2c0,2.3,1.5,2.7,2.3,2.7c0.2,0,0.3,0,0.3,0
		c0.1,0,0.1,0,0.1,0V66c-0.1,0-0.1,0-0.2,0c-0.1,0-0.2,0-0.4,0c-1.2,0-3.5-0.4-3.5-3.7V57z"/>
	<path fill="#414042" d="M239.9,64.8h1.4l4.7-12.9h1.5l4.7,12.9h1.4V66h-4.5v-1.2h1.6l-1.3-3.6h-5.5l-1.3,3.6h1.6V66h-4.5V64.8z
		 M249.2,60l-2.1-5.8c-0.1-0.2-0.1-0.5-0.2-0.6l-0.1-0.3h-0.1c0,0.1,0,0.2,0,0.3c-0.1,0.2-0.1,0.4-0.2,0.6l-2.1,5.8H249.2z"/>
	<path fill="#414042" d="M255.7,53h-1.8v-1.1h3.2v5c0,0.2,0,0.4,0,0.6l0,0.2h0c0.2-0.4,0.4-0.7,0.8-1c0.5-0.5,1.4-1,2.7-1
		c2.7,0,4.4,2.2,4.4,5.3c0,3.2-1.9,5.3-4.5,5.3c-1.2,0-2-0.5-2.6-1c-0.3-0.3-0.6-0.6-0.8-1h0l0,0.2c0,0.2,0,0.4,0,0.6v1h-1.3V53z
		 M260.2,65c1.8,0,3.3-1.5,3.3-4c0-2.5-1.3-4-3.2-4c-1.7,0-3.3,1.2-3.3,4.1C257,63,258.1,65,260.2,65z"/>
	<path fill="#414042" d="M272.6,59.8h0.7v-0.4c0-1.9-1-2.5-2.4-2.5c-0.9,0-1.6,0.2-2.1,0.5c-0.3,0.1-0.6,0.3-0.8,0.5l-0.6-1
		c0.3-0.2,0.6-0.4,1-0.6c0.6-0.3,1.5-0.6,2.7-0.6c2.5,0,3.7,1.3,3.7,3.8v5c0,0.3,0.1,0.4,0.4,0.4h1.1V66h-1.6
		c-0.9,0-1.2-0.4-1.2-1.1v-0.2c0-0.2,0-0.4,0-0.6c0-0.1,0-0.1,0-0.2h0c-0.2,0.4-0.4,0.8-0.8,1.1c-0.5,0.6-1.4,1.2-2.7,1.2
		c-1.7,0-3.4-0.9-3.4-3C266.6,59.9,270.9,59.8,272.6,59.8z M270.1,65.1c2,0,3.2-2,3.2-3.8v-0.5h-0.6c-0.8,0-4.7-0.1-4.7,2.2
		C268,64.1,268.7,65.1,270.1,65.1z"/>
	<path fill="#414042" d="M277.6,62.8h1.2v0.7c0,1,1.5,1.5,2.6,1.5c1.3,0,2.4-0.5,2.4-1.6c0-1.2-1.3-1.6-2.7-2.1
		c-1.5-0.6-3.1-1.2-3.1-3c0-1.8,1.8-2.7,3.5-2.7c1.4,0,3.3,0.6,3.3,2v1.2h-1.2V58c0-0.7-1-1.2-2.1-1.2c-1.1,0-2.1,0.5-2.1,1.5
		c0,1.1,1.2,1.6,2.5,2c1.6,0.5,3.3,1.2,3.3,3c0,1.7-1.6,2.8-3.8,2.8c-1.9,0-3.8-0.9-3.8-2.4V62.8z"/>
	<path fill="#414042" d="M287,62.8h1.2v0.7c0,1,1.5,1.5,2.6,1.5c1.3,0,2.4-0.5,2.4-1.6c0-1.2-1.3-1.6-2.7-2.1
		c-1.5-0.6-3.1-1.2-3.1-3c0-1.8,1.8-2.7,3.5-2.7c1.4,0,3.3,0.6,3.3,2v1.2H293V58c0-0.7-1-1.2-2.1-1.2c-1.1,0-2.1,0.5-2.1,1.5
		c0,1.1,1.2,1.6,2.5,2c1.6,0.5,3.3,1.2,3.3,3c0,1.7-1.6,2.8-3.8,2.8c-1.9,0-3.8-0.9-3.8-2.4V62.8z"/>
	<path fill="#414042" d="M302.3,59.8h0.7v-0.4c0-1.9-1-2.5-2.4-2.5c-0.9,0-1.6,0.2-2.1,0.5c-0.3,0.1-0.6,0.3-0.8,0.5l-0.6-1
		c0.3-0.2,0.6-0.4,1-0.6c0.6-0.3,1.5-0.6,2.7-0.6c2.5,0,3.7,1.3,3.7,3.8v5c0,0.3,0.1,0.4,0.4,0.4h1.1V66h-1.6
		c-0.9,0-1.2-0.4-1.2-1.1v-0.2c0-0.2,0-0.4,0-0.6c0-0.1,0-0.1,0-0.2h0c-0.2,0.4-0.4,0.8-0.8,1.1c-0.5,0.6-1.4,1.2-2.7,1.2
		c-1.7,0-3.4-0.9-3.4-3C296.3,59.9,300.6,59.8,302.3,59.8z M299.8,65.1c2,0,3.2-2,3.2-3.8v-0.5h-0.6c-0.8,0-4.7-0.1-4.7,2.2
		C297.7,64.1,298.4,65.1,299.8,65.1z"/>
	<path fill="#414042" d="M311.9,55.7c1.2,0,2,0.5,2.5,1c0.3,0.3,0.6,0.6,0.7,1h0c0-0.1,0-0.1,0-0.2c0-0.1,0-0.3,0-0.6V53h-1.8v-1.1
		h3.2v12.5c0,0.3,0.1,0.4,0.4,0.4h1.1V66h-1.7c-0.9,0-1.2-0.4-1.2-1.1v-0.2c0-0.2,0-0.3,0-0.5l0-0.2h0c-0.2,0.4-0.4,0.7-0.8,1.1
		c-0.6,0.5-1.4,1.1-2.8,1.1c-2.7,0-4.4-2.2-4.4-5.3C307.4,57.7,309.2,55.7,311.9,55.7z M312,65c1.7,0,3.3-1.2,3.3-4c0-2.1-1-4-3.2-4
		c-1.8,0-3.3,1.5-3.3,4C308.8,63.4,310.1,65,312,65z"/>
	<path fill="#414042" d="M325,55.7c2.9,0,5.3,2.3,5.3,5.2c0,3-2.4,5.3-5.3,5.3c-2.9,0-5.3-2.3-5.3-5.3
		C319.7,57.9,322.1,55.7,325,55.7z M325,65c2.2,0,3.9-1.8,3.9-4.1c0-2.3-1.8-4-3.9-4c-2.1,0-3.9,1.7-3.9,4
		C321.1,63.2,322.9,65,325,65z"/>
	<path fill="#414042" d="M332.2,64.8h1.6v-7.4c0-0.3-0.1-0.4-0.4-0.4H332v-1.1h1.9c0.9,0,1.2,0.3,1.2,1.1v0.7c0,0.2,0,0.4,0,0.5
		c0,0.1,0,0.2,0,0.2h0c0.5-1.5,1.6-2.7,3.2-2.7c0.1,0,0.3,0,0.4,0l0.2,0v1.3c-0.1,0-0.1,0-0.2,0c-0.1,0-0.2,0-0.4,0
		c-2.3,0-3.2,2.5-3.2,4.5v3.1h1.6V66h-4.5V64.8z"/>
	<path fill="#414042" d="M340.1,62.8h1.2v0.7c0,1,1.5,1.5,2.6,1.5c1.3,0,2.4-0.5,2.4-1.6c0-1.2-1.3-1.6-2.7-2.1
		c-1.5-0.6-3.1-1.2-3.1-3c0-1.8,1.8-2.7,3.5-2.7c1.4,0,3.3,0.6,3.3,2v1.2h-1.2V58c0-0.7-1-1.2-2.1-1.2c-1.1,0-2.1,0.5-2.1,1.5
		c0,1.1,1.2,1.6,2.5,2c1.6,0.5,3.3,1.2,3.3,3c0,1.7-1.6,2.8-3.8,2.8c-1.9,0-3.8-0.9-3.8-2.4V62.8z"/>
</g>
<image display="none" overflow="visible" width="450" height="470" xlink:href="../../../../../../Library/Containers/at.EternalStorms.Yoink/Data/Documents/YoinkPromisedFiles/yoinkFilePromiseCreationFolderDD1FF46C-ED86-4442-953A-AE324F8FCE34/addDD1FF46C-ED86-4442-953A-AE324F8FCE34/stock-photo-colorful-parrots-head-closeup-shot-isolated-on-white-98726255.jpg"  transform="matrix(0.5251 0 0 0.5251 16.8511 -71.3333)">
</image>
<path display="none" fill="#D09730" d="M78.3,107c0,0,19-37,24.3-42.3c0-24.7-1.7-25.3,2.7-36.7c0-18.7,0-40-7-47c-1-1.7-1-9,7-3.3
	s15.7,21.7,16.3,31c5.4,11.7,10.7,18.7,27.3,9s48-28,54.3-31.3c6.3-3.3,21.7-12.7,26-6.7c1.7,3.7,2,4.7,1.7,6.7c6-1,13.3-3,15.3,2
	s-4.3,10-6.3,12c2,2,10.7,8-18.3,25.3c0,0,20.3,3.3-20.7,34c-11.3,8.3-22,21-36,27.7c-5.3,4.7-18.3,10.3-27.3,13.3
	c-6.7,6.3-16,21.3-19,30.3s-58.3,4-58.3,4L78.3,107z"/>
<g display="none" opacity="0.4">
	<path display="inline" fill="#BF0426" d="M26,49.3c0,0,17.2,9.9,17.7,25.9c7.5,0.6,12-6.1,12-6.1l-2.6-5.2l-18.4-15L26,49.3z"/>
	<path display="inline" fill="#F91A1B" d="M26.1,50.7c0,0,18.7,6.6,22,22.3c7.5-0.7,10.8-8.1,10.8-8.1l-3.5-4.7L34.6,48.7L26.1,50.7
		z"/>
</g>
<g>
	<path fill="#F2E530" d="M49.8,10.4c19.5,0,35.9,15.6,36.9,35.6c1.1,20.6-14.5,38-34.8,39c-0.6,0-1.2,0-1.7,0
		c-19.5,0-35.9-15.6-36.9-35.6c-1.1-20.6,14.5-38,34.8-39C48.6,10.4,49.2,10.4,49.8,10.4 M49.8,8.2c-0.6,0-1.2,0-1.9,0
		c-10.3,0.5-19.8,5-26.7,12.7c-7.1,7.8-10.7,18-10.1,28.6c1.1,21.1,18.2,37.6,39.1,37.6c0.6,0,1.2,0,1.9,0
		c10.3-0.5,19.8-5,26.7-12.7c7.1-7.8,10.7-18,10.1-28.6C87.8,24.7,70.6,8.2,49.8,8.2L49.8,8.2z"/>
	
		<linearGradient id="SVGID_3_" gradientUnits="userSpaceOnUse" x1="256.8315" y1="345.4546" x2="322.6255" y2="345.4546" gradientTransform="matrix(-0.5679 -0.8231 -0.8231 0.5679 490.1163 97.5025)">
		<stop  offset="0" style="stop-color:#F7941E"/>
		<stop  offset="0.4331" style="stop-color:#FAB21B"/>
		<stop  offset="1" style="stop-color:#FFDE17"/>
	</linearGradient>
	<path fill="url(#SVGID_3_)" d="M32.3,62.6c0.8-0.2,9.4,10.4,18.3,18.9c0.3,0.3,0.7,0.4,1.1,0.4c2.6-0.1,5.2-0.6,7.9-1.4
		c7.2-2.2,9.5-4.5,9.5-4.6c0,0,0,0,0,0c4.2-4.2,2.8-8.6-3-9.8c0,0-22-4.5-27-20.7c-3.1-10.3,0.7-18.9,0.7-18.9
		c2.3-5.5,3.8-9.8,1.8-9.2l-0.7,0.2c-17.5,5.3-28,24.1-22.5,41.5c1,3.3,2.6,6.4,4.5,9.1c0,0,0.9,1,0.5-0.3
		c-2.6-10.4-2.3-21.2-1.6-21c0.8,0.2,2.7,14,5.8,25.8c0.2,0.8,0.7,1.6,1.4,2.1c4.3,3.5,9.4,5.9,14.9,6.9c0.9,0.2,1.6-0.9,1-1.6
		L32.3,62.6z"/>
	
		<linearGradient id="SVGID_4_" gradientUnits="userSpaceOnUse" x1="320.5605" y1="296.8445" x2="386.3545" y2="296.8445" gradientTransform="matrix(-0.6525 0.7578 -0.7578 -0.6525 499.0835 -32.1302)">
		<stop  offset="0" style="stop-color:#F7941E"/>
		<stop  offset="5.870134e-02" style="stop-color:#F8A11A"/>
		<stop  offset="0.2098" style="stop-color:#FBBF10"/>
		<stop  offset="0.3709" style="stop-color:#FDD509"/>
		<stop  offset="0.5445" style="stop-color:#FEE504"/>
		<stop  offset="0.7394" style="stop-color:#FFEF01"/>
		<stop  offset="1" style="stop-color:#FFF200"/>
	</linearGradient>
	<path fill="url(#SVGID_4_)" d="M33.8,32.4c0.8,0.3,10.5-9.3,20.2-16.8c0.3-0.2,0.7-0.3,1.1-0.3c2.6,0.4,5.2,1.2,7.7,2.2
		c6.9,2.9,9,5.5,9,5.6c0,0,0,0,0,0c3.7,4.6,1.9,8.9-4,9.5c0,0-15.9,2.1-22.6,17.8c-4.2,9.9-1.3,18.9-1.3,18.9
		c5.2,15.2-6.3,9.1-6.3,9.1c-16.8-7.1-25.2-27-18-43.7c1.4-3.2,3.2-6.1,5.4-8.5c0,0,1-0.9,0.5,0.4c-3.7,10.1-4.6,20.9-3.8,20.7
		c0.8-0.1,4.2-13.7,8.5-25c0.3-0.8,0.8-1.5,1.6-2c4.6-3,10-4.8,15.6-5.2c0.9-0.1,1.5,1.1,0.8,1.7L33.8,32.4z"/>
	<g>
		<path fill="#2C343B" d="M82.7,56.6c1.9-11.3,1.3-31.5-24.1-41c-1.1-0.4-2.2,0.3-2.3,1.5c-0.4,4.2-0.6,7.6-4.2,12.2
			c-4.2,5.4-0.5,13.6,4.1,12.8c3.9-0.6,18.9,1.7,23.2,14.7C79.9,58.5,82.4,58.3,82.7,56.6z"/>
		<path fill="#2C343B" d="M66.5,50c0,0-5.5,4.7-12.6-5.3c-2.4-2.9-7.4-4.4-9.5,1.6c-2.1,6.1,0.1,5.2-1,8.3c-1.1,3.1-2,14.3,8.1,10
			C61.6,60.3,72.3,50.5,66.5,50z"/>
	</g>
	<circle fill="#54626C" cx="33.3" cy="35.1" r="4"/>
	<g>
		<circle opacity="0.4" fill="#FFFFFF" cx="33.3" cy="35.1" r="5.2"/>
		<circle fill="#54626C" cx="33.3" cy="35.1" r="4"/>
		<circle fill="#120E14" cx="33.3" cy="35.1" r="2.2"/>
	</g>
</g>
</svg>
